<?xml version="1.0" encoding="UTF-8" standalone="no"?>
<svg
   xmlns:dc="http://purl.org/dc/elements/1.1/"
   xmlns:cc="http://creativecommons.org/ns#"
   xmlns:rdf="http://www.w3.org/1999/02/22-rdf-syntax-ns#"
   xmlns:svg="http://www.w3.org/2000/svg"
   xmlns="http://www.w3.org/2000/svg"
   xmlns:sodipodi="http://sodipodi.sourceforge.net/DTD/sodipodi-0.dtd"
   xmlns:inkscape="http://www.inkscape.org/namespaces/inkscape"
   width="1000"
   height="1000"
   viewBox="0 0 264.58333 264.58334"
   version="1.1"
   id="svg8"
   sodipodi:docname="facebook.svg"
   inkscape:version="0.92.4 (5da689c313, 2019-01-14)">
  <sodipodi:namedview
     pagecolor="#ffffff"
     bordercolor="#666666"
     borderopacity="1"
     objecttolerance="10"
     gridtolerance="10"
     guidetolerance="10"
     inkscape:pageopacity="0"
     inkscape:pageshadow="2"
     inkscape:window-width="1366"
     inkscape:window-height="705"
     id="namedview10"
     showgrid="false"
     inkscape:zoom="0.236"
     inkscape:cx="500"
     inkscape:cy="634.23389"
     inkscape:window-x="-8"
     inkscape:window-y="-8"
     inkscape:window-maximized="1"
     inkscape:current-layer="layer2" />
  <defs
     id="defs2" />
  <metadata
     id="metadata5">
    <rdf:RDF>
      <cc:Work
         rdf:about="">
        <dc:format>image/svg+xml</dc:format>
        <dc:type
           rdf:resource="http://purl.org/dc/dcmitype/StillImage" />
        <dc:title></dc:title>
      </cc:Work>
    </rdf:RDF>
  </metadata>
  <g
     inkscape:groupmode="layer"
     id="layer1"
     inkscape:label="Fundo"
     style="display:inline"
     sodipodi:insensitive="true">
    <a
       id="a881">
      <g
         transform="matrix(2.2753914,0,0,-2.2753914,247.01897,137.13874)"
         id="g292">
        <path
           inkscape:connector-curvature="0"
           id="path294"
           style="fill:#3c3c3b;fill-opacity:1;fill-rule:nonzero;stroke:none"
           d="m 0,0 c 0,-34.839 -15.895,-49.094 -50.73,-49.094 -34.838,0 -50.733,14.255 -50.733,49.094 0,34.837 15.895,52.369 50.733,52.369 C -15.895,52.369 0,34.837 0,0" />
      </g>
    </a>
  </g>
  <g
     inkscape:groupmode="layer"
     id="layer2"
     inkscape:label="Ãcone"
     style="display:inline">
    <g
       style="display:inline;fill:#ffffff"
       id="g32"
       transform="matrix(2.0716148,0,0,-2.0716148,135.41553,105.56166)">
      <path
         d="m 0,0 v 5.872 c 0,2.861 1.908,3.527 3.247,3.527 h 8.237 V 21.98 L 0.14,22.029 c -12.591,0 -15.453,-9.385 -15.453,-15.392 V 0 h -7.282 v -8.872 -5.811 h 7.344 v -36.713 h 14.684 v 36.713 H 10.332 L 10.859,-8.916 11.67,0 Z"
         style="fill:#ffffff;fill-opacity:1;fill-rule:nonzero;stroke:none"
         id="path34"
         inkscape:connector-curvature="0" />
    </g>
  </g>
</svg>
