<?xml version="1.0" encoding="UTF-8" standalone="no"?>
<svg
   xmlns:dc="http://purl.org/dc/elements/1.1/"
   xmlns:cc="http://creativecommons.org/ns#"
   xmlns:rdf="http://www.w3.org/1999/02/22-rdf-syntax-ns#"
   xmlns:svg="http://www.w3.org/2000/svg"
   xmlns="http://www.w3.org/2000/svg"
   xmlns:sodipodi="http://sodipodi.sourceforge.net/DTD/sodipodi-0.dtd"
   xmlns:inkscape="http://www.inkscape.org/namespaces/inkscape"
   viewBox="0 0 2500 2500"
   width="2500"
   height="2500"
   version="1.1"
   id="svg18"
   sodipodi:docname="instagram.svg"
   inkscape:version="0.92.4 (5da689c313, 2019-01-14)">
  <metadata
     id="metadata22">
    <rdf:RDF>
      <cc:Work
         rdf:about="">
        <dc:format>image/svg+xml</dc:format>
        <dc:type
           rdf:resource="http://purl.org/dc/dcmitype/StillImage" />
        <dc:title></dc:title>
      </cc:Work>
    </rdf:RDF>
  </metadata>
  <sodipodi:namedview
     pagecolor="#ffffff"
     bordercolor="#666666"
     borderopacity="1"
     objecttolerance="10"
     gridtolerance="10"
     guidetolerance="10"
     inkscape:pageopacity="0"
     inkscape:pageshadow="2"
     inkscape:window-width="1366"
     inkscape:window-height="705"
     id="namedview20"
     showgrid="false"
     inkscape:zoom="0.0472"
     inkscape:cx="-559.08907"
     inkscape:cy="866.35273"
     inkscape:window-x="-8"
     inkscape:window-y="-8"
     inkscape:window-maximized="1"
     inkscape:current-layer="svg18" />
  <defs
     id="defs12">
    <radialGradient
       id="0"
       cx="332.14"
       cy="2511.81"
       r="3263.54"
       gradientUnits="userSpaceOnUse"
       gradientTransform="matrix(0.89376411,0,0,0.89376411,132.78955,132.79487)">
      <stop
         offset=".09"
         stop-color="#fa8f21"
         id="stop2" />
      <stop
         offset=".78"
         stop-color="#d82d7e"
         id="stop4" />
    </radialGradient>
    <radialGradient
       id="1"
       cx="1516.14"
       cy="2623.81"
       r="2572.12"
       gradientUnits="userSpaceOnUse"
       gradientTransform="matrix(0.89376411,0,0,0.89376411,132.78955,132.79487)">
      <stop
         offset=".64"
         stop-color="#8c3aaa"
         stop-opacity="0"
         id="stop7" />
      <stop
         offset="1"
         stop-color="#8c3aaa"
         id="stop9" />
    </radialGradient>
  </defs>
  <path
     d="m 877.65255,1250 c 0,-205.664 166.67815,-372.4315 372.34215,-372.4315 205.6641,0 372.4315,166.7675 372.4315,372.4315 0,205.664 -166.7674,372.4315 -372.4315,372.4315 -205.664,0 -372.34215,-166.7675 -372.34215,-372.4315 m -201.32929,0 c 0,316.8394 256.83205,573.6714 573.67144,573.6714 316.8394,0 573.6714,-256.832 573.6714,-573.6714 0,-316.83937 -256.832,-573.67142 -573.6714,-573.67142 -316.83939,0 -573.67144,256.83205 -573.67144,573.67142 M 1712.3121,653.58227 a 134.06462,134.06462 0 1 0 134.1182,-134.01098 h -0.054 A 134.12718,134.12718 0 0 0 1712.3116,653.58227 M 798.64381,2159.3782 c -108.92302,-4.9604 -168.12596,-23.1039 -207.46946,-38.4319 -52.16007,-20.3063 -89.37641,-44.4916 -128.50539,-83.5669 -39.12901,-39.0754 -63.35001,-76.256 -83.56696,-128.4161 -15.33699,-39.3256 -33.4804,-98.5464 -38.43186,-207.4695 -5.41621,-117.7622 -6.49765,-153.1375 -6.49765,-451.4848 0,-298.34745 1.17083,-333.62432 6.49765,-451.485 4.96041,-108.92303 23.23788,-168.02765 38.43186,-207.46947 20.30632,-52.16006 44.49158,-89.37641 83.56696,-128.50539 39.07535,-39.129 76.25594,-63.35001 128.50539,-83.56695 39.32563,-15.337 98.54644,-33.4804 207.46946,-38.43185 117.76236,-5.41621 153.13755,-6.49767 451.35089,-6.49767 298.2132,0 333.6242,1.17083 451.4849,6.49767 108.923,4.96039 168.0277,23.23786 207.4695,38.43185 52.1601,20.21694 89.3764,44.49158 128.5054,83.56695 39.1289,39.07535 63.2607,76.34533 83.5669,128.50539 15.3369,39.32563 33.4805,98.54644 38.4319,207.46947 5.4162,117.86068 6.4977,153.13755 6.4977,451.485 0,298.3473 -1.0815,333.6242 -6.4977,451.4848 -4.9604,108.9231 -23.1932,168.1261 -38.4319,207.4695 -20.3062,52.1601 -44.4915,89.3765 -83.5669,128.4161 -39.0753,39.0396 -76.3453,63.2606 -128.5054,83.5669 -39.3257,15.337 -98.5465,33.4804 -207.4695,38.4319 -117.7623,5.4162 -153.1375,6.4977 -451.4849,6.4977 -298.34741,0 -333.62428,-1.0815 -451.35089,-6.4977 M 789.39336,139.56067 c -118.93319,5.4162 -200.20317,24.27462 -271.17698,51.89193 -73.50315,28.52001 -135.72701,66.78206 -197.90618,128.86292 -62.17917,62.08085 -100.3429,124.40302 -128.86291,197.90618 -27.61731,71.01849 -46.47573,152.24378 -51.89194,271.17696 -5.50559,119.12089 -6.7658,157.20418 -6.7658,460.60134 0,303.3971 1.26021,341.4805 6.7658,460.6013 5.41621,118.9422 24.27463,200.1585 51.89194,271.177 28.52001,73.4585 66.69268,135.8522 128.86291,197.9062 62.17023,62.0541 124.40303,100.2624 197.90618,128.8629 71.10788,27.6173 152.24379,46.4757 271.17698,51.8919 119.18344,5.4163 157.20416,6.7658 460.60134,6.7658 303.3971,0 341.4805,-1.2602 460.6013,-6.7658 118.9421,-5.4162 200.1585,-24.2746 271.177,-51.8919 73.4584,-28.6005 135.727,-66.7821 197.9061,-128.8629 62.1793,-62.0808 100.2625,-124.4477 128.863,-197.9062 27.6173,-71.0185 46.5651,-152.2437 51.8919,-271.177 5.4163,-119.2103 6.6764,-157.2042 6.6764,-460.6013 0,-303.39716 -1.2601,-341.48045 -6.6764,-460.60134 -5.4162,-118.94211 -24.2746,-200.20316 -51.8919,-271.17696 -28.6005,-73.45847 -66.7821,-135.72701 -128.863,-197.90618 -62.0807,-62.17917 -124.4477,-100.34291 -197.8168,-128.86292 -71.1078,-27.61731 -152.333,-46.56511 -271.1769,-51.89193 -119.1209,-5.41622 -157.2043,-6.7658 -460.6014,-6.7658 -303.39711,0 -341.5072,1.2602 -460.69064,6.7658"
     id="path14"
     style="fill:url(#0);stroke-width:0.89376408"
     inkscape:connector-curvature="0" />
  <path
     d="m 877.65255,1250 c 0,-205.664 166.67815,-372.4315 372.34215,-372.4315 205.6641,0 372.4315,166.7675 372.4315,372.4315 0,205.664 -166.7674,372.4315 -372.4315,372.4315 -205.664,0 -372.34215,-166.7675 -372.34215,-372.4315 m -201.32929,0 c 0,316.8394 256.83205,573.6714 573.67144,573.6714 316.8394,0 573.6714,-256.832 573.6714,-573.6714 0,-316.83937 -256.832,-573.67142 -573.6714,-573.67142 -316.83939,0 -573.67144,256.83205 -573.67144,573.67142 M 1712.3121,653.58227 a 134.06462,134.06462 0 1 0 134.1182,-134.01098 h -0.054 A 134.12718,134.12718 0 0 0 1712.3116,653.58227 M 798.64381,2159.3782 c -108.92302,-4.9604 -168.12596,-23.1039 -207.46946,-38.4319 -52.16007,-20.3063 -89.37641,-44.4916 -128.50539,-83.5669 -39.12901,-39.0754 -63.35001,-76.256 -83.56696,-128.4161 -15.33699,-39.3256 -33.4804,-98.5464 -38.43186,-207.4695 -5.41621,-117.7622 -6.49765,-153.1375 -6.49765,-451.4848 0,-298.34745 1.17083,-333.62432 6.49765,-451.485 4.96041,-108.92303 23.23788,-168.02765 38.43186,-207.46947 20.30632,-52.16006 44.49158,-89.37641 83.56696,-128.50539 39.07535,-39.129 76.25594,-63.35001 128.50539,-83.56695 39.32563,-15.337 98.54644,-33.4804 207.46946,-38.43185 117.76236,-5.41621 153.13755,-6.49767 451.35089,-6.49767 298.2132,0 333.6242,1.17083 451.4849,6.49767 108.923,4.96039 168.0277,23.23786 207.4695,38.43185 52.1601,20.21694 89.3764,44.49158 128.5054,83.56695 39.1289,39.07535 63.2607,76.34533 83.5669,128.50539 15.3369,39.32563 33.4805,98.54644 38.4319,207.46947 5.4162,117.86068 6.4977,153.13755 6.4977,451.485 0,298.3473 -1.0815,333.6242 -6.4977,451.4848 -4.9604,108.9231 -23.1932,168.1261 -38.4319,207.4695 -20.3062,52.1601 -44.4915,89.3765 -83.5669,128.4161 -39.0753,39.0396 -76.3453,63.2606 -128.5054,83.5669 -39.3257,15.337 -98.5465,33.4804 -207.4695,38.4319 -117.7623,5.4162 -153.1375,6.4977 -451.4849,6.4977 -298.34741,0 -333.62428,-1.0815 -451.35089,-6.4977 M 789.39336,139.56067 c -118.93319,5.4162 -200.20317,24.27462 -271.17698,51.89193 -73.50315,28.52001 -135.72701,66.78206 -197.90618,128.86292 -62.17917,62.08085 -100.3429,124.40302 -128.86291,197.90618 -27.61731,71.01849 -46.47573,152.24378 -51.89194,271.17696 -5.50559,119.12089 -6.7658,157.20418 -6.7658,460.60134 0,303.3971 1.26021,341.4805 6.7658,460.6013 5.41621,118.9422 24.27463,200.1585 51.89194,271.177 28.52001,73.4585 66.69268,135.8522 128.86291,197.9062 62.17023,62.0541 124.40303,100.2624 197.90618,128.8629 71.10788,27.6173 152.24379,46.4757 271.17698,51.8919 119.18344,5.4163 157.20416,6.7658 460.60134,6.7658 303.3971,0 341.4805,-1.2602 460.6013,-6.7658 118.9421,-5.4162 200.1585,-24.2746 271.177,-51.8919 73.4584,-28.6005 135.727,-66.7821 197.9061,-128.8629 62.1793,-62.0808 100.2625,-124.4477 128.863,-197.9062 27.6173,-71.0185 46.5651,-152.2437 51.8919,-271.177 5.4163,-119.2103 6.6764,-157.2042 6.6764,-460.6013 0,-303.39716 -1.2601,-341.48045 -6.6764,-460.60134 -5.4162,-118.94211 -24.2746,-200.20316 -51.8919,-271.17696 -28.6005,-73.45847 -66.7821,-135.72701 -128.863,-197.90618 -62.0807,-62.17917 -124.4477,-100.34291 -197.8168,-128.86292 -71.1078,-27.61731 -152.333,-46.56511 -271.1769,-51.89193 -119.1209,-5.41622 -157.2043,-6.7658 -460.6014,-6.7658 -303.39711,0 -341.5072,1.2602 -460.69064,6.7658"
     id="path16"
     style="fill:url(#1);stroke-width:0.89376408"
     inkscape:connector-curvature="0" />
</svg>
