<?xml version="1.0" encoding="UTF-8" standalone="no"?>
<svg
   xmlns:dc="http://purl.org/dc/elements/1.1/"
   xmlns:cc="http://creativecommons.org/ns#"
   xmlns:rdf="http://www.w3.org/1999/02/22-rdf-syntax-ns#"
   xmlns:svg="http://www.w3.org/2000/svg"
   xmlns="http://www.w3.org/2000/svg"
   xmlns:sodipodi="http://sodipodi.sourceforge.net/DTD/sodipodi-0.dtd"
   xmlns:inkscape="http://www.inkscape.org/namespaces/inkscape"
   width="1000"
   height="1000"
   viewBox="0 0 264.58333 264.58334"
   version="1.1"
   id="svg8"
   sodipodi:docname="linkedin.svg"
   inkscape:version="0.92.4 (5da689c313, 2019-01-14)">
  <sodipodi:namedview
     pagecolor="#ffffff"
     bordercolor="#666666"
     borderopacity="1"
     objecttolerance="10"
     gridtolerance="10"
     guidetolerance="10"
     inkscape:pageopacity="0"
     inkscape:pageshadow="2"
     inkscape:window-width="1366"
     inkscape:window-height="705"
     id="namedview10"
     showgrid="false"
     inkscape:zoom="0.236"
     inkscape:cx="500"
     inkscape:cy="634.23389"
     inkscape:window-x="-8"
     inkscape:window-y="-8"
     inkscape:window-maximized="1"
     inkscape:current-layer="layer2" />
  <defs
     id="defs2" />
  <metadata
     id="metadata5">
    <rdf:RDF>
      <cc:Work
         rdf:about="">
        <dc:format>image/svg+xml</dc:format>
        <dc:type
           rdf:resource="http://purl.org/dc/dcmitype/StillImage" />
        <dc:title></dc:title>
      </cc:Work>
    </rdf:RDF>
  </metadata>
  <g
     inkscape:groupmode="layer"
     id="layer1"
     inkscape:label="Fundo"
     style="display:inline"
     sodipodi:insensitive="true">
    <a
       id="a881">
      <g
         transform="matrix(2.2753914,0,0,-2.2753914,247.01897,137.13874)"
         id="g292">
        <path
           inkscape:connector-curvature="0"
           id="path294"
           style="fill:#3c3c3b;fill-opacity:1;fill-rule:nonzero;stroke:none"
           d="m 0,0 c 0,-34.839 -15.895,-49.094 -50.73,-49.094 -34.838,0 -50.733,14.255 -50.733,49.094 0,34.837 15.895,52.369 50.733,52.369 C -15.895,52.369 0,34.837 0,0" />
      </g>
    </a>
  </g>
  <g
     inkscape:groupmode="layer"
     id="layer2"
     inkscape:label="Ãcone"
     style="display:inline">
    <g
       id="g68"
       transform="matrix(2.0934841,0,0,-2.0934841,57.733094,131.6349)"
       style="fill:#ffffff">
      <path
         d="M 0,0 V -35.958 H 17.134 V 2.891 12.99 H 0 Z"
         style="fill:#ffffff;fill-opacity:1;fill-rule:nonzero;stroke:none"
         id="path70"
         inkscape:connector-curvature="0" />
    </g>
    <g
       id="g72"
       transform="matrix(2.0934841,0,0,-2.0934841,75.670694,53.202752)"
       style="fill:#ffffff">
      <path
         d="m 0,0 c -4.731,0 -8.568,-3.835 -8.568,-8.566 0,-4.731 3.837,-8.566 8.568,-8.566 4.731,0 8.566,3.835 8.566,8.566 C 8.566,-3.835 4.731,0 0,0"
         style="fill:#ffffff;fill-opacity:1;fill-rule:nonzero;stroke:none"
         id="path74"
         inkscape:connector-curvature="0" />
    </g>
    <g
       id="g76"
       transform="matrix(2.0934841,0,0,-2.0934841,210.66274,135.90355)"
       style="fill:#ffffff">
      <path
         d="m 0,0 c -1.16,9.226 -5.397,15.029 -17.871,15.029 -7.398,0 -12.367,-2.748 -14.398,-6.605 h -0.211 v 6.605 H -46.126 V 5.637 -33.919 h 14.264 v 24.26 c 0,6.4 1.208,12.593 9.122,12.593 7.798,0 8.426,-7.315 8.426,-13.005 V -33.919 H 0.373 V -7.021 H 0.375 C 0.375,-4.512 0.271,-2.162 0,0"
         style="fill:#ffffff;fill-opacity:1;fill-rule:nonzero;stroke:none"
         id="path78"
         inkscape:connector-curvature="0" />
    </g>
  </g>
</svg>
