<?xml version="1.0" encoding="UTF-8" standalone="no"?>
<svg
   xmlns:dc="http://purl.org/dc/elements/1.1/"
   xmlns:cc="http://creativecommons.org/ns#"
   xmlns:rdf="http://www.w3.org/1999/02/22-rdf-syntax-ns#"
   xmlns:svg="http://www.w3.org/2000/svg"
   xmlns="http://www.w3.org/2000/svg"
   xmlns:sodipodi="http://sodipodi.sourceforge.net/DTD/sodipodi-0.dtd"
   xmlns:inkscape="http://www.inkscape.org/namespaces/inkscape"
   width="1000"
   height="1000"
   viewBox="0 0 264.58333 264.58334"
   version="1.1"
   id="svg8"
   sodipodi:docname="smartphone.svg"
   inkscape:version="0.92.4 (5da689c313, 2019-01-14)">
  <sodipodi:namedview
     pagecolor="#ffffff"
     bordercolor="#666666"
     borderopacity="1"
     objecttolerance="10"
     gridtolerance="10"
     guidetolerance="10"
     inkscape:pageopacity="0"
     inkscape:pageshadow="2"
     inkscape:window-width="1366"
     inkscape:window-height="705"
     id="namedview10"
     showgrid="false"
     inkscape:zoom="0.236"
     inkscape:cx="1327.7787"
     inkscape:cy="504.10732"
     inkscape:window-x="-8"
     inkscape:window-y="-8"
     inkscape:window-maximized="1"
     inkscape:current-layer="layer2" />
  <defs
     id="defs2" />
  <metadata
     id="metadata5">
    <rdf:RDF>
      <cc:Work
         rdf:about="">
        <dc:format>image/svg+xml</dc:format>
        <dc:type
           rdf:resource="http://purl.org/dc/dcmitype/StillImage" />
        <dc:title></dc:title>
      </cc:Work>
    </rdf:RDF>
  </metadata>
  <g
     inkscape:groupmode="layer"
     id="layer1"
     inkscape:label="Fundo"
     style="display:inline" />
  <g
     inkscape:groupmode="layer"
     id="layer2"
     inkscape:label="Ãcone"
     style="display:inline">
    <path
       style="fill:#3f3d56;stroke-width:4.36584568;fill-opacity:1"
       id="path8"
       d="m 133.97411,11.517897 h 0.002 v 0.02812 c 33.33585,4.8e-4 63.50559,13.500067 85.32608,35.32231 21.8205,21.820933 35.31969,51.988489 35.321,85.321713 h 0.0279 v 0.006 h -0.0279 c -4.8e-4,33.33629 -13.50006,63.50559 -35.32231,85.32609 -21.82137,21.82049 -51.98849,35.31969 -85.32172,35.321 v 0.0279 h -0.006 v -0.0279 C 100.63743,252.84234 70.467687,239.34274 48.64719,217.5205 26.826694,195.69913 13.327499,165.53201 13.32619,132.19878 h -0.02807 v -0.006 h 0.02807 c 5.23e-4,-33.335851 13.500067,-63.50559 35.32231,-85.326087 21.820933,-21.820496 51.98849,-35.319691 85.32172,-35.321 v -0.02812 h 0.004 z m 0.002,14.393756 v 0.02816 h -0.006 v -0.02816 C 104.6544,25.912439 78.091719,37.818624 58.842706,57.063708 39.596312,76.310101 27.689778,102.87453 27.689341,132.19118 h 0.02812 v 0.006 h -0.02812 c 7.86e-4,29.31578 11.906971,55.87846 31.152055,75.12748 19.246394,19.24639 45.810814,31.15292 75.127474,31.15336 v -0.0279 h 0.006 v 0.0279 c 29.31578,-7.3e-4 55.87846,-11.90697 75.12747,-31.15205 19.2464,-19.2464 31.15293,-45.81082 31.15337,-75.12748 h -0.0279 v -0.006 h 0.0279 C 240.2546,102.87671 228.34841,76.314031 209.10332,57.065017 189.85693,37.818624 163.29251,25.912089 133.97585,25.911653 Z"
       class="fil1"
       inkscape:connector-curvature="0" />
    <path
       inkscape:connector-curvature="0"
       id="path8494"
       d="m 99.296838,61.798929 c -4.513537,0 -8.147706,6.344115 -8.147706,14.224359 V 191.07914 c 0,7.8803 3.634169,14.22429 8.147706,14.22429 h 65.906522 c 4.51418,0 8.14835,-6.34399 8.14835,-14.22429 V 76.023288 c 0,-7.880244 -3.63417,-14.224359 -8.14835,-14.224359 z m 24.484842,4.899966 h 16.93683 c 1.50127,0 2.70788,1.206739 2.70788,2.707796 0,1.500928 -1.20661,2.707732 -2.70788,2.707732 h -16.93683 c -1.50061,0 -2.70786,-1.206804 -2.70786,-2.707732 0,-1.501057 1.20725,-2.707796 2.70786,-2.707796 z M 98.210823,78.210437 H 166.28937 V 187.94098 H 98.210823 Z M 132.2501,191.32932 a 4.4027659,4.4027659 0 0 1 4.40467,4.40449 4.4027659,4.4027659 0 0 1 -4.40467,4.39939 4.4027659,4.4027659 0 0 1 -4.40403,-4.39939 4.4027659,4.4027659 0 0 1 4.40403,-4.40449 z"
       style="opacity:1;fill:#3f3d56;fill-opacity:1;fill-rule:nonzero;stroke:none;stroke-width:0.11062373;stroke-linecap:round;stroke-linejoin:miter;stroke-miterlimit:4;stroke-dasharray:none;stroke-dashoffset:0;stroke-opacity:1;paint-order:stroke fill markers" />
    <path
       style="opacity:1;fill:#3f3d56;fill-opacity:0.20987657;stroke:none;stroke-width:0.37705675;stroke-linecap:square;stroke-linejoin:miter;stroke-miterlimit:4;stroke-dasharray:none;stroke-opacity:1;paint-order:markers fill stroke"
       d="M 96.106196,133.18971 V 73.830767 h 36.413474 36.41346 v 59.358943 59.35894 H 132.51967 96.106196 Z"
       id="path861"
       inkscape:connector-curvature="0" />
  </g>
</svg>
