<?xml version="1.0" encoding="UTF-8" standalone="no"?>
<svg
   xmlns:dc="http://purl.org/dc/elements/1.1/"
   xmlns:cc="http://creativecommons.org/ns#"
   xmlns:rdf="http://www.w3.org/1999/02/22-rdf-syntax-ns#"
   xmlns:svg="http://www.w3.org/2000/svg"
   xmlns="http://www.w3.org/2000/svg"
   xmlns:sodipodi="http://sodipodi.sourceforge.net/DTD/sodipodi-0.dtd"
   xmlns:inkscape="http://www.inkscape.org/namespaces/inkscape"
   width="1000"
   height="1000"
   viewBox="0 0 264.58333 264.58334"
   version="1.1"
   id="svg8"
   sodipodi:docname="youtube.svg"
   inkscape:version="0.92.4 (5da689c313, 2019-01-14)">
  <sodipodi:namedview
     pagecolor="#ffffff"
     bordercolor="#666666"
     borderopacity="1"
     objecttolerance="10"
     gridtolerance="10"
     guidetolerance="10"
     inkscape:pageopacity="0"
     inkscape:pageshadow="2"
     inkscape:window-width="1366"
     inkscape:window-height="705"
     id="namedview10"
     showgrid="false"
     inkscape:zoom="0.236"
     inkscape:cx="500"
     inkscape:cy="634.23389"
     inkscape:window-x="-8"
     inkscape:window-y="-8"
     inkscape:window-maximized="1"
     inkscape:current-layer="layer2" />
  <defs
     id="defs2" />
  <metadata
     id="metadata5">
    <rdf:RDF>
      <cc:Work
         rdf:about="">
        <dc:format>image/svg+xml</dc:format>
        <dc:type
           rdf:resource="http://purl.org/dc/dcmitype/StillImage" />
        <dc:title></dc:title>
      </cc:Work>
    </rdf:RDF>
  </metadata>
  <g
     inkscape:groupmode="layer"
     id="layer1"
     inkscape:label="Fundo"
     style="display:inline"
     sodipodi:insensitive="true">
    <a
       id="a881">
      <g
         transform="matrix(2.2753914,0,0,-2.2753914,247.01897,137.13874)"
         id="g292">
        <path
           inkscape:connector-curvature="0"
           id="path294"
           style="fill:#3c3c3b;fill-opacity:1;fill-rule:nonzero;stroke:none"
           d="m 0,0 c 0,-34.839 -15.895,-49.094 -50.73,-49.094 -34.838,0 -50.733,14.255 -50.733,49.094 0,34.837 15.895,52.369 50.733,52.369 C -15.895,52.369 0,34.837 0,0" />
      </g>
    </a>
  </g>
  <g
     inkscape:groupmode="layer"
     id="layer2"
     inkscape:label="Ãcone"
     style="display:inline">
    <g
       id="g56"
       transform="matrix(2.060134,0,0,-2.060134,155.87702,137.10675)"
       style="fill:#ffffff">
      <path
         d="m 0,0 -19.83,-10.714 -0.005,16.495 v 5.014 l 8.943,-4.867 z m 23.722,14.525 c 0,0 -0.715,5.28 -2.914,7.602 -2.793,3.045 -5.923,3.065 -7.353,3.242 -10.281,0.77 -25.689,0.77 -25.689,0.77 h -0.034 c 0,0 -15.417,0 -25.688,-0.774 -1.435,-0.173 -4.56,-0.193 -7.357,-3.24 -2.197,-2.322 -2.915,-7.602 -2.915,-7.602 0,0 -0.736,-6.192 -0.736,-12.39 V 1.387 -3.671 c 0,-6.201 0.736,-12.395 0.736,-12.395 0,0 0.718,-5.277 2.915,-7.598 2.797,-3.05 6.469,-2.953 8.098,-3.27 5.875,-0.586 24.963,-0.771 24.963,-0.771 0,0 15.426,0.029 25.707,0.798 1.43,0.18 4.56,0.193 7.353,3.245 2.199,2.322 2.914,7.598 2.914,7.598 0,0 0.738,6.192 0.738,12.393 v 4.735 1.069 c 0,6.198 -0.738,12.392 -0.738,12.392"
         style="fill:#ffffff;fill-opacity:1;fill-rule:nonzero;stroke:none"
         id="path58"
         inkscape:connector-curvature="0" />
    </g>
  </g>
</svg>
