<?xml version="1.0" encoding="UTF-8" standalone="no"?>
<svg
   xmlns:dc="http://purl.org/dc/elements/1.1/"
   xmlns:cc="http://creativecommons.org/ns#"
   xmlns:rdf="http://www.w3.org/1999/02/22-rdf-syntax-ns#"
   xmlns:svg="http://www.w3.org/2000/svg"
   xmlns="http://www.w3.org/2000/svg"
   xmlns:sodipodi="http://sodipodi.sourceforge.net/DTD/sodipodi-0.dtd"
   xmlns:inkscape="http://www.inkscape.org/namespaces/inkscape"
   width="1000"
   height="1000"
   viewBox="0 0 264.58333 264.58334"
   version="1.1"
   id="svg8"
   sodipodi:docname="favicon.svg"
   inkscape:version="0.92.4 (5da689c313, 2019-01-14)">
  <sodipodi:namedview
     pagecolor="#ffffff"
     bordercolor="#666666"
     borderopacity="1"
     objecttolerance="10"
     gridtolerance="10"
     guidetolerance="10"
     inkscape:pageopacity="0"
     inkscape:pageshadow="2"
     inkscape:window-width="1366"
     inkscape:window-height="705"
     id="namedview10"
     showgrid="false"
     inkscape:zoom="0.236"
     inkscape:cx="-163.35625"
     inkscape:cy="87.018521"
     inkscape:window-x="-8"
     inkscape:window-y="-8"
     inkscape:window-maximized="1"
     inkscape:current-layer="layer2"
     inkscape:snap-global="false" />
  <defs
     id="defs2" />
  <metadata
     id="metadata5">
    <rdf:RDF>
      <cc:Work
         rdf:about="">
        <dc:format>image/svg+xml</dc:format>
        <dc:type
           rdf:resource="http://purl.org/dc/dcmitype/StillImage" />
        <dc:title></dc:title>
      </cc:Work>
    </rdf:RDF>
  </metadata>
  <g
     inkscape:groupmode="layer"
     id="layer1"
     inkscape:label="Fundo"
     style="display:inline" />
  <g
     inkscape:groupmode="layer"
     id="layer2"
     inkscape:label="Ãcone"
     style="display:inline">
    <path
       style="fill:#ff5757;fill-opacity:1;stroke-width:0.57649261"
       d="m 133.41751,35.525084 c 2.18314,0 10.71834,13.689163 14.03174,22.504609 3.00718,8.000701 3.54002,11.211396 3.54002,21.308823 0,8.95204 -0.0974,9.800666 -1.65516,14.412309 -1.84046,5.448678 -3.96029,9.897645 -7.08005,14.853705 -3.62005,5.75086 -5.95904,7.67302 -6.76816,5.56451 -0.19246,-0.50154 -0.35017,-9.16006 -0.35017,-19.241582 0,-15.853805 -0.11995,-18.430057 -0.89289,-19.071538 -0.73897,-0.613287 -1.06331,-0.572171 -1.8736,0.238695 -0.88887,0.889502 -0.96246,2.652513 -0.7893,18.974731 0.20971,19.767624 0.0381,21.001694 -2.6629,19.109824 -0.72542,-0.50811 -1.95827,-1.87531 -2.73947,-3.03785 -0.7812,-1.16251 -2.05544,-3.06107 -2.83179,-4.21899 -2.27777,-3.39725 -5.29038,-9.673918 -6.87513,-14.324476 -4.88338,-14.330601 -2.06095,-31.728615 7.51242,-46.301833 3.76388,-5.729599 8.17973,-10.770937 9.43444,-10.770937 z"
       id="path1031"
       inkscape:export-xdpi="63.490002"
       inkscape:export-ydpi="63.490002" />
    <path
       style="fill:#ff5757;fill-opacity:1;stroke-width:2.17886972"
       d="M 790.80273 212.20312 C 786.63547 212.30854 781.13444 212.99135 773.87695 213.95312 C 753.18249 216.69599 748.42967 217.87274 724.84961 226.08594 C 679.67171 241.82189 643.00434 273.51216 621.83789 315.11719 C 613.48374 331.53822 605.7991 363.28671 603.54688 390.67969 C 602.48388 403.60854 602.90045 406.95709 605.93945 409.99609 C 609.11622 413.17286 612.59504 413.47063 631.54102 412.19141 C 655.37457 410.5822 655.9062 410.46574 689.2168 399.75781 C 748.04446 380.84714 784.96501 336.61411 800.77734 266.09375 C 802.38958 258.90352 803.73176 244.82047 803.75977 234.79688 C 803.81003 216.76012 803.30458 211.88714 790.80273 212.20312 z M 781.64453 228.17969 C 790.82779 228.40462 790.41401 234.69301 788.125 251.70508 C 778.92952 320.04651 738.65033 370.46527 678.08008 389.45508 C 656.57207 396.19821 639.30273 397.72856 639.30273 392.89258 C 639.30273 388.62254 647.89562 377.83941 658.91211 368.28711 C 664.30481 363.61106 678.49979 349.70552 690.45508 337.38672 C 708.71723 318.56928 711.81776 314.38958 709.84375 311.24023 C 704.39552 302.54809 699.76058 305.65544 663.55078 342.27148 C 643.95197 362.09024 626.57458 378.30469 624.93555 378.30469 C 614.08679 378.30469 625.6038 334.60815 643.91992 306.26953 C 667.56737 269.68231 707.03749 243.81919 756.40039 232.55859 C 767.12469 230.11211 774.58815 228.4858 779.67773 228.21289 C 780.37755 228.17537 781.03231 228.16469 781.64453 228.17969 z "
       transform="scale(0.26458333)"
       id="path1021"
       inkscape:export-xdpi="63.490002"
       inkscape:export-ydpi="63.490002" />
    <path
       style="fill:#ff5757;fill-opacity:1;stroke-width:2.17886972"
       d="M 214.40234 213.08008 C 202.44461 213.23655 200.88451 217.92845 201.99219 234.27734 C 205.11149 280.3164 217.08471 314.65119 241.2168 346.75391 C 266.84647 380.84894 313.76518 406.58921 358.22852 410.95312 C 367.21635 411.83527 380.19273 412.69807 387.06055 412.86523 C 398.8275 413.15248 399.62827 412.83779 400.98047 407.45117 C 402.86275 399.95153 400.47994 364.35366 397.35352 353.24805 C 396.00407 348.45448 393.84673 340.60989 392.55859 335.81641 C 391.27042 331.02292 385.71801 318.35559 380.2168 307.66602 C 353.87242 256.47481 293.19804 219.84022 224.4375 213.60938 C 220.47508 213.25032 217.16183 213.04384 214.40234 213.08008 z M 226.0957 229.17578 C 229.62261 229.28202 234.36245 230.00595 240.625 231.02734 C 307.45416 241.92683 356.69767 280.24424 377.40039 337.45898 C 383.8149 355.1861 386.86414 374.3683 383.76172 377.4707 C 381.12686 380.10557 371.81542 372.06899 340.63477 340.23828 C 315.08703 314.15789 308.53429 308.58008 303.42383 308.58008 C 290.25515 308.58008 295.43352 316.65325 332.08203 353.24805 C 351.25608 372.39399 366.94336 389.78528 366.94336 391.89648 C 366.94336 394.98432 365.13344 395.705 357.68359 395.57812 C 347.20232 395.39935 316.30308 385.94195 301.57812 378.40625 C 256.51688 355.34566 226.97908 310.84501 218.65234 253.4668 C 215.83998 234.0873 215.51498 228.85585 226.0957 229.17578 z "
       transform="scale(0.26458333)"
       id="path1019"
       inkscape:export-xdpi="63.490002"
       inkscape:export-ydpi="63.490002" />
    <path
       style="fill:#ff5757;fill-opacity:1;stroke-width:0.57649261"
       d="m 76.372933,117.33026 c 4.935763,-0.009 9.605354,0.24046 10.376868,0.55171 0.77152,0.31123 2.741096,0.97437 4.377741,1.47276 6.56341,1.99872 16.690058,7.60267 19.759508,10.93534 2.61001,2.83392 1.75075,2.97084 -17.276762,2.75862 -9.489586,-0.10589 -18.015538,-0.0244 -18.946565,0.18019 -2.057485,0.4519 -2.638274,1.67416 -1.389437,2.923 0.818621,0.81862 3.04776,0.90903 19.165001,0.77241 10.031593,-0.085 18.554323,0.0394 18.938683,0.27698 1.33713,0.82638 0.6763,1.90952 -2.90498,4.76508 -6.12442,4.88332 -12.057313,7.99662 -20.321366,10.66511 -3.910077,1.26261 -16.209131,1.88945 -21.618473,1.1012 -9.303666,-1.35574 -19.64926,-6.23421 -29.545248,-13.93041 -2.4573,-1.91106 -4.467818,-3.85721 -4.467818,-4.32482 0,-2.46683 11.116258,-9.56308 22.438175,-14.3245 7.144621,-3.00466 11.643983,-3.80738 21.414673,-3.82263 z"
       id="path1001"
       inkscape:export-xdpi="63.490002"
       inkscape:export-ydpi="63.490002" />
    <path
       style="fill:#ff5757;fill-opacity:1;stroke-width:0.57649261"
       d="m 190.74366,117.33726 c 4.95689,-0.002 9.84397,0.25972 10.85991,0.58326 1.01594,0.32356 3.2734,1.01923 5.01729,1.54593 9.67356,2.92153 25.94217,13.40022 25.94217,16.70927 0,1.48662 -2.76953,3.90399 -8.64739,7.54846 -6.74456,4.18183 -12.15807,6.47174 -21.51151,9.09665 -3.29397,0.92442 -16.28457,1.63182 -20.57245,1.12033 -4.94524,-0.58991 -13.68,-3.99509 -20.17725,-7.86485 -7.23306,-4.308 -9.48381,-6.69231 -7.15886,-7.58447 0.50153,-0.1924 8.91138,-0.35017 18.68872,-0.35017 9.77733,0 18.1883,-0.15775 18.68984,-0.35019 1.10778,-0.42509 1.19386,-2.15649 0.15089,-3.02207 -0.52234,-0.43353 -6.46574,-0.59141 -18.99836,-0.50556 -20.38201,0.13945 -20.94874,0.0425 -17.96923,-3.08177 3.84983,-4.03671 12.65838,-8.98194 21.39215,-12.0095 5.05553,-1.75246 5.66815,-1.83097 14.29409,-1.83532 z"
       id="path999"
       inkscape:export-xdpi="63.490002"
       inkscape:export-ydpi="63.490002" />
    <path
       style="fill:#ff5757;fill-opacity:1;stroke-width:0.57649261"
       d="m 129.12088,156.34735 c 0.29088,0.009 0.4904,0.1438 0.66207,0.40873 0.24912,0.38438 0.58235,9.259 0.74088,19.72235 l 0.28825,19.02425 1.29711,0.18455 c 2.26847,0.32219 2.50446,-1.72143 2.4073,-20.77962 -0.0499,-9.79005 0.0582,-17.94852 0.23983,-18.13024 0.74564,-0.74563 2.22411,0.55613 5.15804,4.541 4.70502,6.39039 8.10722,13.12778 10.10325,20.00721 1.23367,4.25192 1.34501,20.32943 0.17002,24.55386 -0.9446,3.39612 -5.16841,14.10289 -5.96309,15.11493 -0.30321,0.38614 -1.37817,2.07237 -2.38817,3.7472 -1.01,1.67483 -3.21312,4.79571 -4.89681,6.93593 -4.5789,5.8205 -5.81189,5.352 -11.75955,-4.46782 -5.1351,-8.47826 -6.16588,-10.8368 -9.70129,-22.19497 -0.56633,-1.81946 -0.80844,-5.69325 -0.80844,-12.97109 0,-10.28673 0.0172,-10.42175 1.88711,-15.53264 1.96304,-5.36551 4.40941,-10.10266 7.88849,-15.27255 1.12337,-1.66932 2.0425,-3.2269 2.0425,-3.46122 0,-0.23429 0.63961,-0.71702 1.42096,-1.07303 0.53843,-0.2453 0.92066,-0.36496 1.21154,-0.35694 z"
       id="path995"
       inkscape:export-xdpi="63.490002"
       inkscape:export-ydpi="63.490002" />
    <path
       style="fill:#ff5757;fill-opacity:1;stroke-width:2.17886972"
       d="M 399.38477 612.98047 L 377.17383 614.29883 C 327.05337 617.26867 279.61164 637.22426 251.13672 667.31641 C 233.68479 685.75948 215.67692 719.96501 209.25586 746.86523 C 202.86884 773.62278 199.93227 806.47982 203.54102 810.82812 C 205.4183 813.09013 210.47088 814.07812 220.10938 814.07812 C 235.15434 814.07812 245.33506 812.09132 272.16406 803.9043 C 321.35906 788.89205 362.38316 756.27589 382.22656 716.4043 C 389.09623 702.60101 390.24704 699.50145 396.5293 677.90039 C 400.27946 665.00585 403.05695 627.60601 400.90039 619.01367 L 399.38477 612.98047 z M 360.36133 631.06641 C 362.62644 631.07019 364.48211 631.31379 365.8125 631.82422 C 371.3207 633.93796 368.02597 638.00189 331.18359 674.55469 C 303.54531 701.97576 297.2207 709.38081 297.2207 714.32031 C 297.2207 719.24746 298.19143 720.38867 302.36914 720.38867 C 306.13659 720.38867 316.32289 711.37622 340.38867 686.75195 C 369.64301 656.81878 378.95387 648.48633 383.14453 648.48633 C 386.5034 648.48633 383.83248 672.88847 379.02148 686.15234 C 369.5751 712.19593 360.23658 727.15837 341.92188 745.58984 C 318.4174 769.24417 289.39645 785.04941 251.83398 794.65625 C 235.3581 798.87016 220.72817 800.04844 218.05664 797.37695 C 213.69454 793.01485 217.32259 768.73127 226.75586 739.16406 C 237.29269 706.13795 262.25112 673.08407 290.95508 654.14062 C 308.50528 642.55826 344.50555 631.03295 360.36133 631.06836 L 360.36133 631.06641 z "
       transform="scale(0.26458333)"
       id="path993"
       inkscape:export-xdpi="63.490002"
       inkscape:export-ydpi="63.490002" />
    <path
       style="fill:#ff5757;fill-opacity:1;stroke-width:2.17886972"
       d="M 621.4043 613.63086 C 603.54278 613.6233 601.77062 615.81525 603.4668 635.78711 C 607.48738 683.12766 621.72437 720.75818 645.66016 747.3125 C 677.26551 782.37548 702.39323 795.90996 764.58789 811.36328 C 769.38143 812.55432 779.90646 813.65519 787.97266 813.80664 C 802.08156 814.07196 802.68908 813.86429 804.07031 808.35938 C 806.0405 800.5096 803.38354 767.4376 799.7168 754.16016 C 793.21257 730.60811 785.2325 710.74797 776.35938 696.0625 C 765.21967 677.62559 743.13812 654.50262 725.82422 643.14453 C 700.46147 626.50618 654.96034 613.64734 621.4043 613.63086 z M 642.81836 631.1875 C 644.68397 631.13799 647.52269 631.42135 651.83203 631.92773 C 668.19912 633.85015 697.14421 643.91358 712.83008 653.13672 C 719.68886 657.16955 732.72745 667.89691 741.80273 676.97266 C 768.80878 703.98018 787.18283 745.78791 788.15039 782.42578 L 788.55469 797.73828 L 778.75 798.11328 C 773.35729 798.31851 765.51464 797.48329 761.32031 796.25781 C 757.12598 795.03211 748.30006 792.4747 741.70898 790.57617 C 713.52645 782.45809 681.3647 764.02341 663.99414 746.0332 C 635.8099 716.84365 609.10956 651.81955 624.14062 648.97852 C 626.08553 648.61115 642.57776 663.52227 663.35938 684.4375 C 692.83236 714.10003 700.19107 720.42164 704.65234 719.91602 C 716.81301 718.5374 712.64081 712.12196 675.4707 675.05859 C 653.26817 652.91978 639.30273 637.34861 639.30273 634.72656 C 639.30273 632.27811 639.70906 631.27012 642.81836 631.1875 z "
       transform="scale(0.26458333)"
       id="path991"
       inkscape:export-xdpi="63.490002"
       inkscape:export-ydpi="63.490002" />
    <circle
       style="opacity:1;fill:#a715f4;fill-opacity:1;stroke:none;stroke-width:0.55890584;stroke-linecap:square;stroke-linejoin:miter;stroke-miterlimit:4;stroke-dasharray:none;stroke-opacity:1;paint-order:markers fill stroke"
       id="path1109"
       cx="133.52086"
       cy="135.64008"
       r="18.748713"
       inkscape:export-xdpi="63.490002"
       inkscape:export-ydpi="63.490002" />
  </g>
</svg>
