<?xml version="1.0" encoding="UTF-8" standalone="no"?>
<!-- Created with Inkscape (http://www.inkscape.org/) -->

<svg
   xmlns:dc="http://purl.org/dc/elements/1.1/"
   xmlns:cc="http://creativecommons.org/ns#"
   xmlns:rdf="http://www.w3.org/1999/02/22-rdf-syntax-ns#"
   xmlns:svg="http://www.w3.org/2000/svg"
   xmlns="http://www.w3.org/2000/svg"
   xmlns:sodipodi="http://sodipodi.sourceforge.net/DTD/sodipodi-0.dtd"
   xmlns:inkscape="http://www.inkscape.org/namespaces/inkscape"
   width="400mm"
   height="120mm"
   viewBox="0 0 400 120"
   version="1.1"
   id="svg8"
   inkscape:version="0.92.4 (5da689c313, 2019-01-14)"
   sodipodi:docname="logo.svg">
  <defs
     id="defs2" />
  <sodipodi:namedview
     id="base"
     pagecolor="#ffffff"
     bordercolor="#666666"
     borderopacity="1.0"
     inkscape:pageopacity="0.0"
     inkscape:pageshadow="2"
     inkscape:zoom="0.35"
     inkscape:cx="556.45639"
     inkscape:cy="400.91674"
     inkscape:document-units="mm"
     inkscape:current-layer="layer1"
     showgrid="false"
     inkscape:window-width="1366"
     inkscape:window-height="705"
     inkscape:window-x="-8"
     inkscape:window-y="-8"
     inkscape:window-maximized="1" />
  <metadata
     id="metadata5">
    <rdf:RDF>
      <cc:Work
         rdf:about="">
        <dc:format>image/svg+xml</dc:format>
        <dc:type
           rdf:resource="http://purl.org/dc/dcmitype/StillImage" />
        <dc:title></dc:title>
      </cc:Work>
    </rdf:RDF>
  </metadata>
  <g
     inkscape:label="Camada 1"
     inkscape:groupmode="layer"
     id="layer1"
     transform="translate(0,-177)">
    <g
       id="g1116"
       transform="translate(37.797619,31.674414)">
      <path
         inkscape:connector-curvature="0"
         transform="scale(0.26458333)"
         id="path1098"
         d="m 57.039062,593.7793 c -1.919681,0.0892 -4.261421,2.01064 -8.722656,6.89648 -10.627362,11.63887 -20.927815,29.16572 -25.697265,43.72461 -4.81383,14.69439 -5.187957,17.05802 -5.138672,32.5 0.0399,12.49104 0.428885,16.33813 2.322265,23 3.067571,10.79335 8.337215,22.52682 13.921875,30.99609 6.279833,9.52351 17.917753,23.28834 21.101563,24.95704 1.432989,0.7511 3.147464,1.06299 3.808594,0.69336 2.490349,-1.3928 14.757952,-15.79547 18.818359,-22.09376 7.441633,-11.54305 11.730746,-21.31034 15.615234,-35.55273 1.803387,-6.61194 1.837172,-33.19802 0.05078,-40 -0.72223,-2.75002 -1.786166,-6.80001 -2.365235,-9 C 87.874433,638.96051 81.057007,624.01536 74.10742,613.4043 68.971639,605.56268 60.128375,594.68918 58.322264,593.99609 57.903516,593.8354 57.482064,593.7587 57.03906,593.7793 Z m -0.08789,9.62109 c 3.786932,0 18.592324,23.7456 24.339844,39.03711 5.216341,13.87824 6.140625,19.44762 6.140625,36.96289 0,15.52845 -0.168996,17.00048 -2.871094,25 -3.19251,9.45139 -6.869632,17.16871 -12.28125,25.76563 -6.279432,9.97561 -10.336714,13.30983 -11.740235,9.65234 -0.333841,-0.86997 -0.607421,-15.88927 -0.607421,-33.37695 0,-27.50045 -0.20806,-31.9693 -1.548829,-33.08203 -1.28183,-1.06383 -1.84445,-0.99249 -3.25,0.41406 -1.541858,1.54295 -1.669499,4.60109 -1.36914,32.91406 0.363768,34.28946 0.06616,36.43013 -4.619141,33.14844 -1.258333,-0.88139 -3.396864,-3.25297 -4.751953,-5.26953 -1.3551,-2.01653 -3.56543,-5.30981 -4.912109,-7.31836 -3.951069,-5.89297 -9.176833,-16.78067 -11.925781,-24.84766 -8.470852,-24.85825 -3.574989,-55.03734 13.03125,-80.31641 6.528929,-9.93875 14.188774,-18.68359 16.365234,-18.68359 z m -61.6425782,16.98633 c -6.5270388,0.22433 -12.3769528,5.58226 -12.3769528,13.24219 0,3.98528 2.118427,7.26272 6.367187,9.85351 7.6271095,4.65079 16.9215892,0.85639 18.1621095,-7.41601 0.9372699,-6.25017 -0.5774908,-10.77791 -4.4882813,-13.41602 -2.45207195,-1.6541 -5.1100037,-2.35145 -7.6640624,-2.26367 z m 117.7988262,0.0137 c -5.00062,0.24898 -9.49484,3.40969 -11.20703,8.59766 -2.105948,6.38109 0.18414,11.72586 6.53125,15.23633 2.93466,1.62311 9.71839,1.40153 12.29102,-0.4004 2.69862,-1.89018 6.20999,-8.47862 6.20507,-11.64257 -0.005,-3.34012 -3.45521,-8.45961 -6.90234,-10.24219 -2.2687,-1.17319 -4.64496,-1.662 -6.91797,-1.54883 z m -0.32422,6.12305 c 1.31674,-0.0785 2.76515,0.57383 4.51368,1.94922 2.97863,2.343 3.44229,5.97957 1.06445,8.35742 -5.10189,5.10187 -13.74885,-2.21042 -9.30078,-7.86524 1.2212,-1.55249 2.40591,-2.36287 3.72265,-2.4414 z M -5.6679688,627.4512 c 2.204982,-0.15258 4.77113145,0.48183 5.94531255,1.7793 2.06559495,2.28242 2.09069565,4.10181 0.0976563,6.94726 -1.92201075,2.74405 -6.47544835,2.94885 -8.78710945,0.39454 -1.9358896,-2.13914 -2.1709306,-6.25484 -0.4550781,-7.97071 0.6830731,-0.68306 1.8762296,-1.05884 3.1992187,-1.15039 z M 188.46289,639.168 c -1.91259,0.0483 -4.43673,0.36127 -7.76758,0.80273 -9.49779,1.25885 -11.6798,1.79889 -22.50195,5.56836 -20.73456,7.22207 -37.56293,21.76655 -47.27734,40.86133 -3.83417,7.53649 -7.36088,22.10758 -8.39454,34.67969 -0.48786,5.93374 -0.29711,7.47047 1.09766,8.86523 1.45798,1.45799 3.05467,1.59493 11.75,1.00781 10.93848,-0.73855 11.18269,-0.79258 26.4707,-5.70703 26.99917,-8.67911 43.94405,-28.98013 51.20118,-61.3457 0.73994,-3.29998 1.35629,-9.76292 1.36914,-14.36328 0.0229,-8.27804 -0.20951,-10.51416 -5.94727,-10.36914 z m -264.541015,0.40234 c -5.488047,0.072 -6.203688,2.22516 -5.695313,9.72852 1.431614,21.12979 6.926449,36.88744 18.001954,51.62109 11.76283,15.64804 33.296518,27.462 53.703125,29.46485 4.1249987,0.40486 10.08040134,0.80022 13.2324215,0.87695 5.4004874,0.13179 5.7680734,-0.0117 6.3886719,-2.48438 C 10.416606,725.3354 9.3235506,708.99735 7.8886719,703.90039 7.269332,701.70037 6.2787088,698.10038 5.6875,695.90039 5.0962987,693.7004 2.5482262,687.88648 0.0234375,682.98047 -12.067483,659.48606 -39.914765,642.6722 -71.472656,639.8125 c -1.818566,-0.16479 -3.338997,-0.25879 -4.605469,-0.24219 z m 259.435545,6.94531 c 5.13891,-0.27559 4.99754,2.45299 3.87696,10.78126 -4.2203,31.36554 -22.70693,54.50526 -50.50586,63.2207 -9.87117,3.09479 -17.79688,3.79761 -17.79688,1.57812 0,-1.95976 3.94394,-6.9089 9,-11.29297 2.475,-2.14609 8.98963,-8.52788 14.47656,-14.18164 8.38148,-8.63633 9.80442,-10.55459 8.89844,-12 -2.50047,-3.98929 -4.62748,-2.56287 -21.24609,14.24219 -8.99495,9.09589 -16.97043,16.53711 -17.72266,16.53711 -4.97907,0 0.30662,-20.05444 8.71289,-33.06055 10.85307,-16.79183 28.96776,-28.66195 51.62305,-33.83007 4.92194,-1.1228 8.34772,-1.86887 10.68359,-1.99415 z m -254.068358,0.44141 c 1.618687,0.0489 3.793748,0.38085 6.667969,0.84961 30.671479,5.00236 53.271849,22.58875 62.7734378,48.84766 2.9439609,8.13592 4.3437795,16.93942 2.9199218,18.36328 -1.20928249,1.2093 -5.4824982,-2.47907 -19.7929686,-17.08789 -11.725225,-11.96969 -14.73266,-14.5293 -17.078125,-14.5293 -6.043812,0 -3.66762,3.70469 13.152344,20.5 8.799998,8.7871 15.9999996,16.76932 15.9999996,17.73828 0,1.41717 -0.8308693,1.74766 -4.2499996,1.68945 -4.810421,-0.082 -18.991929,-4.42232 -25.75,-7.88085 -20.681088,-10.58378 -34.237008,-31.00787 -38.058594,-57.3418 -1.290742,-8.8943 -1.440045,-11.29526 3.416015,-11.14844 z M -88.75,705.06836 c -2.831529,-0.03 -5.548193,1.20701 -7.923828,3.71289 -5.875642,6.19786 -5.028542,15.43238 1.796875,19.59375 7.09463,4.32548 15.149762,1.63203 18.244141,-6.10156 2.211979,-5.52828 1.305191,-8.96988 -3.50586,-13.31641 -2.834727,-2.56104 -5.779799,-3.85871 -8.611328,-3.88867 z m 279.30469,0.33203 c -3.95146,0 -4.83763,0.43782 -7.54688,3.72461 -1.68821,2.04809 -3.33097,5.1249 -3.65234,6.83789 -0.81858,4.36343 1.79649,9.99098 5.76758,12.41211 8.67424,5.2885 19.13091,-0.72214 18.99023,-10.91602 -0.10215,-7.40152 -5.33756,-12.05859 -13.55859,-12.05859 z m 1.44922,6.25977 c 1.91002,0.0241 3.32965,1.26437 4.86914,3.97461 1.27861,2.25093 1.24752,2.82908 -0.27344,5.15039 -2.24033,3.41903 -6.49247,3.49589 -9.61523,0.17187 -3.04452,-3.24072 -2.18487,-6.84432 2.05273,-8.59961 1.12819,-0.46731 2.0986,-0.70821 2.9668,-0.69726 z m -280.460941,0.27734 c 4.348591,-0.12676 7.62783,4.92363 4.949219,9.01172 -2.714858,4.14338 -7.920281,3.0615 -10.953126,-2.27734 -1.037298,-1.82601 1.156727,-5.23052 4.089844,-6.34571 0.650624,-0.24736 1.292835,-0.37056 1.914063,-0.38867 z m 45.388672,26.46094 c -18.827471,-0.006 -39.193031,5.64957 -56.148438,15.58984 -8.462153,4.96105 -29.143743,19.96313 -29.707033,21.54883 -0.41326,1.16338 8.85152,10.08645 16.88086,16.25781 8.38713,6.4464 17.031688,11.2838 32.201173,18.02149 2.049011,0.91007 6.999011,2.49973 11,3.5332 8.519418,2.20055 35.583378,2.78608 43.509766,0.94141 8.696798,-2.02398 22.974754,-7.9356 31.6406248,-13.10157 9.8720312,-5.88502 28.2251492,-20.95935 29.1796872,-23.96679 0.883351,-2.78321 -6.216683,-9.97598 -18.55664,-18.79883 -19.9913199,-14.29346 -37.14223,-20.01783 -60,-20.02539 z m 203.335939,0.0195 c -8.26402,-0.12787 -17.96306,0.42758 -22.50391,1.55664 -20.35823,5.06192 -34.78076,12.71576 -53.082029,28.17187 -8.669212,7.32144 -9.921721,9.40035 -7.5,12.44336 2.938817,3.69279 15.791529,14.4846 22.238281,18.67383 8.340408,5.41981 24.258568,12.5873 32.257808,14.52344 7.164,1.73401 37.26672,2.07321 43.99024,0.49609 14.00657,-3.28543 36.03566,-12.76049 44.22851,-19.02343 1.39477,-1.06621 5.91016,-4.46625 10.03516,-7.55469 4.125,-3.08844 7.83225,-6.10683 8.23633,-6.70899 1.84632,-2.75142 0.4795,-5.5503 -5.48633,-11.24023 -12.17425,-11.61131 -34.86205,-24.28882 -49.75781,-27.80469 -3.57034,-0.84272 -8.41047,-1.98607 -10.75586,-2.54101 -2.50039,-0.59161 -6.94198,-0.91547 -11.90039,-0.99219 z M -42,745.30078 c 8.561711,-0.0132 16.661711,0.41713 18,0.95703 1.3383,0.53987 4.754781,1.69016 7.59375,2.55469 11.3850709,3.46704 28.95103,13.18781 34.275391,18.96875 4.527397,4.9158 3.036892,5.15328 -29.96875,4.78516 -16.460897,-0.18365 -31.25025,-0.0424 -32.865235,0.3125 -3.56897,0.78387 -4.576422,2.90403 -2.410156,5.07031 1.420003,1.42001 5.28673,1.57682 33.244141,1.33984 17.4010807,-0.14751 32.184831,0.0684 32.851562,0.48047 2.319428,1.43346 1.173128,3.31229 -5.039062,8.26563 -10.6235908,8.47075 -20.9149478,13.87117 -35.25,18.5 -6.782529,2.19016 -28.116805,3.27747 -37.5,1.91015 -16.138394,-2.3517 -34.084146,-10.81401 -51.250001,-24.16406 -4.2625,-3.31499 -7.75,-6.69083 -7.75,-7.50195 0,-4.27903 19.282566,-16.58837 38.921876,-24.84766 12.393259,-5.21197 20.197975,-6.6044 37.146484,-6.63086 z m 198.39062,0.0117 c 8.59835,-0.004 17.07562,0.4505 18.8379,1.01172 1.76228,0.56126 5.67812,1.76801 8.70312,2.68164 16.78002,5.06778 45,23.24437 45,28.98437 0,2.5787 -4.80409,6.77197 -15,13.09375 -11.6993,7.25394 -21.08972,11.22607 -37.31445,15.7793 -5.71381,1.60354 -28.24767,2.8306 -35.68555,1.94336 -8.57814,-1.02327 -23.7297,-6.92999 -35,-13.64258 -12.546674,-7.4728 -16.450879,-11.60868 -12.417968,-13.15625 0.869979,-0.33373 15.457938,-0.60742 32.417968,-0.60742 16.96003,0 31.54994,-0.27369 32.41992,-0.60742 1.92158,-0.73739 2.0709,-3.74073 0.26172,-5.24219 -0.90606,-0.75201 -11.21565,-1.02587 -32.95508,-0.87695 -35.355187,0.24193 -36.338249,0.0735 -31.169919,-5.34571 6.678029,-7.00221 21.957579,-15.58033 37.107419,-20.83203 8.76946,-3.03987 9.83212,-3.17603 24.79492,-3.18359 z M 55.013672,796.75 c -1.968854,0.0489 -4.169264,2.19424 -9.91211,8.99805 -14.29714,16.9384 -20.766414,29.03244 -26.294921,49.15234 -2.126563,7.73919 -1.813292,35.10466 0.503906,44 5.533822,21.24336 17.307048,43.50451 30.542969,57.75 1.91633,2.06249 4.235837,3.75 5.154296,3.75 2.364,0 14.518357,-13.11653 20.310547,-21.91992 2.685362,-4.0814 6.832036,-11.56758 9.216797,-16.63672 4.043188,-8.59434 5.062395,-11.59505 7.447266,-21.94336 0.50702,-2.19999 1.367268,-5.79997 1.912109,-8 1.512518,-6.10738 1.231042,-23.05473 -0.505859,-30.43555 -4.073839,-17.31137 -7.741956,-26.24298 -16.205078,-39.46093 -5.07535,-7.92684 -18.562495,-24.12473 -20.802735,-24.98438 -0.470379,-0.1805 -0.912836,-0.28082 -1.367187,-0.26953 z m -5.515625,16.23047 c 0.504563,0.0139 0.850652,0.24952 1.148437,0.70898 0.43214,0.66675 1.010158,16.06093 1.285157,34.21094 l 0.5,33 2.25,0.32031 c 3.934956,0.55888 4.34431,-2.98607 4.175781,-36.04492 -0.08659,-16.9821 0.100954,-31.134 0.416016,-31.44922 1.293399,-1.29339 3.857991,0.96469 8.947265,7.87696 8.161459,11.08493 14.063011,22.77182 17.525391,34.70507 2.139957,7.37549 2.333092,35.26398 0.294922,42.5918 -1.638531,5.891 -8.96527,24.46324 -10.34375,26.21875 -0.525952,0.66981 -2.390609,3.59479 -4.142578,6.5 -1.75197,2.90521 -5.573572,8.31877 -8.494141,12.03125 -7.942692,10.0964 -10.081469,9.28376 -20.398438,-7.75 -8.907481,-14.70663 -10.695516,-18.79781 -16.828125,-38.5 -0.982378,-3.15609 -1.402343,-9.87566 -1.402343,-22.5 0,-17.84364 0.02991,-18.07787 3.273437,-26.94336 3.405139,-9.30716 7.648675,-17.52435 13.683594,-26.49219 1.948618,-2.89564 3.542969,-5.59745 3.542969,-6.0039 0,-0.40645 1.109482,-1.24379 2.464843,-1.86133 0.933965,-0.4255 1.597,-0.63305 2.101563,-0.61914 z m -40.6777345,10.125 -10.1933594,0.60547 c -23.0029611,1.36301 -44.7770381,10.52114 -57.8457031,24.33203 -8.009624,8.46452 -16.273734,24.16382 -19.220703,36.50976 -2.931345,12.28048 -4.279293,27.35981 -2.623047,29.35547 0.861589,1.03816 3.179892,1.49219 7.603516,1.49219 6.904939,0 11.577362,-0.91247 23.890625,-4.66992 22.578221,-6.88993 41.4064726,-21.85898 50.5136715,-40.1582 3.1528515,-6.33506 3.6811952,-7.75799 6.5644531,-17.67188 1.721144,-5.91798 2.9956194,-23.08191 2.0058594,-27.02539 z M 110.7168,823.4043 c -8.19761,-0.004 -9.0109,1.00182 -8.23242,10.16797 1.84525,21.7271 8.37983,38.99834 19.36523,51.18554 14.5054,16.09229 26.03757,22.30413 54.58203,29.39649 2.2,0.54663 7.0304,1.05155 10.73242,1.12109 6.47532,0.12155 6.75475,0.0258 7.38867,-2.5 0.90422,-3.60268 -0.31517,-18.78127 -1.99804,-24.875 -2.98515,-10.8093 -6.64836,-19.92411 -10.72071,-26.66406 -5.11262,-8.46168 -15.24708,-19.07424 -23.19336,-24.28711 -11.64032,-7.6362 -32.52316,-13.53736 -47.92382,-13.54492 z m 80.56445,0 c -6.14445,0.008 -12.34961,6.76445 -12.34961,13.44726 0,3.78788 2.58042,8.25717 5.76367,9.98438 1.50559,0.81694 4.93409,1.50271 7.61914,1.52539 4.32682,0.0355 5.2649,-0.36612 8.25,-3.53125 7.76037,-8.22841 2.03593,-21.4409 -9.2832,-21.42578 z m -279.054688,0.0996 c -2.094099,-0.0983 -4.224766,0.32669 -6.195312,1.3457 -8.10009,4.1887 -9.15952,16.85019 -1.791016,21.41016 1.948449,1.20578 5.082046,2.00794 8.042969,2.05859 4.214865,0.072 5.283712,-0.35205 8.169922,-3.23828 4.235641,-4.23564 5.281202,-9.18915 2.966797,-14.06641 -2.155755,-4.5429 -6.586341,-7.29355 -11.19336,-7.50976 z m -0.527343,6.86132 c 1.974319,-0.007 3.816757,1.31316 5.185547,3.91016 1.068933,2.02806 0.965035,2.75821 -0.707032,5 -2.378109,3.18833 -3.922004,3.52111 -7.425781,1.60156 -3.859517,-2.11445 -4.508277,-5.1141 -1.740234,-8.06054 1.536246,-1.63526 3.151918,-2.44545 4.6875,-2.45118 z m 279.888671,0.12305 c 2.11174,0.0373 4.17459,1.11523 5.29297,3.11719 1.39354,2.49452 1.35018,2.92092 -0.56836,5.5 -2.64626,3.55733 -5.28879,3.94254 -8.68945,1.26758 -3.21865,-2.5318 -3.42971,-5.2324 -0.63086,-8.03125 1.2822,-1.28221 2.95324,-1.88256 4.5957,-1.85352 z m -200.6777338,0.91797 c 1.0395808,0.002 1.8913672,0.11335 2.5019532,0.34766 2.5280088,0.97009 1.0163592,2.83529 -15.8925784,19.61132 -12.684688,12.585 -15.58789,15.98297 -15.58789,18.25 0,2.26133 0.445911,2.78516 2.363281,2.78516 1.729085,0 6.404143,-4.13611 17.449219,-15.4375 13.426382,-13.73794 17.69972807,-17.5625 19.6230465,-17.5625 1.5415597,0 0.3154597,11.19961 -1.89257812,17.28711 -4.33545078,11.95279 -8.62174628,18.82011 -17.02734338,27.2793 -10.787464,10.85624 -24.106277,18.11044 -41.345704,22.51953 -7.561666,1.93398 -14.275847,2.47416 -15.501953,1.24805 -2.002,-2.00202 -0.337242,-13.14682 3.992188,-26.7168 4.835913,-15.15746 16.291062,-30.32733 29.464844,-39.02149 8.05473,-5.31577 24.57645,-10.60607 31.8535152,-10.58984 z m 129.6347638,0.0547 c 0.85623,-0.0228 2.15894,0.10754 4.13672,0.33984 7.51174,0.88229 20.79701,5.50138 27.99609,9.73438 3.14786,1.85087 9.13174,6.77411 13.29688,10.93945 12.39451,12.39522 20.8274,31.58339 21.27148,48.39844 l 0.18555,7.02734 -4.5,0.17188 c -2.475,0.094 -6.075,-0.28902 -8,-0.85157 -1.925,-0.56254 -5.975,-1.73609 -9,-2.60742 -12.93448,-3.72582 -27.69569,-12.18668 -35.66797,-20.44336 -12.93526,-13.39665 -25.18958,-43.23907 -18.29101,-44.54297 0.89262,-0.16871 8.4622,6.67431 18,16.27344 13.52674,13.61371 16.90366,16.51527 18.95117,16.2832 5.58118,-0.63273 3.66677,-3.57752 -13.39258,-20.58789 -10.18994,-10.16069 -16.59961,-17.30636 -16.59961,-18.50976 0,-1.12373 0.18624,-1.58707 1.61328,-1.625 z m -6.68359,68.32031 c -4.46533,-0.12129 -8.83705,2.20755 -11.03321,7.04297 -1.01814,2.24175 -1.86095,5.25307 -1.87304,6.6914 -0.0262,3.12469 3.13361,7.39946 7.38867,9.99415 6.10159,3.72071 13.19433,1.54296 16.57813,-5.08985 2.39518,-4.69497 2.51484,-7.14462 0.53124,-10.98047 -2.56739,-4.96478 -7.12646,-7.53691 -11.59179,-7.6582 z m -118.1210956,0.13477 c -6.7905414,-0.11428 -12.8085934,5.58236 -12.8085934,12.92382 0,4.98214 1.912992,7.93763 6.8125,10.52539 10.24386116,5.41051 19.7050026,-1.96594 17.6074215,-13.72851 -0.8605984,-4.826 -3.8149184,-7.9954 -8.6699219,-9.30274 -0.9863537,-0.26559 -1.9713289,-0.40164 -2.9414062,-0.41796 z m 117.4726556,6.58984 c 1.49276,-0.0817 3.05613,0.5593 4.53125,1.93359 2.72459,2.53833 2.79032,5.35809 0.1875,7.96094 -2.37364,2.37362 -4.78252,2.54135 -7.65234,0.53125 -3.03729,-2.12738 -3.47379,-5.1006 -1.17774,-8.01953 1.19599,-1.52047 2.61858,-2.32456 4.11133,-2.40625 z m -117.0898431,0.22656 c 0.7613797,0.0821 1.4978035,0.53552 2.6738281,1.41016 3.3745323,2.50972 3.7582406,5.21348 1.13671875,8.02734 -2.45679875,2.63705 -4.71410535,2.82001 -7.83398435,0.63477 -3.3249104,-2.32887 -2.6678724,-7.41213 1.1972656,-9.25586 1.2784554,-0.60983 2.0647922,-0.89855 2.8261719,-0.81641 z"
         style="fill:#ff5757;fill-opacity:1;stroke-width:0.99999994" />
      <path
         inkscape:connector-curvature="0"
         id="path1094"
         d="m 119.04441,252.25333 c -0.8756,3.05922 2.89102,1.47279 4.69528,1.85017 58.62761,-0.0433 117.25522,-0.0866 175.88283,-0.12986 0.74184,-2.83556 -3.05742,-1.13336 -4.69527,-1.59096 -58.62762,-0.0434 -117.25523,-0.0865 -175.88284,-0.12935 z"
         style="fill:#ff5757;fill-opacity:1;stroke-width:0.1;stroke-miterlimit:4;stroke-dasharray:none" />
      <path
         inkscape:connector-curvature="0"
         id="path1076"
         transform="scale(0.26458333)"
         d="m 799.1582,849.5332 c -8.03414,-0.20635 -17.34504,3.15457 -22.40429,8.52539 -13.45217,14.28072 -8.9533,38.10279 8.7539,46.35157 v 0.002 c 5.99471,2.79247 17.53696,2.61725 23.92383,-0.36328 7.97941,-3.72371 15.17794,-12.7902 15.73633,-19.82031 l 0.26367,-3.32813 -13.42187,-0.2793 c -9.81328,-0.20485 -13.62672,0.0501 -14.1836,0.95118 -1.42707,2.30902 0.22005,2.82812 8.97461,2.82812 5.88537,0 9.37168,0.45509 10.64844,1.38867 1.84078,1.34604 1.81638,1.51113 -0.78711,5.44532 -5.14118,7.76881 -16.17883,11.74405 -25.57031,9.21093 -4.81648,-1.29913 -12.38247,-7.64145 -14.88282,-12.47656 -1.80332,-3.48726 -2.0743,-14.61528 -0.45507,-18.70703 2.91329,-7.36199 13.55935,-14.86133 21.09765,-14.86133 6.82424,0 16.35357,5.4703 20.10547,11.54102 1.55913,2.52272 2.80792,3.4791 4.26172,3.26367 3.13629,-0.46432 3.04172,-1.96589 -0.45703,-7.24805 -3.51319,-5.30396 -10.06913,-10.00143 -16.31445,-11.69141 -1.65024,-0.44655 -3.43503,-0.6848 -5.28907,-0.73242 z m -308.62695,0.19922 c -7.8279,0.006 -15.81027,3.11381 -20.94141,8.53711 -8.39992,8.87819 -10.26129,22.46424 -4.54687,33.18555 3.65371,6.85512 4.73764,7.93616 11.95117,11.91211 4.68465,2.5821 6.47746,2.99712 12.9375,2.99414 5.15085,-0.003 8.77439,-0.58342 11.56641,-1.85156 13.91686,-6.32104 20.75271,-22.35032 15.48242,-36.30665 -2.90808,-7.70086 -10.92075,-15.12782 -18.78516,-17.41406 -2.46359,-0.71618 -5.05476,-1.05879 -7.66406,-1.05664 z m -139.00195,0.18555 c -4.52659,-0.0636 -9.38562,0.71212 -12.33203,2.26953 -7.03914,3.72072 -9.77489,10.66367 -6.90625,17.5293 1.94734,4.66061 5.7657,6.93807 18.04492,10.75781 10.4074,3.2375 15.5957,6.83128 15.5957,10.80273 0,6.42274 -6.34344,11.12305 -15.00976,11.12305 -5.9193,0 -10.44324,-2.02736 -14.06641,-6.30469 -4.28654,-5.06044 -8.20182,-1.39238 -4.36328,4.08789 2.22454,3.17598 7.14647,5.53611 12.93945,6.20508 15.9377,1.84048 25.48702,-3.91057 25.49609,-15.35547 0.003,-4.30291 -0.43514,-5.30818 -3.78515,-8.6582 -2.88694,-2.88695 -5.56682,-4.30393 -11.25,-5.95312 -10.55509,-3.06301 -14.81953,-5.02561 -17.0332,-7.83985 -2.8577,-3.63296 -2.41198,-6.89661 1.47265,-10.78125 3.09536,-3.09536 3.92648,-3.40039 9.27735,-3.40039 5.99558,0 9.42049,1.4698 12.1289,5.20117 1.60347,2.20917 5.04329,2.35434 5.85156,0.24805 0.70612,-1.84014 -2.87609,-5.95863 -7.1582,-8.23047 -2.06333,-1.09469 -5.38167,-1.65171 -8.90234,-1.70117 z m 353.45117,0.0117 c -0.0495,-0.007 -0.0912,-0.002 -0.12305,0.0176 -1.0515,0.64977 -1.3013,54.74362 -0.25781,55.78711 1.02425,1.02425 2.8051,0.79454 4.13281,-0.53321 0.84359,-0.84344 1.19922,-6.48889 1.19922,-19 0,-10.22313 0.39514,-17.80078 0.92578,-17.80078 1.23432,0 3.29922,2.69544 16.41992,21.42969 6.13584,8.76102 11.6043,15.84864 12.1543,15.75 0.63791,-0.11426 1,-10.04912 1,-27.42969 0,-26.58331 -0.0489,-27.25 -2,-27.25 -1.90953,0 -2.02261,0.83311 -2.5,18.41797 -0.34458,12.69309 -0.86048,18.53899 -1.66016,18.80469 -1.04118,0.34571 -5.47689,-5.60583 -23.09765,-30.98438 -2.77919,-4.00277 -5.45092,-7.09695 -6.19336,-7.20898 z m 213.45117,0.082 c -16.27211,0.0802 -27.55348,12.1445 -27.48242,29.38867 0.0438,10.5696 5.56271,19.65418 14.89062,24.51367 3.69959,1.92741 6.1482,2.40141 12.5918,2.43164 7.06749,0.0329 8.60025,-0.3077 13.14453,-2.91406 5.61404,-3.21985 11.5679,-9.65706 11.11719,-12.01953 -0.54168,-2.8385 -3.59369,-2.10326 -7.45508,1.79687 -2.1343,2.15581 -5.27895,4.64343 -6.98828,5.52735 -10.91259,5.6431 -23.97768,1.00733 -29.73828,-10.55274 -3.73421,-7.49351 -3.53257,-13.78153 0.66992,-20.79297 3.62049,-6.04044 7.52292,-9.08967 14.67383,-11.46484 4.59209,-1.52526 5.07615,-1.4976 10.69336,0.57422 4.00649,1.47772 7.22323,3.58947 10.08203,6.61914 4.20487,4.45621 7.47068,5.35992 8.07226,2.23633 0.46663,-2.42313 -6.07149,-9.25578 -11.9121,-12.44922 -4.51182,-2.4669 -6.46589,-2.92477 -12.35938,-2.89453 z m 310.97656,0.33594 c -5.293,-0.0916 -10.3282,0.30481 -11.2773,1.2539 -1.732,1.73295 -1.7037,51.89403 0.031,53.62891 0.6762,0.67528 1.912,1.09887 2.7481,0.93945 1.2068,-0.22998 1.6247,-2.45602 2.0214,-10.7793 l 0.5,-10.49023 h 3.4766 c 3.1252,0 3.9577,0.65776 8.2305,6.5 7.8195,10.69187 11.9102,15.1255 13.6465,14.79102 3.0702,-0.59127 2.2393,-3.57499 -2.6231,-9.42774 -2.6794,-3.22503 -5.7152,-7.15521 -6.7461,-8.73437 -1.8332,-2.80849 -1.8327,-2.90135 0.012,-4.25 1.0371,-0.75833 2.2936,-1.37891 2.7911,-1.37891 2.0766,0 6.8944,-4.43827 8.7343,-8.04492 4.3577,-8.54173 0.8614,-17.49556 -8.7226,-22.33789 -1.9787,-0.99974 -7.5293,-1.57835 -12.8223,-1.66992 z m -610.25586,0.0527 c -9.01062,0 -10.26648,0.21824 -11.18554,1.93555 -1.56752,2.92872 -1.38865,51.31057 0.19531,52.89453 0.67604,0.67589 1.91355,1.09895 2.75,0.93945 1.20676,-0.22998 1.62279,-2.45602 2.01953,-10.7793 l 0.5,-10.49023 8.62109,-0.65625 c 9.03852,-0.68923 12.93314,-2.10003 16.5625,-5.99805 7.32866,-7.87116 4.78359,-21.02143 -4.98437,-25.75 -3.52403,-1.70596 -6.21821,-2.0957 -14.47852,-2.0957 z m 368.38477,0 c -13.774,0 -15.63911,0.19832 -16.46289,1.75 -1.20915,2.27565 -1.17964,50.20185 0.0312,52.52539 0.8349,1.60207 2.41426,1.74869 16.12695,1.5 14.44243,-0.26203 15.20123,-0.37519 15.20123,-2.27539 0,-1.87245 -0.7609,-2.01788 -11.93756,-2.2832 -6.91207,-0.16407 -12.5061,-0.75412 -13.28711,-1.40235 -0.98517,-0.8177 -1.27188,-3.43752 -1.0625,-9.71679 l 0.28711,-8.59766 12.15235,-0.2793 c 12.54221,-0.28898 15.32871,-1.22052 14.00201,-4.67773 -0.4535,-1.18186 -3.16297,-1.53835 -13.36139,-1.76172 l -12.79297,-0.28125 -0.25586,-8.5 c -0.14029,-4.67501 0.18144,-9.175 0.71485,-10 0.77529,-1.19917 3.43317,-1.5 13.25586,-1.5 11.97911,0 12.29401,-0.0561 12.60551,-2.25 l 0.3184,-2.25 z m 124.89449,0 c -15.2469,0 -18.2548,0.64604 -15.5605,3.33789 0.6401,0.63957 3.358,1.16822 6.041,1.17578 2.683,0.007 5.2357,0.36857 5.6719,0.80469 0.4364,0.43616 0.6517,11.07289 0.4805,23.63672 -0.2174,15.93033 0.039,23.49655 0.8457,25.00391 0.6427,1.20102 1.9049,2.01937 2.8398,1.83984 1.5061,-0.28902 1.7341,-2.90977 2.1816,-24.98047 0.275,-13.56091 0.856,-25.00941 1.2891,-25.44141 0.4331,-0.432 3.0481,-0.85567 5.8125,-0.94336 2.7644,-0.0877 5.4992,-0.63192 6.0762,-1.20898 2.5708,-2.5708 -0.6045,-3.22461 -15.6778,-3.22461 z m -43.6113,0.0469 c -0.4193,-0.0583 -0.9181,0.13746 -1.6094,0.57226 -1.5948,1.00294 -1.7793,2.93217 -1.7793,18.66211 0,9.6494 -0.3329,17.88179 -0.7421,18.29297 -1.1421,1.14773 -4.6048,-2.40926 -9.3204,-9.57422 -8.3534,-12.69245 -19.0503,-27.37097 -20.2343,-27.76562 -0.9157,-0.30528 -1.2032,6.11767 -1.2032,27.01562 0,15.07918 0.3156,27.73348 0.7012,28.11914 0.3857,0.38487 1.3982,0.566 2.25,0.40235 1.3212,-0.2538 1.5898,-3.06086 1.8223,-19.10352 0.2475,-17.09322 0.428,-18.77477 1.9765,-18.47656 0.937,0.18043 7.4247,8.64833 14.418,18.81836 6.9932,10.16999 13.3034,18.49023 14.0234,18.49023 1.0397,0 1.3589,-5.45347 1.5528,-26.5 0.1452,-15.77945 -0.1459,-27.10682 -0.7207,-28 -0.3753,-0.58303 -0.7154,-0.89483 -1.1348,-0.95312 z m -505.47655,0.0937 c -1.50864,-0.0185 -3.31198,0.0123 -5.55078,0.0742 l -10.35938,0.28516 -0.26757,26.48438 c -0.14703,14.56637 -0.0485,27.05388 0.21875,27.75 0.64943,1.69232 2.02782,1.59796 3.55664,-0.24415 0.85821,-1.03388 1.10446,-3.81508 0.7832,-8.82031 -0.70878,-11.04381 -0.5209,-11.27922 9.43555,-11.90039 9.30814,-0.58072 13.21958,-2.1344 17.15429,-6.81054 2.25404,-2.67882 2.61826,-4.04198 2.61524,-9.78516 -0.005,-8.29931 -2.07556,-12.06437 -8.28907,-15.07227 -2.90982,-1.40921 -4.77094,-1.90555 -9.29687,-1.96093 z m 107.88086,0.0547 c -0.23624,0.002 -0.47128,0.0444 -0.69141,0.12891 -1.41305,0.54217 -1.60156,3.76856 -1.60156,27.47851 0,14.77558 0.30136,27.16464 0.66797,27.53126 0.96397,0.964 1.77335,0.82625 3.13281,-0.53321 1.43993,-1.43977 1.70535,-51.45239 0.28516,-53.69531 -0.36457,-0.5747 -1.08425,-0.9175 -1.79297,-0.91016 z m -273.79297,0.30469 -0.26562,26.37695 c -0.19306,19.08008 0.0583,26.76895 0.9082,27.79297 0.64618,0.77866 1.89006,1.28034 2.76562,1.11328 1.3163,-0.25137 1.6784,-2.3801 2.0918,-12.29297 l 0.5,-11.99023 11.35742,-0.2832 c 7.51729,-0.18785 11.82784,0.10773 12.75,0.87304 1.0337,0.85796 1.39258,3.94694 1.39258,11.97461 0,10.96925 0.73936,13.2281 3.56055,10.88672 1.24021,-1.03037 1.43153,-5.39287 1.20703,-27.83594 -0.25852,-25.85884 -0.32434,-26.61523 -2.26758,-26.61523 -1.85012,0 -2.01863,0.74938 -2.24805,10 -0.39379,15.87345 0.80489,14.61007 -13.52734,14.28125 l -12.22461,-0.28125 -0.5,-12 -0.5,-12 h -2.5 z m 757.00196,0 -0.2676,26.48438 c -0.147,14.56637 -0.044,27.06525 0.2285,27.77539 0.3823,0.99673 4.1011,1.22803 16.2657,1.01562 15.013,-0.26222 15.7714,-0.37157 15.7714,-2.27539 0,-1.86384 -0.7489,-2.0163 -11,-2.24609 -16.7261,-0.37497 -15.6268,0.38285 -15.2871,-10.53125 l 0.2871,-9.22266 12.2325,-0.2793 c 10.7424,-0.24646 12.3522,-0.50904 13.2285,-2.14648 1.6948,-3.16683 -0.903,-3.9913 -13.5215,-4.29102 l -11.9395,-0.2832 -0.291,-8.9082 c -0.173,-5.29096 0.136,-9.33518 0.7598,-9.95899 0.6146,-0.61459 6.1288,-1.06912 13.291,-1.09179 11.5606,-0.0386 12.2422,-0.15216 12.2422,-2.04102 0,-1.91682 -0.6667,-2 -16,-2 z m -663.93165,3.64258 c 2.81538,0.0543 5.67859,0.9784 9.20899,2.7832 6.96472,3.56051 10.99642,8.48295 12.89258,15.74414 1.27249,4.87348 1.24864,6.09791 -0.21094,11.15235 -2.13154,7.38126 -8.93154,14.30312 -15.73242,16.01562 -5.83684,1.46978 -9.27868,1.41346 -13.875,-0.22851 -10.50596,-3.75311 -17.16335,-14.86972 -15.24414,-25.45508 1.4985,-8.26481 5.54058,-13.32623 14.0371,-17.57813 3.34137,-1.67217 6.10846,-2.48793 8.92383,-2.43359 z m 69.67969,0.64258 c 10.31033,0.0927 16.03785,4.46534 15.93164,12.16601 -0.0684,4.95247 -1.48781,7.64647 -4.96094,9.41211 -3.32451,1.69021 -12.8281,2.73373 -16.16406,1.77539 -3.11939,-0.89616 -4.38781,-5.46592 -3.85547,-13.90039 0.50835,-8.05394 1.90934,-9.51738 9.04883,-9.45312 z m 671.36526,0.21484 c 9.9317,0 15.3847,3.96206 15.3847,11.17578 0,5.52389 -1.8142,8.55738 -6.4687,10.81055 -4.4819,2.16964 -12.8138,2.66201 -15.7813,0.93359 -1.488,-0.86679 -1.75,-2.5655 -1.75,-11.36133 0,-11.78369 -0.1674,-11.55859 8.6153,-11.55859 z m -610.23245,0.041 c 3.33396,0.04 6.97417,0.4989 9.01953,1.35351 4.50596,1.8827 6.59766,5.17958 6.59766,10.39453 0,5.31576 -1.22522,7.76957 -4.7793,9.56836 -3.53329,1.78836 -14.08443,2.79712 -16.9707,1.62305 -2.11884,-0.86185 -2.25,-1.48949 -2.25,-10.74805 0,-6.31393 0.43056,-10.26064 1.20117,-11.03125 0.82024,-0.82029 3.84768,-1.20014 7.18164,-1.16015 z"
         style="fill:#a715f4;stroke-width:4.15748024;stroke-miterlimit:4;stroke-dasharray:none" />
      <path
         inkscape:connector-curvature="0"
         id="path1024"
         transform="scale(0.26458333)"
         d="m 292.04297,627.95508 c -0.46982,-0.002 -1.00368,0.006 -1.61133,0.0137 -2.75,0.037 -11.075,0.63238 -18.5,1.32422 -8.89917,0.82908 -19.4773,1.02552 -31.03906,0.57617 -19.84981,-0.77151 -19.91657,-0.74977 -20.26172,6.53516 l -0.19922,4.17382 7.97266,2.32227 c 13.45262,3.91903 14.67844,5.93286 26.49023,43.5 3.37214,10.72501 6.74977,21.29998 7.50391,23.5 1.31743,3.84325 4.22468,13.13302 13.92578,44.5 8.31432,26.88306 12.79697,41.47372 14.28711,46.5 0.81529,2.75002 1.88688,6.01251 2.38086,7.25 0.49397,1.23749 1.62598,2.25 2.51562,2.25 3.45722,0 12.62606,-3.27132 14.94336,-5.33203 1.56713,-1.39359 4.78074,-8.23674 9.00195,-19.16797 3.61062,-9.34998 7.17038,-18.35001 7.91211,-20 0.74174,-1.65003 4.36882,-10.65002 8.06055,-20 26.85434,-68.01358 38.06068,-95.42872 40.13867,-98.20312 1.68101,-2.2444 4.06437,-3.72933 7.95899,-4.95704 6.24646,-1.96902 7.66274,-3.76 7.21679,-9.13085 l -0.30859,-3.70899 -11.5,0.22461 c -6.32502,0.12333 -21.4,-0.17567 -33.5,-0.66406 -15.44516,-0.62328 -22.38459,-0.56716 -23.29492,0.1875 -0.83366,0.69112 -1.19075,2.89231 -1,6.16406 l 0.29492,5.08789 12.5,0.50781 c 12.90899,0.52426 15.71454,1.31837 18.44922,5.22266 3.02277,4.31562 1.97975,9.47924 -7.125,35.26953 -4.80949,13.62342 -21.10251,57.08086 -27.36914,73 -2.81463,7.15 -5.77918,15.10301 -6.58789,17.67188 -0.80872,2.56886 -2.14474,5.23019 -2.96875,5.91406 -3.02909,2.51391 -3.68905,0.76915 -14.43555,-38.08594 -0.98877,-3.57502 -5.43211,-19.54998 -9.87305,-35.5 -4.44095,-15.94998 -8.7183,-31.47502 -9.50586,-34.5 -0.78755,-3.02502 -1.91633,-7.35145 -2.50781,-9.61523 -1.51075,-5.78219 -1.33701,-12.56527 0.38477,-15.02344 1.8345,-2.6191 5.10558,-3.8424 14.35351,-5.36328 6.43305,-1.05793 7.43215,-1.51346 8.29883,-3.79297 0.54191,-1.42537 0.84996,-3.96749 0.68555,-5.64844 -0.25429,-2.59884 -0.39875,-2.98902 -3.6875,-3.00195 z m 487.18164,38.1543 -6.39649,0.78515 c -3.5176,0.43155 -26.62939,1.05853 -51.35937,1.39453 l -44.96289,0.61133 -0.89063,3.77149 c -1.1509,4.87279 0.32563,6.72851 5.35743,6.72851 10.28662,0 9.96395,-1.82712 9.9375,56.20117 -0.0208,46.66681 -0.12636,49.52901 -1.9668,53.58399 -1.48426,3.27031 -2.95629,4.74226 -6.22656,6.22656 -2.35609,1.06934 -5.30746,1.95546 -6.5586,1.9668 -1.51033,0.0146 -2.60245,0.88476 -3.25,2.58789 -1.28345,3.37546 -1.24675,8.17752 0.0664,8.61523 0.57347,0.19113 5.18596,-0.005 10.25,-0.4375 5.06404,-0.43189 21.13204,-0.68773 35.70703,-0.56641 14.57499,0.12171 33.25001,0.24503 41.5,0.27149 l 15,0.0508 1.19336,-6.5 c 4.27181,-23.27032 5.44315,-30.97102 4.85547,-31.92187 -0.80738,-1.30644 -6.52966,-1.41634 -9.76172,-0.1875 -1.87223,0.71179 -2.72532,2.37268 -4.23437,8.25 -1.46393,5.70179 -2.70263,8.1825 -5.50586,11.01367 -5.18567,5.23736 -9.68868,6.18531 -29.76368,6.27148 -16.16383,0.0693 -17.34511,-0.0525 -19.30468,-2.00781 -2.85207,-2.84598 -3.38755,-9.42066 -2.5,-30.72461 0.61765,-14.82618 0.98778,-17.6873 2.37695,-18.37695 0.90493,-0.44924 11.31952,-0.83267 23.14453,-0.85157 11.82501,-0.0194 22.03411,-0.36426 22.68555,-0.76757 0.6514,-0.40328 1.92078,-3.26512 2.82031,-6.35938 2.3283,-8.00916 1.32901,-8.8378 -8.93555,-7.41016 -11.78233,1.63892 -39.49687,1.42696 -40.16211,-0.30664 -0.29087,-0.75832 -0.1547,-10.65066 0.30274,-21.98437 0.71157,-17.63029 1.08655,-20.86151 2.59375,-22.37109 2.55832,-2.56237 29.16617,-3.14244 37.1875,-0.81055 7.05441,2.05077 8.57141,4.36631 9.3789,14.30469 l 0.62891,7.74023 5.43164,-0.23437 c 2.98711,-0.12874 5.74592,-0.74233 6.13086,-1.36524 0.38498,-0.62286 1.00706,-4.79221 1.38086,-9.26562 0.37376,-4.47341 1.07754,-9.70978 1.56445,-11.63477 0.48692,-1.92503 1.19916,-6.37696 1.58399,-9.89453 z m 202.31836,0.67773 c -1.83691,0.0203 -2.67619,0.28906 -3.17578,0.81445 -1.1079,1.16519 -3.43467,23.0515 -3.80469,35.79883 l -0.13086,4.5 3.82813,0.31445 c 5.80679,0.47793 8.17439,-1.62743 9.55078,-8.49218 1.65411,-8.25022 4.51671,-13.98324 8.05468,-16.13477 3.85713,-2.34569 23.28017,-4.67971 26.15237,-3.14258 1.8498,0.99009 1.9152,2.7962 1.8926,52.74024 -0.021,48.16868 -0.1487,51.99433 -1.8731,55.79101 -2.0825,4.58525 -4.2358,5.77149 -14.1055,7.76953 -6.2435,1.26395 -6.5345,1.45642 -7.3984,4.875 -0.4947,1.95746 -0.66382,4.17165 -0.377,4.91993 0.7315,1.90673 65.6134,1.73988 66.795,-0.17188 1.0983,-1.77687 2.1653,-9.11792 1.4316,-9.85156 -0.339,-0.33899 -4.3212,-0.6233 -8.8496,-0.63086 -14.4159,-0.0263 -16.6051,-3.15183 -16.5937,-23.70313 0.01,-16.35087 2.7527,-85.28406 3.541,-88.94921 0.7742,-3.60076 2.0524,-3.90751 11.6777,-2.80079 4.5512,0.52332 9.0469,0.95521 9.9902,0.95899 4.9917,0.0221 11.3028,9.79757 13.2403,20.50781 0.9686,5.35434 2.1087,6.5 6.4746,6.5 5.4253,0 7.4966,-1.8828 6.6894,-6.08594 -0.3603,-1.8771 -1.0144,-10.1098 -1.4531,-18.29297 -0.693,-12.92961 -1.0469,-15.06044 -2.7031,-16.27148 -1.0483,-0.76668 -2.5948,-1.08744 -3.4356,-0.71289 -2.9051,1.29422 -84.5166,1.65687 -96.25582,0.42773 -4.49055,-0.47021 -7.3252,-0.69805 -9.16211,-0.67773 z m -509.03125,0.17383 c -2.51195,-0.0124 -6.75966,0.75314 -14.3125,2.11328 -1.77868,0.32031 -3.60487,1.08814 -4.05664,1.70508 -0.83067,1.13442 -4.8637,11.21068 -27.66797,69.12109 -16.69818,42.40426 -18.44228,46.3625 -22.3457,50.69531 -1.83043,2.03184 -4.86414,4.20051 -6.74219,4.82032 -2.80033,0.92417 -3.6112,1.85216 -4.50195,5.16015 -1.87605,6.96718 -2.55979,6.75567 22.75976,7.07617 12.53375,0.15867 24.87088,0.39097 27.41602,0.51758 5.20539,0.25901 6.58271,-0.79529 6.88281,-5.26953 0.37489,-5.58542 0.49937,-5.5 -8.04297,-5.5 -12.95127,0 -18.07401,-3.56974 -16.39258,-11.42383 1.05536,-4.92948 8.44352,-23.94763 9.87305,-25.41601 1.9858,-2.03974 44.62044,-3.01373 46.16797,-1.05469 1.41766,1.79463 7.48921,21.25741 8.13672,26.08398 0.86751,6.46636 -0.21878,8.47707 -5.50196,10.18946 -2.61316,0.84699 -6.5363,1.6702 -8.71875,1.83008 -3.68507,0.27004 -4.03237,0.55871 -4.85351,4.05273 -1.66749,7.09516 -1.6749,7.09268 16.58789,6.18945 8.92792,-0.44164 22.16529,-0.69566 29.41601,-0.5664 12.27447,0.21876 13.25663,0.0964 14.25,-1.75977 0.58678,-1.0964 1.06641,-3.35469 1.06641,-5.01953 0,-2.75713 -0.43363,-3.15684 -4.87109,-4.47461 -7.95345,-2.36194 -10.5737,-4.19213 -13.32032,-9.30273 -3.17729,-5.91202 -16.73348,-46.13646 -23.36523,-69.32813 -0.70772,-2.47499 -3.79459,-13.05002 -6.85938,-23.5 -3.06474,-10.45002 -6.02995,-20.64088 -6.58789,-22.64648 -0.8276,-2.97496 -1.18637,-4.27701 -4.41601,-4.29297 z m 736.27928,0.73047 c -2.18,-0.0329 -4.1091,2.66944 -4.2285,6.27343 -0.1254,3.78913 0,3.94323 3.8691,4.7793 8.6586,1.87019 12.5064,3.76762 14.17,6.98438 1.7827,3.44738 1.6531,17.63306 -0.6895,75.17187 -1.2524,30.76222 -1.3475,31.11585 -9.4199,35.38672 -3.8857,2.0558 -5.1261,3.33401 -5.8106,5.98633 -0.4784,1.85454 -0.6585,3.92257 -0.4004,4.5957 0.5638,1.46907 45.4124,0.88006 47.293,-0.62109 1.5822,-1.26297 2.3394,-7.08048 1.1192,-8.59766 -0.5946,-0.73927 -3.3629,-1.25 -6.7735,-1.25 -4.1907,0 -6.4113,-0.52154 -8.1269,-1.91211 l -2.3614,-1.91406 0.3536,-43.83594 c 0.1937,-24.1101 0.686,-44.19432 1.0937,-44.63086 0.4077,-0.43657 2.2897,1.13844 4.1816,3.5 5.8495,7.30099 50.1077,68.8244 63.875,88.79297 5.1192,7.425 10.2292,14.52892 11.3575,15.78516 1.6255,1.81009 2.6839,2.14786 5.0957,1.63086 4.589,-0.9837 6.4677,-2.24127 7.0175,-4.69532 0.2738,-1.22162 0.6994,-15.27072 0.9473,-31.2207 0.9313,-59.9461 2.092,-87.76437 3.7949,-91.00195 2.1001,-3.9927 4.5211,-5.99975 8.9532,-7.42188 4.8531,-1.55724 6.0226,-3.1643 5.6445,-7.75586 l -0.3145,-3.82031 -22.5,0.33789 c -25.071,0.37512 -25,0.3546 -25,7.23047 v 3.68359 l 5.5606,0.46289 c 3.9594,0.32833 6.1899,1.091 7.75,2.65039 2.1793,2.18302 2.1894,2.31497 2.1894,43.82813 0,29.96179 -0.3152,41.74306 -1.125,42.01367 -0.6189,0.20697 -4.4439,-4.18123 -8.5,-9.75195 -24.237,-33.28785 -28.2196,-38.78712 -30.3906,-41.95508 -1.3193,-1.92499 -5.6807,-8.10309 -9.6914,-13.73047 -4.0107,-5.62741 -11.0371,-15.63991 -15.6133,-22.25 l -8.3203,-12.01953 h -16.3476 c -8.9913,0 -16.9588,-0.23424 -17.7071,-0.52148 -0.3171,-0.1217 -0.6339,-0.1828 -0.9453,-0.1875 z m -391.85741,0.01 c -1.98369,0.091 -3.20673,1.67945 -3.96093,5.02344 -0.98529,4.36868 -0.063,5.35792 6.0664,6.50391 6.73463,1.25918 10.22822,3.3331 12.11719,7.19336 1.61892,3.30844 1.6344,6.20957 0.27539,48 -0.79555,24.46333 -1.70029,46.63489 -2.01172,49.26953 -0.89227,7.54563 -2.36762,9.76649 -8.19531,12.34375 -5.43122,2.40196 -6.82516,4.56725 -6.125,9.51367 l 0.33203,2.35156 23,-0.35156 c 12.65,-0.19416 23.41117,-0.73914 23.91211,-1.21094 0.50094,-0.47176 0.95087,-2.78937 1,-5.14844 l 0.0879,-4.28906 -6.72852,-0.5 c -11.64003,-0.86494 -10.77148,2.91965 -10.77148,-46.9082 0,-23.61041 0.27369,-43.6398 0.60742,-44.50977 0.33381,-0.86997 0.96226,-1.58203 1.39649,-1.58203 0.43423,0 4.09814,4.55424 8.14257,10.11914 4.04444,5.5649 10.18807,13.94233 13.65235,18.61719 3.46431,4.67486 12.423,17.11008 19.9082,27.63281 7.48521,10.52274 14.77416,20.70587 16.19727,22.63086 1.42299,1.92499 4.11701,5.74998 5.98633,8.5 1.86939,2.74998 6.31001,9.20463 9.86718,14.3418 l 6.4668,9.33984 3.61914,-0.67969 c 5.4265,-1.01801 6.86787,-2.11841 7.49414,-5.72461 0.31314,-1.80238 0.83272,-24.87734 1.15625,-51.27734 0.60102,-49.04133 1.63576,-66.84946 4.16797,-71.78711 1.31837,-2.57068 2.8764,-3.53836 10.64258,-6.60937 2.59487,-1.02618 2.78195,-1.46374 2.5,-5.85547 l -0.30469,-4.74805 -4.25,0.0469 c -2.33749,0.0249 -12.55716,0.13737 -22.71094,0.25 l -18.46093,0.20312 -1.10547,4.10547 c -1.52867,5.67727 -0.81364,6.89453 4.04687,6.89453 4.76311,0 9.6234,2.22768 10.34571,4.74023 0.88834,3.09037 1.16931,83.0568 0.29492,83.92579 -0.46179,0.45894 -1.94062,-0.51599 -3.28711,-2.16602 -5.68959,-6.97179 -46.57293,-63.70643 -59.87305,-83.08789 -4.39997,-6.41186 -8.59351,-12.27812 -9.32031,-13.03516 -1.01053,-1.05248 -5.01017,-1.37928 -17,-1.39062 -8.62322,-0.008 -16.5797,-0.23695 -17.67969,-0.51172 -0.54222,-0.13538 -1.04027,-0.19484 -1.49805,-0.17383 z m 349.47461,0.17969 c -3.9496,-0.0406 -10.2147,0.0748 -20.2148,0.25976 -14.7189,0.27221 -27.171,0.874 -27.6719,1.3379 -0.5009,0.46386 -0.9509,2.77378 -1,5.13281 l -0.09,4.28906 6.6348,0.29297 c 11.0765,0.4893 10.3133,-2.98318 10.6856,48.56055 0.3899,54.00521 0.053,59.5844 -3.8633,64.04492 -1.6112,1.83515 -4.7239,3.82649 -7.1543,4.57812 -2.3662,0.73172 -5.0903,2.2104 -6.0528,3.28711 -2.0158,2.25494 -2.3504,8.32795 -0.5,9.07422 v -0.002 c 0.6875,0.27893 1.925,0.26349 2.75,-0.0332 0.825,-0.2968 12.975,-0.76063 27,-1.03124 14.025,-0.27039 25.8928,-0.85582 26.3711,-1.30079 1.43,-1.3302 2.4895,-8.93842 1.3438,-9.64648 -0.5636,-0.34859 -4.0213,-0.53665 -7.6836,-0.41797 -12.1452,0.3939 -13.4418,-2.90775 -12.5352,-31.90625 1.4634,-46.81039 2.7119,-73.79073 3.5664,-77.08984 1.2082,-4.6639 3.6005,-6.73183 9.5039,-8.20899 4.054,-1.01438 4.9303,-1.6679 5.6309,-4.20117 0.4562,-1.64999 0.604,-3.95681 0.3281,-5.12695 -0.3122,-1.32499 -0.4661,-1.82495 -7.0488,-1.89258 z m -560.97656,0.0195 -25.5,0.36719 c -15.696,0.22605 -25.99897,0.77003 -26.79883,1.41406 -0.78799,0.63439 -1.18141,2.65507 -1,5.13281 l 0.29883,4.08594 5.63867,0.29688 c 9.94625,0.52323 9.31823,-2.78924 9.64063,50.97265 0.15658,26.12379 -0.1432,49.61223 -0.6836,53.51172 -1.14327,8.24995 -3.36622,11.15514 -10.02148,13.0957 -4.1012,1.19585 -4.59929,1.67926 -5.32617,5.17774 -0.44107,2.12281 -0.58929,4.41689 -0.32813,5.09765 0.36767,0.95804 6.42004,1.12491 26.7793,0.73633 14.46633,-0.27609 34.6258,-0.0955 44.80078,0.40235 10.17502,0.4978 18.97624,0.97311 19.55859,1.05664 2.92336,0.41915 4.42189,-2.59124 5.39844,-10.84766 0.55298,-4.67497 1.70945,-12.77499 2.57031,-18 2.91984,-17.72224 2.86923,-16.91078 1.09961,-17.58984 -0.89722,-0.34432 -3.75055,-0.23901 -6.34179,0.23437 -4.30655,0.78679 -4.78261,1.16277 -5.54883,4.35938 -3.94239,16.4471 -7.43007,22.45593 -14.7207,25.37304 -5.34002,2.13665 -24.22116,3.21833 -29.76758,1.70508 -7.82332,-2.13441 -7.78642,-1.93927 -7.47461,-39.04297 0.15046,-17.89689 0.70213,-37.48906 1.22461,-43.53906 0.52248,-6.05 1.2323,-14.56875 1.57812,-18.92969 0.53817,-6.78943 1.01046,-8.30928 3.28321,-10.58203 1.62187,-1.62187 4.29793,-2.91705 6.88086,-3.33008 4.58634,-0.73338 5.73687,-2.60837 5.08789,-8.28711 z m -145.1582,25.20899 c 1.49716,-0.21973 2.86594,3.23779 5.63672,12.29101 1.76745,5.77501 4.26622,13.64998 5.55273,17.5 4.60018,13.76644 6.50884,21.86131 5.41406,22.95703 -0.61561,0.61614 -8.18639,1.1866 -18.48633,1.39258 -14.581,0.29155 -17.53656,0.10846 -18.0039,-1.10938 -0.3075,-0.80133 0.55318,-4.33212 1.91211,-7.84765 6.58934,-17.04631 13.63369,-36.64905 13.63672,-37.94531 0.002,-0.79593 0.93478,-2.97405 2.07226,-4.83985 0.87763,-1.43957 1.5851,-2.29856 2.26563,-2.39843 z"
         style="fill:#a715f4;stroke-width:0.99999994" />
      <circle
         r="4.4884672"
         cy="205.59782"
         cx="15.115749"
         id="path1109"
         style="opacity:1;fill:#a715f4;fill-opacity:1;stroke:none;stroke-width:0.13380282;stroke-linecap:square;stroke-linejoin:miter;stroke-miterlimit:4;stroke-dasharray:none;stroke-opacity:1;paint-order:markers fill stroke" />
    </g>
  </g>
</svg>
