<?xml version="1.0" encoding="UTF-8" standalone="no"?>
<svg
   xmlns:dc="http://purl.org/dc/elements/1.1/"
   xmlns:cc="http://creativecommons.org/ns#"
   xmlns:rdf="http://www.w3.org/1999/02/22-rdf-syntax-ns#"
   xmlns:svg="http://www.w3.org/2000/svg"
   xmlns="http://www.w3.org/2000/svg"
   xmlns:sodipodi="http://sodipodi.sourceforge.net/DTD/sodipodi-0.dtd"
   xmlns:inkscape="http://www.inkscape.org/namespaces/inkscape"
   width="2500"
   height="1000"
   viewBox="0 0 192.756 77.1024"
   version="1.1"
   id="svg44"
   sodipodi:docname="the-home-shopping-network.svg"
   inkscape:version="0.92.4 (5da689c313, 2019-01-14)">
  <metadata
     id="metadata50">
    <rdf:RDF>
      <cc:Work
         rdf:about="">
        <dc:format>image/svg+xml</dc:format>
        <dc:type
           rdf:resource="http://purl.org/dc/dcmitype/StillImage" />
        <dc:title></dc:title>
      </cc:Work>
    </rdf:RDF>
  </metadata>
  <defs
     id="defs48" />
  <sodipodi:namedview
     pagecolor="#ffffff"
     bordercolor="#666666"
     borderopacity="1"
     objecttolerance="10"
     gridtolerance="10"
     guidetolerance="10"
     inkscape:pageopacity="0"
     inkscape:pageshadow="2"
     inkscape:window-width="1366"
     inkscape:window-height="705"
     id="namedview46"
     showgrid="false"
     inkscape:zoom="0.0944"
     inkscape:cx="2951.6579"
     inkscape:cy="642.39852"
     inkscape:window-x="-8"
     inkscape:window-y="-8"
     inkscape:window-maximized="1"
     inkscape:current-layer="g42" />
  <g
     id="g42"
     style="clip-rule:evenodd;fill-rule:evenodd"
     transform="translate(0,-115.6536)">
    <path
       style="fill:#929496;stroke-width:12.96976471"
       d="M 655.87695 150.71289 L 655.87695 158.37891 L 690.37695 158.37891 L 690.37695 442.85742 L 655.87695 442.85742 L 655.87695 450.52148 L 791.30664 450.52148 L 791.30664 442.85742 L 756.82031 442.85742 L 756.82031 296.34961 L 867.54297 296.34961 L 867.54297 442.85742 L 833.04297 442.85742 L 833.04297 450.52148 L 968.46094 450.52148 L 968.46094 442.85742 L 933.97461 442.85742 L 933.97461 158.37891 L 968.46094 158.37891 L 968.46094 150.71289 L 833.04297 150.71289 L 833.04297 158.37891 L 867.54297 158.37891 L 867.54297 288.68555 L 756.82031 288.68555 L 756.82031 158.37891 L 791.30664 158.37891 L 791.30664 150.71289 L 655.87695 150.71289 z M 1079.1055 258.02539 C 1022.9075 258.02539 977.75977 298.47715 977.75977 356.82812 C 977.75977 415.16613 1022.9075 455.63281 1079.1055 455.63281 C 1135.3294 455.63281 1180.4648 415.16613 1180.4648 356.82812 C 1180.4648 298.47715 1135.3294 258.02539 1079.1055 258.02539 z M 1079.1055 265.70312 C 1100.8298 265.70312 1114.0332 278.90633 1114.0332 310.83789 L 1114.0332 402.81836 C 1114.0332 434.74992 1100.8298 447.95312 1079.1055 447.95312 C 1057.4071 447.95312 1044.1914 434.76289 1044.1914 402.81836 L 1044.1914 310.83789 C 1044.1914 278.90633 1057.3941 265.70312 1079.1055 265.70312 z "
       transform="matrix(0.0771024,0,0,0.0771024,0,115.6536)"
       id="path4" />
    <path
       style="fill:#929496;stroke-width:12.96976471"
       d="M 1275.3906 252.05859 C 1266.4545 263.13477 1234.9378 263.13477 1217.4805 263.13477 L 1187.2344 263.13477 L 1187.2344 270.80078 L 1216.625 270.80078 L 1216.6367 270.80078 L 1216.6367 442.84375 L 1187.248 442.84375 L 1187.248 450.50977 L 1297.5566 450.50977 L 1297.5566 442.84375 L 1275.4043 442.84375 L 1275.4043 326.1543 C 1275.4043 306.99795 1293.2886 273.35547 1320.123 273.35547 C 1335.8813 273.35547 1340.1348 286.12952 1340.1348 311.25195 L 1340.1348 442.84375 L 1316.2715 442.84375 L 1316.2715 450.50977 L 1422.3125 450.50977 L 1422.3125 442.84375 L 1398.9023 442.84375 L 1398.9023 326.1543 C 1398.9023 306.99795 1416.7859 273.35547 1443.6074 273.35547 C 1459.3657 273.35547 1463.6211 286.12952 1463.6211 311.25195 L 1463.6211 442.84375 L 1441.0527 442.84375 L 1441.0527 450.50977 L 1551.7754 450.50977 L 1551.7754 442.84375 L 1522.3867 442.84375 L 1522.3867 324.02734 C 1522.3867 278.03656 1502.8019 258.02539 1467.0312 258.02539 C 1438.4848 258.02539 1412.9479 272.08433 1398.8887 297.63477 C 1390.7826 270.80032 1369.0714 258.02539 1344.377 258.02539 C 1315.8564 258.02539 1287.7373 272.92736 1276.2461 297.63477 L 1275.3906 297.63477 L 1275.3906 252.05859 z M 1654.3477 258.00391 C 1653.6499 257.9954 1652.9529 257.99834 1652.2539 258.01172 C 1602.022 258.01172 1558.5723 301.44839 1558.5723 358.94336 C 1558.5723 414.31129 1599.0252 455.61914 1653.5371 455.61914 C 1705.922 455.61914 1731.8865 423.24744 1741.2637 381.0957 L 1733.5859 381.0957 C 1724.2347 420.70537 1699.5274 445.39844 1666.2988 445.39844 C 1626.7021 445.39844 1622.4492 412.18414 1622.4492 383.22266 L 1622.4492 347.45117 L 1622.4492 347.4375 L 1740.0059 347.4375 C 1739.5718 302.16532 1698.3056 258.53966 1654.3477 258.00391 z M 1649.2832 265.67773 C 1669.7236 265.67773 1676.1035 279.73676 1676.1035 303.16016 L 1676.1035 339.78516 L 1622.4609 339.78516 L 1622.4609 303.16016 C 1622.4609 274.62667 1634.796 265.67773 1649.2832 265.67773 z "
       transform="matrix(0.0771024,0,0,0.0771024,0,115.6536)"
       id="path8" />
    <path
       style="fill:#929496;stroke-width:12.96976471"
       d="M 606.06055 358.55273 C 596.7742 374.0516 568.3699 374.05273 531.69141 374.05273 L 499.15039 374.05273 L 499.15039 383.35156 L 534.79102 383.35156 L 534.79102 728.34766 L 499.15039 728.34766 L 499.15039 737.63281 L 636.53906 737.63281 L 636.53906 728.33398 L 606.06055 728.33398 L 606.06055 586.83398 C 606.06055 560.47942 631.89508 522.78906 660.80469 522.78906 C 675.79774 522.78906 691.2832 528.97576 691.2832 565.14844 L 691.2832 728.33398 L 661.84375 728.33398 L 661.84375 737.63281 L 798.20703 737.63281 L 798.20703 728.33398 L 762.56641 728.33398 L 762.56641 584.25391 C 762.56641 528.48392 738.80485 504.20312 689.74023 504.20312 C 655.1369 504.20312 621.04015 522.27101 607.09766 552.24414 L 606.06055 552.24414 L 606.06055 358.55273 z M 338.93555 365.79102 C 268.10766 365.79102 220.89648 408.65584 220.89648 476.83789 C 220.89648 632.29349 434.96289 551.20705 434.96289 663.81055 C 434.96289 709.2566 403.83463 736.63477 357.70117 736.63477 C 285.278 736.63477 244.50202 659.14129 231.62305 600.77734 L 221.97266 600.77734 L 221.97266 738.17773 L 231.62305 738.17773 C 231.62305 728.34665 236.99129 719.04883 251.47852 719.04883 C 272.94348 719.04883 316.92533 745.92188 363.60352 745.92188 C 439.25615 745.92188 486.46484 696.32474 486.46484 615.76953 C 486.46484 462.37612 269.18359 540.86991 269.18359 441.19727 C 269.18359 401.419 299.76603 375.07617 340.54297 375.07617 C 408.12841 375.07617 438.17911 434.99681 451.58984 489.74219 L 461.25195 489.74219 L 461.25195 373.5332 L 451.58984 373.5332 C 451.58984 380.25154 450.52712 393.67578 434.43164 393.67578 C 410.28194 393.67578 393.12322 365.79102 338.93555 365.79102 z M 915.2207 504.20312 C 847.05162 504.20312 792.29297 553.28118 792.29297 624.03125 C 792.29297 694.78132 847.05162 743.8457 915.2207 743.8457 C 983.40276 743.8457 1038.1484 694.78132 1038.1484 624.03125 C 1038.1484 553.28118 983.40276 504.20312 915.2207 504.20312 z M 915.20703 513.49023 C 941.56159 513.49023 957.56641 529.52033 957.56641 568.24805 L 957.56641 679.81445 C 957.56641 718.55514 941.54862 734.56055 915.20703 734.56055 C 888.87841 734.56055 872.86133 718.54217 872.86133 679.81445 L 872.86133 568.24805 C 872.86133 529.50736 888.87841 513.49023 915.20703 513.49023 z "
       id="path12"
       transform="matrix(0.0771024,0,0,0.0771024,0,115.6536)" />
    <path
       style="fill:#929496;stroke-width:12.96976471"
       d="M 1154.291 494.38477 C 1145.0047 509.88363 1116.6023 510.39062 1079.9238 510.39062 L 1047.3828 510.39062 L 1047.3828 519.68945 L 1083.0234 519.68945 L 1083.0234 865.2168 L 1047.3828 865.2168 L 1047.3828 874.54297 L 1193.5508 874.54297 L 1193.5508 865.2168 L 1154.291 865.2168 L 1154.291 706.15625 L 1155.3301 706.15625 C 1167.7292 729.3851 1186.3276 743.8457 1220.4121 743.8457 C 1272.0707 743.8457 1329.3965 699.9439 1329.3965 628.15625 C 1329.3965 562.03639 1288.5817 504.20312 1219.375 504.20312 C 1191.9958 504.20312 1169.2726 516.60325 1155.3301 543.98242 L 1154.291 543.98242 L 1154.291 494.38477 z M 1210.0742 516.60352 C 1237.4534 516.60352 1251.916 539.32592 1251.916 575.47266 L 1251.916 659.14062 C 1251.916 709.74865 1236.4155 731.46094 1208.0117 731.46094 C 1173.9272 731.46094 1154.291 699.44969 1154.291 669.47656 L 1154.291 579.0918 C 1154.291 550.16922 1174.9521 516.60352 1210.0742 516.60352 z "
       transform="matrix(0.0771024,0,0,0.0771024,0,115.6536)"
       id="path16" />
    <path
       style="fill:#929496;stroke-width:12.96976471"
       d="M 1429.3672 494.38477 C 1420.0808 509.88363 1391.6765 510.39062 1354.998 510.39062 L 1322.4707 510.39062 L 1322.4707 519.68945 L 1358.0859 519.68945 L 1358.0859 865.2168 L 1322.4707 865.2168 L 1322.457 865.2168 L 1322.457 874.54297 L 1468.627 874.54297 L 1468.627 865.2168 L 1429.3672 865.2168 L 1429.3672 706.15625 L 1430.4043 706.15625 C 1442.8034 729.3851 1461.3908 743.8457 1495.4883 743.8457 C 1547.1339 743.8457 1604.459 699.9439 1604.459 628.15625 C 1604.459 562.03639 1563.6559 504.20312 1494.4492 504.20312 C 1467.0571 504.20312 1444.3338 516.60325 1430.4043 543.98242 L 1429.3672 543.98242 L 1429.3672 494.38477 z M 1485.1504 516.60352 C 1512.5425 516.60352 1527.0039 539.32592 1527.0039 575.47266 L 1527.0039 659.14062 C 1527.0039 709.74865 1511.4924 731.46094 1483.1016 731.46094 C 1449.0041 731.46094 1429.3672 699.44969 1429.3672 669.47656 L 1429.3672 579.0918 C 1429.3672 550.16922 1450.0412 516.60352 1485.1504 516.60352 z "
       transform="matrix(0.0771024,0,0,0.0771024,0,115.6536)"
       id="path20" />
    <path
       style="fill:#929496;stroke-width:12.96976471"
       d="M 2311.2852 484.4375 C 2290.9226 484.4375 2275.4883 496.2797 2263.7637 508.12109 C 2245.8784 496.82443 2221.2097 488.74414 2186.6582 488.74414 C 2134.8051 488.74414 2079.2832 518.35304 2079.2832 567.33984 C 2079.2832 596.94982 2097.8032 620.10165 2130.5 633.01953 L 2130.5 634.10938 C 2106.4281 636.79412 2068.7891 651.33283 2068.7891 696.01367 C 2068.7891 722.91296 2082.979 743.37895 2108.8926 749.83789 L 2108.8926 750.90234 C 2084.2241 756.82953 2055.8457 778.35954 2055.8457 804.19531 C 2055.8457 844.0514 2109.5282 874.72461 2178.0215 874.72461 C 2263.7646 874.72461 2319.9238 824.12811 2319.9238 758.44922 C 2319.9238 706.20701 2290.3127 682.52577 2229.8477 683.61523 L 2229.8477 683.62695 L 2127.3867 683.62695 C 2111.9527 683.62695 2090.9805 683.09575 2090.9805 668.55664 C 2090.9805 655.10699 2117.5045 640.56836 2140.9668 640.56836 C 2147.75 640.56836 2154.5469 642.16394 2161.3301 643.78516 C 2168.7228 645.93814 2176.7499 647.02734 2186.6328 647.02734 C 2239.6792 647.02734 2296.4473 620.62025 2296.4473 569.48047 C 2296.4473 552.25662 2287.2015 528.04289 2269.9258 515.125 C 2281.0279 505.42362 2286.6051 493.58123 2310.6641 490.89648 L 2310.6641 491.97266 C 2297.6943 497.88687 2293.9961 504.89135 2293.9961 515.65625 C 2293.9961 528.04238 2303.8801 540.42773 2322.375 540.42773 C 2342.1409 540.42773 2353.2305 527.50981 2353.2305 512.9707 C 2353.2305 494.12563 2329.806 484.4375 2311.2852 484.4375 z M 1707.3867 496.9668 C 1696.544 510.3905 1658.3222 510.39062 1637.1426 510.39062 L 1600.4902 510.39062 L 1600.4902 519.68945 L 1636.1055 519.68945 L 1636.1055 728.34766 L 1600.4902 728.34766 L 1600.4902 737.63281 L 1743.0293 737.63281 L 1743.0293 728.33398 L 1707.3867 728.33398 L 1707.3867 496.9668 z M 1857.3301 496.9668 C 1846.4614 510.3905 1808.2656 510.39062 1787.0859 510.39062 L 1750.4082 510.39062 L 1750.4082 519.68945 L 1786.0488 519.68945 L 1786.0488 728.34766 L 1750.4082 728.34766 L 1750.3945 728.34766 L 1750.3945 737.62109 L 1887.7969 737.62109 L 1887.7969 728.32227 L 1857.3184 728.32227 L 1857.3184 586.82031 C 1857.3184 560.46575 1883.1399 522.77734 1912.0625 522.77734 C 1927.0426 522.77734 1942.543 528.96209 1942.543 565.13477 L 1942.543 728.32227 L 1913.1016 728.32227 L 1913.1016 737.62109 L 2049.4395 737.62109 L 2049.4395 728.32227 L 2013.7988 728.32227 L 2013.7988 584.24023 C 2013.7988 528.47025 1990.0367 504.19141 1940.998 504.19141 C 1906.3947 504.19141 1872.2973 522.25734 1858.3418 552.23047 L 1857.3301 552.23047 L 1857.3301 496.9668 z M 2187.2695 498.41992 C 2216.2699 498.41992 2225.5168 505.40977 2226.1523 567.31445 C 2225.5168 633.5251 2209.4867 637.29953 2187.2695 637.3125 C 2162.601 637.3125 2149.6309 630.30818 2149.6309 565.71875 C 2149.6309 522.10143 2155.1694 498.41992 2187.2695 498.41992 z M 2118.7754 751.43359 L 2215.6465 751.43359 C 2277.3566 751.43359 2297.7188 756.27118 2297.7188 789.09766 C 2297.7188 828.42198 2242.1967 865.02344 2179.877 865.02344 C 2124.3275 865.02344 2094.1064 832.16976 2092.8613 806.33398 C 2092.8613 782.65119 2102.1092 767.04989 2118.7754 751.44727 L 2118.7754 751.43359 z "
       transform="matrix(0.0771024,0,0,0.0771024,0,115.6536)"
       id="path24" />
    <path
       style="stroke-width:12.96976471"
       d="M 298.61133 211.95508 L 297.92383 254.35352 L 305.91406 254.35352 C 310.60912 234.01692 320.68662 219.94531 339.97266 219.94531 L 339.97266 313.08203 C 339.97266 321.7588 335.80893 324.54688 320.51758 324.54688 L 320.51758 331.49805 L 388.28516 331.49805 L 388.28516 324.54688 C 373.33102 324.54688 369.16797 321.7588 369.16797 313.08203 L 369.16797 219.94531 C 388.45401 219.94531 398.53151 234.01692 403.22656 254.35352 L 411.21484 254.35352 L 410.52734 211.95508 L 298.61133 211.95508 z M 454.83203 213.00586 L 416.61133 213.70703 L 416.61133 220.30859 C 426.33865 220.30859 429.46289 221.69543 429.46289 229.16602 L 429.46289 313.09375 C 429.46289 321.08313 427.72619 324.55859 415.56055 324.55859 L 415.56055 331.51172 L 466.64844 331.51172 L 466.64844 324.55859 C 456.57093 324.55859 454.83203 321.08313 454.83203 313.09375 L 454.83203 283.54883 C 454.83203 267.90729 462.12054 257.14258 469.25391 257.14258 C 474.63636 257.14258 476.89453 260.25547 476.89453 268.25781 L 476.90625 268.25781 L 476.90625 331.51172 L 514.0918 331.51172 L 514.0918 324.55859 C 504.01429 324.55859 502.27539 321.08313 502.27539 313.09375 L 502.27539 272.78516 C 502.27539 256.45622 492.53539 247.76562 476.55664 247.76562 C 469.25466 247.76562 462.48419 251.06009 454.83203 258.88086 L 454.83203 213.00586 z M 568.61523 247.75195 C 539.07011 247.75195 523.0918 271.04542 523.0918 290.68164 C 523.0918 310.31786 539.07011 333.59961 568.61523 333.59961 C 588.78322 333.59961 598.68102 324.56007 605.63281 311.70703 L 600.08008 308.23047 C 594.16587 316.90724 584.60728 325.59766 573.49219 325.59766 C 554.89354 325.59766 550.90039 307.69865 550.90039 291.01953 L 606.15039 291.01953 C 606.15039 263.39393 589.80783 247.75195 568.61523 247.75195 z M 565.83984 254.00391 C 574.1794 254.00391 578.35547 261.29322 578.35547 283.01758 L 550.90039 283.01758 C 552.28816 263.03117 557.85047 254.00391 565.83984 254.00391 z "
       transform="matrix(0.0771024,0,0,0.0771024,0,115.6536)"
       id="path28" />
  </g>
</svg>
