<?xml version="1.0" encoding="UTF-8" standalone="no"?>
<svg
   xmlns:dc="http://purl.org/dc/elements/1.1/"
   xmlns:cc="http://creativecommons.org/ns#"
   xmlns:rdf="http://www.w3.org/1999/02/22-rdf-syntax-ns#"
   xmlns:svg="http://www.w3.org/2000/svg"
   xmlns="http://www.w3.org/2000/svg"
   xmlns:sodipodi="http://sodipodi.sourceforge.net/DTD/sodipodi-0.dtd"
   xmlns:inkscape="http://www.inkscape.org/namespaces/inkscape"
   viewBox="0 0 123.55 123.54"
   version="1.1"
   id="svg10"
   sodipodi:docname="bathroom.svg"
   inkscape:version="0.92.4 (5da689c313, 2019-01-14)">
  <metadata
     id="metadata16">
    <rdf:RDF>
      <cc:Work
         rdf:about="">
        <dc:format>image/svg+xml</dc:format>
        <dc:type
           rdf:resource="http://purl.org/dc/dcmitype/StillImage" />
        <dc:title></dc:title>
      </cc:Work>
    </rdf:RDF>
  </metadata>
  <defs
     id="defs14">
    <clipPath
       clipPathUnits="userSpaceOnUse"
       id="clipPath879">
      <rect
         style="opacity:1;fill:#000000;fill-opacity:1;stroke:none;stroke-width:0.56775969;stroke-linecap:square;stroke-linejoin:miter;stroke-miterlimit:4;stroke-dasharray:none;stroke-opacity:1;paint-order:markers fill stroke"
         id="rect881"
         width="201.30873"
         height="192.65874"
         x="-173.05374"
         y="-205.03381"
         transform="scale(1,-1)" />
    </clipPath>
    <clipPath
       clipPathUnits="userSpaceOnUse"
       id="clipPath879-5">
      <rect
         style="opacity:1;fill:#000000;fill-opacity:1;stroke:none;stroke-width:0.56775969;stroke-linecap:square;stroke-linejoin:miter;stroke-miterlimit:4;stroke-dasharray:none;stroke-opacity:1;paint-order:markers fill stroke"
         id="rect881-9"
         width="201.30873"
         height="192.65874"
         x="-173.05374"
         y="-205.03381"
         transform="scale(1,-1)" />
    </clipPath>
  </defs>
  <sodipodi:namedview
     pagecolor="#ffffff"
     bordercolor="#666666"
     borderopacity="1"
     objecttolerance="10"
     gridtolerance="10"
     guidetolerance="10"
     inkscape:pageopacity="0"
     inkscape:pageshadow="2"
     inkscape:window-width="1366"
     inkscape:window-height="705"
     id="namedview12"
     showgrid="false"
     inkscape:zoom="0.95515622"
     inkscape:cx="13.924612"
     inkscape:cy="79.242067"
     inkscape:window-x="-8"
     inkscape:window-y="-8"
     inkscape:window-maximized="1"
     inkscape:current-layer="svg10" />
  <g
     id="g929"
     transform="translate(-214.29462,-0.61476931)">
    <g
       clip-path="url(#clipPath879-5)"
       transform="matrix(0.48658606,0,0,-0.48658606,313.26669,116.27179)"
       id="g36">
      <path
         inkscape:connector-curvature="0"
         id="path38"
         style="fill:#000000;fill-opacity:1;fill-rule:nonzero;stroke:none"
         d="m 0,0 h 6.266 c 0.737,0 2.333,-6.075 4.792,-18.228 0.489,0 2.088,6.076 4.792,18.228 h 7.004 c 0.489,-0.135 0.737,-0.404 0.737,-0.81 v -26.532 c 0,-0.406 -0.248,-0.608 -0.737,-0.608 v 0.202 l -0.737,-0.202 h -2.765 c -0.492,0 -0.737,0.202 -0.737,0.608 V -7.898 H 18.43 C 15.726,-21.267 14.007,-27.95 13.27,-27.95 h -2.212 c -1.843,0 -2.765,0.877 -2.765,2.633 -1.353,5.399 -2.58,11.07 -3.686,17.013 H 4.238 V -27.748 L 1.843,-27.95 H 0 c -0.369,0 -0.554,0.202 -0.554,0.608 V -0.81 C -0.554,-0.272 -0.369,0 0,0 M -23.408,-12.152 V -16 c 0,-4.187 2.334,-6.684 7.005,-7.494 3.069,0 5.22,2.159 6.45,6.481 v 3.848 c 0,4.726 -1.722,7.494 -5.16,8.305 -0.492,0 -0.922,0.133 -1.29,0.404 -4.671,-0.677 -7.005,-3.24 -7.005,-7.696 m 6.636,12.558 c 5.898,0 9.889,-3.31 11.98,-9.925 0.244,-3.107 0.368,-4.728 0.368,-4.86 0,-6.482 -2.519,-10.938 -7.556,-13.369 l -4.423,-0.606 c -5.409,0 -9.217,2.496 -11.428,7.493 -0.737,2.699 -1.106,4.725 -1.106,6.076 v 1.62 c 0,7.292 3.378,11.678 10.137,13.165 0.121,0 0.798,0.134 2.028,0.406 M -33.36,186.741 c 5.405,0 9.215,-3.376 11.427,-10.127 0.245,-1.35 0.368,-2.364 0.368,-3.037 0,-7.292 -4.055,-11.615 -12.164,-12.963 -7.619,1.753 -11.427,5.671 -11.427,11.747 v 3.443 c 0,3.646 2.518,7.089 7.557,10.33 0.489,0 1.903,0.203 4.239,0.607 M -50.685,-13.975 v -0.404 c 0,-6.077 2.333,-9.115 7.004,-9.115 4.544,0 6.819,3.307 6.819,9.925 -0.616,6.075 -2.888,9.113 -6.819,9.113 -4.671,0 -7.004,-3.173 -7.004,-9.519 m 6.636,14.381 c 6.756,0 10.874,-3.782 12.347,-11.342 v -4.254 c 0,-5.266 -2.027,-9.184 -6.082,-11.747 -1.229,-0.677 -3.196,-1.148 -5.897,-1.417 -6.759,0 -10.814,3.645 -12.165,10.937 0,2.157 -0.124,3.307 -0.368,3.442 0,6.346 2.58,10.868 7.74,13.571 z m -5.162,154.537 h 32.439 c 3.317,0 5.834,-7.158 7.556,-21.469 0.737,-2.298 3.502,-15.868 8.294,-40.711 v -0.202 c -0.861,-3.377 -2.275,-5.064 -4.239,-5.064 h -1.658 c -3.198,0 -5.04,4.456 -5.53,13.368 -1.106,5.399 -3.256,17.621 -6.451,36.659 h -0.737 v -0.404 l 8.663,-56.307 c -0.493,-2.297 -1.538,-3.442 -3.134,-3.442 H -18.8 v -48.61 c -0.86,-4.323 -2.643,-6.481 -5.345,-6.481 h -2.396 c -2.704,0 -4.423,2.294 -5.161,6.887 v 48.204 h -2.763 V 29.167 c -0.738,-4.593 -2.46,-6.887 -5.161,-6.887 h -2.396 c -2.828,0 -4.548,2.563 -5.162,7.697 v 47.394 h -5.528 c -2.091,0.404 -3.134,1.417 -3.134,3.038 0,1.348 3.134,20.386 9.4,57.115 h -0.738 c -5.528,-29.571 -8.725,-45.571 -9.583,-48.001 -1.23,-1.351 -2.275,-2.026 -3.133,-2.026 h -1.659 c -2.212,0 -3.75,1.754 -4.608,5.266 l 13.086,59.142 c 1.475,2.025 2.765,3.038 3.87,3.038 M -74.83,-5.265 v -6.482 h 6.267 c 2.581,0 3.871,1.145 3.871,3.443 -0.369,2.026 -1.29,3.039 -2.765,3.039 z m -2.027,195.45 c 1.844,-0.406 2.765,-1.418 2.765,-3.038 l -0.368,-1.823 v -80.813 l 0.368,-1.823 h -0.368 c 0,-0.272 0.121,-0.406 0.368,-0.406 -0.247,-1.35 -0.368,-2.364 -0.368,-3.037 l 0.368,-1.418 c -0.247,-0.541 -0.368,-1.082 -0.368,-1.62 l 0.368,-0.608 -0.368,-2.025 0.368,-1.824 c 0,-0.271 -0.124,-0.404 -0.368,-0.404 l 0.368,-2.633 V 86.08 l -0.368,-2.229 c 0,-0.271 0.121,-0.405 0.368,-0.405 l -0.368,-3.847 v -2.634 c 0,-1.62 0.121,-3.24 0.368,-4.861 -0.247,-1.082 -0.368,-2.024 -0.368,-2.835 l 0.368,-0.608 -0.368,-0.81 c 0,-0.272 0.121,-0.405 0.368,-0.405 L -74.46,65.623 V 20.457 c -0.37,-0.946 -1.17,-1.417 -2.397,-1.417 h -0.737 c -1.23,0 -2.028,0.471 -2.396,1.417 v 168.31 c 0,0.674 1.042,1.146 3.133,1.418 M -79.622,0 h 7.927 c 6.756,0 10.565,-1.417 11.426,-4.252 0.49,-1.757 0.738,-3.242 0.738,-4.456 -0.862,-4.592 -2.949,-6.886 -6.267,-6.886 3.194,-2.972 5.834,-7.023 7.925,-12.154 -0.247,0 -0.368,-0.069 -0.368,-0.202 l -0.738,0.202 c -1.842,-0.135 -3.441,-0.202 -4.792,-0.202 -3.933,7.829 -7.127,11.747 -9.584,11.747 h -1.475 v -7.695 c 0,-2.704 -0.552,-4.052 -1.658,-4.052 h -1.106 c -0.123,0 -0.184,0.067 -0.184,0.202 l -0.737,-0.202 h -1.107 c -0.368,0 -0.552,0.202 -0.552,0.608 V -0.81 c 0,0.538 0.184,0.81 0.552,0.81 m -23.038,0 h 18.984 c 0.49,-0.135 0.737,-0.404 0.737,-0.81 v -0.405 c 0,-0.135 -0.124,-0.202 -0.368,-0.202 l 0.368,-0.81 v -2.229 c 0,-0.54 -0.247,-0.809 -0.737,-0.809 h -7.003 v -22.077 c 0,-0.406 -0.185,-0.608 -0.553,-0.608 h -2.396 c -0.248,0 -0.369,0.067 -0.369,0.202 l -0.737,-0.202 h -1.106 v 22.685 h -6.82 c -0.492,0 -0.736,0.269 -0.736,0.809 v 3.646 c 0.12,0.538 0.368,0.81 0.736,0.81 m -13.822,0.406 c 6.634,-0.541 9.952,-2.972 9.952,-7.292 v -0.608 c 0,-0.541 -0.185,-0.81 -0.553,-0.81 h -3.87 c -1.107,2.563 -2.704,3.848 -4.792,3.848 h -0.369 c -2.459,0 -3.87,-0.879 -4.239,-2.632 0,-1.62 3.501,-3.311 10.505,-5.064 2.95,-1.892 4.424,-4.39 4.424,-7.494 0,-5.266 -3.318,-8.171 -9.953,-8.708 h -0.368 c -4.792,0 -8.049,2.024 -9.769,6.075 l -0.552,3.444 c 0.245,0.133 1.842,0.335 4.792,0.607 0.982,-3.513 2.701,-5.266 5.16,-5.266 h 1.106 c 2.701,0 4.055,1.146 4.055,3.444 v 1.417 c 0,0.944 -3.197,2.228 -9.584,3.848 -3.073,1.754 -4.608,4.051 -4.608,6.887 v 0.81 c 0.738,4.993 3.502,7.494 8.293,7.494 z m -5.161,186.335 c 7.862,-1.351 11.795,-5.604 11.795,-12.76 v -0.404 c 0,-5.944 -3.011,-10.128 -9.031,-12.558 -1.229,-0.272 -2.15,-0.405 -2.764,-0.405 -5.529,0 -9.463,3.712 -11.796,11.139 v 2.228 c 0,5.941 3.133,10.127 9.4,12.558 z M -147.446,0 h 17.509 c 0.49,-0.135 0.737,-0.404 0.737,-0.81 v -3.646 c 0,-0.54 -0.247,-0.809 -0.737,-0.809 h -12.717 v -5.671 h 11.611 c 0.49,-0.137 0.737,-0.406 0.737,-0.811 v -3.038 c 0,-0.405 -0.432,-0.809 -1.29,-1.215 -0.247,0 -0.368,0.133 -0.368,0.406 l -1.66,-0.406 h -6.265 l -2.397,0.406 c -0.248,-0.678 -0.492,-1.014 -0.737,-1.014 l 0.369,-0.809 v -5.672 h 13.085 c 0.49,-0.136 0.737,-0.405 0.737,-0.809 v -3.444 c 0,-0.406 -0.247,-0.608 -0.737,-0.608 h -16.219 l -2.395,0.202 V -0.81 c 0.121,0.538 0.368,0.81 0.737,0.81 m 3.686,154.943 h 44.234 c 2.332,0 4.055,-2.769 5.16,-8.304 V 92.561 c -0.861,-3.377 -2.274,-5.064 -4.239,-5.064 h -1.659 c -2.949,0.538 -4.424,2.836 -4.424,6.887 v 31.394 c 0,0.269 0.122,0.404 0.37,0.404 l -0.37,0.811 v 2.227 h -2.763 V 29.167 c -0.862,-4.593 -2.581,-6.887 -5.161,-6.887 h -2.396 c -3.073,0 -4.855,2.699 -5.345,8.101 v 54.078 c 0,0.538 -0.184,0.811 -0.553,0.811 h -0.368 l -1.66,-0.405 V 28.761 c -0.86,-4.323 -2.643,-6.481 -5.345,-6.481 h -2.395 c -2.704,0 -4.424,2.294 -5.16,6.887 V 129.22 c -0.862,0 -1.291,0.134 -1.291,0.406 -0.369,-0.272 -0.861,-0.406 -1.474,-0.406 V 93.169 c -0.369,-3.782 -1.844,-5.672 -4.424,-5.672 h -1.29 c -2.335,0 -3.87,1.754 -4.607,5.266 v 41.723 c 0,0.269 0.121,0.405 0.368,0.405 l -0.368,0.81 v 9.521 c 0.858,6.48 2.58,9.721 5.16,9.721 M -168.272,-5.265 v -6.482 h 6.634 c 2.332,0 3.502,1.013 3.502,3.039 v 0.81 c 0,1.752 -0.801,2.633 -2.396,2.633 z M -172.696,0 h 9.399 c 7.125,0 10.69,-2.5 10.69,-7.494 v -1.62 c -0.984,-4.323 -3.073,-6.48 -6.266,-6.48 3.07,-2.972 5.713,-7.023 7.925,-12.154 l -0.737,-0.202 h -3.687 c -0.247,0 -0.368,0.067 -0.368,0.202 l -0.738,-0.202 c -4.546,7.56 -7.62,11.475 -9.214,11.747 h -1.844 c -0.492,-0.136 -0.736,-0.405 -0.736,-0.81 v -10.329 c 0,-0.406 -0.185,-0.608 -0.554,-0.608 h -2.211 l -2.397,0.202 V -0.81 c 0.122,0.538 0.37,0.81 0.738,0.81 m -27.278,216.312 v -4.86 c 0,-0.811 0.121,-1.217 0.369,-1.217 l -0.369,-1.822 V -53.875 c 0,-1.351 0.49,-2.228 1.474,-2.633 H 47.92 c 1.474,0 2.211,0.81 2.211,2.43 v 270.795 c -0.368,1.079 -1.169,1.62 -2.396,1.62 H -198.5 c -0.368,0 -0.86,-0.676 -1.474,-2.025 m 2.765,9.925 H 47.92 c 6.266,-0.81 9.399,-4.12 9.399,-9.925 V 95.194 c 0,-0.678 0.121,-1.216 0.369,-1.62 -0.248,-0.405 -0.369,-0.881 -0.369,-1.419 v -3.848 c 0,-0.541 0.121,-1.082 0.369,-1.619 -0.248,-0.406 -0.369,-0.88 -0.369,-1.418 0,-0.542 0.121,-0.811 0.369,-0.811 L 57.319,82.636 V -34.431 c 0,-0.542 0.121,-1.083 0.369,-1.62 -0.248,-0.406 -0.369,-0.88 -0.369,-1.418 v -17.013 c -0.861,-6.618 -3.502,-9.925 -7.925,-9.925 h -248.999 c -2.58,0 -4.855,2.025 -6.819,6.077 -0.493,0.942 -0.738,2.36 -0.738,4.252 v 269.782 c 0,4.321 1.596,7.425 4.792,9.317 1.106,0.81 2.826,1.216 5.161,1.216" />
    </g>
    <path
       inkscape:connector-curvature="0"
       id="path42-5"
       d="m 230.6532,7.8014905 c -3.63712,1.6304714 -5.45499,4.7856335 -5.45499,9.4652095 v 95.27598 c 0.86139,5.25864 3.63625,7.88767 8.32597,7.88767 h 86.12627 c 0.66941,0 1.53066,-0.10483 2.58402,-0.3155 3.63595,-1.41981 5.45498,-4.15328 5.45498,-8.20318 V 27.677005 l 0.28696,-1.577535 c -0.19198,0 -0.28696,-0.315672 -0.28696,-0.946521 v -3.153643 c 0,-0.473137 0.095,-0.893644 0.28696,-1.262028 -0.19198,-0.367607 -0.28696,-0.788891 -0.28696,-1.262028 v -4.101591 c -0.90967,-5.047573 -3.11198,-7.5721685 -6.60422,-7.5721685 z m 2.58402,6.6256465 h 86.70018 c 1.14838,0 1.72316,0.631343 1.72316,1.893042 v 96.222501 c -0.287,0.63125 -0.57529,0.94652 -0.86229,0.94652 h -88.42192 c -0.57438,-0.31543 -0.86086,-0.63109 -0.86086,-0.94652 V 16.320179 c 0,-1.261699 0.57335,-1.893042 1.72173,-1.893042 z"
       style="fill:#000000;fill-opacity:1;fill-rule:nonzero;stroke:none;stroke-width:0.38941306" />
  </g>
</svg>
