<?xml version="1.0" encoding="UTF-8" standalone="no"?>
<svg
   xmlns:dc="http://purl.org/dc/elements/1.1/"
   xmlns:cc="http://creativecommons.org/ns#"
   xmlns:rdf="http://www.w3.org/1999/02/22-rdf-syntax-ns#"
   xmlns:svg="http://www.w3.org/2000/svg"
   xmlns="http://www.w3.org/2000/svg"
   xmlns:sodipodi="http://sodipodi.sourceforge.net/DTD/sodipodi-0.dtd"
   xmlns:inkscape="http://www.inkscape.org/namespaces/inkscape"
   width="2500"
   height="500"
   viewBox="0 0 192.756 38.5512"
   version="1.1"
   id="svg12"
   sodipodi:docname="cinemark.svg"
   inkscape:version="0.92.4 (5da689c313, 2019-01-14)">
  <metadata
     id="metadata18">
    <rdf:RDF>
      <cc:Work
         rdf:about="">
        <dc:format>image/svg+xml</dc:format>
        <dc:type
           rdf:resource="http://purl.org/dc/dcmitype/StillImage" />
        <dc:title></dc:title>
      </cc:Work>
    </rdf:RDF>
  </metadata>
  <defs
     id="defs16">
    <filter
       inkscape:collect="always"
       style="color-interpolation-filters:sRGB"
       id="filter1328"
       x="-0.0079016527"
       width="1.0158033"
       y="-0.081082687"
       height="1.1621654">
      <feGaussianBlur
         inkscape:collect="always"
         stdDeviation="0.56771395"
         id="feGaussianBlur1330" />
    </filter>
  </defs>
  <sodipodi:namedview
     pagecolor="#ffffff"
     bordercolor="#666666"
     borderopacity="1"
     objecttolerance="10"
     gridtolerance="10"
     guidetolerance="10"
     inkscape:pageopacity="0"
     inkscape:pageshadow="2"
     inkscape:window-width="1366"
     inkscape:window-height="705"
     id="namedview14"
     showgrid="false"
     inkscape:zoom="0.1888"
     inkscape:cx="1451.96"
     inkscape:cy="1051.6618"
     inkscape:window-x="-8"
     inkscape:window-y="-8"
     inkscape:window-maximized="1"
     inkscape:current-layer="svg12" />
  <g
     id="g1335"
     transform="translate(1.225144,-69.261478)">
    <path
       style="clip-rule:evenodd;fill:#ffffff;fill-opacity:1;fill-rule:evenodd;filter:url(#filter1328)"
       inkscape:connector-curvature="0"
       id="path834"
       d="m 33.268615,92.07041 h -14.68 l -0.19,-0.039 h -0.19 l -0.19,-0.038 -0.19,-0.038 -0.19,-0.076 -0.152,-0.038 -0.152,-0.076 -0.152,-0.076 -0.189,-0.114 -0.114,-0.076 -0.152,-0.114 -0.152,-0.114 -0.152,-0.076 -0.152,-0.152 -0.114,-0.114 -0.114,-0.114 -0.114,-0.152 -0.117,-0.115 -0.114,-0.152 -0.076,-0.152 -0.114,-0.152 -0.038,-0.152 -0.114,-0.189 -0.038,-0.152 -0.076,-0.19 -0.038,-0.19 -0.039,-0.152 -0.038,-0.19 -0.038,-0.19 v -0.759 l 0.038,-0.19 0.038,-0.19 0.039,-0.19 0.038,-0.152 0.076,-0.19 0.076,-0.19 0.076,-0.152 0.076,-0.153 0.076,-0.151 0.114,-0.152 0.114,-0.152 0.114,-0.114 0.114,-0.152 0.114,-0.152 0.114,-0.114 0.152,-0.114 0.152,-0.114 0.152,-0.114 0.152,-0.076 0.152,-0.076 0.152,-0.114 0.152,-0.076 0.19,-0.076 0.189,-0.038 0.19,-0.039 0.152,-0.076 0.19,-0.038 h 1.102 l 0.19,0.038 0.19,0.039 0.152,0.076 0.19,0.038 0.152,0.076 0.152,0.038 0.152,0.076 0.152,0.076 0.152,0.114 0.152,0.076 0.151,0.114 0.114,0.114 0.152,0.114 1.901,-4.412 -0.228,-0.152 -0.228,-0.152 -0.266,-0.152 -0.267,-0.114 -0.266,-0.114 -0.266,-0.076 -0.304,-0.114 -0.266,-0.076 -0.305,-0.114 -0.266,-0.038 -0.304,-0.076 -0.266,-0.039 -0.304,-0.038 -0.304,-0.038 h -0.342 l -0.266,-0.038 -0.457,0.038 -0.456,0.038 -0.418,0.038 -0.418,0.076 -0.418,0.076 -0.38,0.152 -0.418,0.114 -0.38,0.152 -0.342,0.19 -0.38,0.152 -0.342,0.228 -0.38,0.228 -0.304,0.229 -0.304,0.266 -0.342,0.228 -0.305,0.305 -0.266,0.304 -0.266,0.305 -0.228,0.304 -0.267,0.342 -0.189,0.342 -0.229,0.342 -0.19,0.38 -0.152,0.38 -0.152,0.38 -0.152,0.38 -0.114,0.38 -0.076,0.418 -0.076,0.418 -0.076,0.418 -0.038,0.456 v 0.837 l 0.038,0.457 0.076,0.418 0.076,0.418 0.076,0.418 0.114,0.38 0.114,0.38 0.151,0.38 0.191,0.38 0.19,0.342 0.19,0.342 0.228,0.342 0.229,0.342 0.266,0.305 0.266,0.304 0.266,0.266 0.305,0.267 0.304,0.266 0.304,0.267 0.343,0.228 0.342,0.19 0.342,0.19 0.38,0.19 0.381,0.19 0.38,0.152 0.381,0.114 0.418,0.114 0.38,0.076 0.418,0.076 0.418,0.076 h 0.457 l 0.418,0.038 h 72.489 l -0.19,-8.481 0.076,-0.038 5.477,5.857 5.552985,-5.857 0.037,0.038 -0.152,8.481 h 80.702 l -17.645,-11.903 4.715,-4.108 h -4.184 l -4.943,4.298 v -4.298 h -3.803 v 9.622 h 3.803 v -4.602 l 9.469,6.427 h -63.321 v -11.257 h -4.107 l -6.122985,6.427 -6.047,-6.427 h -4.107 v 11.257 h -53.245 z m 109.148985,-5.667 h 0.113 l 0.076,0.076 0.076,0.038 0.152,0.077 0.152,0.114 0.15,0.152 0.152,0.152 0.152,0.152 0.152,0.189 0.113,0.229 0.152,0.228 0.115,0.228 0.152,0.267 0.152,0.266 0.15,0.305 0.686,1.407 h 3.727 l -1.293,-2.51 -0.229,-0.38 -0.189,-0.342 -0.113,-0.19 -0.076,-0.152 -0.115,-0.114 -0.113,-0.152 -0.076,-0.114 -0.115,-0.114 -0.113,-0.114 -0.113,-0.076 -0.115,-0.076 -0.152,-0.076 -0.113,-0.076 -0.152,-0.038 0.229,-0.114 0.189,-0.076 0.191,-0.114 0.15,-0.114 0.152,-0.114 0.152,-0.114 0.115,-0.114 0.113,-0.114 0.115,-0.152 0.113,-0.152 0.037,-0.152 0.076,-0.152 0.039,-0.19 0.037,-0.152 0.039,-0.19 v -0.347 l -0.039,-0.114 v -0.152 l -0.037,-0.114 v -0.152 l -0.076,-0.114 -0.039,-0.114 -0.037,-0.151 -0.076,-0.114 -0.076,-0.114 -0.076,-0.114 -0.076,-0.114 -0.113,-0.076 -0.115,-0.114 -0.113,-0.114 -0.115,-0.076 -0.15,-0.114 -0.152,-0.076 -0.115,-0.076 -0.152,-0.076 -0.189,-0.076 -0.152,-0.076 -0.189,-0.038 -0.191,-0.076 -0.227,-0.038 -0.191,-0.039 -0.229,-0.038 -0.227,-0.038 h -0.268 l -0.229,-0.038 h -6.731 v 9.432 h 3.803 v -3.955 h 1.255 l 0.076,0.038 h 0.076 z m 0,-4.031 0.076,0.038 h 0.189 l 0.152,0.038 0.189,0.039 0.152,0.075 0.113,0.039 0.152,0.076 0.115,0.076 0.076,0.114 0.113,0.114 0.037,0.076 0.076,0.152 0.039,0.114 v 0.152 l 0.037,0.152 -0.037,0.152 v 0.152 l -0.039,0.114 -0.076,0.114 -0.076,0.114 -0.074,0.114 -0.115,0.076 -0.113,0.114 -0.115,0.076 -0.152,0.076 -0.15,0.038 -0.191,0.038 -0.189,0.038 -0.189,0.038 h -1.485 v -2.51 h 1.485 z m -20.424,4.678 h 1.674 l -1.674,-3.728 -1.674,3.728 z m 0,-6.2 h 1.979 l 4.943,9.432 h -3.766 l -0.723,-1.56 h -4.907 l -0.684,1.56 h -3.803 l 4.982,-9.432 z m -49.780985,7.416 h 4.069 v 1.978 h -8.176 v -9.432 h 8.138 v 2.016 h -4.336 v 1.635 h 3.955 v 2.016 h -3.955 v 1.788 h 0.305 z m -20.576,-4.868 2.548,2.244 -0.19,-4.83 h 3.841 v 9.432 h -3.271 l -2.929,-2.586 -2.548,-2.244 0.19,4.83 h -3.842 v -9.432 h 3.233 z m -18.368,-2.586 h 1.901 v 9.432 h -3.803 v -9.432 z" />
    <path
       d="m 184.039,91.373 c 0,0.902 -0.73,1.627 -1.627,1.627 a 1.618,1.618 0 0 1 -1.627,-1.622 1.622,1.622 0 0 1 1.621,-1.632 c 0.903,0 1.633,0.73 1.633,1.627 z m 0.213,0 c 0,-1.014 -0.826,-1.84 -1.84,-1.84 -1.02,0 -1.846,0.826 -1.842,1.84 0,1.019 0.822,1.841 1.842,1.841 a 1.844,1.844 0 0 0 1.84,-1.841 z m -2.117,-0.021 h 0.139 l 0.709,0.944 h 0.508 V 92.2 c -0.07,0 -0.135,0 -0.193,-0.075 l -0.641,-0.822 a 0.632,0.632 0 0 0 0.375,-0.149 c 0.117,-0.101 0.244,-0.373 0.105,-0.619 a 0.537,0.537 0 0 0 -0.277,-0.213 1.156,1.156 0 0 0 -0.41,-0.054 h -0.891 v 0.096 c 0.213,0 0.234,0.005 0.234,0.16 v 1.537 c 0,0.102 -0.139,0.139 -0.262,0.139 v 0.096 h 0.854 V 92.2 c -0.117,0 -0.25,-0.026 -0.25,-0.155 z m 0,-0.838 c 0,-0.091 0.053,-0.118 0.105,-0.118 h 0.283 c 0.086,0 0.283,0.064 0.311,0.347 0.025,0.213 -0.076,0.368 -0.316,0.442 -0.139,0.048 -0.271,0.037 -0.383,0.043 z"
       id="path4"
       inkscape:connector-curvature="0"
       style="clip-rule:evenodd;fill-rule:evenodd" />
    <path
       d="m 32.806,91.762 h -14.68 l -0.19,-0.039 h -0.19 l -0.19,-0.038 -0.19,-0.038 -0.19,-0.076 -0.152,-0.038 -0.152,-0.076 -0.152,-0.076 -0.189,-0.114 -0.114,-0.076 -0.152,-0.114 -0.152,-0.114 -0.152,-0.076 -0.152,-0.152 -0.114,-0.114 -0.114,-0.114 -0.114,-0.152 -0.117,-0.115 -0.114,-0.152 -0.076,-0.152 -0.114,-0.152 -0.038,-0.152 -0.114,-0.189 -0.038,-0.152 -0.076,-0.19 -0.038,-0.19 -0.039,-0.152 -0.038,-0.19 -0.038,-0.19 V 87.62 l 0.038,-0.19 0.038,-0.19 0.039,-0.19 0.038,-0.152 0.076,-0.19 0.076,-0.19 0.076,-0.152 0.076,-0.153 0.076,-0.151 0.114,-0.152 0.114,-0.152 0.114,-0.114 0.114,-0.152 0.114,-0.152 0.114,-0.114 0.152,-0.114 0.152,-0.114 0.152,-0.114 0.152,-0.076 0.152,-0.076 0.152,-0.114 0.152,-0.076 0.19,-0.076 0.189,-0.038 0.19,-0.039 0.152,-0.076 0.19,-0.038 h 1.102 l 0.19,0.038 0.19,0.039 0.152,0.076 0.19,0.038 0.152,0.076 0.152,0.038 0.152,0.076 0.152,0.076 0.152,0.114 0.152,0.076 0.151,0.114 0.114,0.114 0.152,0.114 1.901,-4.412 L 22.645,80.7 22.417,80.548 22.151,80.396 21.884,80.282 21.618,80.168 21.352,80.092 21.048,79.978 20.782,79.902 20.477,79.788 20.211,79.75 19.907,79.674 19.641,79.635 19.337,79.597 19.033,79.559 h -0.342 l -0.266,-0.038 -0.457,0.038 -0.456,0.038 -0.418,0.038 -0.418,0.076 -0.418,0.076 -0.38,0.152 -0.418,0.114 -0.38,0.152 -0.342,0.19 -0.38,0.152 -0.342,0.228 -0.38,0.228 -0.304,0.229 -0.304,0.266 -0.342,0.228 -0.305,0.305 -0.266,0.304 -0.266,0.305 -0.228,0.304 -0.267,0.342 -0.189,0.342 -0.229,0.342 -0.19,0.38 -0.152,0.38 -0.152,0.38 -0.152,0.38 -0.114,0.38 -0.076,0.418 -0.076,0.418 -0.076,0.418 -0.038,0.456 v 0.837 l 0.038,0.457 0.076,0.418 0.076,0.418 0.076,0.418 0.114,0.38 0.114,0.38 0.151,0.38 0.191,0.38 0.19,0.342 0.19,0.342 0.228,0.342 0.229,0.342 0.266,0.305 0.266,0.304 0.266,0.266 0.305,0.267 0.304,0.266 0.304,0.267 0.343,0.228 0.342,0.19 0.342,0.19 0.38,0.19 0.381,0.19 0.38,0.152 0.381,0.114 0.418,0.114 0.38,0.076 0.418,0.076 0.418,0.076 h 0.457 l 0.418,0.038 h 72.489 l -0.19,-8.481 0.076,-0.038 5.477,5.857 5.553,-5.857 0.037,0.038 -0.152,8.481 h 80.702 l -17.645,-11.903 4.715,-4.108 h -4.184 l -4.943,4.298 v -4.298 h -3.803 v 9.622 h 3.803 v -4.602 l 9.469,6.427 H 106.435 V 80.504 h -4.107 l -6.123,6.427 -6.047,-6.427 H 86.051 V 91.761 H 32.806 Z m 109.149,-5.667 h 0.113 l 0.076,0.076 0.076,0.038 0.152,0.077 0.152,0.114 0.15,0.152 0.152,0.152 0.152,0.152 0.152,0.189 0.113,0.229 0.152,0.228 0.115,0.228 0.152,0.267 0.152,0.266 0.15,0.305 0.686,1.407 h 3.727 l -1.293,-2.51 -0.229,-0.38 -0.189,-0.342 -0.113,-0.19 -0.076,-0.152 -0.115,-0.114 -0.113,-0.152 -0.076,-0.114 -0.115,-0.114 -0.113,-0.114 -0.113,-0.076 -0.115,-0.076 -0.152,-0.076 -0.113,-0.076 -0.152,-0.038 0.229,-0.114 0.189,-0.076 0.191,-0.114 0.15,-0.114 0.152,-0.114 0.152,-0.114 0.115,-0.114 0.113,-0.114 0.115,-0.152 0.113,-0.152 0.037,-0.152 0.076,-0.152 0.039,-0.19 0.037,-0.152 0.039,-0.19 V 83.09 l -0.039,-0.114 v -0.152 l -0.037,-0.114 v -0.152 l -0.076,-0.114 -0.039,-0.114 -0.037,-0.151 -0.076,-0.114 -0.076,-0.114 -0.076,-0.114 -0.076,-0.114 -0.113,-0.076 -0.115,-0.114 -0.113,-0.114 -0.115,-0.076 -0.15,-0.114 -0.152,-0.076 -0.115,-0.076 -0.152,-0.076 -0.189,-0.076 -0.152,-0.076 -0.189,-0.038 -0.191,-0.076 -0.227,-0.038 -0.191,-0.039 -0.229,-0.038 -0.227,-0.038 h -0.268 l -0.229,-0.038 h -6.731 v 9.432 h 3.803 v -3.955 h 1.255 l 0.076,0.038 h 0.076 z m 0,-4.031 0.076,0.038 h 0.189 l 0.152,0.038 0.189,0.039 0.152,0.075 0.113,0.039 0.152,0.076 0.115,0.076 0.076,0.114 0.113,0.114 0.037,0.076 0.076,0.152 0.039,0.114 v 0.152 l 0.037,0.152 -0.037,0.152 v 0.152 l -0.039,0.114 -0.076,0.114 -0.076,0.114 -0.074,0.114 -0.115,0.076 -0.113,0.114 -0.115,0.076 -0.152,0.076 -0.15,0.038 -0.191,0.038 -0.189,0.038 -0.189,0.038 h -1.485 v -2.51 h 1.485 z m -20.424,4.678 h 1.674 l -1.674,-3.728 -1.674,3.728 z m 0,-6.2 h 1.979 l 4.943,9.432 h -3.766 l -0.723,-1.56 h -4.907 l -0.684,1.56 h -3.803 l 4.982,-9.432 z M 71.75,87.958 h 4.069 v 1.978 h -8.176 v -9.432 h 8.138 v 2.016 h -4.336 v 1.635 H 75.4 v 2.016 h -3.955 v 1.788 h 0.305 z m -20.576,-4.868 2.548,2.244 -0.19,-4.83 h 3.841 v 9.432 h -3.271 l -2.929,-2.586 -2.548,-2.244 0.19,4.83 h -3.842 v -9.432 h 3.233 z M 32.806,80.504 h 1.901 v 9.432 h -3.803 v -9.432 z"
       id="path6"
       inkscape:connector-curvature="0"
       style="clip-rule:evenodd;fill:#9f3939;fill-rule:evenodd" />
  </g>
</svg>
