<?xml version="1.0" encoding="UTF-8" standalone="no"?>
<svg
   xmlns:dc="http://purl.org/dc/elements/1.1/"
   xmlns:cc="http://creativecommons.org/ns#"
   xmlns:rdf="http://www.w3.org/1999/02/22-rdf-syntax-ns#"
   xmlns:svg="http://www.w3.org/2000/svg"
   xmlns="http://www.w3.org/2000/svg"
   xmlns:sodipodi="http://sodipodi.sourceforge.net/DTD/sodipodi-0.dtd"
   xmlns:inkscape="http://www.inkscape.org/namespaces/inkscape"
   id="ab9c9524-e61a-4262-9078-30d20f864b6e"
   data-name="Layer 1"
   width="909"
   height="556.37076"
   viewBox="0 0 909 556.37076"
   version="1.1"
   sodipodi:docname="undraw_logo_design_bjnx.svg"
   inkscape:version="0.92.4 (5da689c313, 2019-01-14)">
  <metadata
     id="metadata107">
    <rdf:RDF>
      <cc:Work
         rdf:about="">
        <dc:format>image/svg+xml</dc:format>
        <dc:type
           rdf:resource="http://purl.org/dc/dcmitype/StillImage" />
      </cc:Work>
    </rdf:RDF>
  </metadata>
  <defs
     id="defs105" />
  <sodipodi:namedview
     pagecolor="#ffffff"
     bordercolor="#666666"
     borderopacity="1"
     objecttolerance="10"
     gridtolerance="10"
     guidetolerance="10"
     inkscape:pageopacity="0"
     inkscape:pageshadow="2"
     inkscape:window-width="1366"
     inkscape:window-height="705"
     id="namedview103"
     showgrid="false"
     inkscape:zoom="0.59275618"
     inkscape:cx="464.11445"
     inkscape:cy="277.34841"
     inkscape:window-x="-8"
     inkscape:window-y="-8"
     inkscape:window-maximized="1"
     inkscape:current-layer="ab9c9524-e61a-4262-9078-30d20f864b6e" />
  <title
     id="title2">logo_design</title>
  <path
     d="m 786.65078,318.69063 -9.73,-8.18015 0.91324,-1.08627 0.914,0.76846 a 3.49807,3.49807 0 0 1 -0.0753,-1.54426 3.11622,3.11622 0 0 1 0.71737,-1.3979 3.63113,3.63113 0 0 1 1.8001,-1.19986 3.71676,3.71676 0 0 1 2.18241,0.0599 6.2446,6.2446 0 0 1 2.14641,1.20535 6.14364,6.14364 0 0 1 1.61826,2.02184 3.81845,3.81845 0 0 1 0.37806,2.23971 3.77516,3.77516 0 0 1 -0.84548,1.94024 2.9303,2.9303 0 0 1 -1.151,0.8581 3.18639,3.18639 0 0 1 -1.29016,0.24369 l 3.42438,2.87892 z m -5.26548,-6.2695 a 3.99956,3.99956 0 0 0 2.46912,1.13751 2.20126,2.20126 0 0 0 1.76838,-0.78562 2.25215,2.25215 0 0 0 0.472,-1.92635 4.16682,4.16682 0 0 0 -1.607,-2.31761 4.05845,4.05845 0 0 0 -2.47853,-1.13977 2.17571,2.17571 0 0 0 -1.7799,0.759 2.243,2.243 0 0 0 -0.42116,1.94651 4.1619,4.1619 0 0 0 1.57709,2.32633 z"
     id="path4"
     inkscape:connector-curvature="0"
     style="fill:#3f3d56" />
  <path
     d="m 789.62932,309.67484 -1.49562,-5.64377 -5.37711,-0.46208 1.25291,-1.49031 2.55694,0.30693 q 0.72687,0.0905 1.20027,0.17251 -0.19242,-0.65864 -0.3239,-1.188 l -0.66575,-2.58331 1.19723,-1.42407 1.26813,5.21511 5.922,0.5132 -1.23064,1.46381 -3.39972,-0.39368 -0.91247,-0.11143 1.22166,4.18118 z"
     id="path6"
     inkscape:connector-curvature="0"
     style="fill:#3f3d56" />
  <rect
     x="228.08545"
     y="793.91547"
     width="10"
     height="10"
     transform="rotate(-49.94575)"
     id="rect8"
     style="fill:#3f3d56" />
  <rect
     x="244.08545"
     y="793.91547"
     width="10"
     height="10"
     transform="rotate(-49.94575)"
     id="rect10"
     style="fill:#3f3d56" />
  <path
     d="m 786.65078,318.69063 -9.73,-8.18015 0.91324,-1.08627 0.914,0.76846 a 3.49807,3.49807 0 0 1 -0.0753,-1.54426 3.11622,3.11622 0 0 1 0.71737,-1.3979 3.63113,3.63113 0 0 1 1.8001,-1.19986 3.71676,3.71676 0 0 1 2.18241,0.0599 6.2446,6.2446 0 0 1 2.14641,1.20535 6.14364,6.14364 0 0 1 1.61826,2.02184 3.81845,3.81845 0 0 1 0.37806,2.23971 3.77516,3.77516 0 0 1 -0.84548,1.94024 2.9303,2.9303 0 0 1 -1.151,0.8581 3.18639,3.18639 0 0 1 -1.29016,0.24369 l 3.42438,2.87892 z m -5.26548,-6.2695 a 3.99956,3.99956 0 0 0 2.46912,1.13751 2.20126,2.20126 0 0 0 1.76838,-0.78562 2.25215,2.25215 0 0 0 0.472,-1.92635 4.16682,4.16682 0 0 0 -1.607,-2.31761 4.05845,4.05845 0 0 0 -2.47853,-1.13977 2.17571,2.17571 0 0 0 -1.7799,0.759 2.243,2.243 0 0 0 -0.42116,1.94651 4.1619,4.1619 0 0 0 1.57709,2.32633 z"
     id="path12"
     inkscape:connector-curvature="0"
     style="fill:#3f3d56" />
  <path
     d="m 789.62932,309.67484 -1.49562,-5.64377 -5.37711,-0.46208 1.25291,-1.49031 2.55694,0.30693 q 0.72687,0.0905 1.20027,0.17251 -0.19242,-0.65864 -0.3239,-1.188 l -0.66575,-2.58331 1.19723,-1.42407 1.26813,5.21511 5.922,0.5132 -1.23064,1.46381 -3.39972,-0.39368 -0.91247,-0.11143 1.22166,4.18118 z"
     id="path14"
     inkscape:connector-curvature="0"
     style="fill:#3f3d56" />
  <rect
     x="228.08545"
     y="793.91547"
     width="10"
     height="10"
     transform="rotate(-49.94575)"
     id="rect16"
     style="fill:#3f3d56" />
  <rect
     x="244.08545"
     y="793.91547"
     width="10"
     height="10"
     transform="rotate(-49.94575)"
     id="rect18"
     style="fill:#3f3d56" />
  <rect
     y="554.37076"
     width="909"
     height="2"
     id="rect20"
     fill="#3f3d56" />
  <circle
     cx="553.92505"
     cy="82.415916"
     r="11.40881"
     id="circle22"
     style="fill:#f2f2f2" />
  <path
     d="m 273.10197,116.82232 a 22.03137,22.03137 0 0 0 -14.30416,-20.31043 22,22 0 1 0 -15.93632,0.21325 21.9912,21.9912 0 0 0 0.54858,40.99633 22,22 0 1 0 15.93632,-0.21325 22.03136,22.03136 0 0 0 13.75558,-20.6859 z M 230.55715,76.38795 a 20,20 0 1 1 24.77122,19.13762 22.02329,22.02329 0 0 0 -9.02507,0.12077 20.02093,20.02093 0 0 1 -15.74615,-19.25839 z m 41.09358,81.45743 a 20,20 0 1 1 -24.77122,-19.13762 22.02352,22.02352 0 0 0 9.02507,-0.12076 20.02093,20.02093 0 0 1 15.74615,19.25838 z m -15.77378,-21.32351 a 22.02329,22.02329 0 0 0 -9.02507,0.12077 19.97883,19.97883 0 0 1 -0.521,-38.93121 22.02352,22.02352 0 0 0 9.02507,-0.12076 19.97882,19.97882 0 0 1 0.52095,38.9312 z"
     id="path24"
     inkscape:connector-curvature="0"
     style="fill:#f2f2f2" />
  <polygon
     points="89.661,198.825 89.661,391.493 89.661,408.028 106.196,408.028 194.622,408.028 194.622,391.493 106.196,391.493 106.196,198.825 "
     id="polygon26"
     transform="translate(70.85544)"
     style="fill:#a100f5" />
  <path
     d="m 322.99044,198.82518 h -16.535 v 209.2032 h 104.96109 v -209.2032 z m 71.89114,192.66827 H 322.99044 V 215.36014 h 71.89114 z"
     id="path28"
     inkscape:connector-curvature="0"
     style="fill:#a100f5" />
  <path
     d="M 701.49729,199.18464 H 613.07118 V 408.38786 H 718.03225 V 199.18464 Z m 0,192.66826 H 629.60615 V 215.7196 h 71.89114 z"
     id="path30"
     inkscape:connector-curvature="0"
     style="fill:#a100f5" />
  <polygon
     points="455.227,303.427 455.227,319.962 468.887,319.962 468.887,391.853 396.996,391.853 396.996,215.72 485.422,215.72 485.422,199.185 396.996,199.185 380.461,199.185 380.461,215.72 380.461,391.853 380.461,408.388 396.996,408.388 468.887,408.388 485.422,408.388 485.422,391.853 485.422,319.962 499.081,319.962 499.081,303.427 485.422,303.427 468.887,303.427 "
     id="polygon32"
     transform="translate(70.85544)"
     style="fill:#a100f5" />
  <rect
     x="221.73676"
     y="180.21709"
     width="5.3165998"
     height="1.7722"
     id="rect34"
     style="fill:#3f3d56" />
  <path
     d="m 640.61204,181.98928 h -10.88328 v -1.7722 h 10.88328 z m -21.7657,0 h -10.88328 v -1.7722 h 10.88328 z m -21.76656,0 H 586.1965 v -1.7722 h 10.88328 z m -21.76657,0 H 564.4308 v -1.7722 h 10.88241 z m -21.7657,0 h -10.88328 v -1.7722 h 10.88328 z m -21.76656,0 h -10.88328 v -1.7722 h 10.88328 z m -21.76657,0 h -10.88241 v -1.7722 h 10.88241 z m -21.7657,0 h -10.88324 v -1.7722 h 10.88328 z m -21.76656,0 h -10.88329 v -1.7722 h 10.88329 z m -21.7657,0 h -10.88329 v -1.7722 h 10.88331 z m -21.76657,0 h -10.88328 v -1.7722 h 10.88328 z m -21.76613,0 h -10.88328 v -1.7722 h 10.88328 z m -21.76657,0 H 368.5343 v -1.7722 h 10.88285 z m -21.76613,0 h -10.88328 v -1.7722 h 10.88328 z m -21.76613,0 h -10.88328 v -1.7722 h 10.88328 z m -21.76657,0 h -10.88288 v -1.7722 h 10.88285 z m -21.76613,0 h -10.88285 v -1.7722 h 10.88285 z m -21.76613,0 h -10.88328 v -1.7722 h 10.88328 z m -21.76613,0 h -10.88329 v -1.7722 h 10.88329 z"
     id="path36"
     inkscape:connector-curvature="0"
     style="fill:#3f3d56" />
  <rect
     x="651.49536"
     y="180.21709"
     width="5.3165998"
     height="1.7722"
     id="rect38"
     style="fill:#3f3d56" />
  <rect
     x="735.01031"
     y="226.2943"
     width="1.7722"
     height="5.3165998"
     id="rect40"
     style="fill:#3f3d56" />
  <path
     d="m 736.78244,364.52591 h -1.77221 v -11.07625 h 1.77221 z m 0,-22.15251 h -1.77221 v -11.07625 h 1.77221 z m 0,-22.1525 h -1.77221 v -11.07625 h 1.77221 z m 0,-22.1525 h -1.77221 v -11.07626 h 1.77221 z m 0,-22.15251 h -1.77221 v -11.07625 h 1.77221 z m 0,-22.1525 h -1.77221 v -11.07625 h 1.77221 z"
     id="path42"
     inkscape:connector-curvature="0"
     style="fill:#3f3d56" />
  <rect
     x="735.01031"
     y="375.60217"
     width="1.7722"
     height="5.3165998"
     id="rect44"
     style="fill:#3f3d56" />
  <rect
     x="159.93127"
     y="119.29769"
     width="1.7722"
     height="368.61765"
     id="rect46"
     style="fill:#f2f2f2" />
  <rect
     x="717.28827"
     y="119.07617"
     width="1.7722"
     height="368.61765"
     id="rect48"
     style="fill:#f2f2f2" />
  <rect
     x="71.542793"
     y="407.05872"
     width="735.46313"
     height="1.7722"
     id="rect50"
     style="fill:#f2f2f2" />
  <rect
     x="71.321259"
     y="197.93909"
     width="735.46313"
     height="1.7722"
     id="rect52"
     style="fill:#f2f2f2" />
  <path
     d="m 455.66333,166.48188 v -12.71173 h 1.41911 v 1.19416 a 3.49811,3.49811 0 0 1 1.13359,-1.05138 3.11624,3.11624 0 0 1 1.53164,-0.35046 3.63108,3.63108 0 0 1 2.07679,0.60573 3.71678,3.71678 0 0 1 1.35857,1.709 6.2446,6.2446 0 0 1 0.45863,2.41861 6.1436,6.1436 0 0 1 -0.50622,2.53975 3.81851,3.81851 0 0 1 -1.47106,1.73066 3.77519,3.77519 0 0 1 -2.02921,0.60141 2.93033,2.93033 0 0 1 -1.39751,-0.32883 3.18628,3.18628 0 0 1 -1.01676,-0.83072 v 4.47377 z m 1.41049,-8.0649 a 3.99966,3.99966 0 0 0 0.71822,2.622 2.20128,2.20128 0 0 0 1.73932,0.848 2.25213,2.25213 0 0 0 1.77826,-0.87831 4.16684,4.16684 0 0 0 0.73986,-2.72147 4.05844,4.05844 0 0 0 -0.72255,-2.63061 2.17569,2.17569 0 0 0 -1.72634,-0.874 2.243,2.243 0 0 0 -1.76095,0.93023 4.16191,4.16191 0 0 0 -0.76582,2.70416 z"
     id="path92"
     inkscape:connector-curvature="0"
     style="fill:#3f3d56" />
  <path
     d="m 464.48106,162.95998 3.35749,-4.77664 -3.10654,-4.41319 h 1.947 l 1.41049,2.15468 q 0.39848,0.6146 0.64034,1.02974 0.38032,-0.57112 0.70092,-1.01244 l 1.54895,-2.172 h 1.86046 l -3.17577,4.32666 3.41806,4.86317 h -1.91238 l -1.88642,-2.8556 -0.5019,-0.77015 -2.41427,3.62575 z"
     id="path94"
     inkscape:connector-curvature="0"
     style="fill:#3f3d56" />
  <rect
     x="405.46622"
     y="153.18538"
     width="10"
     height="10"
     id="rect96"
     style="fill:#3f3d56" />
  <rect
     x="421.46622"
     y="153.18538"
     width="10"
     height="10"
     id="rect98"
     style="fill:#3f3d56" />
  <rect
     x="437.46622"
     y="153.18538"
     width="10"
     height="10"
     id="rect100"
     style="fill:#3f3d56" />
</svg>
