<?xml version="1.0" encoding="UTF-8" standalone="no"?>
<svg
   xmlns:dc="http://purl.org/dc/elements/1.1/"
   xmlns:cc="http://creativecommons.org/ns#"
   xmlns:rdf="http://www.w3.org/1999/02/22-rdf-syntax-ns#"
   xmlns:svg="http://www.w3.org/2000/svg"
   xmlns="http://www.w3.org/2000/svg"
   xmlns:xlink="http://www.w3.org/1999/xlink"
   xmlns:sodipodi="http://sodipodi.sourceforge.net/DTD/sodipodi-0.dtd"
   xmlns:inkscape="http://www.inkscape.org/namespaces/inkscape"
   id="8c62078c-26d9-4b11-ac3c-7e09acc3373e"
   data-name="Layer 1"
   width="873.74"
   height="509.56"
   viewBox="0 0 873.74 509.56"
   version="1.1"
   sodipodi:docname="undraw_add_user_ipe3.svg"
   inkscape:version="0.92.4 (5da689c313, 2019-01-14)">
  <metadata
     id="metadata98">
    <rdf:RDF>
      <cc:Work
         rdf:about="">
        <dc:format>image/svg+xml</dc:format>
        <dc:type
           rdf:resource="http://purl.org/dc/dcmitype/StillImage" />
      </cc:Work>
    </rdf:RDF>
  </metadata>
  <sodipodi:namedview
     pagecolor="#ffffff"
     bordercolor="#666666"
     borderopacity="1"
     objecttolerance="10"
     gridtolerance="10"
     guidetolerance="10"
     inkscape:pageopacity="0"
     inkscape:pageshadow="2"
     inkscape:window-width="1366"
     inkscape:window-height="705"
     id="namedview96"
     showgrid="false"
     inkscape:zoom="0.4360565"
     inkscape:cx="436.87"
     inkscape:cy="254.78"
     inkscape:window-x="-8"
     inkscape:window-y="-8"
     inkscape:window-maximized="1"
     inkscape:current-layer="8c62078c-26d9-4b11-ac3c-7e09acc3373e" />
  <defs
     id="defs13">
    <linearGradient
       id="2119e7a0-1a3a-47f0-94ca-815c508cc8cf"
       x1="367.4"
       y1="509.56"
       x2="367.4"
       gradientUnits="userSpaceOnUse">
      <stop
         offset="0"
         stop-color="gray"
         stop-opacity="0.25"
         id="stop2" />
      <stop
         offset="0.54"
         stop-color="gray"
         stop-opacity="0.12"
         id="stop4" />
      <stop
         offset="1"
         stop-color="gray"
         stop-opacity="0.1"
         id="stop6" />
    </linearGradient>
    <linearGradient
       id="c9af2afa-1938-40dc-a1df-6d95ad5ed736"
       x1="367.14"
       y1="369.23"
       x2="367.14"
       y2="343.1"
       xlink:href="#2119e7a0-1a3a-47f0-94ca-815c508cc8cf" />
    <linearGradient
       id="45e290ad-38e4-4ccd-bbf0-a3375439af51"
       x1="725.74"
       y1="400.02"
       x2="725.74"
       y2="150.02"
       xlink:href="#2119e7a0-1a3a-47f0-94ca-815c508cc8cf" />
    <linearGradient
       id="6eb28ab0-2165-417a-9d4c-554628bfc165"
       x1="832.87"
       y1="462.75"
       x2="946.87"
       y2="462.75"
       xlink:href="#2119e7a0-1a3a-47f0-94ca-815c508cc8cf" />
    <linearGradient
       id="302a07c6-4de2-4733-824a-97747ae9d7f0"
       x1="833.74"
       y1="257.02"
       x2="833.74"
       y2="177.02"
       xlink:href="#2119e7a0-1a3a-47f0-94ca-815c508cc8cf" />
  </defs>
  <title
     id="title15">add user</title>
  <g
     id="g47"
     transform="matrix(1.6552231,0,0,1.6552231,-785.76972,-196.25241)"
     style="opacity:0.5">
    <circle
       cx="725.73999"
       cy="275.01999"
       r="125"
       id="circle45"
       style="fill:url(#45e290ad-38e4-4ccd-bbf0-a3375439af51)" />
  </g>
  <circle
     cx="415.49188"
     cy="258.96701"
     r="193.6611"
     id="circle49"
     style="fill:#f5f5f5;stroke-width:1.65522301" />
  <g
     id="g53"
     transform="matrix(1.6552231,0,0,1.6552231,-785.76972,-196.25241)"
     style="opacity:0.5">
    <path
       d="m 905.18,442.17 -2.25,-0.8 -0.12,0.2 h -0.13 v -6.1 a 14.06,14.06 0 0 0 -0.17,-2.2 23.33,23.33 0 0 0 8,-10.56 27.51,27.51 0 1 0 -43.57,0 23.33,23.33 0 0 0 8,10.56 14.06,14.06 0 0 0 -0.17,2.2 v 6.68 0 a 57,57 0 0 0 -41.86,55 v 50 h 114 v -50 a 57,57 0 0 0 -41.73,-54.98 z"
       transform="translate(-163.13,-195.22)"
       id="path51"
       style="fill:url(#6eb28ab0-2165-417a-9d4c-554628bfc165)"
       inkscape:connector-curvature="0" />
  </g>
  <path
     d="m 417.14706,210.45245 v 0 a 90.838642,90.838642 0 0 1 90.83864,90.83864 v 79.71554 H 326.30841 v -79.71554 a 90.838642,90.838642 0 0 1 90.83865,-90.83864 z"
     id="path55"
     inkscape:connector-curvature="0"
     style="fill:#a100f5;stroke-width:1.65522301" />
  <rect
     x="393.04697"
     y="180.80742"
     width="44.492393"
     height="55.615494"
     rx="22.246197"
     ry="22.246197"
     id="rect57"
     style="fill:#fda57d;stroke-width:1.65522301" />
  <polygon
     points="720.83,262.02 711.87,248.3 702.86,251.66 711.87,270.98 "
     id="polygon59"
     transform="matrix(1.6552231,0,0,1.6552231,-785.76972,-196.25241)"
     style="opacity:0.05" />
  <path
     d="m 378.13345,218.74511 14.897,31.97891 14.89701,-14.897 -14.89701,-22.70966 -6.81952,2.08558 a 17.098454,17.098454 0 0 0 -1.95316,0.7283 z"
     id="path61"
     inkscape:connector-curvature="0"
     style="fill:#ffffff;stroke-width:1.65522301" />
  <polygon
     points="730.41,262.02 739.62,247.57 748.42,250.72 739.37,270.98 "
     id="polygon63"
     transform="matrix(1.6552231,0,0,1.6552231,-785.76972,-196.25241)"
     style="opacity:0.05" />
  <path
     d="m 452.51917,217.1892 -14.89701,33.55138 -14.89701,-14.89701 15.24461,-23.91797 2.79732,0.79451 a 74.369172,74.369172 0 0 1 8.85545,3.16147 z"
     id="path65"
     inkscape:connector-curvature="0"
     style="fill:#ffffff;stroke-width:1.65522301" />
  <polygon
     points="720.47,260.37 725.48,267.68 730.77,260.37 "
     id="polygon67"
     transform="matrix(1.6552231,0,0,1.6552231,-785.76972,-196.25241)"
     style="fill:#fda57d" />
  <path
     d="m 360.45566,278.54832 c 0,0 -8.83888,87.89235 -3.12837,93.61942"
     id="path69"
     inkscape:connector-curvature="0"
     style="opacity:0.1;stroke-width:1.65522301" />
  <path
     d="m 469.66729,278.54832 c 0,0 8.83888,87.89235 3.12836,93.61942"
     id="path71"
     inkscape:connector-curvature="0"
     style="opacity:0.1;stroke-width:1.65522301" />
  <path
     d="m 415.2932,207.78754 a 36.894922,36.894922 0 0 0 21.93171,-7.15056 22.246198,22.246198 0 0 0 -21.96481,-18.73713 v 0 a 22.246198,22.246198 0 0 0 -21.93171,18.73713 36.894922,36.894922 0 0 0 21.96481,7.15056 z"
     id="path73"
     inkscape:connector-curvature="0"
     style="opacity:0.05;stroke-width:1.65522301" />
  <circle
     cx="415.29327"
     cy="155.94595"
     r="43.830307"
     id="circle75"
     style="stroke-width:1.65522301" />
  <circle
     cx="415.29327"
     cy="169.68428"
     r="37.077"
     id="circle77"
     style="fill:#fda57d;stroke-width:1.65522301" />
  <path
     d="m 385.41642,132.9218 9.36857,11.43759 c 0,0 41.08264,3.64149 45.76692,-5.72707 4.68428,-9.36857 -27.04635,-16.12188 -27.04635,-16.12188 z"
     id="path79"
     inkscape:connector-curvature="0"
     style="opacity:0.05;stroke-width:1.65522301" />
  <path
     d="m 385.41642,131.87901 9.36857,11.43759 c 0,0 41.08264,3.6415 45.76692,-5.72707 4.68428,-9.36856 -27.04635,-16.12188 -27.04635,-16.12188 z"
     id="path81"
     inkscape:connector-curvature="0"
     style="stroke-width:1.65522301" />
  <ellipse
     cx="378.13342"
     cy="167.25114"
     rx="2.5987003"
     ry="4.6842809"
     id="ellipse83"
     style="fill:#fda57d;stroke-width:1.65522301" />
  <ellipse
     cx="452.50266"
     cy="167.25114"
     rx="2.5987003"
     ry="4.6842809"
     id="ellipse85"
     style="fill:#fda57d;stroke-width:1.65522301" />
  <g
     id="g89"
     transform="matrix(1.6552231,0,0,1.6552231,-785.76972,-196.25241)"
     style="opacity:0.5">
    <polygon
       points="793.74,225.96 824.81,225.96 824.81,257.02 842.67,257.02 842.67,225.96 873.74,225.96 873.74,208.09 842.67,208.09 842.67,177.03 824.81,177.03 824.81,208.09 793.74,208.09 "
       id="polygon87"
       style="fill:url(#302a07c6-4de2-4733-824a-97747ae9d7f0)" />
  </g>
  <rect
     x="581.69293"
     y="106.68651"
     width="25.126287"
     height="112.55517"
     id="rect91"
     style="fill:#3ad29f;stroke-width:1.65522301" />
  <rect
     x="150.41756"
     y="-650.53363"
     width="25.126287"
     height="112.55517"
     transform="rotate(90)"
     id="rect93"
     style="fill:#3ad29f;stroke-width:1.65522301" />
</svg>
