<svg xmlns="http://www.w3.org/2000/svg" viewBox="0 0 500 500"><g id="freepik--Floor--inject-158"><ellipse id="freepik--floor--inject-158" cx="249.77" cy="347.93" rx="222.44" ry="128.43" style="fill:#f5f5f5"></ellipse></g><g id="freepik--Shadows--inject-158"><ellipse id="freepik--Shadow--inject-158" cx="297.61" cy="410.97" rx="61.99" ry="35.79" style="fill:#e0e0e0"></ellipse><ellipse id="freepik--shadow--inject-158" cx="184.38" cy="395.93" rx="66.05" ry="38.13" style="fill:#e0e0e0"></ellipse></g><g id="freepik--Plants--inject-158"><g id="freepik--plants--inject-158"><path d="M80.65,299.45l9.17-5.3s2.25-19.65.76-34.87c-2.11-21.39-15.92-47.13-32.4-41.08s7.56,27.82,12.91,46S80.65,299.45,80.65,299.45Z" style="fill:#A100F5"></path><path d="M80.65,299.45l9.17-5.3s2.25-19.65.76-34.87c-2.11-21.39-15.92-47.13-32.4-41.08s7.56,27.82,12.91,46S80.65,299.45,80.65,299.45Z" style="opacity:0.15"></path><path d="M85.47,297.22h0a.56.56,0,0,1-.53-.57c1.61-47.53-22.05-71.43-22.29-71.67a.56.56,0,1,1,.78-.79c.24.24,24.25,24.49,22.62,72.49A.56.56,0,0,1,85.47,297.22Z" style="fill:#fff"></path><path d="M74.88,302.75,81.41,299s1.11-13.48-5.51-29.87c-5.75-14.26-20-26.09-27.22-23.61s-7,7.59-3.5,12.93S70,276.51,74.88,302.75Z" style="fill:#A100F5"></path><path d="M78.32,301.32h0a.56.56,0,0,1-.56-.56c.13-30-28.08-50.35-28.37-50.56a.55.55,0,0,1-.13-.77.56.56,0,0,1,.78-.13c.29.2,29,20.85,28.84,51.47A.56.56,0,0,1,78.32,301.32Z" style="fill:#fff"></path></g><g id="freepik--plants--inject-158"><path d="M404,284.43,396.27,280s-4.6-19.13-2.77-36.35c2.58-24.21,18.52-33.32,24.58-31.23s7.81,9.13-2.22,23.55C410,244.44,402.68,262.16,404,284.43Z" style="fill:#A100F5"></path><g style="opacity:0.15"><path d="M404,284.43,396.27,280s-4.6-19.13-2.77-36.35c2.58-24.21,18.52-33.32,24.58-31.23s7.81,9.13-2.22,23.55C410,244.44,402.68,262.16,404,284.43Z"></path></g><path d="M400.8,275h.08a.52.52,0,0,0,.42-.62c-4.24-22.33,3.56-47.42,13.22-57.86a.54.54,0,0,0-.79-.73c-9.83,10.63-17.78,36.13-13.48,58.79A.53.53,0,0,0,400.8,275Z" style="fill:#fff"></path><path d="M424.28,296.14c1.22.62,4.47-2.16,5.38-2.84a11.36,11.36,0,0,0,3.55-4.51,10.65,10.65,0,0,0,.62-6.43,24.81,24.81,0,0,0-1-3.36l-1.11-3.24a8.41,8.41,0,0,1-.65-3.3c.18-2.27,2.1-3.94,3.84-5.4,1.94-1.6,3.93-3.7,3.78-6.41A9.49,9.49,0,0,0,436,255.1c-1.38-1.58-3-2.95-4.25-4.63a6.65,6.65,0,0,1-1.58-4.14,6.86,6.86,0,0,1,.79-2.68c.86-1.82,2.05-3.5,2.61-5.43s.35-4.28-1.2-5.57a6.22,6.22,0,0,0-4.72-.92,10.68,10.68,0,0,0-4.26,1.75c-4.19,2.61-6.39,7.83-10.86,9.9A46,46,0,0,1,407.1,245a6.85,6.85,0,0,0-4.4,3.35c-1.51,3.44,1.81,7.41.81,11-.88,3.2-3.88,4.56-5.45,7.48a6.76,6.76,0,0,0-.6,4.16,19.84,19.84,0,0,0,2.09,6.88,60.85,60.85,0,0,0,4.14,6.35S424.09,296.05,424.28,296.14Z" style="fill:#A100F5"></path><path d="M412.43,290h0a.54.54,0,0,0,.49-.59c-2-21.24,6.89-45.24,13.83-52.43a.54.54,0,0,0-.77-.75c-7.09,7.34-16.11,31.74-14.13,53.28A.55.55,0,0,0,412.43,290Z" style="fill:#fff"></path><path d="M414.54,263.78a.41.41,0,0,0,.16,0A72.24,72.24,0,0,1,430,260.48a.54.54,0,0,0,.49-.58.53.53,0,0,0-.59-.49,73.4,73.4,0,0,0-15.59,3.33.54.54,0,0,0,.21,1Z" style="fill:#fff"></path></g></g><g id="freepik--Character--inject-158"><g id="freepik--character--inject-158"><g id="freepik--Chair--inject-158"><path d="M171.86,421.25h0V268.68h5V421.25h0a1.15,1.15,0,0,1-.71,1.15,3.92,3.92,0,0,1-3.56,0A1.16,1.16,0,0,1,171.86,421.25Z" style="fill:#37474f"></path><path d="M136.25,404.12h0V257.87h5V404.12h0a1.17,1.17,0,0,1-.71,1.15,4,4,0,0,1-3.56,0A1.18,1.18,0,0,1,136.25,404.12Z" style="fill:#37474f"></path><path d="M212.64,404.12h0V257.87h-5V404.12h0a1.18,1.18,0,0,0,.71,1.15,4,4,0,0,0,3.56,0A1.18,1.18,0,0,0,212.64,404.12Z" style="fill:#37474f"></path><path d="M141.29,223.59c18-10.39,47.16-10.39,65.16,0,9,5.19,13.48,12,13.48,18.81v8.36c0,6.8-4.49,13.61-13.49,18.81-18,10.38-47.16,10.38-65.15,0-9-5.2-13.49-12-13.49-18.81V242.4C127.8,235.59,132.29,228.78,141.29,223.59Z" style="fill:#455a64"></path><path d="M141.29,219.53c18-10.39,47.16-10.39,65.16,0,9,5.19,13.48,12,13.48,18.81v8.36c0,6.8-4.49,13.61-13.49,18.81-18,10.38-47.16,10.38-65.15,0-9-5.2-13.49-12-13.49-18.81v-8.36C127.8,231.53,132.29,224.72,141.29,219.53Z" style="fill:#A100F5"></path><path d="M141.29,219.53c18-10.39,47.16-10.39,65.16,0,9,5.19,13.48,12,13.48,18.81v8.36c0,6.8-4.49,13.61-13.49,18.81-18,10.38-47.16,10.38-65.15,0-9-5.2-13.49-12-13.49-18.81v-8.36C127.8,231.53,132.29,224.72,141.29,219.53Z" style="opacity:0.4"></path><ellipse cx="173.87" cy="238.34" rx="46.07" ry="26.6" style="fill:#A100F5;opacity:0.5"></ellipse><path d="M174.36,389.12c-11.1,0-22.2-2.43-30.64-7.31s-13.08-11.42-13.08-18.45,4.65-13.58,13.08-18.45c16.89-9.75,44.38-9.75,61.28,0,8.43,4.87,13.07,11.42,13.07,18.45s-4.64,13.58-13.07,18.45S185.45,389.12,174.36,389.12Zm0-48.93c-10.62,0-21.24,2.33-29.33,7-7.58,4.38-11.76,10.12-11.76,16.17s4.18,11.79,11.76,16.17c16.17,9.34,42.48,9.33,58.65,0,7.58-4.38,11.76-10.12,11.76-16.17s-4.17-11.79-11.76-16.17C195.6,342.52,185,340.19,174.36,340.19Z" style="fill:#37474f"></path><path d="M169.76,215c.91,0,1.89-.44,2-1.37,3.81-42.64-6-81.24-9.8-89.8a2,2,0,0,0-2.54-.84,1.78,1.78,0,0,0-.9,2.35c4.25,9.58,13,48.57,9.49,88.21,0,.77.64,1.35,1.62,1.44Z" style="fill:#455a64"></path><path d="M113.63,161.47l48-27.7,2,1.14a229.07,229.07,0,0,1,5.51,29.41,1.19,1.19,0,0,1-.58,1.15l-43.8,25.29-2-1.14C120.23,178.88,113.63,161.47,113.63,161.47Z" style="fill:#A100F5"></path><path d="M113.63,161.47l48-27.7,2,1.14a229.07,229.07,0,0,1,5.51,29.41,1.19,1.19,0,0,1-.58,1.15l-43.8,25.29-2-1.14C120.23,178.88,113.63,161.47,113.63,161.47Z" style="opacity:0.4"></path><polygon points="163.57 134.91 161.61 133.77 113.63 161.47 115.59 162.61 163.57 134.91" style="fill:#A100F5;opacity:0.5"></polygon><path d="M131.18,238.13c1,0,1.78-.35,1.78-1,0-37.49-14.88-73.89-19.44-84.16a1.78,1.78,0,0,0-3.26,1.45c4.49,10.1,19.17,45.92,19.14,82.71C129.4,237.5,130.2,238.13,131.18,238.13Z" style="fill:#455a64"></path></g><g id="freepik--character--inject-158"><path d="M195.4,116c17.81-.38,20,16,23.11,26,3.57,11.64,7.87,27.69,7.87,27.69s17.37-15,20.76-21.82a13.36,13.36,0,0,1,8.31-6.61c.73-.17.94-2,1.61-1.67.87.42,1.81,3.14,2,4.07.82,3.51,1.26,8-.56,11.27-4.22,7.5-22.89,33-26.74,36.92-4.71,4.81-11.23,4.43-15.09-.67-6.52-8.65-19.72-39.08-19.72-39.08Z" style="fill:#f28f8f"></path><path d="M194.45,114c6-.7,13.43,1.38,16.77,5.79,3.49,4.61,5.31,11.39,10,27.61s5.66,20.5,5.66,20.5l14.36-12.39s2.69,6.52,12.52,6.9c0,0-11.1,16.67-17.8,25.12s-9.24,10-12.56,9.75-6.52-2.74-10.16-9-20.35-38.83-20.35-38.83Z" style="fill:#37474f"></path><path d="M226.87,167.88c-3.75,2.71-8.64,7.11-8.64,7.11a36.62,36.62,0,0,1,7.88-10.09Z" style="fill:#263238"></path><g id="freepik--glass-of-wine--inject-158"><g id="freepik--glass-of-wine--inject-158"><path d="M242.13,133.06a1.07,1.07,0,0,0-.58,1.4l9.27,22.15a2.22,2.22,0,0,1-.95,2.76c-2.08,1.22-3.32,2.56-2.88,3.59.61,1.44,4,1.41,7.62-.07s6-3.84,5.42-5.27c-.43-1-2.24-1.13-4.56-.55a2.27,2.27,0,0,1-2.66-1.29l-9.26-22.14A1.11,1.11,0,0,0,242.13,133.06Z" style="fill:#A100F5"></path><path d="M242.13,133.06a1.07,1.07,0,0,0-.58,1.4l9.27,22.15a2.22,2.22,0,0,1-.95,2.76c-2.08,1.22-3.32,2.56-2.88,3.59.61,1.44,4,1.41,7.62-.07s6-3.84,5.42-5.27c-.43-1-2.24-1.13-4.56-.55a2.27,2.27,0,0,1-2.66-1.29l-9.26-22.14A1.11,1.11,0,0,0,242.13,133.06Z" style="fill:#fff;opacity:0.5"></path><path d="M243.55,133.64a1.11,1.11,0,0,0-1.42-.58,1.07,1.07,0,0,0-.58,1.4l2.31,5.52a3.52,3.52,0,0,0,2-.8Z" style="opacity:0.15"></path><path d="M241,107.53c-1.3-1.48-5-1.54-9.2.15s-6.81,4.18-6.63,6.28,2.12,13.36,4.17,18.21c1.54,3.66,6.86,8.77,14.86,5.55s8.24-10.5,6.77-14.19C249,118.62,242.32,109,241,107.53Z" style="fill:#A100F5"></path><g style="opacity:0.6000000000000001"><path d="M241,107.53c-1.3-1.48-5-1.54-9.2.15s-6.81,4.18-6.63,6.28,2.12,13.36,4.17,18.21c1.54,3.66,6.86,8.77,14.86,5.55s8.24-10.5,6.77-14.19C249,118.62,242.32,109,241,107.53Z" style="fill:#fff"></path></g><path d="M245.7,116.46a1.37,1.37,0,0,0-.19-.23c-1.07-1.73-5.47-1.66-10.12.22s-7.89,4.9-7.37,6.87a.65.65,0,0,0,0,.2c.32,1.42,2.36,6.78,2.87,8,.59,1.4,5.16,7.75,12.65,4.73s6.3-10.66,5.74-12.07C248.81,123,246.48,117.7,245.7,116.46Z" style="fill:#A100F5"></path><path d="M245.7,116.46a1.37,1.37,0,0,0-.19-.23c-1.07-1.73-5.47-1.66-10.12.22s-7.89,4.9-7.37,6.87a.65.65,0,0,0,0,.2c.32,1.42,2.36,6.78,2.87,8,.59,1.4,5.16,7.75,12.65,4.73s6.3-10.66,5.74-12.07C248.81,123,246.48,117.7,245.7,116.46Z" style="opacity:0.5"></path><path d="M245.64,116.45c.8,2-2.47,5.12-7.32,7.07s-9.44,2-10.24,0,2.46-5.12,7.31-7.07S244.83,114.5,245.64,116.45Z" style="fill:#A100F5"></path><path d="M245.64,116.45c.8,2-2.47,5.12-7.32,7.07s-9.44,2-10.24,0,2.46-5.12,7.31-7.07S244.83,114.5,245.64,116.45Z" style="opacity:0.30000000000000004"></path><path d="M240.39,108.31c.66,1.6-2,4.18-6,5.78s-7.7,1.59-8.36,0,2-4.18,6-5.77S239.73,106.71,240.39,108.31Z" style="opacity:0.15"></path></g></g><path d="M247.87,154.94a16.73,16.73,0,0,0,6.7.74,6.82,6.82,0,0,0,2.25-.72,5.86,5.86,0,0,0,2.9-3.8c.55-3-.19-6-.44-9.08a5.13,5.13,0,0,0-.43-1.94,4,4,0,0,0-2.85-1.79,35.17,35.17,0,0,0-6.88-.36,7.6,7.6,0,0,0-4.29,1.12,9.54,9.54,0,0,0-2.32,2.69l-2.61,3.91a4.5,4.5,0,0,0-.67,1.26,1.58,1.58,0,0,0,.2,1.37c.4.49,1.13.59,1.6,1a3.42,3.42,0,0,1,.78,1.54C242.53,153,245.87,154.37,247.87,154.94Z" style="fill:#ffa8a7"></path><path d="M196.68,294.08c-5.23-.73-9.74,3.44-10.17,4.78-.59,1.8-.41,5.47,1.7,10a31.44,31.44,0,0,1,2.24,14.25c-.41,4.13-2.43,14.45,1.72,19.66s13.4,9.77,16.73,2.69c1.09-2.32-1-10.39-2-16.27-1.87-11.72-3.3-23.36-3.3-23.36Z" style="fill:#263238"></path><path d="M230.07,217.82c-13.16-12.4-27.29-25-27.29-25L177.12,218l16.72,17,23.33,17.67s-1.74,3.34-4.83,9.91c-1,2.09-2.53,6.29-4.19,11.06l8.6,29.62s18-25.45,28.13-42.79c8.06-13.77,6.24-20,5-22C246.39,233.12,244.56,231.48,230.07,217.82Z" style="fill:#37474f"></path><path d="M214.75,250.83c-1.33-1.88-4.4-5.68-5.81-7.4-5.32-6.51-18.66-23-18.66-23l-2.46,1.49,11.12,16.49Z" style="fill:#263238"></path><path d="M221.48,296.45c0-10.6-.18-25.37-.58-30.62a39.2,39.2,0,0,0-3.73-13.17c-1.1,2.18-2.9,5.86-4.35,8.89l6.63,37.84Z" style="fill:#263238"></path><path d="M222.17,330.58s1.16,12.77,1.84,20.53c.61,6.92,6.27,13.25,10.5,19.61.92,1.39,3.08,4,3.83,5.14a2,2,0,0,1-.59,3c-2.47,1.83-11.88,1.13-16.61-3.46S212.7,361.81,210,358.25a47.92,47.92,0,0,1-2.86-4.11,6.56,6.56,0,0,1-1.07-4.38,19,19,0,0,0,.38-6.07,69.5,69.5,0,0,0-1.47-8.08Z" style="fill:#ffa8a7"></path><path d="M244,380.18h0c-4.38-5.29-7.22-6.84-12.2-15.48-3.93-6.8-3.81-8.09-5-11.09s-1.52-5.37-3.1-5.53l.19,2.12s.59,2.91-4.76,3.66c-2.52.36-5.72.66-9.09-1.43s-3.77-4.16-3.77-4.16l.19-1.69c-1.29-.22-1.85,3.67-2.94,6.41a14.51,14.51,0,0,0-1.31,8.42c.69,3.69,6.26,5,8.53,10.05s4.81,15.42,14.49,19.32,18.5.48,20.91-2.19C248.16,386.34,247.65,383.78,244,380.18Z" style="fill:#263238"></path><path d="M139.66,195.64c-3.2,9.61-5.33,12.86-3.31,23.33s12.36,20.19,25.15,30c10.58,8.13,22.54,18.57,25.18,21.25,3.33,3.39,4.59,6.47,4.59,12.91,0,6.6,1.87,15.26,5.72,30.09,4.17,16,7.26,25.52,7.26,25.52s11.27,2.85,19.14-3.1c0,0-4.62-65.63-6.43-74.52s-30.34-40.57-30.34-40.57,6.21-13.56,10-23.06Z" style="fill:#37474f"></path><path d="M184.32,246.78c-.35-3.36-10.21-7.31-14.87-13.57a32.14,32.14,0,0,0,5.19,1.7c2.41.51,4.87-.14,5.38-1.55s-1.87-1.77-4.22-3.39c-1.41-1-4-3.22-7.12-5.08-2.11-1.25-5.07-1.89-6.73-3.38-.9-.8-5.77-7.51-9.54-14.21-2-3.54-4.46-7.77-6.64-11.46l-6.11-.2c-2.74,8.24-4.69,11.82-3.92,19.26,5.85,7.75,11.62,15.36,12.88,17.35a105.12,105.12,0,0,0,9.55,12.68c3.89,4.5,10.07,7.46,14,7.95C178,253.6,184.68,250.15,184.32,246.78Z" style="fill:#263238"></path><path d="M196.63,211.86s-2.89,7.38-8.81,10.07l2.33,2.63A17.2,17.2,0,0,0,196.63,211.86Z" style="fill:#263238"></path><path d="M147.47,125.4c-3,4.78-11.63,31.26-12.55,83.41,9.51,9.7,58.06,9.06,71.45-12.7a122.39,122.39,0,0,1-4.07-15c.78-13.67,5.93-33.6,6.41-40,.5-6.78,2-23.06-10.55-27.16l-18.58-.66-26.11,3.86A72,72,0,0,0,147.47,125.4Z" style="fill:#455a64"></path><path d="M166.91,60.7s-5,.47-7,4.12c-1.73,3.18-1.5,11,.22,19.68s3.49,13.86,4.62,16.28a6.53,6.53,0,0,0,3.64,3.2l.21-10.15-.06-7.08s4.81-6,5.53-11c.93-6.5-.32-9.23-.32-9.23Z" style="fill:#37474f"></path><path d="M177.68,69a17.35,17.35,0,1,0,18-16.63A17.35,17.35,0,0,0,177.68,69Z" style="fill:#37474f"></path><path d="M168.9,85.64c-1.77,1.4-3-2.48-4.35-4s-6-3.79-8.48,1,1.62,11.89,5,13.67c5,2.6,7.53-2.46,7.53-2.46l-.49,22.93s1.16,4.35,9.78,7.82c6.73,2.71,16.92-.87,10.86-7.66l.27-7s5.7,1.11,8.51.79c4.69-.53,7.76-4.08,9.38-9.06,2.6-8,3.11-20.94.7-36.8-5-4.26-22.62-4.87-33.86,1.58C174,80.46,170.67,84.24,168.9,85.64Z" style="fill:#ffa8a7"></path><path d="M211.24,53.41a.86.86,0,0,0-.65-.55,1.05,1.05,0,0,0-.65.25,30.93,30.93,0,0,1-4.27,2.6,14.94,14.94,0,0,0,.32-5.65c-.15-1.15-.36-3.82-1.77-4.17-.83-.2-1.6.47-2.26,1C196,52,188.73,49.2,181.87,49.11c-5.74-.07-12.76,2-15.59,7.41-1.3,2.5-1.62,5.18.64,7a16.06,16.06,0,0,0,6.87,2.92c11.32,2.49,26.52,7.08,35.43-3.18a9.94,9.94,0,0,0,2.53-5.16,8.48,8.48,0,0,0-.48-4.66Z" style="fill:#37474f"></path><path d="M209.22,63.3a9.94,9.94,0,0,0,2.53-5.16,8.48,8.48,0,0,0-.48-4.66c1.16,3.23.4,8.31-7,11.2s-16.57.84-21.56.2a15.55,15.55,0,0,0-8.9,1.6C185.11,69,200.31,73.56,209.22,63.3Z" style="fill:#263238"></path><path d="M189.06,110s-10.3-2.52-13.85-4.6a12,12,0,0,1-4.82-5.17,16.47,16.47,0,0,0,2.61,6c2.52,3.51,15.95,6.56,15.95,6.56Z" style="fill:#f28f8f"></path><path d="M212.76,79.38l-.88-.11c-2.82-.31-6.52-.41-8.77.25-2.84.82-3.86,1.75-5.41,1.75s-2.66-1-5.62-1.8c-2.35-.67-6.31-.6-9.35-.31l-.95.1a1.52,1.52,0,0,0-1.1,1.52,3.25,3.25,0,0,0,.82,1.78,2,2,0,0,1,.28.72c.27,1.23.37,3.59.94,4.9A6.11,6.11,0,0,0,183.85,90a4.22,4.22,0,0,0,.59.52,4,4,0,0,0,.34.23,5.58,5.58,0,0,0,1,.5l.17,0,.28.09.29.07a7.76,7.76,0,0,0,.92.14l.39,0h.5c3.85,0,5.53-1.76,6.56-3.61s.9-4.48,2.67-4.46h.17l.15,0c1.3.31,1,2.71,1.8,4.45a6.77,6.77,0,0,0,1.18,1.9,3.83,3.83,0,0,0,.28.29l.16.14.16.13.15.11.16.12.13.08.09.06a6,6,0,0,0,1.5.61l.15,0a8.59,8.59,0,0,0,1.86.19,5.65,5.65,0,0,0,5.58-3.38,31.71,31.71,0,0,0,1.3-4.89,1.55,1.55,0,0,1,.35-.65,3.52,3.52,0,0,0,.89-1.8A1.45,1.45,0,0,0,212.76,79.38ZM194,86.24a5.8,5.8,0,0,1-1.44,2.58h0a5.64,5.64,0,0,1-4.25,1.46,4.53,4.53,0,0,1-3.95-1.9l-.13-.19-.11-.18-.09-.18-.07-.15-.06-.13-.05-.11c0-.06,0-.12-.07-.19h0c-.07-.18-.13-.37-.18-.54h0c0-.12-.05-.23-.08-.33s-.08-.37-.11-.52,0-.07,0-.11l0-.09c-.24-1.3-.49-3.85.2-4.42s2.46-1.16,5.31-.88l.3,0a11.41,11.41,0,0,1,1.3.23l.5.12a11.66,11.66,0,0,1,1.26.41l.39.16.41.2.08,0,.15.08a2.4,2.4,0,0,1,.83.69C194.63,83.12,194.39,84.8,194,86.24Zm16.73-.49c-.27,1-.83,3.2-2.88,4.15a5.19,5.19,0,0,1-2.15.45,4.53,4.53,0,0,1-4.2-2v0l-.08-.12s0-.1-.08-.14a.25.25,0,0,0,0-.07l-.1-.21a2.44,2.44,0,0,1-.1-.24.61.61,0,0,1,0-.12.14.14,0,0,1,0-.06.69.69,0,0,1,0-.1.24.24,0,0,1,0-.08,6.21,6.21,0,0,1-.24-1c-.23-1.44-.32-3.12.25-3.92s2.72-1.65,4.77-1.89a12.88,12.88,0,0,1,1.32-.1h.32l.46,0H208l.22,0,.35,0a5.59,5.59,0,0,1,.66.12l.15,0h0l.11,0,.16,0,.18.06.31.13.05,0a2.35,2.35,0,0,1,.69.44C211.52,81.91,211.07,84.46,210.74,85.75Z" style="fill:#37474f"></path><path d="M182.3,79.53l-20.33.4a5.84,5.84,0,0,1,3,2.21L181.91,82Z" style="fill:#37474f"></path><path d="M196.88,83.72v11.9l7.52-2-6.71-10.07C197.34,83.53,196.93,83.61,196.88,83.72Z" style="fill:#f28f8f"></path><path d="M191.62,84.12a3.38,3.38,0,0,1-6.57.12,4.94,4.94,0,0,0,6.57-.12Z" style="fill:#263238"></path><path d="M208.36,84.58a3.38,3.38,0,0,1-6.56-.3,4.93,4.93,0,0,0,6.56.3Z" style="fill:#263238"></path><path d="M190.13,76.74l-4.83,1.52A2.66,2.66,0,0,1,187,75,2.48,2.48,0,0,1,190.13,76.74Z" style="fill:#263238"></path><path d="M191.17,98.81l4.74,1.76a2.49,2.49,0,0,1-3.21,1.58A2.65,2.65,0,0,1,191.17,98.81Z" style="fill:#b16668"></path><path d="M207.86,78.38l-4.77-1.81a2.44,2.44,0,0,1,3.2-1.53A2.68,2.68,0,0,1,207.86,78.38Z" style="fill:#263238"></path><path d="M168.4,105.15c-3.29.54-5.25,1.67-6.43,6-1,3.55-2.28,5.93-1.1,9.71S170,131,179.73,132.17s15.13-6,15.06-10.56-1.85-9.21-3.57-10.22a3.48,3.48,0,0,0-2.19-.56l-.1,2.43s-.92,2.12-7.3,1.72c-11.24-.71-13.32-5.68-13.32-5.68Z" style="fill:#A100F5"></path><path d="M168.4,105.15c-3.29.54-5.25,1.67-6.43,6-1,3.55-2.28,5.93-1.1,9.71S170,131,179.73,132.17s15.13-6,15.06-10.56-1.85-9.21-3.57-10.22a3.48,3.48,0,0,0-2.19-.56l-.1,2.43s-.92,2.12-7.3,1.72c-11.24-.71-13.32-5.68-13.32-5.68Z" style="opacity:0.30000000000000004"></path><path d="M153.47,117.12c-12.77.11-18.47,4-21.59,16.65-2.81,11.36-7.25,39.86-8.37,47.23-1,6.72-1.39,9.27,2.13,15.17,2.88,4.81,23.72,31.61,26.26,35.61a105.8,105.8,0,0,0,9.54,12.69c3.9,4.49,10.08,7.46,14,7.94,5.83.72,12.51-2.73,12.15-6.1s-10.21-7.31-14.87-13.57a32.79,32.79,0,0,0,5.19,1.71c2.41.5,4.87-.15,5.38-1.56s-1.87-1.77-4.22-3.39c-1.41-1-4-3.22-7.13-5.07-2.1-1.26-5.06-1.9-6.72-3.39-.9-.8-5.77-7.51-9.54-14.21-4.68-8.31-12-20.42-12-20.42L152.33,149S158.18,124.7,153.47,117.12Z" style="fill:#ffa8a7"></path><path d="M155.08,116.89c-5.74-.32-15.07,0-20.16,6.68s-13.82,56.91-13.39,63.13,3.62,11.07,7.93,16.8,15,18.39,15,18.39,7.54-7.78,15-8.83l-14.1-26.88,9.83-44.49S157.91,128,155.08,116.89Z" style="fill:#37474f"></path></g></g></g><g id="freepik--Table--inject-158"><g id="freepik--table--inject-158"><g id="freepik--table--inject-158"><path d="M327.59,391.67c-16.56-9.56-43.4-9.56-60,0-8.28,4.78-12.41,11-12.41,17.31,0,.65,0,3.43,0,4.18.13,6.16,4.26,12.31,12.41,17,16.56,9.56,43.4,9.56,60,0,8.19-4.73,12.32-10.91,12.41-17.1,0-.72,0-3.51,0-4.19C340,402.65,335.83,396.42,327.59,391.67Z" style="fill:#37474f"></path><path d="M267.63,426.29c-16.56-9.56-16.56-25.06,0-34.62s43.4-9.56,60,0,16.56,25.06,0,34.62S284.19,435.85,267.63,426.29Z" style="fill:#455a64"></path><path d="M302.48,405.91h0V251.69h-9.78V405.91h0a2.29,2.29,0,0,0,1.39,2.24,7.71,7.71,0,0,0,6.94,0A2.29,2.29,0,0,0,302.48,405.91Z" style="fill:#37474f"></path><path d="M341.44,202.39c-24.2-14-63.45-14-87.66,0-12.11,7-18.15,16.15-18.14,25.31v4.51c0,9.16,6,18.31,18.14,25.3,24.21,14,63.46,14,87.67,0,12.1-7,18.14-16.14,18.14-25.3V227.7C359.59,218.54,353.55,209.38,341.44,202.39Z" style="fill:#455a64"></path><path d="M341.44,196.93c-24.2-14-63.45-14-87.66,0-12.11,7-18.15,16.15-18.14,25.31v4.5c0,9.16,6,18.32,18.14,25.31,24.21,14,63.46,14,87.67,0,12.1-7,18.14-16.15,18.14-25.31v-4.5C359.59,213.08,353.55,203.92,341.44,196.93Z" style="fill:#A100F5"></path><path d="M341.44,196.93c-24.2-14-63.45-14-87.66,0-12.11,7-18.15,16.15-18.14,25.31v4.5c0,9.16,6,18.32,18.14,25.31,24.21,14,63.46,14,87.67,0,12.1-7,18.14-16.15,18.14-25.31v-4.5C359.59,213.08,353.55,203.92,341.44,196.93Z" style="opacity:0.4"></path><ellipse cx="297.61" cy="222.24" rx="61.99" ry="35.79" style="fill:#A100F5;opacity:0.5"></ellipse></g><g id="freepik--wine-bottle--inject-158"><ellipse id="freepik--shadow--inject-158" cx="285.66" cy="199.9" rx="15.9" ry="9.18" style="opacity:0.1"></ellipse><g id="freepik--wine-bottle--inject-158"><path d="M290.82,125.24V112l-4.27.18-4.27-.18v13.2a21.34,21.34,0,0,1-5.39,14.3c-2.15,2.39-4.15,6.26-4.25,12.4v44.49h0c0,3,2.94,6,8.74,7.45a21.82,21.82,0,0,0,10.35,0c5.79-1.41,8.7-4.46,8.73-7.45h0V151.94c-.1-6.14-2.1-10-4.25-12.4A21.29,21.29,0,0,1,290.82,125.24Z" style="fill:#A100F5"></path><path d="M290.82,125.24V112l-4.27.18-4.27-.18v13.2a21.34,21.34,0,0,1-5.39,14.3c-2.15,2.39-4.15,6.26-4.25,12.4v44.49h0c0,3,2.94,6,8.74,7.45a21.82,21.82,0,0,0,10.35,0c5.79-1.41,8.7-4.46,8.73-7.45h0V151.94c-.1-6.14-2.1-10-4.25-12.4A21.29,21.29,0,0,1,290.82,125.24Z" style="opacity:0.5"></path><path d="M290.83,110.58s0-.07,0-.11a2.07,2.07,0,0,0-1.24-1.84,6.71,6.71,0,0,0-6.05,0,2.53,2.53,0,0,0-1.1,1.14l-.07.12s0,.06,0,.09a.89.89,0,0,0-.07.28v6.46a2.12,2.12,0,0,0,1.25,1.76,6.65,6.65,0,0,0,6.05,0,2.25,2.25,0,0,0,1.21-1.48.35.35,0,0,0,.05-.13Z" style="fill:#37474f"></path><ellipse cx="286.55" cy="110.38" rx="4.28" ry="2.47" style="fill:#455a64"></ellipse><path d="M300.46,153.3v24.2c0,2.06-1.36,4.12-4.08,5.68-4.27,2.46-10.65,3-15.81,1.56v-24.2c5.16,1.43,11.54.91,15.81-1.56C299.1,157.42,300.46,155.35,300.46,153.3Z" style="fill:#fff"></path></g></g><g id="freepik--glass-of-wine--inject-158"><path id="freepik--shadow--inject-158" d="M312.17,209.38c-3.71-2.14-3.71-5.62,0-7.76a14.83,14.83,0,0,1,13.45,0c3.71,2.14,3.71,5.62,0,7.76A14.89,14.89,0,0,1,312.17,209.38Z" style="opacity:0.1"></path><g id="freepik--glass-of-wine--inject-158"><path d="M318.88,175.75a1,1,0,0,0-1,1l.1,23a2.15,2.15,0,0,1-1.84,2.11c-2.27.34-3.84,1.09-3.83,2.17,0,1.49,3,2.69,6.71,2.67s6.69-1.26,6.68-2.76c0-1.08-1.55-1.8-3.81-2.12A2.13,2.13,0,0,1,320,199.8l-.09-23A1,1,0,0,0,318.88,175.75Z" style="fill:#A100F5"></path><path d="M318.88,175.75a1,1,0,0,0-1,1l.1,23a2.15,2.15,0,0,1-1.84,2.11c-2.27.34-3.84,1.09-3.83,2.17,0,1.49,3,2.69,6.71,2.67s6.69-1.26,6.68-2.76c0-1.08-1.55-1.8-3.81-2.12A2.13,2.13,0,0,1,320,199.8l-.09-23A1,1,0,0,0,318.88,175.75Z" style="fill:#fff;opacity:0.5"></path><path d="M319.91,176.77a1,1,0,0,0-2.06,0l0,5.74a3.25,3.25,0,0,0,2.05,0Z" style="opacity:0.15"></path><path d="M327.12,152.6c-.6-1.78-3.82-3.16-8.12-3.16s-7.51,1.28-8.11,3.21-3,12.65-3,17.7c0,3.81,2.84,10.27,11,10.27s11-6.4,11.09-10.2C330.12,165.34,327.78,154.41,327.12,152.6Z" style="fill:#A100F5"></path><g style="opacity:0.6000000000000001"><path d="M327.12,152.6c-.6-1.78-3.82-3.16-8.12-3.16s-7.51,1.28-8.11,3.21-3,12.65-3,17.7c0,3.81,2.84,10.27,11,10.27s11-6.4,11.09-10.2C330.12,165.34,327.78,154.41,327.12,152.6Z" style="fill:#fff"></path></g><path d="M328,162.25A1,1,0,0,0,328,162c-.31-1.91-4.2-3.43-9-3.43s-8.71,1.54-9,3.47a1.52,1.52,0,0,0-.06.2c-.24,1.37-.39,6.88-.38,8.13,0,1.46,1.71,8.75,9.38,8.75s9.41-7.24,9.43-8.69C328.41,169.14,328.27,163.63,328,162.25Z" style="fill:#37474f"></path><path d="M328,162.22c0,2-4,3.67-9,3.67s-9-1.64-9-3.67,4-3.68,9-3.68S328,160.19,328,162.22Z" style="fill:#455a64"></path><path d="M326.34,153.09c0,1.66-3.29,3-7.34,3s-7.35-1.34-7.35-3,3.29-3,7.35-3S326.34,151.43,326.34,153.09Z" style="opacity:0.15"></path></g></g><g id="freepik--glass-of-wine--inject-158"><path id="freepik--shadow--inject-158" d="M334.67,228.66c-3.71-2.14-3.71-5.62,0-7.76a14.81,14.81,0,0,1,13.44,0c3.71,2.14,3.71,5.62,0,7.76A14.87,14.87,0,0,1,334.67,228.66Z" style="opacity:0.1"></path><g id="freepik--glass-of-wine--inject-158"><path d="M341.34,195.14a1,1,0,0,0-1,1l.09,23a2.15,2.15,0,0,1-1.84,2.11c-2.26.35-3.84,1.09-3.83,2.17,0,1.5,3,2.69,6.71,2.67s6.69-1.26,6.68-2.75c0-1.08-1.55-1.81-3.8-2.12a2.15,2.15,0,0,1-1.87-2.1l-.09-23A1,1,0,0,0,341.34,195.14Z" style="fill:#A100F5"></path><path d="M341.34,195.14a1,1,0,0,0-1,1l.09,23a2.15,2.15,0,0,1-1.84,2.11c-2.26.35-3.84,1.09-3.83,2.17,0,1.5,3,2.69,6.71,2.67s6.69-1.26,6.68-2.75c0-1.08-1.55-1.81-3.8-2.12a2.15,2.15,0,0,1-1.87-2.1l-.09-23A1,1,0,0,0,341.34,195.14Z" style="fill:#fff;opacity:0.5"></path><path d="M342.37,196.16a1,1,0,0,0-1-1,1,1,0,0,0-1,1l0,5.75a3.32,3.32,0,0,0,2.05,0Z" style="opacity:0.15"></path><path d="M349.58,172c-.6-1.78-3.82-3.16-8.12-3.16s-7.51,1.28-8.11,3.21-3,12.66-3,17.71c0,3.8,2.84,10.26,11,10.26s11-6.4,11.09-10.2C352.58,184.73,350.24,173.81,349.58,172Z" style="fill:#A100F5"></path><g style="opacity:0.6000000000000001"><path d="M349.58,172c-.6-1.78-3.82-3.16-8.12-3.16s-7.51,1.28-8.11,3.21-3,12.66-3,17.71c0,3.8,2.84,10.26,11,10.26s11-6.4,11.09-10.2C352.58,184.73,350.24,173.81,349.58,172Z" style="fill:#fff"></path></g><path d="M350.5,181.65a1,1,0,0,0-.08-.29c-.31-1.91-4.2-3.43-9-3.43s-8.71,1.54-9,3.48a1.06,1.06,0,0,0-.06.19c-.24,1.38-.39,6.88-.38,8.14,0,1.45,1.71,8.74,9.38,8.74s9.41-7.23,9.43-8.69C350.88,188.53,350.73,183,350.5,181.65Z" style="fill:#A100F5"></path><path d="M350.5,181.65a1,1,0,0,0-.08-.29c-.31-1.91-4.2-3.43-9-3.43s-8.71,1.54-9,3.48a1.06,1.06,0,0,0-.06.19c-.24,1.38-.39,6.88-.38,8.14,0,1.45,1.71,8.74,9.38,8.74s9.41-7.23,9.43-8.69C350.88,188.53,350.73,183,350.5,181.65Z" style="opacity:0.2"></path><path d="M350.45,181.61c0,2-4,3.67-9,3.67s-9-1.64-9-3.67,4-3.68,9-3.68S350.45,179.58,350.45,181.61Z" style="fill:#A100F5"></path><path d="M348.8,172.48c0,1.66-3.29,3-7.34,3s-7.35-1.34-7.35-3,3.29-3,7.35-3S348.8,170.83,348.8,172.48Z" style="opacity:0.15"></path></g></g><g id="freepik--cheese-board--inject-158"><ellipse id="freepik--shadow--inject-158" cx="290.74" cy="232.41" rx="36.96" ry="21.34" style="opacity:0.1"></ellipse><g id="freepik--cheese-board--inject-158"><path d="M314.45,212.2c-14.19-8.19-37.19-8.19-51.38,0-7.1,4.1-10.64,9.47-10.63,14.83v2.64c0,5.37,3.53,10.74,10.63,14.84,14.19,8.19,37.19,8.19,51.38,0,7.09-4.1,10.63-9.47,10.63-14.84V227C325.08,221.67,321.54,216.3,314.45,212.2Z" style="fill:#9a4a4d"></path><ellipse cx="288.76" cy="227.03" rx="36.33" ry="20.98" style="fill:#b16668"></ellipse><path d="M288.76,211.19c8.82,0,17,1.94,23.12,5.46,5.21,3,8.08,6.69,8.08,10.38s-2.87,7.39-8.08,10.39c-6.09,3.52-14.3,5.46-23.12,5.46s-17-1.94-23.13-5.46c-5.2-3-8.07-6.69-8.07-10.39s2.87-7.38,8.07-10.38c6.1-3.52,14.31-5.46,23.13-5.46m0-2.05c-9.17,0-17.75,2-24.15,5.73-5.87,3.39-9.1,7.71-9.1,12.16s3.23,8.78,9.1,12.17c6.4,3.69,15,5.73,24.15,5.73s17.75-2,24.15-5.73c5.87-3.39,9.1-7.71,9.1-12.17s-3.23-8.77-9.1-12.16c-6.4-3.7-15-5.73-24.15-5.73Z" style="fill:#9a4a4d"></path><g id="freepik--Cheese--inject-158"><path d="M289.47,228.72l28.7,4.71L310,216.86c-.56-1.15-2.75-1.75-4.66-1.29a40.68,40.68,0,0,0-10.86,4.19,22.73,22.73,0,0,0-7.26,6.27C286.44,227.13,287.48,228.39,289.47,228.72Z" style="opacity:0.1"></path><path d="M317.19,216.24a3.11,3.11,0,0,0-.95,2.34c.13,1,1.07,1.48,1.51,2.31a2.46,2.46,0,0,1,.3,1.61,5.22,5.22,0,0,1-.56,1.34,2.14,2.14,0,0,0-.27,1.39c.16.65.83,1.13.8,1.8s-.86,1.2-.89,1.92a1.21,1.21,0,0,0,.35.87c.2.21.62.38.7.65,0,.06,0,.76,0,.77l-28.71-4.71A2.87,2.87,0,0,1,287,225H287V204.62a1.33,1.33,0,0,1,.27-.81,22.85,22.85,0,0,1,7.26-6.27,40.35,40.35,0,0,1,10.86-4.19c1.92-.46,4.09.15,4.67,1.3l8.16,16.56v3.91C317.88,215.51,317.52,215.87,317.19,216.24Z" style="fill:#A100F5"></path><path d="M317.19,216.24a3.11,3.11,0,0,0-.95,2.34c.13,1,1.07,1.48,1.51,2.31a2.46,2.46,0,0,1,.3,1.61,5.22,5.22,0,0,1-.56,1.34,2.14,2.14,0,0,0-.27,1.39c.16.65.83,1.13.8,1.8s-.86,1.2-.89,1.92a1.21,1.21,0,0,0,.35.87c.2.21.62.38.7.65,0,.06,0,.76,0,.77l-28.71-4.71A2.87,2.87,0,0,1,287,225H287V204.62a1.33,1.33,0,0,1,.27-.81,22.85,22.85,0,0,1,7.26-6.27,40.35,40.35,0,0,1,10.86-4.19c1.92-.46,4.09.15,4.67,1.3l8.16,16.56v3.91C317.88,215.51,317.52,215.87,317.19,216.24Z" style="fill:#fff;opacity:0.6000000000000001"></path><path d="M289.47,206.5l28.7,4.72L310,194.64c-.56-1.15-2.75-1.75-4.66-1.29a40.68,40.68,0,0,0-10.86,4.19,22.73,22.73,0,0,0-7.26,6.27C286.44,204.92,287.48,206.18,289.47,206.5Z" style="fill:#fff;opacity:0.30000000000000004"></path><path d="M289.71,219.61a2.18,2.18,0,0,0,.65,2.41,4.72,4.72,0,0,0,3.12,1.38,2,2,0,0,0,1.76-.64,1.65,1.65,0,0,0,.25-1.26,2.86,2.86,0,0,0-.57-1.19C294,219,290.73,217.65,289.71,219.61Z" style="opacity:0.15"></path><path d="M294.44,209a4.23,4.23,0,0,0-3,1.16,1.69,1.69,0,0,0-.39,2.1,2.45,2.45,0,0,0,1.64.63,8.39,8.39,0,0,1,2.74,1,3.71,3.71,0,0,0,2.15.8,2,2,0,0,0,1.53-2.41C298.72,210,296.51,209,294.44,209Z" style="opacity:0.15"></path><path d="M299.9,219.34a2,2,0,0,0,.85-.18c1.32-.66,0-2.32-1.13-2C298.15,217.53,298.25,219.41,299.9,219.34Z" style="opacity:0.15"></path><path d="M305.27,212.41c-.67.17-1.37.65-1.37,1.33a2,2,0,0,0,.57,1.17l2.55,3.17a2.15,2.15,0,0,0,.9.77,1.69,1.69,0,0,0,1.78-.84,3.6,3.6,0,0,0,.49-3A4.06,4.06,0,0,0,305.27,212.41Z" style="opacity:0.15"></path><path d="M313,212.61a1.52,1.52,0,0,0,.2,1.13l.93,2c.16.34.37.73.74.81s.81-.24,1.05-.59a3,3,0,0,0,.55-2.41C316.15,212.47,313.56,211,313,212.61Z" style="opacity:0.15"></path><path d="M303.17,221.2a2.36,2.36,0,0,0-1.83,1.52,2.46,2.46,0,0,0,.84,2.12,7.25,7.25,0,0,0,5.62,2.21,2.66,2.66,0,0,0,1.81-.68c1.46-1.52-.46-3.32-1.59-4.23A5.67,5.67,0,0,0,303.17,221.2Z" style="opacity:0.15"></path><path d="M313.41,220.82a1.64,1.64,0,0,0-.54,1.73,1.92,1.92,0,0,0,1.34,1.27,1.44,1.44,0,0,0,1.36-.29,1.41,1.41,0,0,0,.28-1.37C315.56,221.09,314.55,220,313.41,220.82Z" style="opacity:0.15"></path><path d="M294.76,223.14a8.24,8.24,0,0,1-2.38-1.47,3.46,3.46,0,0,1-1-1.23,1.64,1.64,0,0,1,.07-1.51,1.16,1.16,0,0,1,.26-.28,1.92,1.92,0,0,0-2,1,2.18,2.18,0,0,0,.65,2.41,4.72,4.72,0,0,0,3.12,1.38A2.54,2.54,0,0,0,294.76,223.14Z" style="opacity:0.1"></path><path d="M298.2,213.61a4.5,4.5,0,0,1-1.49-.91,6.24,6.24,0,0,0-2.46-1.45,7.84,7.84,0,0,1-1.09-.25,1,1,0,0,1-.66-.83c0-.44.45-.73.84-.92l.34-.14a4,4,0,0,0-2.24,1.09,1.69,1.69,0,0,0-.39,2.1,2.45,2.45,0,0,0,1.64.63,8.39,8.39,0,0,1,2.74,1,3.71,3.71,0,0,0,2.15.8,1.69,1.69,0,0,0,1.31-1A1.79,1.79,0,0,1,298.2,213.61Z" style="opacity:0.1"></path><path d="M309.7,218a3.69,3.69,0,0,0,.49-1.11,1.64,1.64,0,0,1-1.7.5,2,2,0,0,1-.93-1.21,4.79,4.79,0,0,0-.61-1.43c-.29-.37-.72-.63-.94-1a1.26,1.26,0,0,1,.06-1.22.91.91,0,0,1,.18-.21,4.61,4.61,0,0,0-1,.12c-.67.17-1.37.65-1.37,1.33a2,2,0,0,0,.57,1.17l2.55,3.17a2.15,2.15,0,0,0,.9.77A1.69,1.69,0,0,0,309.7,218Z" style="opacity:0.1"></path><path d="M306.86,225.65a10,10,0,0,1-2.4-.92,5.1,5.1,0,0,1-1.4-.93,1.56,1.56,0,0,1,.41-2.66c-.1,0-.2,0-.3.06a2.36,2.36,0,0,0-1.83,1.52,2.46,2.46,0,0,0,.84,2.12,7.25,7.25,0,0,0,5.62,2.21,2.66,2.66,0,0,0,1.81-.68,1.67,1.67,0,0,0,.52-1.35,4.49,4.49,0,0,0-.76.38A3.73,3.73,0,0,1,306.86,225.65Z" style="opacity:0.1"></path><path d="M315.65,215.33a1.85,1.85,0,0,1-.54-.54,3.4,3.4,0,0,1-.8-1.69,1.45,1.45,0,0,1,.4-1.07c-.73-.26-1.46-.19-1.74.58a1.52,1.52,0,0,0,.2,1.13l.93,2c.16.34.37.73.74.81s.81-.24,1.05-.59a3.57,3.57,0,0,0,.33-.56A.76.76,0,0,1,315.65,215.33Z" style="opacity:0.1"></path><path d="M315.57,223.53a1.37,1.37,0,0,0,.29-1.28h0a1.39,1.39,0,0,1-1.46,0,1.22,1.22,0,0,1-.49-1.34,1.19,1.19,0,0,1,.27-.39,1.32,1.32,0,0,0-.77.3,1.64,1.64,0,0,0-.54,1.73,1.92,1.92,0,0,0,1.34,1.27A1.44,1.44,0,0,0,315.57,223.53Z" style="opacity:0.1"></path><path d="M300.75,219.16a1,1,0,0,0,.48-.46,1.09,1.09,0,0,1-1.09.06,1,1,0,0,1-.51-1,2.88,2.88,0,0,1,.33-.69,1,1,0,0,0-.34,0c-1.47.39-1.37,2.27.28,2.2A2.06,2.06,0,0,0,300.75,219.16Z" style="opacity:0.1"></path></g><g id="freepik--cheese-slices--inject-158"><path d="M294.82,237.5a.82.82,0,0,0-.2-.36l-4.56-5,1.93-.87a.61.61,0,0,0,.41-.49.63.63,0,0,0-.31-.52l-5.39-4,2.36-1.36a.73.73,0,0,0,.43-.6.62.62,0,0,0-.24-.46,1.33,1.33,0,0,0-.19-.14l-12.24-7.06a2.31,2.31,0,0,0-2.08,0l-15.1,8.71a.76.76,0,0,0-.43.6.73.73,0,0,0,.43.6L264,229l-1.77.8a1,1,0,0,0-.17.1.4.4,0,0,0-.13.13.42.42,0,0,0-.1.28.62.62,0,0,0,.3.49l3.72,2.76-.46.14a.59.59,0,0,0-.5.55.5.5,0,0,0,0,.12,1,1,0,0,0,.05.16l0,0a1.36,1.36,0,0,0,.12.17l8,8.88a.58.58,0,0,0,.14.13.91.91,0,0,0,.16.11.85.85,0,0,0,.19.1l.19.07a1.6,1.6,0,0,0,.94.05l19.63-5.91C294.71,238.05,294.89,237.79,294.82,237.5Z" style="opacity:0.1"></path><path d="M294.32,233.17a.27.27,0,0,0,0-.15.79.79,0,0,0-.19-.36l-8-8.88a1.73,1.73,0,0,0-1.62-.46l-19.63,5.91a.59.59,0,0,0-.49.56c0,.15,0,1.62,0,1.85a.66.66,0,0,0,.21.5l8,8.89a1.63,1.63,0,0,0,.69.4,1.6,1.6,0,0,0,.94,0l19.62-5.9c.32-.1.5-.3.51-.53S294.3,233.4,294.32,233.17Zm-4.06.34c-.59.11-2.13.35-2.73-.21.37-1,1.11-2.06,2.32-1.83a2.44,2.44,0,0,1,1.67,1.43A2,2,0,0,1,290.26,233.51Zm-22.4-2.71a5.69,5.69,0,0,1,3.55.55,2.81,2.81,0,0,1,.67.45,1.23,1.23,0,0,1-.52.35,3,3,0,0,1-1.64,0,10.43,10.43,0,0,1-2.22-.77,3.17,3.17,0,0,1-.47-.27A1.45,1.45,0,0,1,267.86,230.8Zm16.27.63a2,2,0,0,1,1.91.25l-.07,0a1.63,1.63,0,0,1-1.11.15,1.79,1.79,0,0,1-.82-.39Zm1.46-2.92a4.63,4.63,0,0,1-3.64-.66,3.94,3.94,0,0,1-.55-.35,2.36,2.36,0,0,1,.52-.21,4.94,4.94,0,0,1,2.54-.19,3.3,3.3,0,0,1,1.47.76,2.44,2.44,0,0,1,.27.29A2,2,0,0,1,285.59,228.51Zm-4.24,2.61a2.54,2.54,0,0,1-1.25,1.12,4.66,4.66,0,0,1-3.92-.32,9.82,9.82,0,0,1-2.56-2.12l-.23-.22a2.05,2.05,0,0,1,.27-.25c1.08-.76,2.74-.56,4-.37a6.12,6.12,0,0,1,2.93,1.2A2.93,2.93,0,0,1,281.35,231.12Zm-7.68,6.08a10.94,10.94,0,0,1-2.38-1.55l-.15-.13h0l.31-.14a5.19,5.19,0,0,1,3.74,0,3.89,3.89,0,0,1,1.87,1.38C276.41,237.88,274.69,237.64,273.67,237.2Zm6.89-1.71a4,4,0,0,1-.75-.38,19,19,0,0,1,2.7-.38,2.9,2.9,0,0,1,2,.13s0,0-.05,0a2.76,2.76,0,0,1-1.2.44A5.71,5.71,0,0,1,280.56,235.49Z" style="fill:#A100F5"></path><path d="M294.32,233.17a.27.27,0,0,0,0-.15.79.79,0,0,0-.19-.36l-8-8.88a1.73,1.73,0,0,0-1.62-.46l-19.63,5.91a.59.59,0,0,0-.49.56c0,.15,0,1.62,0,1.85a.66.66,0,0,0,.21.5l8,8.89a1.63,1.63,0,0,0,.69.4,1.6,1.6,0,0,0,.94,0l19.62-5.9c.32-.1.5-.3.51-.53S294.3,233.4,294.32,233.17Zm-4.06.34c-.59.11-2.13.35-2.73-.21.37-1,1.11-2.06,2.32-1.83a2.44,2.44,0,0,1,1.67,1.43A2,2,0,0,1,290.26,233.51Zm-22.4-2.71a5.69,5.69,0,0,1,3.55.55,2.81,2.81,0,0,1,.67.45,1.23,1.23,0,0,1-.52.35,3,3,0,0,1-1.64,0,10.43,10.43,0,0,1-2.22-.77,3.17,3.17,0,0,1-.47-.27A1.45,1.45,0,0,1,267.86,230.8Zm16.27.63a2,2,0,0,1,1.91.25l-.07,0a1.63,1.63,0,0,1-1.11.15,1.79,1.79,0,0,1-.82-.39Zm1.46-2.92a4.63,4.63,0,0,1-3.64-.66,3.94,3.94,0,0,1-.55-.35,2.36,2.36,0,0,1,.52-.21,4.94,4.94,0,0,1,2.54-.19,3.3,3.3,0,0,1,1.47.76,2.44,2.44,0,0,1,.27.29A2,2,0,0,1,285.59,228.51Zm-4.24,2.61a2.54,2.54,0,0,1-1.25,1.12,4.66,4.66,0,0,1-3.92-.32,9.82,9.82,0,0,1-2.56-2.12l-.23-.22a2.05,2.05,0,0,1,.27-.25c1.08-.76,2.74-.56,4-.37a6.12,6.12,0,0,1,2.93,1.2A2.93,2.93,0,0,1,281.35,231.12Zm-7.68,6.08a10.94,10.94,0,0,1-2.38-1.55l-.15-.13h0l.31-.14a5.19,5.19,0,0,1,3.74,0,3.89,3.89,0,0,1,1.87,1.38C276.41,237.88,274.69,237.64,273.67,237.2Zm6.89-1.71a4,4,0,0,1-.75-.38,19,19,0,0,1,2.7-.38,2.9,2.9,0,0,1,2,.13s0,0-.05,0a2.76,2.76,0,0,1-1.2.44A5.71,5.71,0,0,1,280.56,235.49Z" style="fill:#fff;opacity:0.30000000000000004"></path><path d="M273.25,239.55v1.88a1.63,1.63,0,0,1-.69-.4l-8-8.89a.66.66,0,0,1-.21-.5c0-.23,0-1.7,0-1.85a.67.67,0,0,0,.21.47l8,8.88A1.5,1.5,0,0,0,273.25,239.55Z" style="opacity:0.15"></path><path d="M294.29,233a.79.79,0,0,0-.19-.36l-8-8.88a1.73,1.73,0,0,0-1.62-.46l-19.63,5.91a.59.59,0,0,0-.49.56s0,.08,0,.12,0,.1.06.16l0,0a.88.88,0,0,0,.12.17l8,8.88a1.76,1.76,0,0,0,.31.24.85.85,0,0,0,.19.1l.19.07a1.6,1.6,0,0,0,.94,0l19.62-5.91C294.19,233.58,294.36,233.31,294.29,233ZM286,231.73a1.63,1.63,0,0,1-1.11.15,1.79,1.79,0,0,1-.82-.39l.09-.06a2,2,0,0,1,1.91.25Zm-18.11-.93a5.69,5.69,0,0,1,3.55.55,2.81,2.81,0,0,1,.67.45,1.23,1.23,0,0,1-.52.35,3,3,0,0,1-1.64,0,10.43,10.43,0,0,1-2.22-.77,3.17,3.17,0,0,1-.47-.27A1.45,1.45,0,0,1,267.86,230.8Zm5.76-1-.23-.22a2.05,2.05,0,0,1,.27-.25c1.08-.76,2.74-.56,4-.37a6.12,6.12,0,0,1,2.93,1.2,2.93,2.93,0,0,1,.79,1,2.54,2.54,0,0,1-1.25,1.12,4.66,4.66,0,0,1-3.92-.32A9.82,9.82,0,0,1,273.62,229.8Zm12-1.29a4.63,4.63,0,0,1-3.64-.66,3.94,3.94,0,0,1-.55-.35,2.36,2.36,0,0,1,.52-.21,4.94,4.94,0,0,1,2.54-.19,3.3,3.3,0,0,1,1.47.76,2.44,2.44,0,0,1,.27.29A2,2,0,0,1,285.59,228.51Zm-11.92,8.69a10.94,10.94,0,0,1-2.38-1.55l-.15-.13h0l.31-.14a5.19,5.19,0,0,1,3.74,0,3.89,3.89,0,0,1,1.87,1.38C276.41,237.88,274.69,237.64,273.67,237.2Zm9.58-1.85a5.71,5.71,0,0,1-2.69.14,4,4,0,0,1-.75-.38,19,19,0,0,1,2.7-.38,2.9,2.9,0,0,1,2,.13s0,0-.05,0A2.76,2.76,0,0,1,283.25,235.35Zm7-1.84c-.59.11-2.13.35-2.73-.21.37-1,1.11-2.06,2.32-1.83a2.44,2.44,0,0,1,1.67,1.43A2,2,0,0,1,290.26,233.51Z" style="fill:#A100F5"></path><path d="M289.36,227.41,284,223.46l-1.52.45a1.52,1.52,0,0,1,0,1.09.75.75,0,0,1-.06.13,3,3,0,0,1-1.78,1.23,6.54,6.54,0,0,1-2.18.46,2.57,2.57,0,0,1-2-.86,1.37,1.37,0,0,1-.13-.2l-2.13.65a.92.92,0,0,1-.25,1,1.69,1.69,0,0,1-1.23.32,4.5,4.5,0,0,1-1.61-.37l-3,.9a4.88,4.88,0,0,1,1.11.58c.49.35.94.93.75,1.49a.9.9,0,0,1-.25.38l-.15.1a6,6,0,0,1,1.81.57,2.81,2.81,0,0,1,.67.45,1.23,1.23,0,0,1-.52.35,3,3,0,0,1-1.64,0,10.43,10.43,0,0,1-2.22-.77l-.17-.09a5.53,5.53,0,0,1-2.72-.72l4,4.46,3.6,2.66a1.43,1.43,0,0,0,.39.2,1.05,1.05,0,0,0,.21.06l.22,0a1.71,1.71,0,0,0,.88-.12l.73-.33a5,5,0,0,1-1.19-.32,10.94,10.94,0,0,1-2.38-1.55l-.15-.13h0l.31-.14a4.58,4.58,0,0,1,.82-.25,5.25,5.25,0,0,1-1.14-.78,1.22,1.22,0,0,1-.24-.27,1.2,1.2,0,0,1-.28-.69c-.08-1.46,1.87-.68,2.57-.42a8.35,8.35,0,0,0,1.92.5,1.51,1.51,0,0,1,1.08.43A.92.92,0,0,1,276,235l0,.05h0a1.6,1.6,0,0,1-.7.35,4,4,0,0,1,1.66,1.16l3.07-1.39-.18-.1a4.92,4.92,0,0,1,.8-.17l10.86-4.89a.78.78,0,0,0,.18-.11Zm-6.1,4.24a.85.85,0,0,1-.13.25,1.66,1.66,0,0,1-.95.7,5.23,5.23,0,0,1-1.47.17c-2.1,0-4.34,0-6.1-1.17A2.26,2.26,0,0,1,274,231a1.12,1.12,0,0,1-.27-.82,1,1,0,0,1,.08-.23l-.16-.16-.23-.22a2.05,2.05,0,0,1,.27-.25,3.27,3.27,0,0,1,1.61-.52,7.85,7.85,0,0,1,3.67-.55,6.49,6.49,0,0,1,3.32,1.23A2.11,2.11,0,0,1,283.26,231.65Zm2.71.08a1.63,1.63,0,0,1-1.11.15,1.79,1.79,0,0,1-.82-.39l.09-.06a2,2,0,0,1,1.91.25Zm1.82-1.88a.33.33,0,0,1-.1.06,2.25,2.25,0,0,1-1.77.31,3.45,3.45,0,0,1-1.28-.58,4.6,4.6,0,0,1-.45-.32.7.7,0,0,1-.29-.48.37.37,0,0,1,.1-.23,7,7,0,0,1-2.05-.76,3.94,3.94,0,0,1-.55-.35,2.36,2.36,0,0,1,.52-.21,4.94,4.94,0,0,1,2.54-.19,3.3,3.3,0,0,1,1.47.76l.16.18a1.67,1.67,0,0,1,.32,0c.54.1,1.71.43,1.76,1.1A.85.85,0,0,1,287.79,229.85Z" style="opacity:0.15"></path><path d="M272.08,231.8a2.81,2.81,0,0,0-.67-.45,5.69,5.69,0,0,0-3.55-.55,1.45,1.45,0,0,0-.63.29,1.06,1.06,0,0,1-.34-.39c-.33-.72.33-1.33,1-1.46a5.69,5.69,0,0,1,3.55.55,1.69,1.69,0,0,1,1,1.11A1,1,0,0,1,272.08,231.8Z" style="opacity:0.15"></path><path d="M281.55,230.36a1.54,1.54,0,0,1-.2.76,2.93,2.93,0,0,0-.79-1,6.12,6.12,0,0,0-2.93-1.2c-1.23-.19-2.89-.39-4,.37a2.05,2.05,0,0,0-.27.25.87.87,0,0,1-.39-.68,1.53,1.53,0,0,1,.66-1.12c1.08-.77,2.74-.56,4-.38a6.14,6.14,0,0,1,2.93,1.21A2.33,2.33,0,0,1,281.55,230.36Z" style="opacity:0.15"></path><path d="M286.52,227.62a1,1,0,0,1-.32.53,2.44,2.44,0,0,0-.27-.29,3.3,3.3,0,0,0-1.47-.76,4.94,4.94,0,0,0-2.54.19,2.36,2.36,0,0,0-.52.21l-.2-.19a.94.94,0,0,1-.22-.87,1.27,1.27,0,0,1,.94-.71,5,5,0,0,1,2.54-.19,3.32,3.32,0,0,1,1.47.77A1.44,1.44,0,0,1,286.52,227.62Z" style="opacity:0.15"></path><path d="M286.49,230.78a.94.94,0,0,1-.45.9,2,2,0,0,0-1.91-.25l-.09.06a1,1,0,0,1-.38-.63,1,1,0,0,1,.17-.71.89.89,0,0,1,.3-.28,2,2,0,0,1,1.66.11A1.15,1.15,0,0,1,286.49,230.78Z" style="opacity:0.15"></path><path d="M291.64,232.7l-.12.2a2.44,2.44,0,0,0-1.67-1.43c-1.21-.23-2,.82-2.32,1.83a.69.69,0,0,1-.2-.3,1.38,1.38,0,0,1,.05-.8c.32-1.12,1.07-2.55,2.47-2.29a2.49,2.49,0,0,1,1.76,1.67A1.5,1.5,0,0,1,291.64,232.7Z" style="opacity:0.15"></path><path d="M284.5,234.86a2.9,2.9,0,0,0-2-.13,19,19,0,0,0-2.7.38,2.1,2.1,0,0,1-.87-.76.42.42,0,0,1,0-.27A.37.37,0,0,1,279,234a.43.43,0,0,1,.12-.11,3.49,3.49,0,0,1,1.65-.5h0c.6-.07,1.21-.09,1.69-.17a3.92,3.92,0,0,1,1.64,0,1,1,0,0,1,.41.2.87.87,0,0,1,.31.45A1,1,0,0,1,284.5,234.86Z" style="opacity:0.15"></path><path d="M277.21,236.46a1.05,1.05,0,0,1-.15.32,3.89,3.89,0,0,0-1.87-1.38,5.19,5.19,0,0,0-3.74,0l-.31.14h0a1.09,1.09,0,0,1-.5-.84.89.89,0,0,1,.5-.72,3,3,0,0,1,.31-.15,5.14,5.14,0,0,1,3.74,0C276.2,234.24,277.66,235.16,277.21,236.46Z" style="opacity:0.15"></path><path d="M291.88,226.25a.63.63,0,0,0-.31-.52l-10.85-8a1.81,1.81,0,0,0-1.7-.18l-17.34,7.8a.69.69,0,0,0-.17.1.4.4,0,0,0-.13.13.42.42,0,0,0-.1.28c0,.23,0,1.68,0,1.86a.58.58,0,0,0,.3.51l10.85,8a1.11,1.11,0,0,0,.3.17l.18.06a1.1,1.1,0,0,0,.26.06h.08a1.61,1.61,0,0,0,.88-.11l17.34-7.8a.61.61,0,0,0,.41-.52C291.87,227.94,291.87,226.44,291.88,226.25Zm-27.25.16a4.72,4.72,0,0,1,4.62.5,2.17,2.17,0,0,1,.5.46,2,2,0,0,1-.82.41,5.46,5.46,0,0,1-4.46-.75,2.48,2.48,0,0,1-.36-.28A1.61,1.61,0,0,1,264.63,226.41Zm8.57-2.8a1.58,1.58,0,0,1,.77.46,1.69,1.69,0,0,1-1.23.32,4.58,4.58,0,0,1-2-.54A4.07,4.07,0,0,1,273.2,223.61Zm3.38-2.33a3,3,0,0,1,2.23-1h-.26a6,6,0,0,1,2.83.43,2.43,2.43,0,0,1,1.05,1.12,3,3,0,0,1-1.78,1.23,6.54,6.54,0,0,1-2.18.46,2.57,2.57,0,0,1-2-.86,1.76,1.76,0,0,1-.31-.59A2.34,2.34,0,0,1,276.58,221.28Zm-3.4,9.77a8.35,8.35,0,0,0,1.92.5,2.29,2.29,0,0,1,.86.23,2.1,2.1,0,0,1-1.09.43,4.4,4.4,0,0,1-3.74-1.18,1.22,1.22,0,0,1-.24-.27C271.44,230.38,272.66,230.86,273.18,231.05Zm5.76-4.69a6.48,6.48,0,0,1,3.32,1.22,3.36,3.36,0,0,1,.87,1,1.66,1.66,0,0,1-.95.7,5.23,5.23,0,0,1-1.47.17c-2.1,0-4.34,0-6.1-1.17a2.26,2.26,0,0,1-.64-.59,2.48,2.48,0,0,1,.77-.58A7.77,7.77,0,0,1,278.94,226.36Zm7.47-.21a3.72,3.72,0,0,1,1.28.45,2.25,2.25,0,0,1-1.77.31,3.45,3.45,0,0,1-1.28-.58A3.48,3.48,0,0,1,286.41,226.15Z" style="fill:#A100F5"></path><path d="M291.88,226.25a.63.63,0,0,0-.31-.52l-10.85-8a1.81,1.81,0,0,0-1.7-.18l-17.34,7.8a.69.69,0,0,0-.17.1.4.4,0,0,0-.13.13.42.42,0,0,0-.1.28c0,.23,0,1.68,0,1.86a.58.58,0,0,0,.3.51l10.85,8a1.11,1.11,0,0,0,.3.17l.18.06a1.1,1.1,0,0,0,.26.06h.08a1.61,1.61,0,0,0,.88-.11l17.34-7.8a.61.61,0,0,0,.41-.52C291.87,227.94,291.87,226.44,291.88,226.25Zm-27.25.16a4.72,4.72,0,0,1,4.62.5,2.17,2.17,0,0,1,.5.46,2,2,0,0,1-.82.41,5.46,5.46,0,0,1-4.46-.75,2.48,2.48,0,0,1-.36-.28A1.61,1.61,0,0,1,264.63,226.41Zm8.57-2.8a1.58,1.58,0,0,1,.77.46,1.69,1.69,0,0,1-1.23.32,4.58,4.58,0,0,1-2-.54A4.07,4.07,0,0,1,273.2,223.61Zm3.38-2.33a3,3,0,0,1,2.23-1h-.26a6,6,0,0,1,2.83.43,2.43,2.43,0,0,1,1.05,1.12,3,3,0,0,1-1.78,1.23,6.54,6.54,0,0,1-2.18.46,2.57,2.57,0,0,1-2-.86,1.76,1.76,0,0,1-.31-.59A2.34,2.34,0,0,1,276.58,221.28Zm-3.4,9.77a8.35,8.35,0,0,0,1.92.5,2.29,2.29,0,0,1,.86.23,2.1,2.1,0,0,1-1.09.43,4.4,4.4,0,0,1-3.74-1.18,1.22,1.22,0,0,1-.24-.27C271.44,230.38,272.66,230.86,273.18,231.05Zm5.76-4.69a6.48,6.48,0,0,1,3.32,1.22,3.36,3.36,0,0,1,.87,1,1.66,1.66,0,0,1-.95.7,5.23,5.23,0,0,1-1.47.17c-2.1,0-4.34,0-6.1-1.17a2.26,2.26,0,0,1-.64-.59,2.48,2.48,0,0,1,.77-.58A7.77,7.77,0,0,1,278.94,226.36Zm7.47-.21a3.72,3.72,0,0,1,1.28.45,2.25,2.25,0,0,1-1.77.31,3.45,3.45,0,0,1-1.28-.58A3.48,3.48,0,0,1,286.41,226.15Z" style="fill:#fff;opacity:0.30000000000000004"></path><path d="M273.25,234.66v1.88a1.69,1.69,0,0,1-.82-.3l-10.85-8a.58.58,0,0,1-.3-.51c0-.18,0-1.63,0-1.86a.61.61,0,0,0,.3.49l10.85,8A1.69,1.69,0,0,0,273.25,234.66Z" style="opacity:0.15"></path><path d="M291.57,225.73l-10.85-8a1.81,1.81,0,0,0-1.7-.18l-17.34,7.8a.69.69,0,0,0-.17.1.4.4,0,0,0-.13.13.42.42,0,0,0-.1.28.61.61,0,0,0,.3.49l10.85,8a1.43,1.43,0,0,0,.39.2,1.05,1.05,0,0,0,.21.06l.22,0a1.71,1.71,0,0,0,.88-.12l17.34-7.8a.61.61,0,0,0,.41-.49A.63.63,0,0,0,291.57,225.73Zm-5.65,1.18a3.45,3.45,0,0,1-1.28-.58,3.48,3.48,0,0,1,1.77-.18,3.72,3.72,0,0,1,1.28.45A2.25,2.25,0,0,1,285.92,226.91Zm-3.74,2.38a5.23,5.23,0,0,1-1.47.17c-2.1,0-4.34,0-6.1-1.17a2.26,2.26,0,0,1-.64-.59,2.48,2.48,0,0,1,.77-.58,7.77,7.77,0,0,1,4.2-.76,6.48,6.48,0,0,1,3.32,1.22,3.36,3.36,0,0,1,.87,1A1.66,1.66,0,0,1,282.18,229.29Zm-9-5.68a1.58,1.58,0,0,1,.77.46,1.69,1.69,0,0,1-1.23.32,4.58,4.58,0,0,1-2-.54A4.07,4.07,0,0,1,273.2,223.61Zm0,7.44a8.35,8.35,0,0,0,1.92.5,2.29,2.29,0,0,1,.86.23,2.1,2.1,0,0,1-1.09.43,4.4,4.4,0,0,1-3.74-1.18,1.22,1.22,0,0,1-.24-.27C271.44,230.38,272.66,230.86,273.18,231.05Zm3.4-9.77a3,3,0,0,1,2.23-1h-.26a6,6,0,0,1,2.83.43,2.43,2.43,0,0,1,1.05,1.12,3,3,0,0,1-1.78,1.23,6.54,6.54,0,0,1-2.18.46,2.57,2.57,0,0,1-2-.86,1.76,1.76,0,0,1-.31-.59A2.34,2.34,0,0,1,276.58,221.28Zm-7.65,6.5a5.46,5.46,0,0,1-4.46-.75,2.48,2.48,0,0,1-.36-.28,1.61,1.61,0,0,1,.52-.34,4.72,4.72,0,0,1,4.62.5,2.17,2.17,0,0,1,.5.46A2,2,0,0,1,268.93,227.78Z" style="fill:#A100F5"></path><path d="M280.72,217.71a1.81,1.81,0,0,0-1.7-.18l-13.09,5.89a2.13,2.13,0,0,1,1.19.78,1,1,0,0,1,.15,1.15.74.74,0,0,1-.13.12,1.44,1.44,0,0,1-.66.28,5.4,5.4,0,0,1-3.27-.38,2,2,0,0,1-.64-.42v0l-.88.4a.69.69,0,0,0-.17.1.4.4,0,0,0-.13.13.42.42,0,0,0-.1.28.61.61,0,0,0,.3.49l.2.15,9.58,5.53a1,1,0,0,0,.32.14l.17,0,.19,0a.75.75,0,0,0,.21,0,2.29,2.29,0,0,0,.87-.12,4.74,4.74,0,0,1-2-1.1,1.22,1.22,0,0,1-.24-.27c.55-.38,1.77.1,2.29.29a8,8,0,0,0,1.27.37l.71-.4h0l2.58-1.48.27-.16c-.37,0-.73-.09-1.09-.16l-.45.2a9,9,0,0,1-5.08.15,1.94,1.94,0,0,1-.45-.14l-.14-.08a.65.65,0,0,1-.31-.52c0-.55.82-.91,1.25-1.07a8.5,8.5,0,0,1,2.1-.52c.34,0,.68-.11,1-.16a7.79,7.79,0,0,1,4.07-.71,6.62,6.62,0,0,1,2.77.87l6.68-3.85Zm-11.48,10.1a2,2,0,0,1-.51,0,5.44,5.44,0,0,1-4.26-.79,2.48,2.48,0,0,1-.36-.28,1.61,1.61,0,0,1,.52-.34,4.62,4.62,0,0,1,2.44-.35,4.7,4.7,0,0,1,1.63.51,1.67,1.67,0,0,1,.71,0,.66.66,0,0,1,.49.69A.76.76,0,0,1,269.24,227.81Zm7.86-4.49a.58.58,0,0,1-.08.22,2.8,2.8,0,0,1-1.91,1.59,5,5,0,0,1-3.42-.21,2.3,2.3,0,0,1-1-.72,1.24,1.24,0,0,1-.21-.68,1.8,1.8,0,0,1,.88-1.23c1.21-.88,3.32-2.09,4.8-1.12a2.55,2.55,0,0,1,.3.26l.1-.15a3,3,0,0,1,2.23-1h.6a2,2,0,0,1,1.74-.34,1,1,0,0,1,.75.7.67.67,0,0,1,0,.42,2.31,2.31,0,0,1,.56.76,3,3,0,0,1-1.78,1.23,6.54,6.54,0,0,1-2.18.46,3,3,0,0,1-1.35-.35A.88.88,0,0,1,277.1,223.32ZM281,226a.43.43,0,0,1-.12.11,1.21,1.21,0,0,1-.6.18,3,3,0,0,1-1.26-.17,1.62,1.62,0,0,1-.61-.32l-.06-.06a.88.88,0,0,1-.25-.55C278,223.22,282.09,224.57,281,226Zm3.68-1.83a4.36,4.36,0,0,1-2.15.17l-.11,0c-.24-.06-.5-.19-.55-.44a.68.68,0,0,1,.29-.61,3.24,3.24,0,0,1,1.58-.81,4.19,4.19,0,0,1,1.31-.22.77.77,0,0,1,.65.83.89.89,0,0,1-.24.64A1.88,1.88,0,0,1,284.64,224.19Z" style="opacity:0.2"></path><path d="M270,227a.9.9,0,0,1-.25.38,2.17,2.17,0,0,0-.5-.46,4.72,4.72,0,0,0-4.62-.5,1.61,1.61,0,0,0-.52.34,1.06,1.06,0,0,1-.35-.76c0-.46.45-.79.87-1a4.52,4.52,0,0,1,2.44-.35,4.81,4.81,0,0,1,2.18.84C269.74,225.85,270.19,226.43,270,227Z" style="opacity:0.15"></path><path d="M274.14,223.86a.87.87,0,0,1-.17.21,1.58,1.58,0,0,0-.77-.46,4.07,4.07,0,0,0-2.44.24l-.19-.1c-.26-.15-.53-.39-.5-.67s.31-.47.56-.58a4.05,4.05,0,0,1,2.57-.28C273.88,222.36,274.57,223.14,274.14,223.86Z" style="opacity:0.15"></path><path d="M282.49,221.69a.75.75,0,0,1-.06.13,2.43,2.43,0,0,0-1.05-1.12,6,6,0,0,0-2.83-.43h.26a3,3,0,0,0-2.23,1,2.34,2.34,0,0,0-.41.78,2.3,2.3,0,0,1,.41-2.17,2.92,2.92,0,0,1,2.17-1h-.2a6,6,0,0,1,2.83.43A2,2,0,0,1,282.49,221.69Z" style="opacity:0.15"></path><path d="M283.26,228.34a.85.85,0,0,1-.13.25,3.36,3.36,0,0,0-.87-1,6.48,6.48,0,0,0-3.32-1.22,7.77,7.77,0,0,0-4.2.76,2.48,2.48,0,0,0-.77.58,1.12,1.12,0,0,1-.27-.82,1.68,1.68,0,0,1,1-1.15,7.78,7.78,0,0,1,4.2-.78,6.49,6.49,0,0,1,3.32,1.23A2.11,2.11,0,0,1,283.26,228.34Z" style="opacity:0.15"></path><path d="M288.17,225.85a.85.85,0,0,1-.38.69.33.33,0,0,1-.1.06,3.72,3.72,0,0,0-1.28-.45,3.48,3.48,0,0,0-1.77.18,4.6,4.6,0,0,1-.45-.32.7.7,0,0,1-.29-.48c0-.21.21-.37.41-.47a3.61,3.61,0,0,1,2.1-.31C287,224.85,288.12,225.18,288.17,225.85Z" style="opacity:0.15"></path><path d="M276,231.73l0,.05h0a2.29,2.29,0,0,0-.86-.23,8.35,8.35,0,0,1-1.92-.5c-.52-.19-1.74-.67-2.29-.29a1.2,1.2,0,0,1-.28-.69c-.08-1.46,1.87-.68,2.57-.42a8.35,8.35,0,0,0,1.92.5,1.51,1.51,0,0,1,1.08.43A.92.92,0,0,1,276,231.73Z" style="opacity:0.15"></path><path d="M289,219.78a.62.62,0,0,0-.24-.46.94.94,0,0,0-.19-.14l-12.23-7.06a2.31,2.31,0,0,0-2.08,0l-15.1,8.72a.71.71,0,0,0-.43.59v1.89a.74.74,0,0,0,.43.6L271.36,231l.23.11.23.07h0a2.32,2.32,0,0,0,1.59-.19l15.1-8.72a.73.73,0,0,0,.43-.61Zm-7.81-1.48a1.13,1.13,0,0,1,.46.24,1.27,1.27,0,0,1-.42.25,2.33,2.33,0,0,1-1.38,0,1.87,1.87,0,0,1-.4-.13A2,2,0,0,1,281.15,218.3Zm2.55,2.51a4.49,4.49,0,0,1,1.31-.21.67.67,0,0,1,.41.2,1.69,1.69,0,0,1-.78.47,4.25,4.25,0,0,1-2.15.17l-.11,0A3.39,3.39,0,0,1,283.7,220.81Zm-2.86,2.4a1.12,1.12,0,0,1-.6.19,3.16,3.16,0,0,1-1.26-.17,1.64,1.64,0,0,1-.61-.33l-.06-.05C278.88,222.3,280.23,222.6,280.84,223.21Zm-3.41,2.72a2.71,2.71,0,0,1-.95.57,8.87,8.87,0,0,1-5.08.14,2.54,2.54,0,0,1-.45-.13,3.89,3.89,0,0,1,.8-.42,9.49,9.49,0,0,1,2.1-.52,15.63,15.63,0,0,1,2.37-.27,2.51,2.51,0,0,1,.91.19,1.27,1.27,0,0,1,.41.31A.69.69,0,0,1,277.43,225.93Zm-14.37-4.3a3.54,3.54,0,0,1,2.36,0,2.68,2.68,0,0,1,1.7.91s0,0,0,0a1.44,1.44,0,0,1-.66.28,5.48,5.48,0,0,1-3.27-.38,2,2,0,0,1-.64-.43A1.35,1.35,0,0,1,263.06,221.63Zm8.32-1c1.21-.88,3.32-2.09,4.8-1.11a2.14,2.14,0,0,1,.84,1.1,2.8,2.8,0,0,1-1.91,1.59,5,5,0,0,1-3.42-.21,2.32,2.32,0,0,1-1-.73A2.71,2.71,0,0,1,271.38,220.64Zm5.15-5.93a1.75,1.75,0,0,1,.75.39.71.71,0,0,1-.2,0,2.38,2.38,0,0,1-1.48-.43A3.09,3.09,0,0,1,276.53,214.71Z" style="fill:#A100F5"></path><path d="M289,219.78a.62.62,0,0,0-.24-.46.94.94,0,0,0-.19-.14l-12.23-7.06a2.31,2.31,0,0,0-2.08,0l-15.1,8.72a.71.71,0,0,0-.43.59v1.89a.74.74,0,0,0,.43.6L271.36,231l.23.11.23.07h0a2.32,2.32,0,0,0,1.59-.19l15.1-8.72a.73.73,0,0,0,.43-.61Zm-7.81-1.48a1.13,1.13,0,0,1,.46.24,1.27,1.27,0,0,1-.42.25,2.33,2.33,0,0,1-1.38,0,1.87,1.87,0,0,1-.4-.13A2,2,0,0,1,281.15,218.3Zm2.55,2.51a4.49,4.49,0,0,1,1.31-.21.67.67,0,0,1,.41.2,1.69,1.69,0,0,1-.78.47,4.25,4.25,0,0,1-2.15.17l-.11,0A3.39,3.39,0,0,1,283.7,220.81Zm-2.86,2.4a1.12,1.12,0,0,1-.6.19,3.16,3.16,0,0,1-1.26-.17,1.64,1.64,0,0,1-.61-.33l-.06-.05C278.88,222.3,280.23,222.6,280.84,223.21Zm-3.41,2.72a2.71,2.71,0,0,1-.95.57,8.87,8.87,0,0,1-5.08.14,2.54,2.54,0,0,1-.45-.13,3.89,3.89,0,0,1,.8-.42,9.49,9.49,0,0,1,2.1-.52,15.63,15.63,0,0,1,2.37-.27,2.51,2.51,0,0,1,.91.19,1.27,1.27,0,0,1,.41.31A.69.69,0,0,1,277.43,225.93Zm-14.37-4.3a3.54,3.54,0,0,1,2.36,0,2.68,2.68,0,0,1,1.7.91s0,0,0,0a1.44,1.44,0,0,1-.66.28,5.48,5.48,0,0,1-3.27-.38,2,2,0,0,1-.64-.43A1.35,1.35,0,0,1,263.06,221.63Zm8.32-1c1.21-.88,3.32-2.09,4.8-1.11a2.14,2.14,0,0,1,.84,1.1,2.8,2.8,0,0,1-1.91,1.59,5,5,0,0,1-3.42-.21,2.32,2.32,0,0,1-1-.73A2.71,2.71,0,0,1,271.38,220.64Zm5.15-5.93a1.75,1.75,0,0,1,.75.39.71.71,0,0,1-.2,0,2.38,2.38,0,0,1-1.48-.43A3.09,3.09,0,0,1,276.53,214.71Z" style="fill:#fff;opacity:0.30000000000000004"></path><path d="M288.72,219.32a.94.94,0,0,0-.19-.14l-12.23-7.06a2.31,2.31,0,0,0-2.08,0l-15.1,8.72a.63.63,0,0,0,0,1.19l12.24,7.07a1.34,1.34,0,0,0,.32.14l.17,0,.19,0,.21,0a2.28,2.28,0,0,0,1.18-.24l1.73-1h0l2.58-1.49,10.78-6.23a.71.71,0,0,0,.43-.6A.62.62,0,0,0,288.72,219.32Zm-8.48,4.08a3.16,3.16,0,0,1-1.26-.17,1.64,1.64,0,0,1-.61-.33l-.06-.05c.57-.55,1.92-.25,2.53.36A1.12,1.12,0,0,1,280.24,223.4Zm-.43-4.65a1.87,1.87,0,0,1-.4-.13,2,2,0,0,1,1.74-.32,1.13,1.13,0,0,1,.46.24,1.27,1.27,0,0,1-.42.25A2.33,2.33,0,0,1,279.81,218.75Zm3.89,2.06a4.49,4.49,0,0,1,1.31-.21.67.67,0,0,1,.41.2,1.69,1.69,0,0,1-.78.47,4.25,4.25,0,0,1-2.15.17l-.11,0A3.39,3.39,0,0,1,283.7,220.81Zm-12.32-.17c1.21-.88,3.32-2.09,4.8-1.11a2.14,2.14,0,0,1,.84,1.1,2.8,2.8,0,0,1-1.91,1.59,5,5,0,0,1-3.42-.21,2.32,2.32,0,0,1-1-.73A2.71,2.71,0,0,1,271.38,220.64Zm5.15-5.93a1.75,1.75,0,0,1,.75.39.71.71,0,0,1-.2,0,2.38,2.38,0,0,1-1.48-.43A3.09,3.09,0,0,1,276.53,214.71Zm-13.47,6.92a3.54,3.54,0,0,1,2.36,0,2.68,2.68,0,0,1,1.7.91s0,0,0,0a1.44,1.44,0,0,1-.66.28,5.48,5.48,0,0,1-3.27-.38,2,2,0,0,1-.64-.43A1.35,1.35,0,0,1,263.06,221.63Zm14.37,4.3a2.71,2.71,0,0,1-.95.57,8.87,8.87,0,0,1-5.08.14,2.54,2.54,0,0,1-.45-.13,3.89,3.89,0,0,1,.8-.42,9.49,9.49,0,0,1,2.1-.52,15.63,15.63,0,0,1,2.37-.27,2.51,2.51,0,0,1,.91.19,1.27,1.27,0,0,1,.41.31A.69.69,0,0,1,277.43,225.93Z" style="fill:#A100F5"></path><path d="M272.25,229.34v1.87a1.84,1.84,0,0,1-.89-.23l-12.24-7.06a.74.74,0,0,1-.43-.6v-1.89a.71.71,0,0,0,.43.6l12.24,7.07A2.09,2.09,0,0,0,272.25,229.34Z" style="opacity:0.15"></path><path d="M267.27,222.43a.53.53,0,0,1-.13.13s0,0,0,0a2.68,2.68,0,0,0-1.7-.91,3.54,3.54,0,0,0-2.36,0,1.35,1.35,0,0,0-.49.4,1,1,0,0,1-.22-.36,1.17,1.17,0,0,1,.71-1.3,3.48,3.48,0,0,1,2.36,0,2.59,2.59,0,0,1,1.7.91A1,1,0,0,1,267.27,222.43Z" style="opacity:0.15"></path><path d="M277.54,225.8a1.27,1.27,0,0,0-.41-.31,2.51,2.51,0,0,0-.91-.19,15.63,15.63,0,0,0-2.37.27,9.49,9.49,0,0,0-2.1.52,3.89,3.89,0,0,0-.8.42l-.14-.08a.65.65,0,0,1-.31-.53c0-.54.82-.91,1.25-1.07a9,9,0,0,1,2.1-.52,14.46,14.46,0,0,1,2.37-.27,2.32,2.32,0,0,1,.91.19,1.12,1.12,0,0,1,.62.68A1.14,1.14,0,0,1,277.54,225.8Z" style="opacity:0.15"></path><path d="M277.1,220.41a.65.65,0,0,1-.08.22,2.14,2.14,0,0,0-.84-1.1c-1.48-1-3.59.23-4.8,1.11a2.71,2.71,0,0,0-.67.64,1.24,1.24,0,0,1-.21-.68,1.8,1.8,0,0,1,.88-1.22c1.21-.88,3.32-2.09,4.8-1.12A2.12,2.12,0,0,1,277.1,220.41Z" style="opacity:0.15"></path><path d="M277.67,214.88a.61.61,0,0,1-.39.22,1.75,1.75,0,0,0-.75-.39,3.09,3.09,0,0,0-.93,0,1.6,1.6,0,0,1-.35-.28c-.17-.18-.33-.45-.21-.67.2-.39,1.12-.37,1.49-.3a1.77,1.77,0,0,1,1.18,1A.55.55,0,0,1,277.67,214.88Z" style="opacity:0.15"></path><path d="M285.66,220.17a.87.87,0,0,1-.24.63.67.67,0,0,0-.41-.2,4.49,4.49,0,0,0-1.31.21,3.39,3.39,0,0,0-1.32.61c-.24-.07-.5-.19-.55-.44a.67.67,0,0,1,.29-.61,3.34,3.34,0,0,1,1.58-.82,4.18,4.18,0,0,1,1.31-.21A.77.77,0,0,1,285.66,220.17Z" style="opacity:0.15"></path><path d="M281,223.1a.32.32,0,0,1-.12.11c-.61-.61-2-.91-2.53-.36a.93.93,0,0,1-.25-.55C278,220.3,282.09,221.66,281,223.1Z" style="opacity:0.15"></path><path d="M281.61,218.54a1.13,1.13,0,0,0-.46-.24,2,2,0,0,0-1.74.32.69.69,0,0,1-.39-.38.78.78,0,0,1,.25-.77,2,2,0,0,1,1.88-.44,1,1,0,0,1,.75.69A.86.86,0,0,1,281.61,218.54Z" style="opacity:0.15"></path><path d="M273.43,216.23c.32-1.07-1.65-.83-2.11-.52a.55.55,0,0,0-.28.37c0,.2.18.36.36.45a2.16,2.16,0,0,0,1.32.19A.84.84,0,0,0,273.43,216.23Z" style="opacity:0.15"></path><path d="M267.5,218c-.55.75,1,.88,1.45.8a.77.77,0,0,0,.67-.52.67.67,0,0,0-.5-.69A1.61,1.61,0,0,0,267.5,218Z" style="opacity:0.15"></path><path d="M267.79,224.1c-.55.75,1,.88,1.45.8s.61-.23.66-.52a.66.66,0,0,0-.49-.69A1.58,1.58,0,0,0,267.79,224.1Z" style="opacity:0.15"></path></g></g></g></g></g></svg>