<?xml version="1.0" encoding="UTF-8" standalone="no"?>
<svg
   xmlns:dc="http://purl.org/dc/elements/1.1/"
   xmlns:cc="http://creativecommons.org/ns#"
   xmlns:rdf="http://www.w3.org/1999/02/22-rdf-syntax-ns#"
   xmlns:svg="http://www.w3.org/2000/svg"
   xmlns="http://www.w3.org/2000/svg"
   xmlns:sodipodi="http://sodipodi.sourceforge.net/DTD/sodipodi-0.dtd"
   xmlns:inkscape="http://www.inkscape.org/namespaces/inkscape"
   viewBox="0 0 123.55 123.54"
   version="1.1"
   id="svg10"
   sodipodi:docname="parking.svg"
   inkscape:version="0.92.4 (5da689c313, 2019-01-14)">
  <metadata
     id="metadata16">
    <rdf:RDF>
      <cc:Work
         rdf:about="">
        <dc:format>image/svg+xml</dc:format>
        <dc:type
           rdf:resource="http://purl.org/dc/dcmitype/StillImage" />
        <dc:title></dc:title>
      </cc:Work>
    </rdf:RDF>
  </metadata>
  <defs
     id="defs14">
    <clipPath
       clipPathUnits="userSpaceOnUse"
       id="clipPath879">
      <rect
         style="opacity:1;fill:#000000;fill-opacity:1;stroke:none;stroke-width:0.56775969;stroke-linecap:square;stroke-linejoin:miter;stroke-miterlimit:4;stroke-dasharray:none;stroke-opacity:1;paint-order:markers fill stroke"
         id="rect881"
         width="201.30873"
         height="192.65874"
         x="-173.05374"
         y="-205.03381"
         transform="scale(1,-1)" />
    </clipPath>
    <clipPath
       clipPathUnits="userSpaceOnUse"
       id="clipPath879-5">
      <rect
         style="opacity:1;fill:#000000;fill-opacity:1;stroke:none;stroke-width:0.56775969;stroke-linecap:square;stroke-linejoin:miter;stroke-miterlimit:4;stroke-dasharray:none;stroke-opacity:1;paint-order:markers fill stroke"
         id="rect881-9"
         width="201.30873"
         height="192.65874"
         x="-173.05374"
         y="-205.03381"
         transform="scale(1,-1)" />
    </clipPath>
  </defs>
  <sodipodi:namedview
     pagecolor="#ffffff"
     bordercolor="#666666"
     borderopacity="1"
     objecttolerance="10"
     gridtolerance="10"
     guidetolerance="10"
     inkscape:pageopacity="0"
     inkscape:pageshadow="2"
     inkscape:window-width="1366"
     inkscape:window-height="705"
     id="namedview12"
     showgrid="false"
     inkscape:zoom="1.9103124"
     inkscape:cx="63.131334"
     inkscape:cy="64.810092"
     inkscape:window-x="-8"
     inkscape:window-y="-8"
     inkscape:window-maximized="1"
     inkscape:current-layer="svg10" />
  <path
     inkscape:connector-curvature="0"
     id="path42-5"
     d="m 15.83589,5.9790408 c -3.637122,1.63048 -5.454992,4.7856402 -5.454992,9.4652142 v 95.275985 c 0.86139,5.25864 3.63625,7.88767 8.325972,7.88767 h 86.12627 c 0.66941,0 1.53066,-0.10483 2.58402,-0.3155 3.63595,-1.41981 5.45498,-4.15328 5.45498,-8.20318 V 25.85456 l 0.28696,-1.577536 c -0.19198,0 -0.28696,-0.315672 -0.28696,-0.946521 v -3.153642 c 0,-0.473137 0.095,-0.893644 0.28696,-1.262028 -0.19198,-0.367607 -0.28696,-0.788891 -0.28696,-1.262029 v -4.10159 c -0.90967,-5.0475732 -3.11198,-7.5721732 -6.60422,-7.5721732 z m 2.58402,6.6256512 h 86.70018 c 1.14838,0 1.72316,0.631343 1.72316,1.893042 v 96.222506 c -0.287,0.63125 -0.57529,0.94652 -0.86229,0.94652 H 17.55904 c -0.57438,-0.31543 -0.86086,-0.63109 -0.86086,-0.94652 V 14.497734 c 0,-1.261699 0.57335,-1.893042 1.72173,-1.893042 z"
     style="fill:#000000;fill-opacity:1;fill-rule:nonzero;stroke:none;stroke-width:0.38941306" />
  <path
     style="fill-rule:evenodd;stroke-width:0.22687659"
     d="M 59.044922 49.179688 C 57.347885 49.179688 55.754479 49.245003 54.263672 49.375 C 52.753809 49.46779 51.214915 49.383357 50.080078 49.875 C 48.926865 50.357567 48.599778 50.507272 47.427734 52.251953 C 46.189895 53.996407 44.55878 56.82582 43.001953 60.138672 C 41.455109 63.414316 39.315986 68.954417 38.322266 71.785156 C 37.318791 74.578461 37.281238 74.207296 37.046875 76.787109 C 36.793681 79.385527 36.315176 84.313525 36.802734 87.060547 C 37.261932 89.714776 38.406566 91.51513 39.832031 92.814453 C 41.247741 94.104473 43.047275 94.772077 45.269531 94.818359 C 45.147698 97.556306 45.147698 99.671934 45.269531 101.20312 C 45.335321 102.71617 45.223713 103.38362 45.908203 103.95898 C 46.601992 104.50644 48.372828 104.53575 49.451172 104.58203 C 50.510686 104.64693 51.655071 104.6174 52.236328 104.20898 C 52.780152 103.74524 52.621617 103.39262 52.734375 101.82422 C 52.828305 100.20977 52.883611 97.870589 52.865234 94.697266 L 83.855469 94.697266 C 83.930789 97.870589 84.023863 100.20977 84.173828 101.82422 C 84.295888 103.39262 84.126785 103.74524 84.679688 104.20898 C 85.25187 104.61736 86.358357 104.64692 87.455078 104.58203 C 88.505744 104.53573 90.277625 104.50645 91 103.95898 C 91.656354 103.38362 91.543019 102.71617 91.636719 101.20312 C 91.739947 99.671934 91.739947 97.556533 91.636719 94.818359 C 93.849673 94.772079 95.650707 94.104473 97.076172 92.814453 C 98.491882 91.514903 99.625265 89.714776 100.11328 87.060547 C 100.54411 84.313525 100.12353 79.385527 99.861328 76.787109 C 99.589076 74.207296 99.589195 74.578461 98.595703 71.785156 C 97.582926 68.954417 95.44403 63.414316 93.916016 60.138672 C 92.350341 56.825593 90.689722 53.996407 89.480469 52.251953 C 88.279839 50.507272 87.962962 50.357567 86.828125 49.875 C 85.656081 49.383359 84.154632 49.467565 82.654297 49.375 C 81.163491 49.244999 79.607095 49.179687 77.947266 49.179688 L 59.044922 49.179688 z M 57.117188 51.976562 C 57.792259 51.958044 58.501435 51.967555 59.242188 52 L 77.666016 52 C 79.138218 51.935114 80.48826 51.963415 81.716797 52.121094 C 82.935578 52.241792 84.069678 52.325367 85.007812 52.873047 C 85.917587 53.411425 86.283683 53.912829 87.15625 55.378906 C 88.028137 56.835907 89.218983 59.618661 90.072266 61.511719 C 90.86951 63.36757 91.741962 65.252021 91.966797 66.523438 C 92.173255 67.766948 92.284636 68.435334 91.328125 69.029297 C 90.325103 69.576751 88.102338 69.73559 86.142578 69.902344 C 84.173289 70.069554 84.454867 69.9945 79.607422 70.03125 C 74.684654 70.04985 61.960026 70.04985 57.09375 70.03125 C 52.264682 69.9945 52.687496 70.069552 50.765625 69.902344 C 48.824469 69.735363 46.555194 69.576751 45.580078 69.029297 C 44.604736 68.435334 44.718298 67.766948 44.943359 66.523438 C 45.177496 65.252021 45.992647 63.36757 46.845703 61.511719 C 47.670853 59.618434 48.880066 56.835907 49.751953 55.378906 C 50.577103 53.912829 50.981768 53.411425 51.900391 52.873047 C 52.809939 52.325594 53.944265 52.241792 55.191406 52.121094 C 55.801024 52.042253 56.442116 51.995081 57.117188 51.976562 z M 45.984375 76.289062 C 49.265691 76.289062 51.927734 78.925862 51.927734 82.173828 C 51.927734 85.421112 49.265918 88.056641 45.984375 88.056641 C 42.702832 88.056641 40.039062 85.421339 40.039062 82.173828 C 40.03929 78.925862 42.703059 76.289063 45.984375 76.289062 z M 90.927734 76.289062 C 94.209504 76.289062 96.873047 78.925862 96.873047 82.173828 C 96.873047 85.421112 94.209504 88.056641 90.927734 88.056641 C 87.646645 88.056641 84.982422 85.421339 84.982422 82.173828 C 84.982195 78.925862 87.646645 76.289063 90.927734 76.289062 z M 60.013672 76.917969 L 68.458984 76.917969 L 76.902344 76.917969 C 78.665402 76.917969 80.09375 77.869337 80.09375 79.042969 C 80.09375 80.216602 78.665402 81.167969 76.902344 81.167969 L 60.013672 81.167969 C 58.250387 81.167969 56.822266 80.216602 56.822266 79.042969 C 56.822266 77.869337 58.250614 76.917969 60.013672 76.917969 z M 60.013672 82.671875 L 68.458984 82.671875 L 76.902344 82.671875 C 78.665402 82.671875 80.09375 83.624653 80.09375 84.800781 C 80.09375 85.976909 78.665402 86.931641 76.902344 86.931641 L 60.013672 86.931641 C 58.250387 86.931641 56.822266 85.976909 56.822266 84.800781 C 56.822266 83.624653 58.250614 82.671875 60.013672 82.671875 z "
     id="path4" />
  <path
     style="fill-rule:evenodd;stroke-width:0.22687659"
     d="M 33.955078 22.060547 C 25.98876 22.060547 19.523438 28.529145 19.523438 36.5 C 19.523437 44.470855 25.988534 50.939453 33.955078 50.939453 C 41.921623 50.939453 48.386719 44.471082 48.386719 36.5 C 48.386719 28.528918 41.921623 22.060547 33.955078 22.060547 z M 33.929688 24.994141 C 40.160399 24.994141 45.216797 30.050539 45.216797 36.28125 C 45.216797 42.511962 40.1604 47.570313 33.929688 47.570312 C 27.698975 47.570312 22.642578 42.511962 22.642578 36.28125 C 22.642578 30.050539 27.698975 24.994141 33.929688 24.994141 z M 28.335938 30.804688 C 28.335938 35.215168 28.335711 39.625031 28.335938 44.027344 L 32.427734 44.027344 L 32.427734 39.134766 L 34.666016 39.134766 C 36.323803 39.134766 37.540666 38.759228 38.357422 38.007812 C 39.149675 37.256397 39.558594 36.210928 39.558594 34.863281 C 39.558594 33.580974 39.190287 32.559832 38.447266 31.857422 C 37.712186 31.155012 36.602745 30.804688 35.132812 30.804688 L 28.335938 30.804688 z M 32.427734 33.507812 L 33.587891 33.507812 C 34.37175 33.507812 34.886365 33.646131 35.164062 33.923828 C 35.441986 34.226027 35.589844 34.569428 35.589844 34.994141 C 35.589844 35.418854 35.425957 35.779298 35.107422 36.048828 C 34.797055 36.326525 34.216969 36.457031 33.449219 36.457031 L 32.427734 36.457031 C 32.427734 35.468756 32.427507 34.487919 32.427734 33.507812 z "
     id="path16" />
</svg>
