<svg xmlns="http://www.w3.org/2000/svg" viewBox="0 0 500 500"><g id="freepik--Floor--inject-33"><ellipse id="freepik--floor--inject-33" cx="250" cy="348.45" rx="228.78" ry="132.09" style="fill:#f5f5f5"></ellipse></g><g id="freepik--Shadow--inject-33"><ellipse id="freepik--shadow--inject-33" cx="366.66" cy="391.03" rx="40.03" ry="22.72" style="fill:#e0e0e0"></ellipse></g><g id="freepik--Clouds--inject-33"><path d="M405.38,80.35l7.44,4.29a8.18,8.18,0,0,1-.06-1V81.51c0-3.84,2.69-5.39,6-3.48a11.71,11.71,0,0,1,3.58,3.45c.55-4.82,4.33-6.62,8.92-4,5,2.86,9,9.84,9,15.57v3.23a8.59,8.59,0,0,1-.76,3.73l6.17,3.57a7.38,7.38,0,0,1,3.34,5.77c0,2.13-1.5,3-3.34,1.93l-40.3-23.27a7.36,7.36,0,0,1-3.33-5.77C402.05,80.15,403.54,79.29,405.38,80.35Z" style="fill:#ebebeb"></path><path d="M366.87,98.17l5.62,3.24a6.27,6.27,0,0,1-.05-.74V99c0-2.89,2-4.07,4.54-2.62a8.87,8.87,0,0,1,2.7,2.6c.41-3.64,3.26-5,6.73-3a15,15,0,0,1,6.79,11.76v2.43a6.55,6.55,0,0,1-.57,2.82l4.66,2.69a5.55,5.55,0,0,1,2.51,4.36c0,1.6-1.12,2.25-2.51,1.45L366.87,104a5.55,5.55,0,0,1-2.51-4.36C364.36,98,365.48,97.37,366.87,98.17Z" style="fill:#ebebeb"></path></g><g id="freepik--Plants--inject-33"><g id="freepik--plants--inject-33"><path d="M88.73,392.49V374s-1-10.41-8.24-18.31-13.84-5.22-16-1.47,2.72,10.87,5.81,14.87c3.72,4.82,18.4,27.21,18.4,37.24Z" style="fill:#A100F5"></path><g style="opacity:0.2"><path d="M88.73,392.49V374s-1-10.41-8.24-18.31-13.84-5.22-16-1.47,2.72,10.87,5.81,14.87c3.72,4.82,18.4,27.21,18.4,37.24Z"></path></g><path d="M88.73,389.57a.45.45,0,0,1-.45-.37c-3.33-20.13-18.65-33.95-18.8-34.09a.45.45,0,0,1,0-.64.46.46,0,0,1,.64,0c.16.14,15.71,14.15,19.09,34.61a.45.45,0,0,1-.37.52Z" style="fill:#fff"></path><path d="M88.81,394.91s.6-1.83-2.09-2.3-3.73-2.7-4-6.46-1.39-6.46-4.77-7-6.1,1.15-8.29-.54-7.88-5.79-12.61-3.92-3.17,5.89-.72,8.51,3.18,3.5,1.29,7.76-.51,8.24,3.84,9.23,6.78.49,6.85,5.26.73,6.9,3.11,8.77,9.88,1,13,1.75a6.81,6.81,0,0,1,4.38,3.51Z" style="fill:#A100F5"></path><path d="M88.81,414.57a.39.39,0,0,1-.36-.25c-7.92-23.51-25.84-33-26-33.1a.38.38,0,0,1,.35-.67c.18.1,18.36,9.72,26.38,33.53a.36.36,0,0,1-.23.47A.25.25,0,0,1,88.81,414.57Z" style="fill:#fff"></path><path d="M77.45,394.08h-.09c-5.17-1.18-13.44-.54-13.52-.54a.38.38,0,0,1-.41-.34.37.37,0,0,1,.35-.4c.34,0,8.47-.66,13.75.55a.37.37,0,0,1-.08.74Z" style="fill:#fff"></path><path d="M81.66,405.38c-2.36,0-4.87-.16-5-.17a.36.36,0,0,1-.34-.39.35.35,0,0,1,.39-.35,58.18,58.18,0,0,0,8.09,0,.39.39,0,0,1,.43.31.38.38,0,0,1-.31.43A22.69,22.69,0,0,1,81.66,405.38Z" style="fill:#fff"></path><path d="M75,391.32h0a.38.38,0,0,1-.35-.4,28.44,28.44,0,0,1,1.66-7.87.38.38,0,0,1,.7.27A28.25,28.25,0,0,0,75.39,391,.37.37,0,0,1,75,391.32Z" style="fill:#fff"></path></g></g><g id="freepik--window-shopping--inject-33"><polygon points="88.17 149.9 298.85 28.27 298.85 299.45 88.17 421.09 88.17 149.9" style="fill:#37474f"></polygon><polygon points="240.13 98.06 240.13 265.55 101.98 345.31 101.98 177.81 240.13 98.06" style="fill:#A100F5"></polygon><polygon points="240.13 98.06 240.13 265.55 101.98 345.31 101.98 177.81 240.13 98.06" style="fill:#fff;opacity:0.7000000000000001"></polygon><polygon points="285.03 72.14 285.03 291.48 240.13 265.55 240.13 98.06 285.03 72.14" style="fill:#A100F5"></polygon><polygon points="285.03 72.14 285.03 291.48 240.13 265.55 240.13 98.06 285.03 72.14" style="fill:#fff;opacity:0.6000000000000001"></polygon><polygon points="285.03 291.48 101.98 397.16 101.98 345.31 240.13 265.55 285.03 291.48" style="fill:#A100F5"></polygon><polygon points="285.03 291.48 101.98 397.16 101.98 345.31 240.13 265.55 285.03 291.48" style="fill:#fff;opacity:0.8"></polygon><path d="M154,338.61c-6.68-3.85-17.59-3.8-24.37.12-3.42,2-5.12,4.55-5.12,7.12,0,.44,0,2.15,0,2.57,0,2.54,1.61,5.06,4.94,7,6.68,3.85,17.59,3.8,24.37-.11,3.44-2,5.14-4.58,5.12-7.16,0-.43,0-2.18,0-2.63C158.9,343,157.27,340.51,154,338.61Z" style="fill:#A100F5"></path><path d="M154,338.61c-6.68-3.85-17.59-3.8-24.37.12-3.42,2-5.12,4.55-5.12,7.12,0,.44,0,2.15,0,2.57,0,2.54,1.61,5.06,4.94,7,6.68,3.85,17.59,3.8,24.37-.11,3.44-2,5.14-4.58,5.12-7.16,0-.43,0-2.18,0-2.63C158.9,343,157.27,340.51,154,338.61Z" style="opacity:0.5"></path><path d="M129.42,352.79c6.68,3.85,17.59,3.8,24.37-.11s6.87-10.22.19-14.07-17.59-3.8-24.37.12S122.74,348.94,129.42,352.79Z" style="fill:#A100F5"></path><path d="M129.42,352.79c6.68,3.85,17.59,3.8,24.37-.11s6.87-10.22.19-14.07-17.59-3.8-24.37.12S122.74,348.94,129.42,352.79Z" style="opacity:0.30000000000000004"></path><path d="M144.56,345.31a1.33,1.33,0,0,1-.8,1.19,4.41,4.41,0,0,1-4,0,1.55,1.55,0,0,1-.92-1.18h0V258l5.65.07Z" style="fill:#A100F5"></path><path d="M144.56,345.31a1.33,1.33,0,0,1-.8,1.19,4.41,4.41,0,0,1-4,0,1.55,1.55,0,0,1-.92-1.18h0V258l5.65.07Z" style="opacity:0.5"></path><path d="M141.38,347a3.65,3.65,0,0,1-1.62-.46,1.55,1.55,0,0,1-.92-1.18h0V258l2.54,0Z" style="opacity:0.30000000000000004"></path><path d="M143.68,259.24a4.44,4.44,0,0,1-4,0c-1.11-.64-1.13-1.67,0-2.31a4.44,4.44,0,0,1,4,0C144.76,257.57,144.78,258.61,143.68,259.24Z" style="fill:#263238"></path><path d="M163.84,256.32a131.1,131.1,0,0,0-7.65-32.5l1-10.63c5.27-4.27,3-10.14,1.5-12.42s-3.15-4.72-4.84-7.14a10.38,10.38,0,0,0-1.3-6c-3.29-5.53-9.26-2.64-11.16-1.55L131,192c-.52.3-3,1.68-3.45,2a52.17,52.17,0,0,0-6.49,5h0c-1,.83-1.55,2.44-1.55,4.61,0,4.19,2.21,8.86,4.93,10.43.14.08.27.14.4.2h0c2.61,1.42,3.76,2.9,5.22,6.22,1.19,2.71,2.93,6.09,2.71,7.08s-5.23,7.41-7.87,13.71a67.37,67.37,0,0,0-4.12,14.44c-.59,3.57,1.48,7.27,6.23,10,8.42,4.86,22.09,4.86,30.52,0C162,263.14,164.12,259.7,163.84,256.32Z" style="fill:#A100F5"></path><path d="M163.84,256.32a131.1,131.1,0,0,0-7.65-32.5l1-10.63c5.27-4.27,3-10.14,1.5-12.42s-3.15-4.72-4.84-7.14a10.38,10.38,0,0,0-1.3-6c-3.29-5.53-9.26-2.64-11.16-1.55L131,192c-.52.3-3,1.68-3.45,2a52.17,52.17,0,0,0-6.49,5h0c-1,.83-1.55,2.44-1.55,4.61,0,4.19,2.21,8.86,4.93,10.43.14.08.27.14.4.2h0c2.61,1.42,3.76,2.9,5.22,6.22,1.19,2.71,2.93,6.09,2.71,7.08s-5.23,7.41-7.87,13.71a67.37,67.37,0,0,0-4.12,14.44c-.59,3.57,1.48,7.27,6.23,10,8.42,4.86,22.09,4.86,30.52,0C162,263.14,164.12,259.7,163.84,256.32Z" style="opacity:0.05"></path><path d="M124.46,214.07c-2.72-1.57-4.93-6.24-4.93-10.43,0-2.36.7-4.06,1.8-4.82a2.79,2.79,0,0,1,3.13.08c2.72,1.57,4.93,6.23,4.93,10.43a6.59,6.59,0,0,1-1.28,4.36A2.73,2.73,0,0,1,124.46,214.07Z" style="opacity:0.1"></path><path d="M152.88,188.31l-2.25,1.45s2,2.31,3.18,3.87v-1.36A10.12,10.12,0,0,0,152.88,188.31Z" style="opacity:0.05"></path><path d="M132.81,186.06v6a6.78,6.78,0,0,0,1.66,4.42c2.24,2.14,8.14,4.81,10.41,3.51,1.13-.65,0-4.82-.29-7.66s-.22-6.27-.22-6.27Z" style="fill:#A100F5"></path><path d="M132.81,186.06v6a6.78,6.78,0,0,0,1.66,4.42c2.24,2.14,8.14,4.81,10.41,3.51,1.13-.65,0-4.82-.29-7.66s-.22-6.27-.22-6.27Z" style="opacity:0.1"></path><path d="M134.47,196.48a15.48,15.48,0,0,0,4.11,2.59v-13h-5.77v6A6.78,6.78,0,0,0,134.47,196.48Z" style="opacity:0.05"></path><path d="M142.68,188.42a9,9,0,0,1-8.19,0c-1.28-.73-1.84-1.73-1.68-2.68a3.09,3.09,0,0,1,1.68-2.05,9,9,0,0,1,8.19,0,3,3,0,0,1,1.69,2.21A2.8,2.8,0,0,1,142.68,188.42Z" style="fill:#A100F5"></path><path d="M143.32,172.26a1.84,1.84,0,0,0-1.88.07c-1.54.89-2.75,3.35-2.85,5.71h0a2.93,2.93,0,0,0-1.21-2.33,1.9,1.9,0,0,0-1.94.11,6.6,6.6,0,0,0-2.62,5,2.2,2.2,0,0,0,.86,2,1.11,1.11,0,0,0,.59.16,1.55,1.55,0,0,0,.77-.23,3.94,3.94,0,0,0,1.55-3.21,1.52,1.52,0,0,0-.61-1.39.94.94,0,0,0-1,0,2.65,2.65,0,0,0-1.05,2.16,1.11,1.11,0,0,0,.44,1,.73.73,0,0,0,.75,0,.32.32,0,0,0,.11-.44.31.31,0,0,0-.43-.11l-.11,0s-.12-.17-.12-.44a2.11,2.11,0,0,1,.72-1.61.35.35,0,0,1,.35,0c.13.08.29.34.29.84a3.38,3.38,0,0,1-1.23,2.66.71.71,0,0,1-.72.07,1.69,1.69,0,0,1-.54-1.46,6,6,0,0,1,2.3-4.49,1.3,1.3,0,0,1,1.3-.1,2.79,2.79,0,0,1,.93,2.45h0v7a.31.31,0,0,0,.19.29,1,1,0,0,0,.89,0,.31.31,0,0,0,.18-.26h0V178.4h0c0-2.2,1.14-4.71,2.55-5.52a1.21,1.21,0,0,1,1.24-.07,1.9,1.9,0,0,1,.74,1.72,4.29,4.29,0,0,1-1.58,3.4.51.51,0,0,1-.51,0c-.19-.11-.4-.46-.4-1.11a2.66,2.66,0,0,1,.95-2.08.23.23,0,0,1,.22,0c.1.05.19.26.19.61a1.57,1.57,0,0,1-.55,1.23.32.32,0,0,0-.11.44.31.31,0,0,0,.43.11,2.14,2.14,0,0,0,.87-1.78,1.31,1.31,0,0,0-.51-1.17.84.84,0,0,0-.85,0,3.22,3.22,0,0,0-1.28,2.63,1.85,1.85,0,0,0,.72,1.67,1,1,0,0,0,.5.13,1.27,1.27,0,0,0,.65-.19,4.84,4.84,0,0,0,1.9-3.95A2.51,2.51,0,0,0,143.32,172.26Z" style="fill:#A100F5"></path><path d="M143.32,172.26a1.84,1.84,0,0,0-1.88.07c-1.54.89-2.75,3.35-2.85,5.71h0a2.93,2.93,0,0,0-1.21-2.33,1.9,1.9,0,0,0-1.94.11,6.6,6.6,0,0,0-2.62,5,2.2,2.2,0,0,0,.86,2,1.11,1.11,0,0,0,.59.16,1.55,1.55,0,0,0,.77-.23,3.94,3.94,0,0,0,1.55-3.21,1.52,1.52,0,0,0-.61-1.39.94.94,0,0,0-1,0,2.65,2.65,0,0,0-1.05,2.16,1.11,1.11,0,0,0,.44,1,.73.73,0,0,0,.75,0,.32.32,0,0,0,.11-.44.31.31,0,0,0-.43-.11l-.11,0s-.12-.17-.12-.44a2.11,2.11,0,0,1,.72-1.61.35.35,0,0,1,.35,0c.13.08.29.34.29.84a3.38,3.38,0,0,1-1.23,2.66.71.71,0,0,1-.72.07,1.69,1.69,0,0,1-.54-1.46,6,6,0,0,1,2.3-4.49,1.3,1.3,0,0,1,1.3-.1,2.79,2.79,0,0,1,.93,2.45h0v7a.31.31,0,0,0,.19.29,1,1,0,0,0,.89,0,.31.31,0,0,0,.18-.26h0V178.4h0c0-2.2,1.14-4.71,2.55-5.52a1.21,1.21,0,0,1,1.24-.07,1.9,1.9,0,0,1,.74,1.72,4.29,4.29,0,0,1-1.58,3.4.51.51,0,0,1-.51,0c-.19-.11-.4-.46-.4-1.11a2.66,2.66,0,0,1,.95-2.08.23.23,0,0,1,.22,0c.1.05.19.26.19.61a1.57,1.57,0,0,1-.55,1.23.32.32,0,0,0-.11.44.31.31,0,0,0,.43.11,2.14,2.14,0,0,0,.87-1.78,1.31,1.31,0,0,0-.51-1.17.84.84,0,0,0-.85,0,3.22,3.22,0,0,0-1.28,2.63,1.85,1.85,0,0,0,.72,1.67,1,1,0,0,0,.5.13,1.27,1.27,0,0,0,.65-.19,4.84,4.84,0,0,0,1.9-3.95A2.51,2.51,0,0,0,143.32,172.26Z" style="opacity:0.6000000000000001"></path><path d="M156.19,223.82l1-10.63c5.27-4.27,3-10.14,1.5-12.42,0,0-4.92-2-7.4,5.71,0,0-6.14-3.45-11.53.75s-6.33,10.19-10.33,11.79l0,0c.22.44.44.9.67,1.42,1.19,2.71,2.93,6.09,2.71,7.08,0,0-14.75,10.46-23.37,38.37,0,0,4.38,16.87,33.87,16.87s35.62-16.87,35.62-16.87C171.14,237,156.19,223.82,156.19,223.82Z" style="fill:#A100F5"></path><path d="M156.19,223.82l1-10.63c5.27-4.27,3-10.14,1.5-12.42,0,0-4.92-2-7.4,5.71,0,0-6.14-3.45-11.53.75s-6.33,10.19-10.33,11.79l0,0c.22.44.44.9.67,1.42,1.19,2.71,2.93,6.09,2.71,7.08,0,0-14.75,10.46-23.37,38.37,0,0,4.38,16.87,33.87,16.87s35.62-16.87,35.62-16.87C171.14,237,156.19,223.82,156.19,223.82Z" style="opacity:0.30000000000000004"></path><path d="M156.19,223.82l.39-4.33s-1.42,4.58-11.22,5.36a52.56,52.56,0,0,1-13.73-.95c.72,1.64,1.29,3.08,1.16,3.67,0,0,2.1,1.65,11.38,1.5C153.81,228.91,156.19,223.82,156.19,223.82Z" style="opacity:0.2"></path><path d="M135.69,228.52a45.83,45.83,0,0,0-9.57,20.65s4.24-13.79,10.94-20.43Z" style="opacity:0.1"></path><path d="M152.94,226.94c6.69,6.64,10.64,20.48,10.64,20.48-1.91-11.91-9.55-21.21-9.55-21.21Z" style="opacity:0.1"></path><path d="M144.17,229.07A104.69,104.69,0,0,0,144,256s-.6-17.42,1.34-26.89Z" style="opacity:0.1"></path><path d="M205.86,306.78c-6.68-3.85-17.59-3.8-24.37.11-3.42,2-5.12,4.56-5.12,7.13,0,.43,0,4,0,4.43,0,2.53,1.61,5.06,4.94,7,6.68,3.85,17.59,3.8,24.37-.12,3.44-2,5.14-4.58,5.13-7.16,0-.42,0-4,0-4.48C210.78,311.16,209.15,308.67,205.86,306.78Z" style="fill:#A100F5"></path><path d="M205.86,306.78c-6.68-3.85-17.59-3.8-24.37.11-3.42,2-5.12,4.56-5.12,7.13,0,.43,0,4,0,4.43,0,2.53,1.61,5.06,4.94,7,6.68,3.85,17.59,3.8,24.37-.12,3.44-2,5.14-4.58,5.13-7.16,0-.42,0-4,0-4.48C210.78,311.16,209.15,308.67,205.86,306.78Z" style="opacity:0.5"></path><path d="M181.3,321c6.68,3.85,17.59,3.8,24.37-.12s6.87-10.21.19-14.06-17.59-3.8-24.37.11S174.62,317.11,181.3,321Z" style="fill:#A100F5"></path><path d="M181.3,321c6.68,3.85,17.59,3.8,24.37-.12s6.87-10.21.19-14.06-17.59-3.8-24.37.11S174.62,317.11,181.3,321Z" style="opacity:0.30000000000000004"></path><path d="M204.14,282c-5.74-3.31-15.12-3.26-20.95.1-2.94,1.7-4.41,3.92-4.41,6.12v24.86c0,2.18,1.38,4.35,4.25,6,5.74,3.31,15.11,3.27,20.94-.1,3-1.7,4.42-3.93,4.41-6.15V288C208.37,285.8,207,283.66,204.14,282Z" style="fill:#A100F5"></path><path d="M204.14,282c-5.74-3.31-15.12-3.26-20.95.1-2.94,1.7-4.41,3.92-4.41,6.12v24.86c0,2.18,1.38,4.35,4.25,6,5.74,3.31,15.11,3.27,20.94-.1,3-1.7,4.42-3.93,4.41-6.15V288C208.37,285.8,207,283.66,204.14,282Z" style="opacity:0.5"></path><path d="M183,294.22c5.74,3.31,15.11,3.27,20.94-.1s5.91-8.78.17-12.09-15.12-3.26-20.95.1S177.29,290.91,183,294.22Z" style="fill:#A100F5"></path><path d="M183,294.22c5.74,3.31,15.11,3.27,20.94-.1s5.91-8.78.17-12.09-15.12-3.26-20.95.1S177.29,290.91,183,294.22Z" style="opacity:0.05"></path><g style="opacity:0.15"><path d="M195.6,305V318.7a1.15,1.15,0,0,1-1.06,1.14c-.64,0-1.28,0-1.92,0a1.12,1.12,0,0,1-1.06-1.12V305.06a1,1,0,0,1,1.06-1c.64,0,1.28,0,1.92,0A1,1,0,0,1,195.6,305Z"></path><path d="M201.47,303.92v13.5a1.55,1.55,0,0,1-1,1.4c-.65.21-1.32.38-2,.53a.85.85,0,0,1-1.05-.87V304.82a1.29,1.29,0,0,1,1.05-1.23c.67-.12,1.33-.27,2-.44A.77.77,0,0,1,201.47,303.92Z"></path><path d="M204.27,301.8a1.75,1.75,0,0,0-1,1.48v13.34c0,.58.44.87.94.57a11.36,11.36,0,0,0,2.45-2,3.25,3.25,0,0,0,.67-1.9V301c0-.59-.36-.78-.82-.48-.28.19-.56.36-.86.54S204.75,301.57,204.27,301.8Z"></path><path d="M189.74,304.89v13.66a.86.86,0,0,1-1.05.88c-.68-.13-1.34-.29-2-.48a1.53,1.53,0,0,1-1-1.39V304.08a.78.78,0,0,1,1-.79c.64.15,1.3.28,2,.39A1.27,1.27,0,0,1,189.74,304.89Z"></path><path d="M180.55,300.72c-.41-.27-.73,0-.73.55v12.28a3.2,3.2,0,0,0,.68,1.88,11.29,11.29,0,0,0,2.42,1.95c.51.3,1,0,1-.58V303.47a1.76,1.76,0,0,0-1-1.47q-.82-.37-1.59-.81C181,301,180.79,300.88,180.55,300.72Z"></path></g><path d="M181.49,284.29a13.86,13.86,0,0,0-2.65,2,6,6,0,0,0-.06.73V301a13.12,13.12,0,0,0,2.52,1.88c6.68,3.85,17.59,3.8,24.37-.12a13.15,13.15,0,0,0,2.71-2v-14a5.51,5.51,0,0,0-.06-.7,12.77,12.77,0,0,0-2.46-1.82C199.18,280.33,188.27,280.38,181.49,284.29Z" style="opacity:0.15"></path><path d="M205.86,280.83c-6.68-3.85-17.59-3.8-24.37.12-3.42,2-5.12,4.55-5.12,7.12,0,.44,0,4,0,4.43,0,2.54,1.61,5.06,4.94,7,6.68,3.86,17.59,3.8,24.37-.11,3.44-2,5.14-4.58,5.13-7.16,0-.43,0-4,0-4.49C210.78,285.22,209.15,282.73,205.86,280.83Z" style="fill:#A100F5"></path><path d="M205.86,280.83c-6.68-3.85-17.59-3.8-24.37.12-3.42,2-5.12,4.55-5.12,7.12,0,.44,0,4,0,4.43,0,2.54,1.61,5.06,4.94,7,6.68,3.86,17.59,3.8,24.37-.11,3.44-2,5.14-4.58,5.13-7.16,0-.43,0-4,0-4.49C210.78,285.22,209.15,282.73,205.86,280.83Z" style="opacity:0.5"></path><path d="M181.3,295c6.68,3.86,17.59,3.8,24.37-.11s6.87-10.21.19-14.07-17.59-3.8-24.37.12S174.62,291.16,181.3,295Z" style="fill:#A100F5"></path><path d="M181.3,295c6.68,3.86,17.59,3.8,24.37-.11s6.87-10.21.19-14.07-17.59-3.8-24.37.12S174.62,291.16,181.3,295Z" style="opacity:0.30000000000000004"></path><path d="M180,279.46c-.4,1.28.1,2.86.41,4.07a26.59,26.59,0,0,1,.26,4.45h0a.44.44,0,0,0,.26.37,1.25,1.25,0,0,0,1.2,0,.42.42,0,0,0,.26-.35h0c0-.11-.19-3.82,1.15-3.41C183.32,283.06,181.68,281.26,180,279.46Z" style="fill:#A100F5"></path><path d="M180,279.46c-.4,1.28.1,2.86.41,4.07a26.59,26.59,0,0,1,.26,4.45h0a.44.44,0,0,0,.26.37,1.25,1.25,0,0,0,1.2,0,.42.42,0,0,0,.26-.35h0c0-.11-.19-3.82,1.15-3.41C183.32,283.06,181.68,281.26,180,279.46Z" style="opacity:0.5"></path><path d="M195.63,289.71c.7,1-1.73,2.26-4.55.84-2.49-1.25-3.27-3.62-4.75-6.61-1.07-2.16-2.73-6.43-3.4-7.49-1.07-1.7-1.17-2.69,0-3.05.27.37,6.92,9.34,5.57,6.07s-2.3-5.25-3.09-5.93a2.85,2.85,0,0,0-1.91-.67h-.13a2.35,2.35,0,0,0-2.44,1.55,35.78,35.78,0,0,1-1.18,3.93,3.59,3.59,0,0,0,1.13,4,8.28,8.28,0,0,1,3.55,4c.67,2.12,1.48,6.16,3.32,7.37,2.85,1.87,7.55,2.87,10.23,1C199.76,293.46,198.46,292,195.63,289.71Z" style="fill:#A100F5"></path><path d="M195.63,289.71c.7,1-1.73,2.26-4.55.84-2.49-1.25-3.27-3.62-4.75-6.61-1.07-2.16-2.73-6.43-3.4-7.49-1.07-1.7-1.17-2.69,0-3.05.27.37,6.92,9.34,5.57,6.07s-2.3-5.25-3.09-5.93a2.85,2.85,0,0,0-1.91-.67h-.13a2.35,2.35,0,0,0-2.44,1.55,35.78,35.78,0,0,1-1.18,3.93,3.59,3.59,0,0,0,1.13,4,8.28,8.28,0,0,1,3.55,4c.67,2.12,1.48,6.16,3.32,7.37,2.85,1.87,7.55,2.87,10.23,1C199.76,293.46,198.46,292,195.63,289.71Z" style="opacity:0.1"></path><path d="M191.08,290.55c-2.48-1.25-3.28-3.62-4.75-6.61-1.07-2.16-2.73-6.43-3.4-7.49-1.1-1.76-1.19-2.77.16-3.09,1-.16,2.26-.32,3.7,2.55s3.21,6.29,4.39,8.39a24.7,24.7,0,0,0,4.45,5.41C196.33,290.67,193.9,292,191.08,290.55Z" style="fill:#A100F5"></path><path d="M191.08,290.55c-2.48-1.25-3.28-3.62-4.75-6.61-1.07-2.16-2.73-6.43-3.4-7.49-1.1-1.76-1.19-2.77.16-3.09,1-.16,2.26-.32,3.7,2.55s3.21,6.29,4.39,8.39a24.7,24.7,0,0,0,4.45,5.41C196.33,290.67,193.9,292,191.08,290.55Z" style="opacity:0.4"></path><path d="M191.47,289.77c-2.05-1.86-4.09-7-4.88-8.56a4.18,4.18,0,0,0-2.46-2.24c.72,1.66,1.57,3.68,2.2,5,1.47,3,2.27,5.36,4.75,6.61a5.53,5.53,0,0,0,2.33.62A12.34,12.34,0,0,1,191.47,289.77Z" style="opacity:0.30000000000000004"></path><path d="M190.33,273.86c-.41,1.29.09,2.86.41,4.08a26.18,26.18,0,0,1,.25,4.44h0a.43.43,0,0,0,.26.37,1.28,1.28,0,0,0,1.2.06.48.48,0,0,0,.27-.36h0c0-.1-.19-3.81,1.14-3.41C193.68,277.46,192,275.67,190.33,273.86Z" style="fill:#A100F5"></path><path d="M190.33,273.86c-.41,1.29.09,2.86.41,4.08a26.18,26.18,0,0,1,.25,4.44h0a.43.43,0,0,0,.26.37,1.28,1.28,0,0,0,1.2.06.48.48,0,0,0,.27-.36h0c0-.1-.19-3.81,1.14-3.41C193.68,277.46,192,275.67,190.33,273.86Z" style="opacity:0.5"></path><path d="M206,284.11c.69,1-1.74,2.27-4.56.84-2.48-1.25-3.27-3.62-4.75-6.6-1.07-2.17-2.73-6.43-3.4-7.5-1.06-1.7-1.16-2.68,0-3,.27.36,6.91,9.34,5.56,6.06s-2.3-5.25-3.08-5.93a2.94,2.94,0,0,0-1.92-.67h-.12a2.37,2.37,0,0,0-2.44,1.55,34.66,34.66,0,0,1-1.19,3.93,3.6,3.6,0,0,0,1.14,4,8.33,8.33,0,0,1,3.54,4c.67,2.13,1.48,6.17,3.32,7.37,2.85,1.88,7.56,2.87,10.23,1C210.12,287.87,208.82,286.37,206,284.11Z" style="fill:#A100F5"></path><path d="M206,284.11c.69,1-1.74,2.27-4.56.84-2.48-1.25-3.27-3.62-4.75-6.6-1.07-2.17-2.73-6.43-3.4-7.5-1.06-1.7-1.16-2.68,0-3,.27.36,6.91,9.34,5.56,6.06s-2.3-5.25-3.08-5.93a2.94,2.94,0,0,0-1.92-.67h-.12a2.37,2.37,0,0,0-2.44,1.55,34.66,34.66,0,0,1-1.19,3.93,3.6,3.6,0,0,0,1.14,4,8.33,8.33,0,0,1,3.54,4c.67,2.13,1.48,6.17,3.32,7.37,2.85,1.88,7.56,2.87,10.23,1C210.12,287.87,208.82,286.37,206,284.11Z" style="opacity:0.1"></path><path d="M201.44,285c-2.48-1.24-3.27-3.62-4.75-6.6-1.07-2.17-2.73-6.43-3.4-7.49-1.1-1.76-1.19-2.77.16-3.1,1-.16,2.26-.31,3.7,2.55s3.21,6.29,4.4,8.4a24.33,24.33,0,0,0,4.44,5.4C206.69,285.07,204.26,286.38,201.44,285Z" style="fill:#A100F5"></path><path d="M201.44,285c-2.48-1.24-3.27-3.62-4.75-6.6-1.07-2.17-2.73-6.43-3.4-7.49-1.1-1.76-1.19-2.77.16-3.1,1-.16,2.26-.31,3.7,2.55s3.21,6.29,4.4,8.4a24.33,24.33,0,0,0,4.44,5.4C206.69,285.07,204.26,286.38,201.44,285Z" style="opacity:0.4"></path><path d="M201.83,284.17c-2-1.86-4.09-7-4.88-8.56a4.16,4.16,0,0,0-2.46-2.23c.72,1.65,1.57,3.68,2.2,5,1.48,3,2.27,5.36,4.75,6.6a5.59,5.59,0,0,0,2.33.63A14.2,14.2,0,0,1,201.83,284.17Z" style="opacity:0.30000000000000004"></path><path d="M220.52,271.56c1.65,3.18,12.87,14.93,29.11-12.82,12.91-22.07,12.66-31.55,12.66-40.24,0-3.17-1-18.82-20-15.08C220,207.81,212.22,255.64,220.52,271.56Z" style="fill:#A100F5"></path><path d="M220.52,271.56c1.65,3.18,12.87,14.93,29.11-12.82,12.91-22.07,12.66-31.55,12.66-40.24,0-3.17-1-18.82-20-15.08C220,207.81,212.22,255.64,220.52,271.56Z" style="opacity:0.4"></path><path d="M250.91,282.7c-6.67-3.86-17.59-3.8-24.37.11-3.42,2-5.12,4.56-5.12,7.12v2.57c0,2.54,1.61,5.06,4.93,7,6.68,3.86,17.59,3.8,24.38-.11,3.43-2,5.14-4.58,5.12-7.16v-2.63C255.84,287.08,254.2,284.59,250.91,282.7Z" style="fill:#A100F5"></path><path d="M250.91,282.7c-6.67-3.86-17.59-3.8-24.37.11-3.42,2-5.12,4.56-5.12,7.12v2.57c0,2.54,1.61,5.06,4.93,7,6.68,3.86,17.59,3.8,24.38-.11,3.43-2,5.14-4.58,5.12-7.16v-2.63C255.84,287.08,254.2,284.59,250.91,282.7Z" style="opacity:0.5"></path><path d="M226.35,296.87c6.68,3.86,17.59,3.8,24.38-.11s6.86-10.21.18-14.06-17.59-3.8-24.37.11S219.68,293,226.35,296.87Z" style="fill:#A100F5"></path><path d="M226.35,296.87c6.68,3.86,17.59,3.8,24.38-.11s6.86-10.21.18-14.06-17.59-3.8-24.37.11S219.68,293,226.35,296.87Z" style="opacity:0.30000000000000004"></path><path d="M241.5,289.4a1.35,1.35,0,0,1-.81,1.19,4.44,4.44,0,0,1-4,0,1.55,1.55,0,0,1-.92-1.18h0V202.11l5.65.08Z" style="fill:#A100F5"></path><path d="M241.5,289.4a1.35,1.35,0,0,1-.81,1.19,4.44,4.44,0,0,1-4,0,1.55,1.55,0,0,1-.92-1.18h0V202.11l5.65.08Z" style="opacity:0.5"></path><path d="M238.31,291a3.69,3.69,0,0,1-1.62-.47,1.55,1.55,0,0,1-.92-1.18h0V202.11l2.54,0Z" style="opacity:0.30000000000000004"></path><path d="M240.61,203.32a4.41,4.41,0,0,1-4,0c-1.11-.64-1.12-1.67,0-2.3a4.38,4.38,0,0,1,4,0C241.7,201.66,241.71,202.69,240.61,203.32Z" style="fill:#263238"></path><path d="M221.39,158.15c-2.72-1.57-4.92-6.24-4.92-10.43,0-2.36.7-4.06,1.79-4.82a2.81,2.81,0,0,1,3.14.08c2.72,1.57,4.92,6.24,4.92,10.43a6.53,6.53,0,0,1-1.28,4.36A2.71,2.71,0,0,1,221.39,158.15Z" style="opacity:0.1"></path><path d="M249.82,132.39l-2.26,1.45s2,2.31,3.19,3.87v-1.35A10.13,10.13,0,0,0,249.82,132.39Z" style="opacity:0.05"></path><path d="M254.48,207.26c-8.45,4.86-22.1,4.86-30.53,0-4.74-2.74-6.82-3.88-6.22-7.45a67.92,67.92,0,0,1,3.72-13.48.07.07,0,0,1,0-.06l.37-.9c2.65-6.3,7.66-12.72,7.88-13.72a4.84,4.84,0,0,0-.52-2.11c-.1-.27-.21-.55-.34-.84-.55-1.3-1.27-2.79-1.86-4.12a15.64,15.64,0,0,0-2.18-3.83,9.69,9.69,0,0,0-3-2.4l-.4-.2c-2.72-1.57-4.92-6.24-4.92-10.43,0-2.17.6-3.78,1.54-4.61h0a48.92,48.92,0,0,1,5.06-4c.44-.32.91-.63,1.42-1h0l.25-.16.23-.14.58-.34.21-.12c.85-.48,1.87-1,2.18-1.23l10.34-6a14.32,14.32,0,0,1,1.54-.78l.07,0c2.61-1.13,6.93-2.07,9.54,2.34a10.3,10.3,0,0,1,1.3,6c1.7,2.42,3.29,4.86,4.84,7.14s3.78,8.15-1.49,12.42l-1,10.63c.5,1.28,1,2.61,1.43,4l0,.06c.15.45.31.89.44,1.34a139.48,139.48,0,0,1,4,15.53c0,.09,0,.17.05.25.74,3.87,1.3,7.69,1.7,11.35C261,203.78,259,204.68,254.48,207.26Z" style="fill:#A100F5"></path><path d="M260.78,200.4a130.69,130.69,0,0,0-7.66-32.5l1-10.63c5.27-4.27,3-10.14,1.5-12.42s-3.15-4.72-4.84-7.14a10.38,10.38,0,0,0-1.3-6c-3.3-5.53-9.26-2.64-11.16-1.55l-10.34,6c-.53.3-3,1.68-3.45,2a53.18,53.18,0,0,0-6.49,5h0c-1,.83-1.55,2.44-1.55,4.61,0,4.19,2.21,8.86,4.93,10.43a3.73,3.73,0,0,0,.4.2h0c2.6,1.43,3.76,2.9,5.22,6.23,1.19,2.7,2.92,6.08,2.71,7.07s-5.23,7.41-7.87,13.71a67.37,67.37,0,0,0-4.12,14.44c-.59,3.57,1.48,4.72,6.22,7.46,8.43,4.86,22.09,4.86,30.53,0C259,204.67,261.06,203.78,260.78,200.4Z" style="opacity:0.05"></path><path d="M221.4,158.15c-2.72-1.57-4.93-6.24-4.93-10.43,0-2.36.7-4.06,1.79-4.82a2.81,2.81,0,0,1,3.14.08c2.72,1.57,4.93,6.24,4.93,10.43a6.59,6.59,0,0,1-1.28,4.36A2.74,2.74,0,0,1,221.4,158.15Z" style="opacity:0.1"></path><path d="M249.82,132.39l-2.25,1.45s2,2.31,3.18,3.87v-1.35A10.13,10.13,0,0,0,249.82,132.39Z" style="opacity:0.05"></path><path d="M260.78,200.4c-.32-3.26-.89-7.18-1.72-11.35,0-.08,0-.16-.05-.25a125.51,125.51,0,0,0-4-15.53c-.13-.45-.29-.89-.44-1.34l0-.06c-.45-1.35-.93-2.66-1.44-4l1-10.63c5.27-4.27,3.05-10.14,1.5-12.42-2.84-4.24-15.28-15.14-15.67-15.51h0l-.06,0-2.66,1.73s5.85,4,10.39,13.33a18.78,18.78,0,0,1,1.15,11.39,58.62,58.62,0,0,0-11.82-10.88c-4.42-3.11-9.41-7.32-11.33-7.46l-.58.34-.23.14-.25.16h0c-.51.35-1,.66-1.42,1,4.62.77,8.37,12.66,9.05,18.06s-1.51,13.3-3.25,11.55l0,0c.13.3.25.58.36.86a6.64,6.64,0,0,1,.52,1.89v.09s0,.09,0,.13c-.22,1-5.24,7.42-7.88,13.72-.13.3-.25.59-.36.9a.07.07,0,0,0,0,.06,91,91,0,0,0-5,15.83c-1.65,7.3-2.85,25.55-1.2,47.37.67,8.9,2,16.55,5.25,22-3.73-10.4-2.1-26.44,2.56-37.1s12.1-20.82,23.74-24c11-3,15.31,6.75,15.46,8C262.22,217.11,261.56,208.67,260.78,200.4Z" style="fill:#A100F5"></path><path d="M260.78,200.4c-.32-3.26-.89-7.18-1.72-11.35,0-.08,0-.16-.05-.25a125.51,125.51,0,0,0-4-15.53c-.13-.45-.29-.89-.44-1.34l0-.06c-.45-1.35-.93-2.66-1.44-4l1-10.63c5.27-4.27,3.05-10.14,1.5-12.42-2.84-4.24-15.28-15.14-15.67-15.51h0l-.06,0-2.66,1.73s5.85,4,10.39,13.33a18.78,18.78,0,0,1,1.15,11.39,58.62,58.62,0,0,0-11.82-10.88c-4.42-3.11-9.41-7.32-11.33-7.46l-.58.34-.23.14-.25.16h0c-.51.35-1,.66-1.42,1,4.62.77,8.37,12.66,9.05,18.06s-1.51,13.3-3.25,11.55l0,0c.13.3.25.58.36.86a6.64,6.64,0,0,1,.52,1.89v.09s0,.09,0,.13c-.22,1-5.24,7.42-7.88,13.72-.13.3-.25.59-.36.9a.07.07,0,0,0,0,.06,91,91,0,0,0-5,15.83c-1.65,7.3-2.85,25.55-1.2,47.37.67,8.9,2,16.55,5.25,22-3.73-10.4-2.1-26.44,2.56-37.1s12.1-20.82,23.74-24c11-3,15.31,6.75,15.46,8C262.22,217.11,261.56,208.67,260.78,200.4Z" style="opacity:0.30000000000000004"></path><path d="M229.72,171.65s.81,2.53,6.29,3.09c7.18.75,14.55-1.61,17.1-6.84l.61,1.62c.1.84-4,7-14,7.23-9.06.25-10.58-2.81-10.94-3.49A9.09,9.09,0,0,0,229.72,171.65Z" style="opacity:0.30000000000000004"></path><path d="M229.75,129.2v6a6.77,6.77,0,0,0,1.66,4.43c2.23,2.14,8.14,4.81,10.4,3.5,1.13-.65,0-4.82-.29-7.66s-.22-6.27-.22-6.27Z" style="fill:#A100F5"></path><path d="M229.75,129.2v6a6.77,6.77,0,0,0,1.66,4.43c2.23,2.14,8.14,4.81,10.4,3.5,1.13-.65,0-4.82-.29-7.66s-.22-6.27-.22-6.27Z" style="opacity:0.1"></path><path d="M231.41,139.63a15.5,15.5,0,0,0,4.1,2.59v-13h-5.76v6A6.77,6.77,0,0,0,231.41,139.63Z" style="opacity:0.05"></path><path d="M239.61,131.57a9.09,9.09,0,0,1-8.19,0c-1.27-.74-1.83-1.73-1.67-2.69a3.05,3.05,0,0,1,1.67-2,9,9,0,0,1,8.19,0,3,3,0,0,1,1.69,2.2A2.8,2.8,0,0,1,239.61,131.57Z" style="fill:#A100F5"></path><path d="M240.25,115.4a1.85,1.85,0,0,0-1.87.07c-1.55.89-2.76,3.36-2.86,5.71h0a2.93,2.93,0,0,0-1.2-2.33,1.91,1.91,0,0,0-1.95.1,6.64,6.64,0,0,0-2.61,5,2.24,2.24,0,0,0,.85,2,1.2,1.2,0,0,0,.59.15,1.53,1.53,0,0,0,.77-.22,4,4,0,0,0,1.55-3.22,1.54,1.54,0,0,0-.6-1.39,1,1,0,0,0-1,0,2.65,2.65,0,0,0-1,2.16,1.07,1.07,0,0,0,.45,1,.71.71,0,0,0,.74,0,.31.31,0,0,0,.12-.43.32.32,0,0,0-.44-.12s-.09,0-.11,0-.12-.17-.12-.44a2,2,0,0,1,.73-1.6.36.36,0,0,1,.35,0c.13.08.28.34.28.84a3.39,3.39,0,0,1-1.23,2.67.68.68,0,0,1-.72.06,1.69,1.69,0,0,1-.54-1.46,6,6,0,0,1,2.3-4.48,1.29,1.29,0,0,1,1.31-.11,2.8,2.8,0,0,1,.93,2.45h0v7a.27.27,0,0,0,.18.29.94.94,0,0,0,.89,0c.12-.07.19-.16.18-.25h0v-7.33h0c0-2.21,1.14-4.71,2.55-5.52a1.17,1.17,0,0,1,1.23-.07,1.88,1.88,0,0,1,.74,1.71,4.31,4.31,0,0,1-1.57,3.4.51.51,0,0,1-.52.06c-.19-.11-.39-.46-.39-1.12a2.59,2.59,0,0,1,.95-2.07c.09-.06.16-.07.21,0s.2.27.2.62a1.57,1.57,0,0,1-.55,1.22.32.32,0,0,0-.12.44.32.32,0,0,0,.44.12,2.19,2.19,0,0,0,.87-1.78,1.28,1.28,0,0,0-.52-1.17.82.82,0,0,0-.85,0,3.24,3.24,0,0,0-1.27,2.63,1.85,1.85,0,0,0,.71,1.67,1,1,0,0,0,.51.13,1.36,1.36,0,0,0,.65-.18,4.88,4.88,0,0,0,1.89-4A2.49,2.49,0,0,0,240.25,115.4Z" style="fill:#A100F5"></path><path d="M240.25,115.4a1.85,1.85,0,0,0-1.87.07c-1.55.89-2.76,3.36-2.86,5.71h0a2.93,2.93,0,0,0-1.2-2.33,1.91,1.91,0,0,0-1.95.1,6.64,6.64,0,0,0-2.61,5,2.24,2.24,0,0,0,.85,2,1.2,1.2,0,0,0,.59.15,1.53,1.53,0,0,0,.77-.22,4,4,0,0,0,1.55-3.22,1.54,1.54,0,0,0-.6-1.39,1,1,0,0,0-1,0,2.65,2.65,0,0,0-1,2.16,1.07,1.07,0,0,0,.45,1,.71.71,0,0,0,.74,0,.31.31,0,0,0,.12-.43.32.32,0,0,0-.44-.12s-.09,0-.11,0-.12-.17-.12-.44a2,2,0,0,1,.73-1.6.36.36,0,0,1,.35,0c.13.08.28.34.28.84a3.39,3.39,0,0,1-1.23,2.67.68.68,0,0,1-.72.06,1.69,1.69,0,0,1-.54-1.46,6,6,0,0,1,2.3-4.48,1.29,1.29,0,0,1,1.31-.11,2.8,2.8,0,0,1,.93,2.45h0v7a.27.27,0,0,0,.18.29.94.94,0,0,0,.89,0c.12-.07.19-.16.18-.25h0v-7.33h0c0-2.21,1.14-4.71,2.55-5.52a1.17,1.17,0,0,1,1.23-.07,1.88,1.88,0,0,1,.74,1.71,4.31,4.31,0,0,1-1.57,3.4.51.51,0,0,1-.52.06c-.19-.11-.39-.46-.39-1.12a2.59,2.59,0,0,1,.95-2.07c.09-.06.16-.07.21,0s.2.27.2.62a1.57,1.57,0,0,1-.55,1.22.32.32,0,0,0-.12.44.32.32,0,0,0,.44.12,2.19,2.19,0,0,0,.87-1.78,1.28,1.28,0,0,0-.52-1.17.82.82,0,0,0-.85,0,3.24,3.24,0,0,0-1.27,2.63,1.85,1.85,0,0,0,.71,1.67,1,1,0,0,0,.51.13,1.36,1.36,0,0,0,.65-.18,4.88,4.88,0,0,0,1.89-4A2.49,2.49,0,0,0,240.25,115.4Z" style="opacity:0.6000000000000001"></path><path d="M316.12,54.29,105.49,175.9a27.68,27.68,0,0,0-13.42-23.73l-.44-.26-3.46-2L298.8,28.28l3.46,2A27.73,27.73,0,0,1,316.12,54.29Z" style="fill:#A100F5"></path><path d="M246.82,62.29l-3.47-2-11.08,6.4,3.46,2a27.7,27.7,0,0,1,13.86,24l11.08-6.4A27.72,27.72,0,0,0,246.82,62.29Z" style="fill:#f0f0f0"></path><path d="M224.65,75.09l-3.47-2-11.08,6.4,3.46,2a27.7,27.7,0,0,1,13.86,24l11.09-6.4A27.75,27.75,0,0,0,224.65,75.09Z" style="fill:#f0f0f0"></path><path d="M202.48,87.89l-3.46-2-11.09,6.4,3.46,2a27.71,27.71,0,0,1,13.86,24l11.09-6.41A27.73,27.73,0,0,0,202.48,87.89Z" style="fill:#f0f0f0"></path><path d="M180.31,100.7l-3.46-2-11.09,6.4,3.47,2a27.72,27.72,0,0,1,13.85,24l11.09-6.4A27.73,27.73,0,0,0,180.31,100.7Z" style="fill:#f0f0f0"></path><path d="M158.14,113.5l-3.46-2-11.09,6.4,3.47,2a27.72,27.72,0,0,1,13.85,24L172,137.5A27.7,27.7,0,0,0,158.14,113.5Z" style="fill:#f0f0f0"></path><path d="M136,126.3l-3.46-2-11.09,6.4,3.47,2a27.72,27.72,0,0,1,13.85,24l11.09-6.4A27.7,27.7,0,0,0,136,126.3Z" style="fill:#f0f0f0"></path><path d="M113.8,139.1l-3.46-2-11.09,6.4,3.47,2a27.72,27.72,0,0,1,13.85,24l11.09-6.4A27.7,27.7,0,0,0,113.8,139.1Z" style="fill:#f0f0f0"></path><path d="M269,49.48l-3.46-2-11.09,6.4,3.47,2a27.72,27.72,0,0,1,13.85,24l11.09-6.41A27.7,27.7,0,0,0,269,49.48Z" style="fill:#f0f0f0"></path><path d="M291.18,36.68l-3.47-2-11.08,6.41,3.46,2a27.72,27.72,0,0,1,13.86,24L305,60.69A27.72,27.72,0,0,0,291.18,36.68Z" style="fill:#f0f0f0"></path><path d="M116.57,169.53c0,3.31,2.49,4.56,5.55,2.8s5.54-5.89,5.54-9.2Z" style="fill:#e0e0e0"></path><path d="M138.74,156.74c0,3.31,2.48,4.56,5.55,2.79s5.54-5.88,5.54-9.19Z" style="fill:#e0e0e0"></path><path d="M160.91,143.89c0,3.31,2.48,4.57,5.54,2.8s5.55-5.89,5.55-9.2Z" style="fill:#e0e0e0"></path><path d="M183.08,131.11c0,3.31,2.48,4.56,5.54,2.79s5.55-5.88,5.55-9.2Z" style="fill:#e0e0e0"></path><path d="M205.24,118.3c0,3.31,2.48,4.56,5.54,2.79s5.55-5.88,5.55-9.19Z" style="fill:#e0e0e0"></path><path d="M227.42,105.49c0,3.31,2.48,4.56,5.54,2.79s5.55-5.88,5.55-9.19Z" style="fill:#e0e0e0"></path><path d="M249.59,92.71c0,3.31,2.48,4.56,5.54,2.8s5.54-5.89,5.54-9.2Z" style="fill:#e0e0e0"></path><path d="M271.77,79.88c0,3.31,2.48,4.56,5.55,2.79s5.54-5.88,5.54-9.19Z" style="fill:#e0e0e0"></path><path d="M293.94,67.08c0,3.31,2.48,4.56,5.54,2.8S305,64,305,60.68Z" style="fill:#e0e0e0"></path><path d="M105.49,175.9c0,3.31,2.48,4.57,5.54,2.8s5.54-5.89,5.54-9.2Z" style="fill:#A100F5"></path><path d="M127.66,163.1c0,3.31,2.48,4.56,5.54,2.8s5.55-5.89,5.55-9.2Z" style="fill:#A100F5"></path><path d="M149.83,150.3c0,3.31,2.48,4.56,5.54,2.79s5.54-5.88,5.54-9.19Z" style="fill:#A100F5"></path><path d="M172,137.5c0,3.31,2.48,4.56,5.54,2.79s5.54-5.88,5.54-9.19Z" style="fill:#A100F5"></path><path d="M194.17,124.7c0,3.31,2.48,4.56,5.54,2.79s5.54-5.88,5.54-9.19Z" style="fill:#A100F5"></path><path d="M216.34,111.89c0,3.31,2.48,4.57,5.54,2.8s5.54-5.89,5.54-9.2Z" style="fill:#A100F5"></path><path d="M238.51,99.09c0,3.31,2.48,4.56,5.54,2.8s5.54-5.89,5.54-9.2Z" style="fill:#A100F5"></path><path d="M260.67,86.29c0,3.31,2.49,4.56,5.55,2.79s5.54-5.88,5.54-9.19Z" style="fill:#A100F5"></path><path d="M282.86,73.46c0,3.31,2.48,4.57,5.54,2.8s5.54-5.89,5.54-9.2Z" style="fill:#A100F5"></path><path d="M305,60.66c0,3.31,2.48,4.56,5.54,2.8s5.54-5.89,5.54-9.2Z" style="fill:#A100F5"></path><g style="opacity:0.1"><path d="M105.49,175.9c0,3.31,2.48,4.57,5.54,2.8s5.54-5.89,5.54-9.2Z"></path><path d="M127.66,163.1c0,3.31,2.48,4.56,5.54,2.8s5.55-5.89,5.55-9.2Z"></path><path d="M149.83,150.3c0,3.31,2.48,4.56,5.54,2.79s5.54-5.88,5.54-9.19Z"></path><path d="M172,137.5c0,3.31,2.48,4.56,5.54,2.79s5.54-5.88,5.54-9.19Z"></path><path d="M194.17,124.7c0,3.31,2.48,4.56,5.54,2.79s5.54-5.88,5.54-9.19Z"></path><path d="M216.34,111.89c0,3.31,2.48,4.57,5.54,2.8s5.54-5.89,5.54-9.2Z"></path><path d="M238.51,99.09c0,3.31,2.48,4.56,5.54,2.8s5.54-5.89,5.54-9.2Z"></path><path d="M260.67,86.29c0,3.31,2.49,4.56,5.55,2.79s5.54-5.88,5.54-9.19Z"></path><path d="M282.86,73.46c0,3.31,2.48,4.57,5.54,2.8s5.54-5.89,5.54-9.2Z"></path><path d="M305,60.66c0,3.31,2.48,4.56,5.54,2.8s5.54-5.89,5.54-9.2Z"></path></g><path d="M105.49,175.79v.11L88.17,165.85V149.9l3.46,2,.44.26a27.61,27.61,0,0,1,13.4,22.67C105.49,175.14,105.49,175.49,105.49,175.79Z" style="fill:#e0e0e0"></path></g><g id="freepik--Character--inject-33"><g id="freepik--character--inject-33"><path d="M371.88,391.77s.65,1.14,4.16-.34,4.5-3.23,4.5-3.23-.92-7-3.09-5.27S371.88,391.77,371.88,391.77Z" style="fill:#A100F5"></path><path d="M371.88,391.77s.65,1.14,4.16-.34,4.5-3.23,4.5-3.23-.92-7-3.09-5.27S371.88,391.77,371.88,391.77Z" style="opacity:0.30000000000000004"></path><path d="M380.7,367.12c-.06,3.69-.16,6.52,1.25,8.5a7.67,7.67,0,0,1,1.52,3.33s-4.17.58-6.29,3.46-2,5.74-4,6.21-5.25-1.78-5.25-1.78a3.42,3.42,0,0,0,2.89-2.69c.82-2.61,2.91-8.19,3-9.66s0-7.14,0-7.14Z" style="fill:#ffa8a7"></path><path d="M380.74,376.58c-1.81.11-4.6,2.14-5.53,4.24s-2.46,5.06-3.64,5.72-3.27-.3-5.06-.31-3,.82-3.14,2.12l7.42,3.51c1.72.81,3.16.84,4.51-2.72s1.85-5.56,2.92-3.14,1.51,7.86,1.51,7.86a1.73,1.73,0,0,0,2.16-.9,36.92,36.92,0,0,1,.26-4.75c.31-2.19,2.29-4.94,2.14-7.57S382.71,376.45,380.74,376.58Z" style="fill:#263238"></path><path d="M350.52,405.63s.67,1.18,4.3-.34,4.65-3.34,4.65-3.34-.94-7.29-3.19-5.45S350.52,405.63,350.52,405.63Z" style="fill:#A100F5"></path><path d="M350.52,405.63s.67,1.18,4.3-.34,4.65-3.34,4.65-3.34-.94-7.29-3.19-5.45S350.52,405.63,350.52,405.63Z" style="opacity:0.30000000000000004"></path><path d="M359.64,380.14c-.07,3.82-.16,6.75,1.29,8.79a8,8,0,0,1,1.58,3.44S358.19,393,356,396s-2.07,5.94-4.11,6.43-5.43-1.84-5.43-1.84a3.56,3.56,0,0,0,3-2.79c.84-2.7,3-8.47,3.08-10s.36-7.62.36-7.62Z" style="fill:#ffa8a7"></path><path d="M359.68,389.92c-1.87.12-4.76,2.22-5.71,4.39s-2.55,5.24-3.77,5.92-3.39-.31-5.23-.32-3.15.84-3.26,2.18l7.69,3.64c1.77.84,3.26.87,4.65-2.81s1.92-5.75,3-3.25,1.56,8.13,1.56,8.13a1.78,1.78,0,0,0,2.23-.93,38.28,38.28,0,0,1,.27-4.91c.32-2.27,2.37-5.11,2.22-7.84S361.72,389.8,359.68,389.92Z" style="fill:#263238"></path><path d="M376.37,224.55c4.79.93,7,2.56,9.7,9.21s7.58,22.83,8.71,27.27c.51,2-12.08,19.79-11.54,19.52.16-.08-4.92-8.58-4.92-8.58l6.18-11.82-4.4-10.76Z" style="fill:#ffa8a7"></path><path d="M385.14,333.31c-.23-8.8-2-12.66-2-12.66s1.09-10.27,2.79-23.54c2.71-21.14-.71-27.22-6.84-35.5,0,0-25.41-5.76-28.49,4.48-6.76,22.42-4.69,61.35-4.22,67.58s.46.47,2,13.08c1.2,10,4.41,37,4.41,37,4.53,2.45,7.26-.17,7.26-.17s3.6-33,3.31-40.22c-.36-8.78-.86-11-.86-11s3.58-25.44,4.2-30c0,0,.44,7.55.91,13.78s.95,8.92,2.26,21.81c1,10.1,4,32.11,4,32.11a6.91,6.91,0,0,0,6.93-.73S385.32,340.42,385.14,333.31Z" style="fill:#455a64"></path><polygon points="358.91 219.97 360.51 233.13 372.09 232.09 370.77 217.47 358.91 219.97" style="fill:#ffa8a7"></polygon><path d="M383.38,230.92c-.86-3.59-4.18-7.09-8.64-6.26-1.16.21-2.17.38-3.27.6-.1,3-5.81,4.6-11.51,2.76q-2.56.73-4.71,1.5c-4.07,1.46-9.56,9.56-6.69,20.51a79,79,0,0,1,2,16.06s21.53,5.11,28.49-4.48C379.65,258.2,386.57,244.11,383.38,230.92Z" style="fill:#A100F5"></path><g style="opacity:0.30000000000000004"><path d="M383.38,230.92c-.86-3.59-4.18-7.09-8.64-6.26-1.16.21-2.17.38-3.27.6-.1,3-5.81,4.6-11.51,2.76q-2.56.73-4.71,1.5c-4.07,1.46-9.56,9.56-6.69,20.51a79,79,0,0,1,2,16.06s21.53,5.11,28.49-4.48C379.65,258.2,386.57,244.11,383.38,230.92Z"></path></g><path d="M350.31,203.24a10.15,10.15,0,0,1,.87-9.79c3.89-6.1,11.6-8.32,20.48-5.94,4.4,1.18,10.34,7,10.89,15.48.42,6.51-17.74,11.31-17.32,15.77Z" style="fill:#263238"></path><path d="M349.92,205.71s-2.46,3.95-2.12,4.36a6.17,6.17,0,0,0,2,.79Z" style="fill:#f28f8f"></path><path d="M357.44,193.2c-2.47,1.36-6.72,3.85-7.58,13.08-.88,9.47,1.31,12.7,2.63,13.9.89.81,5.38,1,7.7.2,2.9-1,9.15-4.29,12-9.24,3.35-5.83,3.86-13.49-.25-16.37C366.13,190.7,359.52,192.05,357.44,193.2Z" style="fill:#ffa8a7"></path><path d="M357.56,204.34a9.36,9.36,0,0,1-6-7.56c-.93-6,6.57-8.56,6.57-8.56Z" style="fill:#263238"></path><path d="M356.71,193.61s-1.94,8.67.81,14c0,0,1.43-3.41,4.35-2.52s2.77,4.78.54,6.82a4.35,4.35,0,0,1-4.49,1.08c.24,4.37-.51,6.34-2.65,10.23,0,0,15.94,2.26,23.41-6.17,6.78-7.65,5.2-23.11-5.19-26.26S356.71,193.61,356.71,193.61Z" style="fill:#263238"></path><path d="M326,250.38c-1.68-1.92-2-6.16-4.2-9.08s-1.83-5.85-3.23-4.55-.36,6.1-.36,6.1-2.6,4.83-2.83,7.31,6.33,8.69,6.33,8.69Z" style="fill:#ffa8a7"></path><path d="M318.52,242.52c-1.26,1.82-5.39-1.16-6.49-2a7.61,7.61,0,0,0-2.26-1.36,2.39,2.39,0,0,0-2.46.52,3,3,0,0,0-.59,1.43,11.49,11.49,0,0,0,2.44,9.33c2.54,3.11,6.68,3.54,9.91,5.74a8.6,8.6,0,0,1-.07-2.11c-.06-1.55-.13-3.1-.19-4.65C318.71,247.12,318.59,244.81,318.52,242.52Z" style="fill:#ffa8a7"></path><path d="M356.27,229.17c-3.41,1.19-6.39,2.56-9.56,8.53-4.09,7.67-11.51,22.7-11.51,22.7l-9.25-10s-1.34-1.9-3.85,2.24-1.4,5.28-1.4,5.28,10.77,14.42,12.74,16.25,5.22.41,7.34-2.47S353.85,249,353.85,249,361.08,236.43,356.27,229.17Z" style="fill:#ffa8a7"></path><path d="M366.59,302.65l1.1-10.21a26,26,0,0,0,10.4-3.93s-2.22,3.54-8.29,5.16l-2.31,9.2,0,12.86Z" style="fill:#37474f"></path><path d="M345.13,275.78l-2.67-1.54a26.12,26.12,0,0,0-.46-4.45c.53-.87,1.17-1.94,1.87-3.14A34.08,34.08,0,0,1,345.13,275.78Z" style="fill:#A100F5"></path><path d="M345.13,275.78l-2.67-1.54a26.12,26.12,0,0,0-.46-4.45c.53-.87,1.17-1.94,1.87-3.14A34.08,34.08,0,0,1,345.13,275.78Z" style="opacity:0.5"></path><path d="M345.23,276.63l-.11-.85-.08.06,0-.06-2.66-1.54c-.35,1-.76,2.34-1.19,3.84-5.48,3.17-14.7,8.47-14.7,8.47L329.3,308l18.49-10.73h0a1.67,1.67,0,0,0,.77-.95C349.34,294.07,346.09,280.22,345.23,276.63Z" style="fill:#A100F5"></path><path d="M345.23,276.63l-.11-.85-.08.06,0-.06-2.66-1.54c-.35,1-.76,2.34-1.19,3.84-5.48,3.17-14.7,8.47-14.7,8.47L329.3,308l18.49-10.73h0a1.67,1.67,0,0,0,.77-.95C349.34,294.07,346.09,280.22,345.23,276.63Z" style="opacity:0.2"></path><polygon points="345.12 275.78 326.46 286.55 323.8 285.01 342.46 274.24 345.12 275.78" style="fill:#A100F5"></polygon><path d="M327.55,291.17s-.11.49,1.7.88,9.35.3,10.35-.29,3.66-3.87,4.87-6.07a29.44,29.44,0,0,0,1.89-4.2Z" style="opacity:0.2"></path><path d="M323.8,285c-1.55,4.49-4.51,16-4.06,17.74s2.72,3,4.06,3.81,5.3,3.06,6.2.5-3.53-20.51-3.53-20.51Z" style="fill:#A100F5"></path><path d="M323.8,285c-1.55,4.49-4.51,16-4.06,17.74s2.72,3,4.06,3.81,5.3,3.06,6.2.5-3.53-20.51-3.53-20.51Z" style="opacity:0.30000000000000004"></path><path d="M326.47,286.55c0,.27.4,3.55,1.08,4.62s9.85.44,11.41,0,7.2-8.44,7.4-9.68-1.24-5.71-1.24-5.71Z" style="fill:#A100F5"></path><path d="M326.47,286.55c0,.27.4,3.55,1.08,4.62s9.85.44,11.41,0,7.2-8.44,7.4-9.68-1.24-5.71-1.24-5.71Z" style="opacity:0.1"></path><path d="M338.61,289.51c.05.4.35.53.67.29a1.4,1.4,0,0,0,.51-1.16c-.05-.4-.35-.53-.67-.29A1.43,1.43,0,0,0,338.61,289.51Z" style="fill:#A100F5"></path><path d="M336.09,258.61c-9.8,1.7-12.29,26.4-12.29,26.4l2.67,1.54c.48-14.6,6.62-24.89,8.79-26.16Z" style="fill:#A100F5"></path><path d="M336.09,258.61c-9.8,1.7-12.29,26.4-12.29,26.4l2.67,1.54c.48-14.6,6.62-24.89,8.79-26.16Z" style="opacity:0.30000000000000004"></path></g></g></svg>