<svg xmlns="http://www.w3.org/2000/svg" xmlns:xlink="http://www.w3.org/1999/xlink" viewBox="0 0 400.03 337.35"><defs><clipPath id="freepik--clip-path--inject-1--inject-52" transform="translate(-56.19 -89.21)"><rect x="107.03" y="171.04" width="186.72" height="215.54" style="fill:#fff;stroke:#263238;stroke-linecap:round;stroke-linejoin:round"></rect></clipPath><clipPath id="freepik--clip-path-2--inject-1--inject-52" transform="translate(-56.19 -89.21)"><rect x="327.17" y="171.04" width="74.34" height="205.16" style="fill:none;stroke:#263238;stroke-linecap:round;stroke-linejoin:round"></rect></clipPath></defs><!--Window Shopping bro--><g id="freepik--Background simple--inject-1--inject-52"><path d="M412,360.65s56.32-65.29,41.85-148.79S364.75,84.64,314.69,89.59s-99.87,54-148.81,60.07S43.24,198.88,58.14,281s60.2,90.12,133.5,93.17S368.68,414.79,412,360.65Z" transform="translate(-56.19 -89.21)" style="fill:#A100F5"></path><path d="M412,360.65s56.32-65.29,41.85-148.79S364.75,84.64,314.69,89.59s-99.87,54-148.81,60.07S43.24,198.88,58.14,281s60.2,90.12,133.5,93.17S368.68,414.79,412,360.65Z" transform="translate(-56.19 -89.21)" style="fill:#fff;opacity:0.7000000000000001"></path></g><g id="freepik--Shadow--inject-1--inject-52"><ellipse cx="262.69" cy="321.33" rx="51.4" ry="16.02" style="fill:#A100F5"></ellipse><ellipse cx="262.69" cy="321.33" rx="51.4" ry="16.02" style="fill:#fff;opacity:0.5"></ellipse></g><g id="freepik--Window-shopping--inject-1--inject-52"><rect x="42.77" y="69.15" width="217.78" height="234.52" style="fill:#263238"></rect><path d="M316.74,393.38H99a.5.5,0,0,1-.5-.5V158.36a.5.5,0,0,1,.5-.5H316.74a.5.5,0,0,1,.5.5V392.88A.5.5,0,0,1,316.74,393.38Zm-217.28-1H316.24V158.86H99.46Z" transform="translate(-56.19 -89.21)" style="fill:#263238"></path><rect x="50.84" y="81.83" width="186.72" height="215.54" style="fill:#fff"></rect><g style="clip-path:url(#freepik--clip-path--inject-1--inject-52)"><rect x="50.84" y="81.83" width="186.72" height="215.54" style="fill:#263238"></rect><rect x="50.84" y="81.83" width="186.72" height="215.54" style="fill:#fff;opacity:0.6000000000000001"></rect><rect x="43.92" y="268.55" width="205.16" height="21.16" style="fill:#263238"></rect><path d="M305.28,379.42H100.11a.5.5,0,0,1-.5-.5V357.76a.5.5,0,0,1,.5-.5H305.28a.5.5,0,0,1,.5.5v21.16A.5.5,0,0,1,305.28,379.42Zm-204.67-1H304.78V358.26H100.61Z" transform="translate(-56.19 -89.21)" style="fill:#fff"></path><path d="M221.76,288.18a13.19,13.19,0,0,0,3.91.43s-.6-1.81-.65-1.92c-.61-1.27-2.53-3.37-4.1-3.16a1.87,1.87,0,0,0-1.5,2.34A3.93,3.93,0,0,0,221.76,288.18Z" transform="translate(-56.19 -89.21)" style="fill:#263238"></path><path d="M258.07,278.74c-1.57-.16-3.43,2-4,3.28,0,.11-.62,1.94-.59,1.94h0c-.29.33-.61.7-.95,1.11-.61.75-1.3,1.61-2,2.59a32,32,0,0,0-2.06,3.28,24.22,24.22,0,0,0-1.76,4,.11.11,0,0,0,0,.05c0-.46,0-1.75,0-1.85-.18-1.4-1.35-4-2.91-4.28a1.86,1.86,0,0,0-2.15,1.75,3.9,3.9,0,0,0,1.5,2.93,12.92,12.92,0,0,0,3.54,1.62,32.37,32.37,0,0,0-1,4.29c-.15.84-.28,1.7-.39,2.56,0-.4,0-.76,0-.81-.18-1.4-1.36-4-2.91-4.28a1.86,1.86,0,0,0-2.15,1.76,3.88,3.88,0,0,0,1.5,2.92,12.52,12.52,0,0,0,3.43,1.59c0,.33-.08.65-.12,1-.19,1.58-.37,3.16-.6,4.71-.08.54-.18,1.08-.28,1.61,0-.35,0-.65,0-.7-.19-1.4-1.36-4-2.91-4.28a1.87,1.87,0,0,0-2.16,1.76,3.92,3.92,0,0,0,1.5,2.92,12.13,12.13,0,0,0,3.34,1.56c-.12.54-.23,1.09-.37,1.61-.1.35-.17.7-.29,1.05s-.23.7-.34,1c-.23.65-.48,1.33-.72,2-.17.44-.34.85-.51,1.27.09-.54.23-1.6.23-1.69a7.28,7.28,0,0,0-1-3.53,2,2,0,0,0,0-.42,1.85,1.85,0,0,0-2.28-1.58c-1.53.4-2.5,3.08-2.57,4.49,0,.08,0,1,.1,1.56-.08-.33-.15-.65-.23-1-.16-.68-.34-1.35-.54-2.07-.1-.34-.2-.69-.31-1s-.25-.71-.37-1.07c-.3-.83-.65-1.65-1-2.47a12.08,12.08,0,0,0,3.52-1.32,3.91,3.91,0,0,0,1.71-2.8,1.88,1.88,0,0,0-2-1.92c-1.57.18-2.93,2.68-3.22,4.06,0,.08-.11,1.1-.15,1.66-.22-.5-.44-1-.69-1.48-.7-1.41-1.45-2.82-2.2-4.23l-.68-1.29a13,13,0,0,0,3.65-1.35,3.89,3.89,0,0,0,1.72-2.81,1.87,1.87,0,0,0-2-1.91c-1.57.17-2.93,2.67-3.22,4.05,0,.11-.15,1.57-.17,1.94-.49-.95-1-1.91-1.41-2.87a33.69,33.69,0,0,1-1.55-4,13.12,13.12,0,0,0,3.68-1.35,3.91,3.91,0,0,0,1.71-2.81,1.87,1.87,0,0,0-2-1.91c-1.57.17-2.93,2.67-3.22,4.05,0,.11-.16,1.68-.16,2l-.09-.24a23.25,23.25,0,0,1-.79-4.2c-.09-.79-.13-1.54-.16-2.28a12.51,12.51,0,0,0,3.71-.93,3.88,3.88,0,0,0,2-2.6,1.86,1.86,0,0,0-1.79-2.12c-1.58,0-3.21,2.33-3.65,3.67,0,.08-.18.84-.28,1.4,0-.33,0-.67,0-1,0-1.19.08-2.29.15-3.25.05-.55.1-1.05.16-1.51A12.82,12.82,0,0,0,229,280a3.89,3.89,0,0,0,.59-3.23,1.87,1.87,0,0,0-2.57-1.06c-1.41.72-1.77,3.55-1.54,4.94,0,.12.55,2,.57,1.95l0,0c-.06.44-.12.92-.18,1.45-.1,1-.19,2.06-.22,3.26a34.2,34.2,0,0,0,.09,3.87,23.93,23.93,0,0,0,.72,4.28s0,0,0,0c-.25-.39-1-1.45-1-1.53-.93-1.07-3.34-2.58-4.79-2a1.88,1.88,0,0,0-.83,2.66,3.91,3.91,0,0,0,2.87,1.61,13.29,13.29,0,0,0,3.84-.6,34.54,34.54,0,0,0,1.5,4.15c.34.79.71,1.57,1.09,2.35-.23-.33-.43-.63-.46-.66-.93-1.07-3.34-2.59-4.79-2a1.87,1.87,0,0,0-.83,2.65,4,4,0,0,0,2.87,1.62,12.44,12.44,0,0,0,3.74-.58c.14.3.29.6.44.9.72,1.42,1.44,2.84,2.1,4.26.24.5.45,1,.66,1.5-.2-.3-.37-.54-.4-.58-.92-1.06-3.33-2.58-4.79-2a1.87,1.87,0,0,0-.82,2.66,3.87,3.87,0,0,0,2.86,1.61,12,12,0,0,0,3.64-.54c.2.51.41,1,.58,1.54.11.35.25.69.34,1s.19.71.29,1.06c.16.67.33,1.37.48,2,.1.46.19.9.28,1.34-.23-.5-.7-1.47-.75-1.54-.75-1.2-2.9-3.06-4.43-2.67a1.87,1.87,0,0,0-1.22,2.5,3.93,3.93,0,0,0,2.59,2,13.1,13.1,0,0,0,3.87,0c.15.74.28,1.45.4,2.13.41,2.34.67,4.31.83,5.69,0,.25.05.47.07.67H232l1.74,33.87h8.09l1.74-33.87h-4.43l.1-.2c.61-1.27,1.45-3.09,2.36-5.31.29-.71.58-1.46.88-2.24a13.13,13.13,0,0,0,3.86.3,3.91,3.91,0,0,0,2.73-1.83,1.86,1.86,0,0,0-1-2.58c-1.5-.51-3.78,1.19-4.62,2.33-.05.06-.5.85-.78,1.35.12-.32.24-.63.36-1,.23-.65.45-1.3.69-2,.11-.35.21-.69.31-1.05s.19-.72.29-1.09c.2-.85.36-1.73.51-2.62a12.33,12.33,0,0,0,3.66.85,3.91,3.91,0,0,0,3-1.4,1.86,1.86,0,0,0-.63-2.71c-1.4-.72-3.92.61-4.92,1.61-.06.06-.7.85-1,1.3.09-.54.17-1.07.24-1.61.2-1.57.34-3.16.5-4.75,0-.48.1-1,.15-1.45a12.88,12.88,0,0,0,3.79.89,3.85,3.85,0,0,0,3-1.4,1.85,1.85,0,0,0-.62-2.7c-1.41-.73-3.92.61-4.92,1.6-.08.08-1,1.22-1.21,1.52.11-1.06.23-2.13.4-3.17a32.07,32.07,0,0,1,.91-4.17,13.07,13.07,0,0,0,3.81.9,3.9,3.9,0,0,0,3-1.4,1.87,1.87,0,0,0-.62-2.71c-1.41-.72-3.93.61-4.92,1.61-.08.08-1.07,1.31-1.23,1.54l.06-.24a24.78,24.78,0,0,1,1.66-3.95c.36-.7.74-1.35,1.12-2a12.29,12.29,0,0,0,3.61,1.27,3.88,3.88,0,0,0,3.11-1.06,1.86,1.86,0,0,0-.32-2.76c-1.32-.87-4,.18-5.07,1.06l-1,1c.17-.28.35-.57.53-.84.66-1,1.33-1.86,1.92-2.63.35-.43.67-.82,1-1.17a12.43,12.43,0,0,0,3.76-.54,3.9,3.9,0,0,0,2.28-2.37A1.88,1.88,0,0,0,258.07,278.74Zm-17.38,42.19c-.95,2.19-1.82,4-2.45,5.21-.13.25-.24.47-.35.67h-.1c0-.24-.07-.5-.11-.8-.19-1.39-.49-3.37-1-5.73-.15-.75-.32-1.54-.5-2.36a19.51,19.51,0,0,0,2.16-1,13.86,13.86,0,0,0,3.15,2Z" transform="translate(-56.19 -89.21)" style="fill:#263238"></path><path d="M249.8,288.79s.5-1.84.52-2c.2-1.4-.25-4.21-1.67-4.9a1.86,1.86,0,0,0-2.54,1.13,3.87,3.87,0,0,0,.67,3.21A13.33,13.33,0,0,0,249.8,288.79Z" transform="translate(-56.19 -89.21)" style="fill:#263238"></path><path d="M90.16,255.54c1.64.72,5.66.63,5.66.63s-.86-2.63-.94-2.79c-.88-1.84-3.67-4.89-5.94-4.58a2.7,2.7,0,0,0-2.17,3.39C87.14,253.76,88.76,254.93,90.16,255.54Z" transform="translate(-56.19 -89.21)" style="fill:#263238"></path><path d="M142.82,241.86c-2.28-.24-5,2.88-5.82,4.74-.07.17-.9,2.82-.86,2.82h.05c-.43.49-.89,1-1.38,1.61-.89,1.09-1.88,2.34-2.88,3.76a50.28,50.28,0,0,0-3,4.76,34.14,34.14,0,0,0-2.55,5.74.24.24,0,0,0,0,.08c0-.67,0-2.55,0-2.69-.26-2-2-5.8-4.22-6.21A2.71,2.71,0,0,0,119,259c-.13,1.61,1,3.22,2.17,4.24s4.85,2.26,5.14,2.34a47.22,47.22,0,0,0-1.51,6.23c-.22,1.22-.4,2.46-.57,3.71,0-.58,0-1.1,0-1.17-.26-2-2-5.8-4.21-6.21a2.71,2.71,0,0,0-3.13,2.55c-.13,1.61,1,3.22,2.18,4.24s4.18,2,5,2.3l-.18,1.43c-.28,2.3-.54,4.6-.87,6.84-.11.79-.26,1.56-.4,2.34,0-.52,0-.95,0-1-.27-2-2-5.79-4.22-6.21a2.71,2.71,0,0,0-3.12,2.55c-.14,1.61,1,3.23,2.17,4.24a17.25,17.25,0,0,0,4.84,2.26c-.17.78-.33,1.58-.53,2.33-.15.52-.25,1-.43,1.53s-.33,1-.49,1.51c-.34.94-.69,1.92-1,2.83-.24.64-.49,1.25-.73,1.85.12-.78.33-2.33.33-2.46a10.48,10.48,0,0,0-1.41-5.12,3,3,0,0,0,0-.6,2.71,2.71,0,0,0-3.32-2.29c-2.21.58-3.62,4.47-3.72,6.51,0,.12.07,1.44.14,2.27-.12-.49-.22-1-.34-1.45-.23-1-.49-1.95-.77-3-.15-.5-.3-1-.46-1.52s-.35-1-.53-1.54c-.44-1.2-.94-2.39-1.47-3.58.85-.21,3.89-1,5.1-1.91S115,282.59,115,281a2.71,2.71,0,0,0-2.93-2.78c-2.28.25-4.25,3.88-4.67,5.88,0,.13-.16,1.6-.21,2.41-.33-.72-.65-1.43-1-2.14-1-2.05-2.12-4.09-3.2-6.14l-1-1.87c.31-.07,3.93-.92,5.29-2s2.5-2.45,2.49-4.07a2.71,2.71,0,0,0-2.93-2.77c-2.27.24-4.25,3.87-4.66,5.87,0,.15-.23,2.27-.25,2.81-.72-1.38-1.42-2.76-2-4.15a48.43,48.43,0,0,1-2.24-5.78c.14,0,3.93-.89,5.33-2,1.21-.93,2.49-2.45,2.48-4.07a2.71,2.71,0,0,0-2.93-2.77c-2.27.24-4.25,3.87-4.66,5.87,0,.16-.24,2.44-.25,2.85,0-.11-.08-.23-.11-.34a34.39,34.39,0,0,1-1.16-6.1c-.13-1.13-.19-2.23-.22-3.29.72-.09,4-.53,5.38-1.36s2.75-2.16,2.91-3.77a2.71,2.71,0,0,0-2.6-3.08c-2.29,0-4.65,3.39-5.29,5.33,0,.11-.26,1.22-.42,2,0-.48,0-1,0-1.44,0-1.73.12-3.32.22-4.72.07-.8.15-1.52.23-2.19.66-.46,3.31-2.33,4.13-3.66s1.44-3.19.85-4.7a2.71,2.71,0,0,0-3.73-1.53c-2,1-2.57,5.15-2.24,7.17,0,.17.8,2.84.84,2.82l0,0c-.09.65-.18,1.34-.26,2.1-.14,1.41-.29,3-.33,4.73a49.28,49.28,0,0,0,.14,5.62,34.46,34.46,0,0,0,1,6.2.25.25,0,0,0,0,.07c-.36-.57-1.42-2.12-1.52-2.23-1.34-1.54-4.83-3.74-6.94-2.85a2.71,2.71,0,0,0-1.2,3.85c.78,1.42,2.64,2.12,4.16,2.34,1.7.25,5.29-.79,5.57-.88a47.35,47.35,0,0,0,2.18,6c.49,1.15,1,2.28,1.57,3.41-.32-.48-.62-.9-.67-1-1.34-1.54-4.83-3.75-6.94-2.85a2.71,2.71,0,0,0-1.2,3.85c.78,1.42,2.64,2.12,4.16,2.34s4.61-.6,5.42-.83c.21.43.42.86.64,1.29,1,2.07,2.08,4.13,3,6.18.34.73.64,1.45,1,2.17-.3-.42-.54-.78-.59-.83-1.34-1.54-4.83-3.75-6.94-2.85a2.71,2.71,0,0,0-1.2,3.85c.78,1.42,2.64,2.12,4.16,2.34a17.6,17.6,0,0,0,5.27-.79c.3.75.59,1.5.85,2.24.16.51.35,1,.48,1.51s.29,1,.43,1.52c.23,1,.48,2,.69,2.95.14.67.27,1.31.4,1.95-.33-.72-1-2.13-1.07-2.24-1.09-1.73-4.21-4.44-6.43-3.87a2.71,2.71,0,0,0-1.77,3.62c.55,1.52,2.29,2.5,3.75,2.94,1.61.5,5.17.05,5.62,0,.21,1.06.41,2.1.58,3.08.6,3.4,1,6.26,1.2,8.25,0,.36.07.68.11,1h-6.9l2.52,49.11H119.2l2.51-49.11h-6.42l.14-.3c.88-1.83,2.11-4.47,3.43-7.7.42-1,.84-2.12,1.27-3.25.43.09,4,.81,5.6.44,1.49-.34,3.3-1.18,4-2.65a2.71,2.71,0,0,0-1.49-3.75c-2.17-.73-5.49,1.74-6.7,3.38-.07.1-.73,1.24-1.14,2,.17-.46.35-.91.52-1.38.35-.95.66-1.9,1-2.93l.45-1.51c.17-.5.27-1.06.41-1.59.3-1.24.53-2.51.75-3.79.83.3,3.78,1.33,5.31,1.22s3.44-.67,4.32-2a2.72,2.72,0,0,0-.91-3.93c-2-1-5.69.88-7.14,2.32-.09.09-1,1.25-1.51,1.89.13-.77.25-1.55.35-2.33.28-2.27.49-4.58.72-6.88.07-.71.14-1.41.22-2.11.29.11,3.78,1.41,5.49,1.29,1.52-.11,3.44-.67,4.32-2a2.72,2.72,0,0,0-.91-3.93c-2-1.05-5.69.88-7.14,2.32-.11.11-1.43,1.77-1.75,2.21.16-1.55.34-3.09.58-4.6a46.68,46.68,0,0,1,1.32-6.05c.13.06,3.77,1.43,5.52,1.3,1.53-.1,3.44-.66,4.32-2a2.71,2.71,0,0,0-.91-3.93c-2-1.05-5.69.89-7.14,2.33-.11.11-1.54,1.9-1.77,2.24l.09-.35a34.82,34.82,0,0,1,2.4-5.72c.52-1,1.07-2,1.63-2.87.65.32,3.64,1.77,5.23,1.83s3.49-.28,4.52-1.53a2.72,2.72,0,0,0-.48-4c-1.9-1.26-5.74.26-7.34,1.53-.09.07-.9.88-1.48,1.47.26-.41.52-.83.78-1.21,1-1.45,1.92-2.71,2.79-3.82.5-.63,1-1.19,1.4-1.7.8,0,4-.12,5.46-.78s3-1.86,3.3-3.44A2.72,2.72,0,0,0,142.82,241.86ZM117.61,303c-1.38,3.17-2.65,5.75-3.56,7.55l-.5,1h-.15q-.08-.52-.15-1.17c-.28-2-.72-4.89-1.4-8.31-.21-1.08-.46-2.23-.73-3.41a30.54,30.54,0,0,0,3.14-1.47,19.73,19.73,0,0,0,4.56,2.94C118.41,301.15,118,302.13,117.61,303Z" transform="translate(-56.19 -89.21)" style="fill:#263238"></path><path d="M130.82,256.43s.73-2.67.76-2.85c.28-2-.37-6.1-2.43-7.1a2.71,2.71,0,0,0-3.69,1.63c-.55,1.52.15,3.39,1,4.67C127.41,254.28,130.82,256.43,130.82,256.43Z" transform="translate(-56.19 -89.21)" style="fill:#263238"></path><path d="M185.47,291.24v71.1c0,2.94,8.37,5.32,18.69,5.32s18.7-2.38,18.7-5.32v-71.1Z" transform="translate(-56.19 -89.21)" style="fill:#fff"></path><path d="M204.16,368.16c-9.3,0-19.19-2-19.19-5.82V291.25a.5.5,0,0,1,.5-.5h37.39a.5.5,0,0,1,.5.5v71.09C223.36,366.12,213.47,368.16,204.16,368.16ZM186,291.75v70.59c0,2.28,7.47,4.82,18.19,4.82s18.2-2.54,18.2-4.82V291.75Z" transform="translate(-56.19 -89.21)" style="fill:#263238"></path><ellipse cx="147.97" cy="202.03" rx="18.7" ry="2.46" style="fill:#fff"></ellipse><path d="M204.16,294.2c-.78,0-19.19,0-19.19-2.95s18.41-3,19.19-3,19.2,0,19.2,3S205,294.2,204.16,294.2ZM186,291.25c.77.82,7.47,1.95,18.16,1.95s17.39-1.13,18.16-1.95c-.77-.83-7.46-2-18.16-2S186.77,290.42,186,291.25Zm36.37.06h0Z" transform="translate(-56.19 -89.21)" style="fill:#263238"></path><path d="M190.51,274s8.55-23.35,13.58-23.35,13.84,23.07,13.84,23.07l-1.49.14s-8.69-20.23-11.27-21.45S197.84,258.54,192,274Z" transform="translate(-56.19 -89.21)" style="fill:#A100F5"></path><path d="M192,274.52h-1.49a.49.49,0,0,1-.41-.22.5.5,0,0,1-.06-.46c.89-2.42,8.82-23.67,14.05-23.67s13.39,21,14.31,23.4a.49.49,0,0,1,0,.44.52.52,0,0,1-.38.23l-1.5.14a.51.51,0,0,1-.5-.3c-3.33-7.76-9.27-20.37-11-21.2a1,1,0,0,0-.88,0c-1.27.51-4.94,3.61-11.61,21.28A.5.5,0,0,1,192,274.52Zm-.77-1h.43c4.81-12.7,9.08-20.34,12.05-21.54a2,2,0,0,1,1.68,0c2.56,1.21,10,18.15,11.36,21.37l.48,0c-3.55-9.13-9.79-22.14-13.14-22.14S194.67,264.28,191.23,273.52Z" transform="translate(-56.19 -89.21)" style="fill:#263238"></path><path d="M135.19,183.45h25.69a2.9,2.9,0,0,1,2.9,2.9v13.78a2.32,2.32,0,0,1-2.32,2.32H134.61a2.32,2.32,0,0,1-2.32-2.32V186.35A2.9,2.9,0,0,1,135.19,183.45Z" style="fill:#A100F5"></path><path d="M217.65,292.16H190.79a2.82,2.82,0,0,1-2.82-2.82V275.56a3.41,3.41,0,0,1,3.41-3.4h25.69a3.4,3.4,0,0,1,3.4,3.4v13.78A2.82,2.82,0,0,1,217.65,292.16Zm-26.27-19a2.41,2.41,0,0,0-2.41,2.4v13.78a1.82,1.82,0,0,0,1.82,1.82h26.86a1.82,1.82,0,0,0,1.82-1.82V275.56a2.41,2.41,0,0,0-2.4-2.4Z" transform="translate(-56.19 -89.21)" style="fill:#263238"></path><path d="M217.25,283.34h-28.5a.5.5,0,0,1,0-1h28.5a.5.5,0,0,1,0,1Z" transform="translate(-56.19 -89.21)" style="fill:#263238"></path><path d="M218.48,273.34s-.68.81-.68,3.12-.82,14.53-.68,15.07.95.13.95.13" transform="translate(-56.19 -89.21)" style="fill:#A100F5"></path><path d="M217.51,292.31a1,1,0,0,1-.41-.08.86.86,0,0,1-.47-.58c-.08-.32,0-2,.32-7.71.17-3.15.35-6.42.35-7.48,0-2.42.71-3.35.79-3.44a.52.52,0,0,1,.71-.07.5.5,0,0,1,.07.7,4.91,4.91,0,0,0-.57,2.81c0,1.09-.18,4.37-.36,7.53-.16,2.92-.35,6.49-.34,7.31l.24-.08a.5.5,0,1,1,.45.89A1.78,1.78,0,0,1,217.51,292.31Z" transform="translate(-56.19 -89.21)" style="fill:#263238"></path><rect x="145.72" y="190.91" width="2.17" height="4.89" style="fill:#fff"></rect><path d="M204.09,285.51h-2.18a.5.5,0,0,1-.5-.5v-4.88a.5.5,0,0,1,.5-.5h2.18a.5.5,0,0,1,.5.5V285A.5.5,0,0,1,204.09,285.51Zm-1.68-1h1.18v-3.88h-1.18Z" transform="translate(-56.19 -89.21)" style="fill:#263238"></path><path d="M146.79,255.27a61.32,61.32,0,0,0-4.07,17.65c-.95,10.59,3.8,29.46,6,35.84s4.35,15.07,4.75,16.43,2.45,11.4,3.67,17.24,1.22,14.8.27,17.1-6.24,6.25-6.79,6.93.82,1.08,3.53.81,5.3-2.58,6.93-3.26a4.4,4.4,0,0,0,2.71-4.34c0-2.17-1.08-4.07,0-11.13s1.09-20.77,1.09-20.77,2.85,10.72,4.48,19.41,3.93,18.6,4.34,20.77a3.7,3.7,0,0,0,3.67,3.12,3.2,3.2,0,0,0,3.26-3.53c0-2.58-5-8.14-5.84-12.35s1.63-17.92,2.17-24.84S175.57,315.28,175,309s1.1-9,4.21-22.13a61.22,61.22,0,0,0-.68-28.37c-2-6.79-2.44-6.92-2.44-6.92A38.22,38.22,0,0,1,146.79,255.27Z" transform="translate(-56.19 -89.21)" style="fill:#263238"></path><path d="M177.34,371.57a4.22,4.22,0,0,1-4.16-3.53c-.13-.71-.49-2.34-.94-4.4-.92-4.21-2.32-10.57-3.4-16.37-1-5.47-2.56-11.81-3.53-15.7a156.3,156.3,0,0,1-1.05,17,26.93,26.93,0,0,0-.19,9.12,13.53,13.53,0,0,1,.19,1.94,4.93,4.93,0,0,1-3,4.81,12.85,12.85,0,0,0-1.81,1,12.85,12.85,0,0,1-5.26,2.27c-2.35.24-3.73,0-4.1-.66a.83.83,0,0,1,.13-1,12.56,12.56,0,0,1,1.41-1.27c1.63-1.39,4.67-4,5.31-5.54.89-2.16.91-11-.3-16.81l-1-4.95c-1.09-5.28-2.33-11.25-2.63-12.25-.09-.32-.29-1.05-.56-2.07-.88-3.31-2.53-9.48-4.18-14.34-2.47-7.25-6.91-25.87-6-36a62.73,62.73,0,0,1,4.11-17.81.52.52,0,0,1,.6-.28c15.87,4.63,28.79-3.52,28.91-3.6a.55.55,0,0,1,.43-.06c.25.08.66.22,2.77,7.26a61.4,61.4,0,0,1,.68,28.63c-.91,3.89-1.71,6.88-2.35,9.29-1.52,5.74-2.22,8.36-1.84,12.68.17,2,.49,4.2.82,6.53.68,4.74,1.45,10.13,1.08,14.87-.18,2.33-.58,5.41-1,8.67-.8,6.24-1.71,13.32-1.18,16,.4,2.07,1.92,4.58,3.27,6.79s2.58,4.26,2.58,5.65A3.69,3.69,0,0,1,177.34,371.57Zm-12.49-44.3a.5.5,0,0,1,.48.37c0,.11,2.88,10.84,4.49,19.45,1.08,5.78,2.47,12.13,3.4,16.34.47,2.15.81,3.7.94,4.43a3.2,3.2,0,0,0,3.18,2.71,2.71,2.71,0,0,0,2.76-3c0-1.11-1.19-3.06-2.44-5.13-1.39-2.28-3-4.88-3.39-7.12-.56-2.88.32-9.73,1.17-16.36.42-3.24.81-6.31,1-8.62.36-4.63-.37-9.73-1.07-14.65-.34-2.34-.65-4.55-.83-6.58-.39-4.49.32-7.17,1.88-13,.63-2.4,1.43-5.39,2.34-9.26a58.49,58.49,0,0,0-2.81-34.49c-2.44,1.39-14.42,7.6-28.86,3.58A63.2,63.2,0,0,0,143.22,273c-.9,10,3.5,28.45,5.95,35.63,1.66,4.89,3.31,11.08,4.2,14.4.26,1,.46,1.73.55,2,.31,1,1.5,6.78,2.65,12.33.37,1.78.72,3.5,1,5,1.17,5.57,1.3,14.84.24,17.39-.73,1.79-3.65,4.27-5.58,5.92-.51.43-1,.83-1.19,1a7.74,7.74,0,0,0,3,.1,12.36,12.36,0,0,0,4.83-2.13,15.36,15.36,0,0,1,1.95-1.1,3.9,3.9,0,0,0,2.41-3.88,12,12,0,0,0-.18-1.8,28.09,28.09,0,0,1,.19-9.41c1.06-6.94,1.08-20.56,1.08-20.69a.5.5,0,0,1,.43-.5Z" transform="translate(-56.19 -89.21)" style="fill:#263238"></path><path d="M146.66,213.46s-5,1.22-6.79,1.63a3.35,3.35,0,0,0-2.85,4.07c.27,2.58-.55,16.7-.82,20.37s5.3,4.07,6.79,1.35a43.79,43.79,0,0,0,2.72-6.65s.67,6.79.67,10.32-.81,9-.27,10.86,11.54,3.53,19.42,3.66,12.35-4.34,12.35-6.24.27-10.73.81-13.44a49.85,49.85,0,0,0,.68-6.65s1.23,11.67,2.18,13.84,5.56,1.63,7.06-1.08-.55-10.18-.82-15.21-.54-6.51-.54-10,1.9-5-.68-6.11-7.88-1.36-7.88-1.36-13.16.68-19,.14A63.82,63.82,0,0,0,146.66,213.46Z" transform="translate(-56.19 -89.21)" style="fill:#fff"></path><path d="M165.88,259.58h-.36c-6.36-.11-19.15-1.44-19.89-4-.36-1.27-.17-3.8,0-6.48.12-1.57.23-3.2.23-4.52,0-2.18-.26-5.66-.46-8a34.88,34.88,0,0,1-2,4.52,4.61,4.61,0,0,1-5.24,1.83,3.23,3.23,0,0,1-2.49-3.46c.31-4.1,1.08-17.81.82-20.28a3.86,3.86,0,0,1,3.24-4.61c1.76-.41,6.78-1.63,6.78-1.63h0a64.71,64.71,0,0,1,13.16-.55c5.73.53,18.8-.13,18.93-.14s5.46.29,8.09,1.4c2.06.87,1.76,2.15,1.4,3.64a12.34,12.34,0,0,0-.41,2.93c0,2.16.1,3.56.24,5.49.09,1.2.2,2.6.3,4.53.09,1.64.38,3.6.65,5.49.61,4.13,1.18,8,.1,10a5.73,5.73,0,0,1-5.12,2.68,3,3,0,0,1-2.83-1.64c-.56-1.26-1.18-5.5-1.63-9-.08.59-.17,1.16-.27,1.7-.54,2.68-.81,11.56-.81,13.34a4.55,4.55,0,0,1-1.61,2.85C175.83,256.61,172.31,259.58,165.88,259.58Zm-20.17-25.85h0a.5.5,0,0,1,.44.45c0,.07.68,6.85.68,10.37,0,1.36-.11,3-.23,4.59-.18,2.48-.37,5-.06,6.13.37,1.28,9.8,3.15,18.95,3.3,6.25.11,9.64-2.73,10.53-3.6a3.7,3.7,0,0,0,1.31-2.14c0-1.86.27-10.74.82-13.54a50.27,50.27,0,0,0,.67-6.57.5.5,0,0,1,.49-.48.49.49,0,0,1,.51.45c.42,4,1.41,12,2.13,13.69a2.09,2.09,0,0,0,2,1,4.77,4.77,0,0,0,4.2-2.16c.91-1.67.34-5.57-.21-9.35-.29-1.92-.58-3.9-.67-5.59-.1-1.91-.21-3.31-.29-4.51-.15-1.95-.25-3.36-.25-5.56a12.75,12.75,0,0,1,.44-3.16c.36-1.5.46-2-.81-2.49-2.47-1-7.66-1.32-7.71-1.32s-13.22.67-19,.14a64.32,64.32,0,0,0-12.89.53L140,215.58c-1.89.43-2.67,1.55-2.47,3.53.29,2.7-.56,17.06-.81,20.45a2.29,2.29,0,0,0,1.77,2.43,3.62,3.62,0,0,0,4.08-1.35,43.27,43.27,0,0,0,2.68-6.56A.5.5,0,0,1,145.71,233.73Z" transform="translate(-56.19 -89.21)" style="fill:#263238"></path><path d="M163.24,259.29a.48.48,0,0,1-.26-.07c-.12-.08-3.06-2-2.33-7.83.69-5.51,1.39-21.48,1.4-21.64a.5.5,0,0,1,.52-.48.51.51,0,0,1,.48.52c0,.16-.71,16.17-1.41,21.72-.64,5.17,1.77,6.79,1.87,6.86a.5.5,0,0,1-.27.92Z" transform="translate(-56.19 -89.21)" style="fill:#263238"></path><path d="M153.45,236.56a.54.54,0,0,1-.28-.08l-4.55-3.15a.51.51,0,0,1-.12-.7.5.5,0,0,1,.69-.12l4.31,3,5.33-2.66a.51.51,0,0,1,.67.22.5.5,0,0,1-.23.67l-5.59,2.8A.46.46,0,0,1,153.45,236.56Z" transform="translate(-56.19 -89.21)" style="fill:#263238"></path><path d="M170.94,235.52a.46.46,0,0,1-.2-.05l-5.6-2.44a.5.5,0,0,1-.25-.66.49.49,0,0,1,.65-.26l5.43,2.37,6.82-2a.5.5,0,0,1,.62.33.51.51,0,0,1-.33.63l-7,2.09A.32.32,0,0,1,170.94,235.52Z" transform="translate(-56.19 -89.21)" style="fill:#263238"></path><polygon points="84.49 168.37 88.7 173.53 92.09 170 89.65 163.48 84.49 168.37" style="fill:#fff"></polygon><path d="M144.89,263.24h0a.53.53,0,0,1-.37-.18l-4.2-5.16a.5.5,0,0,1,0-.68l5.16-4.89a.5.5,0,0,1,.81.19l2.44,6.51a.51.51,0,0,1-.1.53l-3.4,3.53A.51.51,0,0,1,144.89,263.24Zm-3.53-5.61,3.56,4.36,2.79-2.9-2.07-5.51Z" transform="translate(-56.19 -89.21)" style="fill:#263238"></path><path d="M136.75,234.37s-2.85,7.6-2.58,11.81,3.66,10,4.07,10.45,7.19-4.48,7.33-5-2.44-7.47-2.44-7.47l3-10.59" transform="translate(-56.19 -89.21)" style="fill:#fff"></path><path d="M138.31,257.15a.54.54,0,0,1-.42-.17c-.51-.5-3.94-6.42-4.22-10.77s2.49-11.7,2.61-12a.5.5,0,1,1,.93.35c0,.08-2.81,7.55-2.54,11.61.24,3.77,3.08,8.88,3.8,10a39.74,39.74,0,0,0,6.61-4.65c-.08-.58-1.27-4-2.42-7.13a.47.47,0,0,1,0-.31l3-10.59a.5.5,0,1,1,1,.27l-2.94,10.43c2.58,6.92,2.45,7.44,2.41,7.61-.21.83-6.32,5.06-7.48,5.39Zm.29-.87h0Z" transform="translate(-56.19 -89.21)" style="fill:#263238"></path><path d="M144.76,250.25s-7.34,3.94-8,4.75.4,2,1.49,3.4,6.92-2.86,7.87-4.08S146.93,247.67,144.76,250.25Z" transform="translate(-56.19 -89.21)" style="fill:#fff"></path><path d="M138.92,259.16a1.3,1.3,0,0,1-1.07-.45l-.23-.29c-1.11-1.37-2.15-2.67-1.26-3.74.69-.83,6.67-4.07,8.08-4.83,1-1.09,1.65-.82,2-.55,1.12.9.88,4.32.09,5.33s-5.43,4.52-7.57,4.53Zm6.85-9.09c-.09,0-.31.13-.63.5a.44.44,0,0,1-.15.12,74.52,74.52,0,0,0-7.86,4.63c-.37.44.46,1.48,1.27,2.47l.23.29a.38.38,0,0,0,.3.08c1.68,0,6-3.14,6.79-4.14.57-.74.62-3.5.07-3.94C145.79,250.07,145.78,250.07,145.77,250.07Zm-1,.18h0Z" transform="translate(-56.19 -89.21)" style="fill:#263238"></path><polygon points="122.23 164.98 120.47 168.91 122.23 173.39 127.94 168.51 122.23 164.98" style="fill:#fff"></polygon><path d="M178.42,263.1h-.12a.51.51,0,0,1-.34-.3l-1.77-4.48a.52.52,0,0,1,0-.39L178,254a.49.49,0,0,1,.31-.27.54.54,0,0,1,.41,0l5.7,3.53a.52.52,0,0,1,.23.39.49.49,0,0,1-.17.42l-5.7,4.88A.5.5,0,0,1,178.42,263.1Zm-1.22-5,1.43,3.63,4.65-4-4.63-2.87Z" transform="translate(-56.19 -89.21)" style="fill:#263238"></path><path d="M182.36,244.14s-4.21,8.55-3.8,9.23,5.84,5.3,6.79,4.35,4.61-7.33,4.75-9.78S189,240.2,189,240.2" transform="translate(-56.19 -89.21)" style="fill:#fff"></path><path d="M185,258.34h-.19c-1.81-.22-6.22-4-6.65-4.7-.15-.25-.55-.91,3.78-9.71a.5.5,0,1,1,.9.44c-1.84,3.74-3.72,8-3.78,8.82.69.91,5.18,4.42,6,4.16.81-.82,4.44-7.1,4.57-9.43s-1.06-7.54-1.08-7.59a.5.5,0,0,1,.38-.6.5.5,0,0,1,.6.37c.05.22,1.24,5.39,1.1,7.88-.15,2.64-4,9.16-4.9,10.1A1,1,0,0,1,185,258.34ZM179,253.23Z" transform="translate(-56.19 -89.21)" style="fill:#263238"></path><path d="M178.42,250.39s-1.9,2.71-1.49,3.53,6.11,6.51,7.06,6.51a2.65,2.65,0,0,0,1.9-3.8C184.94,254.32,180.46,249.71,178.42,250.39Z" transform="translate(-56.19 -89.21)" style="fill:#fff"></path><path d="M184,260.93c-1.32,0-7.16-6.09-7.51-6.79-.49-1,.91-3.15,1.53-4a.55.55,0,0,1,.26-.19c2.48-.83,7.15,4.26,8.08,6.53a3.29,3.29,0,0,1-.23,3.16A2.87,2.87,0,0,1,184,260.93Zm-5.26-10.1a6.63,6.63,0,0,0-1.35,2.87c.35.7,5.72,6,6.64,6.23a1.94,1.94,0,0,0,1.27-.89,2.26,2.26,0,0,0,.14-2.22C184.54,254.67,180.44,250.56,178.73,250.83Z" transform="translate(-56.19 -89.21)" style="fill:#263238"></path><path d="M155.62,200.43a11.68,11.68,0,0,0-9.1,6.38c-3.26,6.11.54,17.24,12.9,20.36s18.73-8.55,18.73-14.8-7.87-11.54-10.45-12.21S155.62,200.43,155.62,200.43Z" transform="translate(-56.19 -89.21)" style="fill:#A100F5"></path><path d="M163.41,228.19a17.13,17.13,0,0,1-4.12-.53c-6.11-1.55-10.89-5.31-13.11-10.34-1.66-3.74-1.7-7.76-.1-10.75a12.09,12.09,0,0,1,9.5-6.64c.54-.06,9.63-1,12.25-.26,2.78.73,10.82,6.24,10.82,12.7A17.81,17.81,0,0,1,172,225.23,13.77,13.77,0,0,1,163.41,228.19Zm1.14-27.78c-3.67,0-8.81.51-8.88.51h0A11.07,11.07,0,0,0,147,207c-1.45,2.72-1.4,6.42.13,9.88,2.1,4.74,6.64,8.3,12.45,9.77a13.32,13.32,0,0,0,11.86-2.25,16.69,16.69,0,0,0,6.25-12.07c0-5.86-7.57-11.07-10.08-11.73A13.73,13.73,0,0,0,164.55,200.41Zm-8.93,0h0Z" transform="translate(-56.19 -89.21)" style="fill:#263238"></path><path d="M157,220.07a.43.43,0,0,1-.19,0,12.18,12.18,0,0,1-7.37-11.34c.15-4.8,4.63-8.12,4.83-8.26a.5.5,0,0,1,.69.11.49.49,0,0,1-.11.7s-4.28,3.17-4.41,7.48a11.33,11.33,0,0,0,6.76,10.39.49.49,0,0,1,.26.65A.5.5,0,0,1,157,220.07Z" transform="translate(-56.19 -89.21)" style="fill:#263238"></path><path d="M165.8,216.4a.5.5,0,0,1-.5-.5.5.5,0,0,1,.5-.5c1.13,0,3.9-1.54,5.51-5.26s-.24-7.83-.26-7.87a.49.49,0,0,1,.23-.66.5.5,0,0,1,.67.23,11.35,11.35,0,0,1,.28,8.7C170.31,215,167.07,216.4,165.8,216.4Z" transform="translate(-56.19 -89.21)" style="fill:#263238"></path><path d="M160.75,224.1a14.08,14.08,0,0,1-6.32-1.38.5.5,0,0,1,.47-.88,14.77,14.77,0,0,0,11.66.12c7.3-2.92,10.75-7.23,10.28-12.8a.5.5,0,0,1,1-.09c.51,6.07-3.16,10.71-10.91,13.81A16.52,16.52,0,0,1,160.75,224.1Z" transform="translate(-56.19 -89.21)" style="fill:#263238"></path><path d="M154.77,196.81s-.24,9.59.17,10.81.54,4.21,6.24,5,6.93-3.26,6.93-5.3-.45-10.54-.45-10.54Z" transform="translate(-56.19 -89.21)" style="fill:#fff"></path><path d="M162.61,213.25a9.82,9.82,0,0,1-1.5-.11c-5.41-.77-6.14-3.48-6.53-4.94,0-.15-.08-.3-.12-.42-.42-1.27-.21-10-.19-11a.51.51,0,0,1,.5-.49h12.89a.51.51,0,0,1,.5.47c0,.35.45,8.54.45,10.57a6.15,6.15,0,0,1-2,4.55A5.94,5.94,0,0,1,162.61,213.25Zm-7.35-15.94c-.08,3.71-.11,9.36.15,10.15.05.14.09.31.14.49.35,1.31.94,3.52,5.7,4.2a5.79,5.79,0,0,0,4.75-1,5.19,5.19,0,0,0,1.61-3.8c0-1.72-.33-8.22-.43-10Z" transform="translate(-56.19 -89.21)" style="fill:#263238"></path><path d="M167.66,196.81c0,1.41-2.89,2.55-6.44,2.55s-6.45-1.14-6.45-2.55,2.89-2.55,6.45-2.55S167.66,195.4,167.66,196.81Z" transform="translate(-56.19 -89.21)" style="fill:#fff"></path><path d="M161.22,199.86c-3.37,0-6.95-1.07-6.95-3.05s3.58-3.05,6.95-3.05,6.94,1.07,6.94,3.05S164.58,199.86,161.22,199.86Zm0-5.1c-3.69,0-5.95,1.19-5.95,2.05s2.26,2.05,5.95,2.05,5.94-1.19,5.94-2.05S164.9,194.76,161.22,194.76Z" transform="translate(-56.19 -89.21)" style="fill:#263238"></path><path d="M163.22,323.52a.51.51,0,0,1-.49-.4c-.15-.7-3.54-17.21-3.68-22.22l0-1c-.2-6.38-.73-23.3,4.73-32a.5.5,0,0,1,.84.54c-5.29,8.44-4.76,25.14-4.57,31.44l0,1c.14,4.93,3.62,21.87,3.66,22.05a.5.5,0,0,1-.39.58Z" transform="translate(-56.19 -89.21)" style="fill:#fff"></path><path d="M164.85,327.77s2.85,10.72,4.48,19.41,3.93,18.6,4.34,20.77a3.7,3.7,0,0,0,3.67,3.12,3.2,3.2,0,0,0,3.26-3.53c0-2.58-5-8.14-5.84-12.35s1.63-17.92,2.17-24.84c.08-1,.1-2,.09-3.09C169.28,329.48,164.85,327.77,164.85,327.77Z" transform="translate(-56.19 -89.21)" style="fill:#fff"></path><path d="M177.34,371.57a4.22,4.22,0,0,1-4.16-3.53c-.13-.71-.49-2.34-.94-4.4-.92-4.21-2.32-10.57-3.4-16.37-1.61-8.57-4.45-19.27-4.48-19.37a.51.51,0,0,1,.15-.5.5.5,0,0,1,.52-.1s4.39,1.62,11.85-.52a.53.53,0,0,1,.44.08.52.52,0,0,1,.2.4c0,1.15,0,2.17-.09,3.13-.18,2.33-.58,5.41-1,8.67-.8,6.24-1.71,13.32-1.18,16,.4,2.07,1.92,4.58,3.27,6.79s2.58,4.26,2.58,5.65A3.69,3.69,0,0,1,177.34,371.57Zm-11.79-43.08c.71,2.72,2.92,11.4,4.27,18.6,1.08,5.78,2.47,12.13,3.4,16.34.47,2.15.81,3.7.94,4.43a3.2,3.2,0,0,0,3.18,2.71,2.71,2.71,0,0,0,2.76-3c0-1.11-1.19-3.06-2.44-5.13-1.39-2.28-3-4.88-3.39-7.12-.56-2.88.32-9.73,1.17-16.36.42-3.24.81-6.31,1-8.62.06-.74.09-1.53.09-2.39C171,329.4,167.18,328.88,165.55,328.49Z" transform="translate(-56.19 -89.21)" style="fill:#263238"></path><path d="M153.87,327c.77,3.46,2.26,10.81,3.24,15.47,1.22,5.84,1.22,14.8.27,17.1s-6.24,6.25-6.79,6.93.82,1.08,3.53.81,5.3-2.58,6.93-3.26a4.4,4.4,0,0,0,2.71-4.34c0-2.17-1.08-4.07,0-11.13s1.09-20.77,1.09-20.77A42,42,0,0,1,153.87,327Z" transform="translate(-56.19 -89.21)" style="fill:#fff"></path><path d="M152.54,367.86c-1.37,0-2.2-.25-2.47-.75a.83.83,0,0,1,.13-1,12.56,12.56,0,0,1,1.41-1.27c1.63-1.39,4.67-4,5.31-5.54.89-2.16.91-11-.3-16.81-.31-1.47-.67-3.21-1-5-.82-4-1.67-8.08-2.2-10.45a.5.5,0,0,1,.58-.6,40.79,40.79,0,0,0,10.84.8.51.51,0,0,1,.55.5c0,.14,0,13.83-1.09,20.84a26.93,26.93,0,0,0-.19,9.12,13.53,13.53,0,0,1,.19,1.94,4.93,4.93,0,0,1-3,4.81,12.85,12.85,0,0,0-1.81,1,12.85,12.85,0,0,1-5.26,2.27C153.56,367.83,153,367.86,152.54,367.86Zm-1.47-1.18a7.74,7.74,0,0,0,3,.1,12.36,12.36,0,0,0,4.83-2.13,15.36,15.36,0,0,1,1.95-1.1,3.9,3.9,0,0,0,2.41-3.88,12,12,0,0,0-.18-1.8,28.09,28.09,0,0,1,.19-9.41c.94-6.15,1.06-17.54,1.08-20.15a41.58,41.58,0,0,1-9.83-.72c.53,2.43,1.3,6.14,2,9.73.37,1.8.73,3.54,1,5,1.17,5.57,1.3,14.84.24,17.39-.73,1.79-3.65,4.27-5.58,5.92C151.75,366.07,151.27,366.47,151.07,366.68Z" transform="translate(-56.19 -89.21)" style="fill:#263238"></path><path d="M152.49,323.83s1.36,1.36,4.76,1.09a26.24,26.24,0,0,0,6.51-1.5l1.09,4.35s-.78,2.32-4.31,2.45-6,.4-7.1-1.64A10.61,10.61,0,0,1,152.49,323.83Z" transform="translate(-56.19 -89.21)" style="fill:#fff"></path><path d="M157.76,330.81c-2.18,0-3.87-.32-4.76-2a11.05,11.05,0,0,1-1-5,.5.5,0,0,1,.85-.33s1.31,1.19,4.37.95a25.73,25.73,0,0,0,6.37-1.46.5.5,0,0,1,.67.34l1.08,4.35a.45.45,0,0,1,0,.28c0,.11-.93,2.65-4.77,2.79l-.71,0C159.1,330.78,158.41,330.81,157.76,330.81ZM153,324.76a9,9,0,0,0,.88,3.59c.82,1.54,2.59,1.54,5.9,1.4l.73,0c2.69-.1,3.59-1.55,3.8-2l-.91-3.65a26.33,26.33,0,0,1-6.12,1.33A8.13,8.13,0,0,1,153,324.76Z" transform="translate(-56.19 -89.21)" style="fill:#263238"></path><path d="M163.35,324s.68,6.78,1.77,7.33a17.29,17.29,0,0,0,7.32,1.11c2.71-.28,5.3-2.2,5.58-3.56s.4-6.24-.55-6.24-1.9,1.9-6.78,1.9S164.3,322.61,163.35,324Z" transform="translate(-56.19 -89.21)" style="fill:#fff"></path><path d="M171.3,333a17.51,17.51,0,0,1-6.4-1.22c-1.21-.6-1.83-5.6-2-7.72a.57.57,0,0,1,.08-.34c.7-1,1.66-.73,2.89-.39a16.72,16.72,0,0,0,4.86.72,9.26,9.26,0,0,0,5.54-1.4,2.4,2.4,0,0,1,1.24-.5.84.84,0,0,1,.65.32c.86,1.06.59,5.48.39,6.52-.31,1.55-3.07,3.66-6,3.95A11.71,11.71,0,0,1,171.3,333Zm-7.43-8.84c.32,3,1,6.38,1.48,6.73a16.65,16.65,0,0,0,7,1.06c2.62-.26,4.92-2.09,5.14-3.15.29-1.48.24-5-.15-5.64a3.4,3.4,0,0,0-.63.34,10.25,10.25,0,0,1-6.06,1.55,17.72,17.72,0,0,1-5.13-.76C164.47,324,164.12,323.88,163.87,324.12Z" transform="translate(-56.19 -89.21)" style="fill:#263238"></path><rect x="43.92" y="283.24" width="205.16" height="14.7" style="fill:#263238"></rect><path d="M305.28,387.65H100.11a.5.5,0,0,1-.5-.5v-14.7a.51.51,0,0,1,.5-.5H305.28a.51.51,0,0,1,.5.5v14.7A.5.5,0,0,1,305.28,387.65Zm-204.67-1H304.78V373H100.61Z" transform="translate(-56.19 -89.21)" style="fill:#fff"></path><polygon points="47.38 282.69 47.38 296.5 239.29 79.52 226.81 79.52 47.38 282.69" style="fill:#fff;opacity:0.30000000000000004"></polygon><polygon points="160.57 305.43 303.55 143.78 292.6 142.05 148.31 305.43 160.57 305.43" style="fill:#fff;opacity:0.30000000000000004"></polygon><polygon points="47.38 241.58 47.38 255.45 202.98 79.52 190.5 79.52 47.38 241.58" style="fill:#fff;opacity:0.30000000000000004"></polygon></g><rect x="50.84" y="81.83" width="186.72" height="215.54" style="fill:none;stroke:#263238;stroke-linecap:round;stroke-linejoin:round"></rect><rect x="247.93" y="69.15" width="108.92" height="234.52" style="fill:#263238"></rect><path d="M413,393.38H304.12a.51.51,0,0,1-.5-.5V158.36a.5.5,0,0,1,.5-.5H413a.5.5,0,0,1,.5.5V392.88A.5.5,0,0,1,413,393.38Zm-108.42-1H412.54V158.86H304.62Z" transform="translate(-56.19 -89.21)" style="fill:#263238"></path><g style="clip-path:url(#freepik--clip-path-2--inject-1--inject-52)"><rect x="270.98" y="81.83" width="74.34" height="205.16" style="fill:#263238"></rect><rect x="270.98" y="81.83" width="74.34" height="205.16" style="fill:#fff;opacity:0.6000000000000001"></rect><polygon points="262.34 187.64 262.34 201.58 353.97 97.98 353.97 83.88 262.34 187.64" style="fill:#fff;opacity:0.30000000000000004"></polygon><polygon points="262.34 213.57 262.34 227.51 353.97 123.91 353.97 109.81 262.34 213.57" style="fill:#fff;opacity:0.30000000000000004"></polygon><polygon points="262.34 309.82 262.34 323.71 353.97 220.11 353.97 206.06 262.34 309.82" style="fill:#fff;opacity:0.30000000000000004"></polygon></g><rect x="270.98" y="81.83" width="74.34" height="205.16" style="fill:none;stroke:#263238;stroke-linecap:round;stroke-linejoin:round"></rect><rect x="244.19" y="69.15" width="20.17" height="213.81" style="fill:#fff"></rect><path d="M320.55,372.67H300.38a.5.5,0,0,1-.5-.5V158.36a.5.5,0,0,1,.5-.5h20.17a.5.5,0,0,1,.5.5V372.17A.51.51,0,0,1,320.55,372.67Zm-19.67-1h19.17V158.86H300.88Z" transform="translate(-56.19 -89.21)" style="fill:#263238"></path><rect x="242.03" y="262.21" width="24.49" height="17.87" style="fill:#263238"></rect><path d="M322.71,369.78H298.22a.5.5,0,0,1-.5-.5V351.42a.5.5,0,0,1,.5-.5h24.49a.5.5,0,0,1,.5.5v17.86A.5.5,0,0,1,322.71,369.78Zm-24-1h23.49V351.92H298.72Z" transform="translate(-56.19 -89.21)" style="fill:#263238"></path><rect x="239.86" y="274.89" width="28.81" height="28.81" style="fill:#fff"></rect><path d="M324.87,393.41H296.05a.5.5,0,0,1-.5-.5V364.1a.5.5,0,0,1,.5-.5h28.82a.5.5,0,0,1,.5.5v28.81A.5.5,0,0,1,324.87,393.41Zm-28.32-1h27.82V364.6H296.55Z" transform="translate(-56.19 -89.21)" style="fill:#263238"></path><rect x="33.29" y="69.15" width="20.17" height="213.81" style="fill:#fff"></rect><path d="M109.65,372.67H89.48a.5.5,0,0,1-.5-.5V158.36a.5.5,0,0,1,.5-.5h20.17a.5.5,0,0,1,.5.5V372.17A.51.51,0,0,1,109.65,372.67Zm-19.67-1h19.17V158.86H90Z" transform="translate(-56.19 -89.21)" style="fill:#263238"></path><rect x="31.13" y="262.21" width="24.49" height="17.87" style="fill:#263238"></rect><path d="M111.81,369.78H87.32a.5.5,0,0,1-.5-.5V351.42a.5.5,0,0,1,.5-.5h24.49a.5.5,0,0,1,.5.5v17.86A.5.5,0,0,1,111.81,369.78Zm-24-1h23.49V351.92H87.82Z" transform="translate(-56.19 -89.21)" style="fill:#263238"></path><rect x="28.96" y="274.89" width="28.81" height="28.81" style="fill:#fff"></rect><path d="M114,393.41H85.15a.5.5,0,0,1-.5-.5V364.1a.5.5,0,0,1,.5-.5H114a.5.5,0,0,1,.5.5v28.81A.5.5,0,0,1,114,393.41Zm-28.32-1h27.82V364.6H85.65Z" transform="translate(-56.19 -89.21)" style="fill:#263238"></path><rect x="355.41" y="69.15" width="20.17" height="213.81" style="fill:#fff"></rect><path d="M431.77,372.67H411.6a.5.5,0,0,1-.5-.5V158.36a.5.5,0,0,1,.5-.5h20.17a.5.5,0,0,1,.5.5V372.17A.51.51,0,0,1,431.77,372.67Zm-19.67-1h19.17V158.86H412.1Z" transform="translate(-56.19 -89.21)" style="fill:#263238"></path><rect x="26.81" y="50.79" width="354" height="22" style="fill:#263238"></rect><path d="M437,162.5H83a.5.5,0,0,1-.5-.5V140a.5.5,0,0,1,.5-.5H437a.5.5,0,0,1,.5.5v22A.5.5,0,0,1,437,162.5Zm-353.5-1h353v-21H83.5Z" transform="translate(-56.19 -89.21)" style="fill:#263238"></path><rect x="353.25" y="262.21" width="24.49" height="17.87" style="fill:#263238"></rect><path d="M433.93,369.78H409.44a.5.5,0,0,1-.5-.5V351.42a.5.5,0,0,1,.5-.5h24.49a.5.5,0,0,1,.5.5v17.86A.5.5,0,0,1,433.93,369.78Zm-24-1h23.49V351.92H409.94Z" transform="translate(-56.19 -89.21)" style="fill:#263238"></path><rect x="351.09" y="274.89" width="28.81" height="28.81" style="fill:#fff"></rect><path d="M436.09,393.41H407.28a.5.5,0,0,1-.5-.5V364.1a.5.5,0,0,1,.5-.5h28.81a.5.5,0,0,1,.5.5v28.81A.5.5,0,0,1,436.09,393.41Zm-28.31-1h27.81V364.6H407.78Z" transform="translate(-56.19 -89.21)" style="fill:#263238"></path><path d="M443,393.38H66.13a.5.5,0,0,1-.5-.5.5.5,0,0,1,.5-.5H443a.5.5,0,0,1,.5.5A.51.51,0,0,1,443,393.38Z" transform="translate(-56.19 -89.21)" style="fill:#263238"></path></g><g id="freepik--character-2--inject-1--inject-52"><path d="M321.05,393.14a40.83,40.83,0,0,1-7.48,3.28c-4,1.25-6.07,2.28-3.78,3.18s7.61,1.07,9.53.69,8.43,1.2,9.68-.12,0-6.62,0-6.62S322.68,393.74,321.05,393.14Z" transform="translate(-56.19 -89.21)" style="fill:#fff"></path><path d="M326.69,401.21c-1,0-2.25-.12-3.7-.27a17,17,0,0,0-3.57-.16c-2,.39-7.43.22-9.82-.72-.32-.12-1.29-.51-1.26-1.3s1.36-1.66,5.08-2.82a40.8,40.8,0,0,0,7.38-3.23.48.48,0,0,1,.42,0c1.27.46,6,.43,7.73.38a.52.52,0,0,1,.5.39c.23.92,1.28,5.62-.09,7.07A3.63,3.63,0,0,1,326.69,401.21Zm-6.56-1.48c.8,0,1.82.1,3,.22,2,.2,4.94.51,5.54-.13s.4-3.67-.06-5.76c-1.44,0-5.77.09-7.46-.38a41.22,41.22,0,0,1-7.4,3.22c-3.68,1.15-4.29,1.71-4.37,1.9a2,2,0,0,0,.63.33c2.17.86,7.36,1,9.26.67A4.7,4.7,0,0,1,320.13,399.73Z" transform="translate(-56.19 -89.21)" style="fill:#263238"></path><path d="M329,400.17a1.8,1.8,0,0,0,.33-.6c-3.71,0-7.75-.36-12.59-.36a27.68,27.68,0,0,1-7.5-1c-.63.5-.54,1,.55,1.39,2.28.9,7.61,1.07,9.53.69S327.75,401.49,329,400.17Z" transform="translate(-56.19 -89.21)" style="fill:#fff"></path><path d="M326.69,401.21c-1,0-2.25-.12-3.7-.27a17,17,0,0,0-3.57-.16c-2,.39-7.43.22-9.82-.72-.49-.19-1.16-.52-1.25-1.13a1.22,1.22,0,0,1,.58-1.11.47.47,0,0,1,.44-.09,27.13,27.13,0,0,0,7.37,1c2.48,0,4.7.1,6.85.2s3.92.19,5.73.16a.44.44,0,0,1,.41.21.5.5,0,0,1,.07.46,2.11,2.11,0,0,1-.44.77h0A3.63,3.63,0,0,1,326.69,401.21Zm-4.64-1.37,1,.11a19,19,0,0,0,5.05.12c-1.47,0-3-.09-4.59-.16Zm6.95.33h0Zm-19.65-1.36a2.57,2.57,0,0,0,.62.32c2.17.86,7.36,1,9.26.67l.29-.05c-.89,0-1.82,0-2.78,0a28.25,28.25,0,0,1-7.37-.94Z" transform="translate(-56.19 -89.21)" style="fill:#263238"></path><path d="M320.85,314.12s-6.39,24.21-6.58,28.9,5.36,34.36,5.51,39.67a64.38,64.38,0,0,0,1.27,10.45,21.72,21.72,0,0,0,4.7.83,19.16,19.16,0,0,0,3.22-.42s.55-8.72,1.43-17.13S328,345.2,328,342.78s8.37-28.31,8.78-31.06-3.52-4.42-6.74-4.32S320.85,314.12,320.85,314.12Z" transform="translate(-56.19 -89.21)" style="fill:#263238"></path><path d="M325.63,394.47a22.53,22.53,0,0,1-4.71-.85.5.5,0,0,1-.36-.37,66,66,0,0,1-1.28-10.54c-.07-2.43-1.28-10-2.57-18.08-1.49-9.38-3-19.07-2.94-21.63.19-4.69,6.33-28,6.6-29a.43.43,0,0,1,.11-.21c.25-.27,6.12-6.78,9.51-6.88a8.69,8.69,0,0,1,6.41,2.26,3.18,3.18,0,0,1,.84,2.63c-.17,1.2-1.76,6.42-3.59,12.46-2.32,7.66-5.21,17.2-5.18,18.51,0,.59.24,2.47.54,5.08.89,7.79,2.56,22.27,1.89,28.63-.87,8.3-1.43,17-1.43,17.12a.51.51,0,0,1-.39.45,18.92,18.92,0,0,1-3.31.43Zm-4.15-1.73a19.82,19.82,0,0,0,4.26.73,17.45,17.45,0,0,0,2.75-.33c.12-1.77.64-9.44,1.42-16.78.65-6.24-1-20.66-1.9-28.4-.3-2.64-.52-4.54-.54-5.17,0-1.37,2.14-8.67,5.23-18.83,1.74-5.75,3.39-11.19,3.55-12.31a2.16,2.16,0,0,0-.59-1.82A7.7,7.7,0,0,0,330,307.9c-2.42.07-7,4.6-8.72,6.46-.48,1.83-6.35,24.27-6.53,28.68-.1,2.46,1.44,12.1,2.93,21.43,1.29,8.08,2.51,15.72,2.58,18.21A65.28,65.28,0,0,0,321.48,392.74Z" transform="translate(-56.19 -89.21)" style="fill:#263238"></path><path d="M318.63,310s1.27,21.41,3.18,31.52,5.05,29.37,5.56,36,1.86,19.63,1.86,19.63,3.72.37,4.53.35a10.59,10.59,0,0,0,3.36-.75c.48-.33,2.72-17.49,3.11-26.21s-3.62-30.06-3.5-31.51,5.95-22.76,7.31-26.18a20.31,20.31,0,0,0,1.47-4.88s2.15-3.62-5.81-5.64-16.45.15-19,2S318.63,310,318.63,310Z" transform="translate(-56.19 -89.21)" style="fill:#263238"></path><path d="M333.68,398c-1,0-4.35-.34-4.5-.36a.5.5,0,0,1-.45-.44c0-.13-1.35-13.11-1.86-19.64s-3.68-26-5.55-35.91-3.15-31-3.19-31.57c0-.31-.38-4.2,2.3-6.15s11.22-4.17,19.39-2.09c3.43.88,5.52,2.17,6.22,3.84a3,3,0,0,1-.05,2.43A22.09,22.09,0,0,1,344.5,313c-1.34,3.39-7.15,24.63-7.27,26,0,.39.36,3,.81,5.92,1.11,7.29,3,19.48,2.69,25.57-.29,6.36-2.42,26-3.32,26.6a10.82,10.82,0,0,1-3.64.84Zm-4-1.31c1.22.12,3.5.33,4.05.31a12,12,0,0,0,3-.6c.55-1.64,2.61-17.33,3-25.89.27-6-1.57-18.12-2.68-25.37a59.43,59.43,0,0,1-.81-6.15c.12-1.57,5.95-22.82,7.33-26.33a20,20,0,0,0,1.44-4.74.52.52,0,0,1,.07-.21,2,2,0,0,0,0-1.67c-.39-.93-1.67-2.25-5.52-3.23-7.87-2-16.14.16-18.56,1.92-2.27,1.66-1.89,5.22-1.89,5.25v0c0,.21,1.29,21.5,3.17,31.45s5.05,29.35,5.57,36C328.33,383.3,329.46,394.38,329.69,396.64Z" transform="translate(-56.19 -89.21)" style="fill:#263238"></path><path d="M329.27,243.07s-9,11.39-10.51,15.79-.35,32.42-1,38.73S316.41,311,316.41,311s3.41.87,6.32,1.27,5.67.64,5.67.64l3.41-4.46.31,5a32.51,32.51,0,0,0,9.8-1.42,71.4,71.4,0,0,0,9.25-3.65l-6.57-26.26s3.43-15.1,5-27.41S346,235.81,344,234.57s-6.92.69-9.89,3.68S329.27,243.07,329.27,243.07Z" transform="translate(-56.19 -89.21)" style="fill:#A100F5"></path><path d="M332.63,314h-.53a.51.51,0,0,1-.48-.47l-.22-3.66-2.61,3.39a.5.5,0,0,1-.44.2s-2.79-.25-5.69-.65-6.34-1.27-6.38-1.28a.49.49,0,0,1-.37-.53s.76-7.12,1.38-13.43c.25-2.48.22-8.52.18-14.91-.05-9.94-.11-21.2.82-23.93,1.49-4.43,10.21-15.48,10.59-15.94a.1.1,0,0,1,0,0s1.88-1.83,4.85-4.81,8.16-5.23,10.51-3.75c2.56,1.6,7.35,8.75,5.82,20.65-1.49,11.62-4.67,25.89-5,27.33l6.54,26.14a.49.49,0,0,1-.26.57,72.6,72.6,0,0,1-9.32,3.69A33.16,33.16,0,0,1,332.63,314Zm-.82-6,.15,0a.49.49,0,0,1,.35.44l.28,4.53a32.27,32.27,0,0,0,9.18-1.4,71,71,0,0,0,8.81-3.45l-6.47-25.86a.45.45,0,0,1,0-.23c0-.16,3.44-15.22,5-27.36,1.61-12.55-3.82-18.71-5.36-19.67s-6.46.78-9.27,3.6-4.61,4.58-4.84,4.8c-.48.6-9,11.45-10.41,15.62-.87,2.57-.81,14.23-.76,23.61,0,6.7.07,12.48-.18,15-.54,5.39-1.17,11.36-1.34,13,1,.24,3.59.84,5.85,1.15s4.6.54,5.37.62l3.25-4.24A.47.47,0,0,1,331.81,308Z" transform="translate(-56.19 -89.21)" style="fill:#263238"></path><path d="M323.53,212.11s-1.76,6-3,7.5-3.79,2.85-3.13,3.32l2.64,1.86s.13,10.16,1.26,10.12,7.06-1.33,7.06-1.33l.7,7.56,10.27-7.4-1-5.45s6.92-6,6.61-11.16-4.16-10-10.49-11.31S324.27,210,323.53,212.11Z" transform="translate(-56.19 -89.21)" style="fill:#fff"></path><path d="M329.05,241.64a.54.54,0,0,1-.21,0,.51.51,0,0,1-.29-.41l-.65-7c-1.51.32-5.63,1.19-6.6,1.22a.76.76,0,0,1-.53-.21c-1-1-1.2-7.71-1.24-10.15l-2.43-1.71a.75.75,0,0,1-.32-.57c0-.57.58-1,1.55-1.83a14.44,14.44,0,0,0,1.81-1.65c1-1.15,2.43-5.68,2.91-7.32v0c.91-2.61,5.09-7.9,11.51-6.61,6.17,1.23,10.54,6,10.89,11.77.3,4.87-5.36,10.28-6.57,11.37l.92,5.19a.5.5,0,0,1-.2.49l-10.27,7.39A.45.45,0,0,1,329.05,241.64Zm-.7-8.56a.52.52,0,0,1,.29.09.49.49,0,0,1,.2.36l.63,6.69,9.3-6.7-.91-5.15a.49.49,0,0,1,.16-.46c.07-.06,6.74-5.91,6.44-10.75-.32-5.35-4.37-9.71-10.08-10.85-6.33-1.27-9.84,4.44-10.38,5.95-.11.4-1.81,6.15-3.1,7.67a13.66,13.66,0,0,1-1.94,1.78,11.46,11.46,0,0,0-1.08.95l2.43,1.72a.53.53,0,0,1,.22.4c.05,4.08.4,8.8.88,9.62,1.14-.1,5.27-1,6.83-1.31Z" transform="translate(-56.19 -89.21)" style="fill:#263238"></path><path d="M328.49,210.67s-3.41,4.78-1.78,5.54,2.28.58,2.46,1.22-2,2.8-.55,3.24,2.36-1.85,3.14-2.84,3.26,1.2,3.34,3.94.33,6,3.89,6.18,8.59-9.45,9.49-11.89-3.69-10.54-8.45-13.14a8.06,8.06,0,0,0-8.69.57s1.21-2.78-1.68-2.21-4.07,4.15-4.07,4.15-2-3.32-5.15.31-1.44,5.85.5,6.28S328.49,210.67,328.49,210.67Z" transform="translate(-56.19 -89.21)" style="fill:#263238"></path><path d="M339.11,228.45H339c-4.17-.26-4.29-4.27-4.36-6.67a4.25,4.25,0,0,0-2.14-3.65c-.24-.08-.29,0-.31,0a9.56,9.56,0,0,0-.53.81c-.7,1.11-1.66,2.65-3.15,2.2a1.12,1.12,0,0,1-.78-.67c-.27-.66.19-1.46.59-2.17a3.47,3.47,0,0,0,.4-.81s-.05-.07-.61-.25a12.67,12.67,0,0,1-1.57-.59,1.22,1.22,0,0,1-.68-.82c-.29-1.12.71-3,1.49-4.3-1.83.52-5,1.29-6.47,1a3.26,3.26,0,0,1-2.47-2.09c-.33-1-.31-2.67,1.69-5,1.14-1.33,2.3-2,3.46-1.87a3.2,3.2,0,0,1,1.93.93c.55-1.16,1.84-3.24,4.12-3.69a2.13,2.13,0,0,1,2.19.48,1.72,1.72,0,0,1,.33,1.17,8.45,8.45,0,0,1,8.18,0c4.94,2.7,9.7,11,8.68,13.75C348.41,217.7,343.33,228.45,339.11,228.45Zm-6.84-11.36a1.51,1.51,0,0,1,.5.09c1.29.42,2.77,2.4,2.83,4.57.08,2.9.41,5.51,3.42,5.7h.09c3,0,7.83-8.65,8.9-11.56.77-2.1-3.63-10-8.22-12.54a7.59,7.59,0,0,0-8.13.53.5.5,0,0,1-.62,0,.51.51,0,0,1-.16-.6c.14-.32.35-1.08.1-1.39s-.6-.25-1.22-.13c-2.56.51-3.68,3.79-3.69,3.82a.52.52,0,0,1-.42.34.5.5,0,0,1-.48-.23,2.57,2.57,0,0,0-1.74-1.15c-.81-.07-1.69.45-2.61,1.52-1.32,1.54-1.86,3-1.5,4a2.24,2.24,0,0,0,1.73,1.43c1.49.33,5.76-.85,7.28-1.34a.51.51,0,0,1,.56.19.48.48,0,0,1,0,.58c-1,1.41-2.32,3.78-2.1,4.62,0,.11.07.15.13.17a11.74,11.74,0,0,0,1.44.55c.62.19,1.1.34,1.29,1,.12.43-.15.91-.5,1.51-.2.36-.62,1.1-.53,1.31,0,0,.05,0,.14.08.7.21,1.3-.64,2-1.77a9.73,9.73,0,0,1,.6-.89A1.1,1.1,0,0,1,332.27,217.09Z" transform="translate(-56.19 -89.21)" style="fill:#263238"></path><path d="M330.08,221s1.16-4.23,3.76-3.66,1.64,6.56-.25,8.07-3.1-1.36-3.1-1.36" transform="translate(-56.19 -89.21)" style="fill:#fff"></path><path d="M332.5,226.3a2,2,0,0,1-.45-.06c-1.26-.32-1.95-1.87-2-2.05a.5.5,0,0,1,.26-.65.51.51,0,0,1,.66.26c.15.36.68,1.3,1.35,1.47a1.11,1.11,0,0,0,1-.3c1.16-.92,2-4,1.53-5.83-.18-.79-.55-1.25-1.08-1.36-2.1-.47-3.16,3.26-3.17,3.3a.5.5,0,0,1-1-.27c.06-.19,1.33-4.67,4.36-4a2.53,2.53,0,0,1,1.83,2.11c.53,2.28-.4,5.67-1.88,6.84A2.24,2.24,0,0,1,332.5,226.3Z" transform="translate(-56.19 -89.21)" style="fill:#263238"></path><path d="M340,230.66s-11.23,7.58-12.3,9.39-1.28,6-1.28,6,10.71-8.86,13.41-10.39,3.33-1.87,3.33-1.87S341.48,230.29,340,230.66Z" transform="translate(-56.19 -89.21)" style="fill:#A100F5"></path><path d="M326.45,246.55a.54.54,0,0,1-.22-.05A.5.5,0,0,1,326,246c0-.18.22-4.35,1.35-6.24s11.3-8.76,12.45-9.55l.16-.07c1.75-.44,3.41,2.76,3.73,3.4a.5.5,0,0,1-.21.66s-.65.35-3.33,1.87-13.22,10.25-13.33,10.34A.54.54,0,0,1,326.45,246.55Zm13.78-15.42c-4.48,3-11.33,7.93-12.07,9.17a13.39,13.39,0,0,0-1.12,4.62c2.67-2.19,10.3-8.41,12.57-9.69l2.91-1.64C341.87,232.4,340.87,231.11,340.23,231.13Z" transform="translate(-56.19 -89.21)" style="fill:#263238"></path><path d="M331.74,250.41s2.2,14.78,2.63,18.31.8,5.46.8,5.46-3.18,12.52-5.78,17.43-6.84,14.39-7,15.2-.36,9.85-.32,11,2.46,1.54,3.43,1.51,2.6.73,3.23.23,2.21-1.68,1.23-2.13a4,4,0,0,0-1.63-.44,24.68,24.68,0,0,0-.48-5.47c-.53-1.59-1.58-4.47-1.58-4.47s14.29-19,16.3-21.92,2.9-16.54,3-19.12c.07-2.31.42-13.08.3-17.43" transform="translate(-56.19 -89.21)" style="fill:#A100F5"></path><path d="M328.11,320.2a7.31,7.31,0,0,1-1.4-.21,4.92,4.92,0,0,0-1.18-.19,7.17,7.17,0,0,1-2.24-.34c-1.38-.46-1.69-1.15-1.7-1.66,0-1.12.18-10.22.33-11.07s4.6-10.77,7-15.35,5.39-16,5.71-17.21c-.09-.47-.42-2.35-.79-5.39-.42-3.48-2.6-18.14-2.63-18.29a.5.5,0,0,1,1-.15c0,.15,2.21,14.82,2.63,18.33s.8,5.4.8,5.42a.54.54,0,0,1,0,.22c-.13.51-3.23,12.62-5.83,17.53s-6.78,14.28-6.93,15.06-.35,9.58-.31,10.88c0,.24.39.52,1,.72a6.22,6.22,0,0,0,1.89.3,6.87,6.87,0,0,1,1.43.21c.52.12,1.31.29,1.51.13l.11-.09c.8-.63,1.22-1.05,1.24-1.25a4.1,4.1,0,0,0-1.43-.34.44.44,0,0,1-.36-.15.51.51,0,0,1-.15-.35,24.86,24.86,0,0,0-.45-5.31c-.53-1.57-1.57-4.43-1.58-4.46a.5.5,0,0,1,.07-.47c.14-.19,14.3-19,16.28-21.9,1.83-2.69,2.8-15.48,2.91-18.86.1-3,.42-13.2.3-17.39a.5.5,0,0,1,.48-.52.52.52,0,0,1,.52.49c.12,4.22-.2,14.43-.3,17.46,0,.15-.75,15.95-3.08,19.38-1.9,2.8-14.48,19.51-16.15,21.73.27.74,1.06,2.92,1.49,4.23a21.25,21.25,0,0,1,.51,5.17,5.5,5.5,0,0,1,1.34.44.91.91,0,0,1,.59.75c.09.73-.71,1.43-1.61,2.14l-.11.08A1.47,1.47,0,0,1,328.11,320.2Z" transform="translate(-56.19 -89.21)" style="fill:#263238"></path><path d="M333.74,264.08c.28,2,.52,3.72.63,4.64.42,3.54.8,5.46.8,5.46s-3.18,12.52-5.78,17.43-6.84,14.39-7,15.2-.36,9.85-.32,11,2.46,1.54,3.43,1.51,2.6.73,3.23.23,2.21-1.68,1.23-2.13a4,4,0,0,0-1.63-.44,24.68,24.68,0,0,0-.48-5.47c-.53-1.59-1.58-4.47-1.58-4.47s14.29-19,16.3-21.92,2.9-16.54,3-19.12c0-.69.07-2.16.12-4C340.44,259.25,336,262,333.74,264.08Z" transform="translate(-56.19 -89.21)" style="fill:#fff"></path><path d="M328.11,320.2a7.31,7.31,0,0,1-1.4-.21,4.92,4.92,0,0,0-1.18-.19,7.17,7.17,0,0,1-2.24-.34c-1.38-.46-1.69-1.15-1.7-1.66,0-1.12.18-10.22.33-11.07s4.6-10.77,7-15.35,5.39-16,5.71-17.21c-.09-.47-.42-2.35-.79-5.39-.11-.92-.34-2.63-.63-4.63a.51.51,0,0,1,.16-.44c2.28-2.06,6.94-5.07,12.53-2.15a.5.5,0,0,1,.27.46c-.05,1.82-.1,3.28-.12,4,0,.15-.75,15.95-3.08,19.38-1.9,2.8-14.48,19.51-16.15,21.73.27.74,1.06,2.92,1.49,4.22a21.37,21.37,0,0,1,.51,5.18,5.5,5.5,0,0,1,1.34.44.91.91,0,0,1,.59.75c.09.73-.71,1.43-1.61,2.14l-.11.08A1.47,1.47,0,0,1,328.11,320.2Zm-2.54-1.4a6.93,6.93,0,0,1,1.36.21c.52.12,1.31.29,1.51.13l.11-.09c.8-.63,1.22-1.05,1.24-1.25a4.1,4.1,0,0,0-1.43-.34.44.44,0,0,1-.36-.15.51.51,0,0,1-.15-.35,24.86,24.86,0,0,0-.45-5.31c-.53-1.57-1.57-4.43-1.58-4.46a.5.5,0,0,1,.07-.47c.14-.19,14.3-19,16.28-21.9,1.83-2.69,2.8-15.48,2.91-18.86,0-.65.06-2,.11-3.65-4.77-2.33-8.81.13-10.92,2,.27,1.89.49,3.49.59,4.39.42,3.47.8,5.4.8,5.42a.54.54,0,0,1,0,.22c-.13.51-3.23,12.62-5.83,17.53s-6.78,14.28-6.93,15.06-.35,9.58-.31,10.88c0,.24.39.52,1,.72a6.22,6.22,0,0,0,1.89.3Z" transform="translate(-56.19 -89.21)" style="fill:#263238"></path><path d="M335.56,333a.5.5,0,0,1-.45-.29l-7.22-15.43a.5.5,0,0,1,.24-.67.49.49,0,0,1,.66.24L336,332.28a.51.51,0,0,1-.46.71Z" transform="translate(-56.19 -89.21)" style="fill:#263238"></path><polygon points="262.62 238.28 279.37 243.28 276.83 272.38 257.21 263.28 262.62 238.28" style="fill:#fff"></polygon><path d="M333,362.09a.52.52,0,0,1-.21,0l-19.62-9.11a.5.5,0,0,1-.27-.56l5.4-25a.49.49,0,0,1,.23-.33.51.51,0,0,1,.4-.05l16.76,5a.51.51,0,0,1,.35.52l-2.54,29.11a.5.5,0,0,1-.25.39A.51.51,0,0,1,333,362.09Zm-19-9.89,18.61,8.64,2.44-28-15.85-4.72Z" transform="translate(-56.19 -89.21)" style="fill:#263238"></path><polygon points="279.37 243.28 283.84 269.44 276.83 272.38 279.37 243.28" style="fill:#fff"></polygon><path d="M333,362.09a.5.5,0,0,1-.29-.09.52.52,0,0,1-.21-.45l2.54-29.1a.5.5,0,0,1,1,0l4.47,26.15a.51.51,0,0,1-.3.55l-7,2.95A.69.69,0,0,1,333,362.09Zm2.7-25.69-2.13,24.41,5.88-2.47Z" transform="translate(-56.19 -89.21)" style="fill:#263238"></path><polygon points="258.69 236.54 274.73 243.5 268.75 272.09 250.35 260.72 258.69 236.54" style="fill:#A100F5"></polygon><path d="M324.94,361.8a.5.5,0,0,1-.27-.07l-18.39-11.38a.5.5,0,0,1-.21-.59l8.34-24.17a.5.5,0,0,1,.27-.3.55.55,0,0,1,.4,0l16,7a.49.49,0,0,1,.29.56l-6,28.6a.5.5,0,0,1-.3.35A.43.43,0,0,1,324.94,361.8Zm-17.8-12.09,17.45,10.79,5.76-27.5-15.17-6.57Z" transform="translate(-56.19 -89.21)" style="fill:#263238"></path><polygon points="274.73 243.5 276.06 270 268.75 272.09 274.73 243.5" style="fill:#A100F5"></polygon><path d="M324.94,361.8a.47.47,0,0,1-.34-.13.49.49,0,0,1-.15-.47l6-28.59a.5.5,0,0,1,1,.07l1.33,26.51a.5.5,0,0,1-.36.5l-7.32,2.1Zm5.68-25.19-5,24,6.13-1.76Z" transform="translate(-56.19 -89.21)" style="fill:#263238"></path><path d="M322.06,328.87H322a.5.5,0,0,1-.44-.55l.89-8.22-7.25,6.05a.5.5,0,0,1-.64-.77l8.2-6.84a.52.52,0,0,1,.56-.06.5.5,0,0,1,.26.49l-1,9.46A.49.49,0,0,1,322.06,328.87Z" transform="translate(-56.19 -89.21)" style="fill:#263238"></path><path d="M330.92,333.21a.5.5,0,0,1-.49-.43l-2.3-15.1a.5.5,0,1,1,1-.15l2.3,15.1a.5.5,0,0,1-.42.57Z" transform="translate(-56.19 -89.21)" style="fill:#263238"></path><path d="M329.23,397.1s-6.77,5.51-9.31,6.88-5.4,3.06-4.57,3.84,12.26.13,15-.6,5.78-1,6.35-3.41a36.89,36.89,0,0,0,.44-7.11S331.36,398.16,329.23,397.1Z" transform="translate(-56.19 -89.21)" style="fill:#fff"></path><path d="M318.92,408.68c-2,0-3.54-.14-3.91-.5a.92.92,0,0,1-.3-.81c.12-.9,1.51-2,5-3.83,2.47-1.33,9.17-6.78,9.24-6.83a.48.48,0,0,1,.54-.06c1.6.81,6,0,7.54-.43a.51.51,0,0,1,.62.47,37.06,37.06,0,0,1-.45,7.24c-.55,2.33-3,2.9-5.35,3.45-.45.1-.91.21-1.36.33A70.66,70.66,0,0,1,318.92,408.68Zm10.39-11c-1.24,1-6.84,5.51-9.16,6.75-4.06,2.18-4.43,2.91-4.45,3.08.95.5,11.68,0,14.5-.76l1.39-.34c2.26-.52,4.2-1,4.61-2.7a32.62,32.62,0,0,0,.43-6.37C335.1,397.68,331.3,398.4,329.31,397.67Z" transform="translate(-56.19 -89.21)" style="fill:#263238"></path><path d="M327.05,406.51a43.27,43.27,0,0,1-11.14,0c-.62.54-.9,1-.56,1.33.83.78,12.26.13,15-.6s5.78-1,6.35-3.41c0-.15.07-.31.1-.48A28.36,28.36,0,0,1,327.05,406.51Z" transform="translate(-56.19 -89.21)" style="fill:#fff"></path><path d="M318.92,408.68c-2,0-3.54-.14-3.91-.5a.86.86,0,0,1-.3-.69,2,2,0,0,1,.87-1.37.49.49,0,0,1,.4-.12,43.56,43.56,0,0,0,11,0,27.35,27.35,0,0,0,9.56-3.12.51.51,0,0,1,.53,0,.49.49,0,0,1,.2.49c0,.18-.07.35-.11.51-.55,2.33-3,2.9-5.35,3.45-.45.1-.91.21-1.36.33A70.66,70.66,0,0,1,318.92,408.68ZM316.07,407c-.35.34-.36.48-.37.49.95.49,11.68,0,14.5-.77l1.39-.34c2-.45,3.7-.86,4.38-2.1A27.25,27.25,0,0,1,327.1,407h0A44.91,44.91,0,0,1,316.07,407Zm11-.51h0Z" transform="translate(-56.19 -89.21)" style="fill:#263238"></path></g><g id="freepik--character-1--inject-1--inject-52"><path d="M238.79,254.41s-3.17,1.86-3.77,3.49-.22,3.56.58,3.21.92-1.64.92-1.64l.94-1s-.57,2.43.38,2.08,1.4-1.81,1.4-1.81,3.68-1.24,3.64-2.36S240.87,253.86,238.79,254.41Z" transform="translate(-56.19 -89.21)" style="fill:#fff"></path><path d="M235.42,261.66a.88.88,0,0,1-.63-.27c-.64-.6-.74-2.27-.24-3.66.65-1.75,3.65-3.55,4-3.75a.52.52,0,0,1,.13-.06,4.3,4.3,0,0,1,3.63.71,2.39,2.39,0,0,1,1.08,1.74c0,1.27-2.44,2.32-3.75,2.77A3.21,3.21,0,0,1,238,261a.8.8,0,0,1-.87-.13,1.05,1.05,0,0,1-.31-.59,2,2,0,0,1-1,1.26A.92.92,0,0,1,235.42,261.66Zm3.57-6.78c-.89.53-3.07,2-3.5,3.2a3.23,3.23,0,0,0,0,2.59c.35-.2.52-1,.54-1.25a.56.56,0,0,1,.14-.29l.94-1a.49.49,0,0,1,.6-.1.5.5,0,0,1,.25.55,4.79,4.79,0,0,0-.15,1.44,2.7,2.7,0,0,0,1-1.42.5.5,0,0,1,.32-.33c1.84-.62,3.31-1.54,3.3-1.88a1.48,1.48,0,0,0-.68-1A3.28,3.28,0,0,0,239,254.88Z" transform="translate(-56.19 -89.21)" style="fill:#263238"></path><path d="M278.84,228.24s-1.62,5.37-3.35,6.88-1.24,1.64.4,2.56c0,0,.64,5.63,1,7.72a2.79,2.79,0,0,0,2.49,2.67c1.14.28,5.57-2.59,5.57-2.59s5.61-1.29,8.87-5.58,1.58-12.3-1.75-16.07S280.92,222.38,278.84,228.24Z" transform="translate(-56.19 -89.21)" style="fill:#fff"></path><path d="M279.56,248.58a1.12,1.12,0,0,1-.27,0,3.27,3.27,0,0,1-2.87-3.06c-.33-1.85-.87-6.36-1-7.49h0c-.87-.48-1.44-.8-1.5-1.41s.39-1.1,1.25-1.84c1.33-1.16,2.76-5.19,3.2-6.64v0a10.19,10.19,0,0,1,7.6-6.42,6.68,6.68,0,0,1,6.5,1.84c3.6,4.07,5.16,12.26,1.78,16.71a17.58,17.58,0,0,1-9.07,5.74C284.1,246.65,281,248.58,279.56,248.58Zm-.25-20.18c-.11.36-1.7,5.54-3.49,7.09-.8.7-.91.93-.92,1a4.89,4.89,0,0,0,1,.63l.23.13a.51.51,0,0,1,.25.38c0,.05.65,5.63,1,7.68.33,1.81,1.09,2,2.13,2.27.55.14,3.12-1.19,5.17-2.52a.44.44,0,0,1,.16-.06c.05,0,5.48-1.31,8.59-5.4s1.54-11.73-1.74-15.44a5.74,5.74,0,0,0-5.56-1.52A9.18,9.18,0,0,0,279.31,228.4Z" transform="translate(-56.19 -89.21)" style="fill:#263238"></path><path d="M285.93,255.94s-11.13,0-14.68-.06-8.42-1.2-13.58-1.38-9.38-.69-14.07-1-11-.49-10.8.15,1.63.6,3.25.72a25.23,25.23,0,0,1,5.21,1.62l0,.8a4.65,4.65,0,0,1-2,2c-1.43.69-2.21,1.68-1.4,1.81s3.52-1.07,5-1.43,4.12-2.54,4.12-2.54,13.53,4.77,16.43,4.85,6.46.13,9.69.52l6.32.78Z" transform="translate(-56.19 -89.21)" style="fill:#fff"></path><path d="M279.36,263.24h-.07s-3.07-.39-6.31-.78c-2.92-.36-6.06-.43-8.84-.5l-.8,0c-2.76-.08-14.37-4.1-16.32-4.79a15.2,15.2,0,0,1-4.1,2.46c-.51.13-1.19.38-1.91.63a8.7,8.7,0,0,1-3.25.82.82.82,0,0,1-.74-.67c-.11-.78,1-1.61,2-2.09a4.25,4.25,0,0,0,1.75-1.66v-.35a21.83,21.83,0,0,0-4.76-1.46l-.77-.05c-1.49-.08-2.67-.15-2.92-1a.69.69,0,0,1,.12-.54c.79-1,9.47-.38,11.2-.25,1.56.12,3.07.25,4.58.39,3,.27,6,.54,9.46.65,2.75.1,5.45.47,7.84.79a49.94,49.94,0,0,0,5.74.59c3.51.06,14.55.06,14.67.06a.5.5,0,0,1,.36.85l-6.57,6.8A.51.51,0,0,1,279.36,263.24Zm-32.44-7.15a.51.51,0,0,1,.17,0c.13.05,13.48,4.74,16.28,4.82l.8,0c2.8.07,6,.15,8.93.5l6.07.76,5.58-5.78c-3,0-10.68,0-13.5-.06a49.3,49.3,0,0,1-5.87-.6,76.49,76.49,0,0,0-7.73-.78c-3.46-.11-6.54-.39-9.52-.65-1.5-.14-3-.27-4.56-.39a79.9,79.9,0,0,0-9.2-.24l.93.06.78.05a25.73,25.73,0,0,1,5.37,1.66.5.5,0,0,1,.31.44l0,.81a.48.48,0,0,1-.05.23,5.08,5.08,0,0,1-2.27,2.23,4.53,4.53,0,0,0-1.26.85,18.56,18.56,0,0,0,2.48-.75c.74-.27,1.44-.51,2-.65a15.84,15.84,0,0,0,3.93-2.45A.51.51,0,0,1,246.92,256.09Z" transform="translate(-56.19 -89.21)" style="fill:#263238"></path><path d="M285.27,361.51s-2.93,23-3.9,28.53-3.12,10.13-3.85,10.91S270.6,404.18,268,405s-5.25,1.85-3.14,2.74,5,1,8,1.09,6.26.39,8.35.33,2.76-2.54,2.72-4.06a51.32,51.32,0,0,1,2.67-12.39c1.58-4.22,5.76-10.59,7.29-16.32s.74-20.29.72-21.05S290.18,347.72,285.27,361.51Z" transform="translate(-56.19 -89.21)" style="fill:#fff"></path><path d="M280.55,409.69c-1.22,0-2.72-.09-4.29-.17-1.13-.06-2.31-.13-3.46-.17-2.92-.09-5.93-.19-8.16-1.13-.28-.12-1.11-.47-1.08-1.2s1.16-1.5,4.26-2.48,8.76-3.32,9.33-3.93,2.76-5.21,3.73-10.66,3.87-28.28,3.9-28.51a.36.36,0,0,1,0-.1c2.23-6.27,4.66-9.26,7.27-8.83a4.07,4.07,0,0,1,3,2.84v.4c.26,5.76.51,16.13-.74,20.79a57.5,57.5,0,0,1-4.6,10.64A61.81,61.81,0,0,0,287,392.9a51,51,0,0,0-2.64,12.21c.05,1.73-.78,4.5-3.21,4.57Zm-16-2.63a3.14,3.14,0,0,0,.46.24c2.05.86,5,1,7.81,1.05,1.15,0,2.34.11,3.48.17,1.83.1,3.56.2,4.83.16,1.71-.05,2.28-2.2,2.24-3.54a51.18,51.18,0,0,1,2.7-12.59,63,63,0,0,1,2.76-5.82,56.53,56.53,0,0,0,4.52-10.45c.9-3.36,1.16-10.64.72-20.49l0-.41a3.22,3.22,0,0,0-2.31-1.9c-1.13-.08-3.4.87-6,8.14-.16,1.25-3,23.16-3.9,28.51-1,5.53-3.14,10.27-4,11.16s-7.63,3.53-9.76,4.2C265.23,406.41,264.67,406.88,264.57,407.06Z" transform="translate(-56.19 -89.21)" style="fill:#263238"></path><path d="M294.59,254.24a13.28,13.28,0,0,0-9.5.43c-4.77,2.24-12.82,13.93-12.75,16.5s2.26,5.42,2.8,7.5.86,24,1,35.46,4.53,27.93,5.69,34.83,7.19,30.92,8.18,37.18a172.07,172.07,0,0,1,1.84,18.65c-.11,1.94-2.93,4.77-6.26,6.64s-7.51,2.64-6.82,4.23,7.32,2,9.87,1,10.23-3.2,10.86-3.86-.32-5.32-.86-7.4-1.83-18.33-1-22.23.34-15.81-.59-20.14-2.46-12.51-2.46-12.51a131.23,131.23,0,0,1,3.83-12.69c1.95-5.06,7.55-12.15,7.29-20.86s-3.43-12.8-6.15-17.56a26.29,26.29,0,0,1-2.32-18.64c1.76-6.18,8.27-15.24,5.87-20S294.59,254.24,294.59,254.24Z" transform="translate(-56.19 -89.21)" style="fill:#fff"></path><path d="M284.75,417.71c-2.82,0-5.86-.6-6.4-1.85a1.29,1.29,0,0,1,0-1c.38-.92,1.75-1.49,3.66-2.28a30.88,30.88,0,0,0,3.39-1.57c3.28-1.84,5.92-4.57,6-6.22a172.81,172.81,0,0,0-1.83-18.55c-.5-3.17-2.34-11.07-4.11-18.72-1.72-7.4-3.49-15.05-4.07-18.46-.31-1.84-.85-4.38-1.48-7.31-1.72-8.09-4.09-19.17-4.22-27.6v-.76c-.17-11.39-.48-32.59-1-34.57a15.89,15.89,0,0,0-1.12-2.62,12.94,12.94,0,0,1-1.7-5c-.08-2.81,8.12-14.66,13-17a13.63,13.63,0,0,1,9.87-.46c.46.14,6.44,2,8.87,6.78,1.71,3.41-.71,8.6-3.06,13.63a48.19,48.19,0,0,0-2.78,6.74,25.68,25.68,0,0,0,2.27,18.25c.36.63.72,1.24,1.08,1.85,2.42,4.06,4.92,8.26,5.14,15.95.19,6.42-2.74,12-5.09,16.43a46.5,46.5,0,0,0-2.24,4.62c-1.79,4.65-3.54,11.59-3.78,12.53.19,1,1.58,8.38,2.44,12.39,1,4.48,1.46,16.39.59,20.35-.81,3.68.41,19.89,1,22,.18.69,1.74,6.8.74,7.86-.41.44-2.21,1.05-6.21,2.34-1.87.6-3.8,1.23-4.82,1.65A12.16,12.16,0,0,1,284.75,417.71Zm5.54-163.65a11.68,11.68,0,0,0-5,1.07c-4.77,2.23-12.52,13.89-12.46,16a12.19,12.19,0,0,0,1.59,4.58,16.08,16.08,0,0,1,1.2,2.81c.5,1.93.8,19,1,34.8v.77c.13,8.33,2.48,19.35,4.2,27.4.63,3,1.17,5.49,1.49,7.36.57,3.37,2.34,11,4.06,18.4,1.77,7.66,3.61,15.58,4.12,18.78,1,6.11,1.95,16.72,1.83,18.76-.12,2.4-3.46,5.33-6.51,7a30.9,30.9,0,0,1-3.5,1.62c-1.42.59-2.89,1.2-3.11,1.74a.29.29,0,0,0,0,.24c.49,1.11,6.63,1.8,9.22.74,1.06-.43,2.92-1,4.9-1.67a45.5,45.5,0,0,0,5.79-2.08c.28-.48-.2-3.91-1-6.92-.57-2.19-1.83-18.56-1-22.46s.35-15.6-.59-19.93-2.45-12.44-2.46-12.53a.5.5,0,0,1,0-.21A129,129,0,0,1,298,337.65a46.53,46.53,0,0,1,2.29-4.73c2.29-4.35,5.15-9.78,5-15.93-.21-7.43-2.64-11.52-5-15.47-.37-.62-.74-1.23-1.1-1.86a26.77,26.77,0,0,1-2.36-19,50.42,50.42,0,0,1,2.83-6.89c2.25-4.81,4.57-9.78,3.07-12.75-2.26-4.52-8.2-6.26-8.26-6.27l0,0A13.19,13.19,0,0,0,290.29,254.06Z" transform="translate(-56.19 -89.21)" style="fill:#263238"></path><path d="M276.17,314.13c.18,11.44,4.53,27.93,5.69,34.83.24,1.38.67,3.45,1.21,5.92a11,11,0,0,0,12.16-1.29l-.58-3.07a131.23,131.23,0,0,1,3.83-12.69c1.95-5.06,7.55-12.15,7.29-20.86s-3.43-12.8-6.15-17.56a26.29,26.29,0,0,1-2.32-18.64c1.76-6.18,8.27-15.24,5.87-20s-8.58-6.52-8.58-6.52a13.28,13.28,0,0,0-9.5.43c-4.77,2.24-12.82,13.93-12.75,16.5s2.26,5.42,2.8,7.5S276,302.68,276.17,314.13Z" transform="translate(-56.19 -89.21)" style="fill:#A100F5"></path><path d="M288.33,356.65a12.71,12.71,0,0,1-5.48-1.32.52.52,0,0,1-.27-.34c-.59-2.72-1-4.67-1.21-5.95-.31-1.84-.85-4.38-1.48-7.31-1.72-8.09-4.09-19.17-4.22-27.6h0v-.76c-.17-11.39-.48-32.59-1-34.57a15.89,15.89,0,0,0-1.12-2.62,12.94,12.94,0,0,1-1.7-5c-.08-2.81,8.12-14.66,13-17a13.62,13.62,0,0,1,9.89-.45c.22.06,6.38,1.86,8.85,6.77,1.71,3.41-.71,8.6-3.06,13.63a48.19,48.19,0,0,0-2.78,6.74,25.68,25.68,0,0,0,2.27,18.25c.36.63.72,1.24,1.08,1.85,2.42,4.06,4.92,8.26,5.14,15.95.19,6.42-2.74,12-5.09,16.43a46.5,46.5,0,0,0-2.24,4.62c-1.79,4.65-3.54,11.59-3.78,12.53.07.34.28,1.46.56,3a.47.47,0,0,1-.18.48A11.3,11.3,0,0,1,288.33,356.65Zm-4.82-2.11a10.47,10.47,0,0,0,11.17-1.16c-.31-1.64-.52-2.77-.52-2.77a.5.5,0,0,1,0-.21A129,129,0,0,1,298,337.65a46.53,46.53,0,0,1,2.29-4.73c2.29-4.35,5.15-9.78,5-15.93-.21-7.43-2.64-11.52-5-15.47-.37-.62-.74-1.23-1.1-1.86a26.77,26.77,0,0,1-2.36-19,50.42,50.42,0,0,1,2.83-6.89c2.25-4.81,4.57-9.78,3.07-12.75-2.26-4.52-8.2-6.26-8.26-6.27a12.88,12.88,0,0,0-9.16.41c-4.77,2.23-12.52,13.89-12.46,16a12.19,12.19,0,0,0,1.59,4.58,16.08,16.08,0,0,1,1.2,2.81c.5,1.93.8,19,1,34.8v.77c.13,8.33,2.48,19.35,4.2,27.4.63,3,1.17,5.49,1.49,7.36C282.57,350.1,282.94,352,283.51,354.54Z" transform="translate(-56.19 -89.21)" style="fill:#263238"></path><path d="M273.53,223.08s1.89,4.13,3.46,8.12,5,5.5,4.34,10.68-1.37,8.27,1.48,12.05,8.23,5.57,8.5,9.27-3.34,7.2-.63,11.63,9,5.55,16.75-.64-5.06-29.7-5.63-38.23-.43-15-7.94-18.15S272.43,218.59,273.53,223.08Z" transform="translate(-56.19 -89.21)" style="fill:#263238"></path><path d="M297.38,279a9,9,0,0,1-1.63-.14,7.87,7.87,0,0,1-5.5-3.77c-1.82-3-1-5.6-.21-7.92a10.67,10.67,0,0,0,.77-3.93c-.15-2-2-3.41-4.13-5.05a21.86,21.86,0,0,1-4.27-3.95c-2.73-3.64-2.34-6.63-1.74-11.16l.16-1.26c.41-3.17-.79-4.84-2.17-6.78a16.88,16.88,0,0,1-2.14-3.66c-1.54-3.92-3.43-8-3.45-8.1l0-.08c-.2-.81-.1-2,1.46-3.38,3.71-3.16,13.66-5,19.55-2.47,7.28,3.07,7.66,9.16,8.14,16.86l.11,1.72c.18,2.73,1.71,7.2,3.32,11.94,3.56,10.46,7.59,22.32,2.12,26.71C303.39,278.07,299.88,279,297.38,279ZM274,222.91c.21.47,2,4.38,3.45,8.11a15.76,15.76,0,0,0,2,3.44c1.44,2,2.8,3.93,2.35,7.48l-.17,1.27c-.58,4.44-.94,7.12,1.55,10.42a20.89,20.89,0,0,0,4.08,3.77c2.23,1.71,4.34,3.33,4.51,5.77a11.36,11.36,0,0,1-.81,4.3c-.75,2.33-1.47,4.52.11,7.1a6.93,6.93,0,0,0,4.83,3.31c3.23.56,7.2-.89,11.19-4.08,4.92-3.95.83-16-2.45-25.61-1.7-5-3.17-9.33-3.37-12.19l-.11-1.73c-.47-7.64-.82-13.17-7.53-16-5.59-2.36-15-.68-18.51,2.31A2.48,2.48,0,0,0,274,222.91Z" transform="translate(-56.19 -89.21)" style="fill:#263238"></path><path d="M294.26,272.66a.25.25,0,0,1-.25-.2.25.25,0,0,1,.2-.29c3-.56,5.9-5.66,5.48-12.94-.32-5.68-5.89-10.79-11.78-16.21-1.32-1.21-2.69-2.47-4-3.72-6.9-6.71-6-18.15-6-18.27a.24.24,0,0,1,.27-.23.26.26,0,0,1,.23.28c0,.11-.92,11.32,5.81,17.86,1.29,1.25,2.65,2.5,4,3.71,6,5.49,11.6,10.67,11.94,16.55.43,7.55-2.72,12.86-5.89,13.46Z" transform="translate(-56.19 -89.21)" style="fill:#fff"></path><path d="M306.64,261.29a.25.25,0,0,1-.25-.23c-.46-7.7-4.95-11-9.69-14.56-3.24-2.4-6.59-4.89-8.75-8.89a27.83,27.83,0,0,1-3.11-15.77.24.24,0,0,1,.27-.23.25.25,0,0,1,.22.27,27.43,27.43,0,0,0,3.06,15.5c2.11,3.9,5.41,6.35,8.61,8.72,4.84,3.6,9.41,7,9.89,14.93a.25.25,0,0,1-.23.26Z" transform="translate(-56.19 -89.21)" style="fill:#fff"></path><path d="M285.37,219.93h0a.25.25,0,0,1-.21-.29,16.81,16.81,0,0,1,.37-1.7.25.25,0,1,1,.48.14,15,15,0,0,0-.35,1.65A.25.25,0,0,1,285.37,219.93Z" transform="translate(-56.19 -89.21)" style="fill:#fff"></path><path d="M287.33,254.13,300.73,265l-1.24,2.73L286.05,255S285.13,254.25,287.33,254.13Z" transform="translate(-56.19 -89.21)" style="fill:#fff"></path><path d="M299.49,268.18a.47.47,0,0,1-.34-.13l-13.44-12.69a.9.9,0,0,1-.32-.93c.2-.62,1.08-.76,1.91-.8a.45.45,0,0,1,.35.11l13.4,10.82a.51.51,0,0,1,.14.59l-1.25,2.74a.47.47,0,0,1-.35.28Zm-13-13.44,12.81,12.1.8-1.75-12.95-10.45A3.06,3.06,0,0,0,286.51,254.74Z" transform="translate(-56.19 -89.21)" style="fill:#263238"></path><polygon points="227.37 188.43 235.83 198.38 234.84 200.37 227.37 188.43" style="fill:#fff"></polygon><path d="M291,290.08a.51.51,0,0,1-.43-.23l-7.46-12a.48.48,0,0,1,.13-.66.5.5,0,0,1,.67.07l8.46,10a.5.5,0,0,1,.07.55l-1,2a.48.48,0,0,1-.42.27Zm-3.42-6.91,3.37,5.39.45-.89Z" transform="translate(-56.19 -89.21)" style="fill:#263238"></path><path d="M299.05,263.3s-4.13,13.18-6.25,17.92-4.42,9,.35,12.09,9.88,1.49,13.65-1.85,6.37-19.7,4.93-24.66S302.37,255.62,299.05,263.3Z" transform="translate(-56.19 -89.21)" style="fill:#fff"></path><path d="M298.56,295.45a10.32,10.32,0,0,1-5.68-1.72c-4.86-3.15-2.94-7.41-.9-11.91l.36-.8c2.08-4.66,6.19-17.74,6.23-17.87l0,0c1.48-3.41,3.7-4,5.32-3.9,3.58.23,7.34,4.13,8.3,7.46,1.42,4.91-1.06,21.62-5.07,25.18A13.09,13.09,0,0,1,298.56,295.45Zm1-32c-.26.83-4.19,13.3-6.27,18l-.36.8c-2,4.46-3.61,8,.53,10.66,5.74,3.71,11,0,13.05-1.8,3.49-3.09,6.24-19.1,4.78-24.15-.85-2.95-4.27-6.54-7.4-6.74C302,260.09,300.52,261.18,299.52,263.47Z" transform="translate(-56.19 -89.21)" style="fill:#263238"></path><path d="M310.87,264.73s-4.88-1.15-7.2,2.31-7.24,17-7.94,20.87.37,6.93,3.75,6.83" transform="translate(-56.19 -89.21)" style="fill:#fff"></path><path d="M299.32,295.24a3.92,3.92,0,0,1-3.11-1.3c-1.1-1.28-1.44-3.45-1-6.12.68-3.79,5.59-17.44,8-21.06s7.51-2.57,7.72-2.52a.5.5,0,0,1,.37.6.51.51,0,0,1-.6.38s-4.57-1-6.66,2.09c-2.32,3.46-7.22,17.05-7.86,20.69-.43,2.36-.16,4.24.74,5.28a3,3,0,0,0,2.5,1,.51.51,0,0,1,.51.48.5.5,0,0,1-.48.52Z" transform="translate(-56.19 -89.21)" style="fill:#263238"></path><path d="M308.35,261.58a4.38,4.38,0,0,0-5.59,1.61c-2.33,3.3-5.18,10.64-5.48,11.45s.85,1.43,1.47.44,3.1-9.93,5.94-11.78,6,.63,6,.63A9,9,0,0,0,308.35,261.58Z" transform="translate(-56.19 -89.21)" style="fill:#fff"></path><path d="M298,276.09a1.27,1.27,0,0,1-.55-.13,1.18,1.18,0,0,1-.59-1.49c0-.08,3-8,5.54-11.57a4.9,4.9,0,0,1,6.22-1.77h0a9.43,9.43,0,0,1,2.52,2.51.49.49,0,0,1-.07.65.5.5,0,0,1-.65,0c-.12-.09-2.9-2.24-5.4-.6-2,1.28-3.9,6.6-4.93,9.45a16.36,16.36,0,0,1-.87,2.18A1.44,1.44,0,0,1,298,276.09Zm8.46-14.44a3.89,3.89,0,0,0-3.25,1.83c-2.42,3.44-5.38,11.26-5.41,11.33a.2.2,0,0,0,.09.26c.12.05.31,0,.48-.25a19.52,19.52,0,0,0,.78-2c1.14-3.17,3.07-8.48,5.32-9.95a4.89,4.89,0,0,1,4.18-.54,2,2,0,0,0-.46-.31h0A4.17,4.17,0,0,0,306.41,261.65Z" transform="translate(-56.19 -89.21)" style="fill:#263238"></path><path d="M284,403.94c-2.27.92-5.71,2.15-9,2s-4.43-1.08-4.8-1.72c-.86.32-1.64.6-2.24.79-2.63.83-5.25,1.85-3.14,2.74s5,1,8,1.09,6.26.39,8.35.33,2.76-2.54,2.72-4.06A8.59,8.59,0,0,1,284,403.94Z" transform="translate(-56.19 -89.21)" style="fill:#263238"></path><path d="M280.55,409.69c-1.22,0-2.72-.09-4.29-.17-1.13-.06-2.31-.13-3.46-.17-2.92-.09-5.93-.19-8.16-1.13-.28-.12-1.11-.47-1.08-1.2s1.16-1.5,4.26-2.48c.59-.19,1.37-.46,2.21-.77a.5.5,0,0,1,.61.21c.23.39,1.12,1.32,4.39,1.47a22.28,22.28,0,0,0,8.75-2,.5.5,0,0,1,.68.52,9.43,9.43,0,0,0-.07,1.12c.05,1.73-.78,4.5-3.21,4.57Zm-16-2.63a3.14,3.14,0,0,0,.46.24c2.05.86,5,1,7.81,1.05,1.15,0,2.34.11,3.48.17,1.83.1,3.56.2,4.83.16,1.71-.05,2.28-2.2,2.24-3.54,0-.12,0-.27,0-.44a21.59,21.59,0,0,1-8.41,1.75c-3-.14-4.34-.89-5-1.62-.73.27-1.39.5-1.91.66C265.23,406.41,264.67,406.88,264.57,407.06Z" transform="translate(-56.19 -89.21)" style="fill:#263238"></path><path d="M288.67,416.66c2.55-1,10.23-3.2,10.86-3.86.34-.37.21-2-.07-3.67-3.53,2.2-8.81,4.13-11.73,4.22s-3.47-.66-3.62-1.16c-2.95,1.35-5.89,2.11-5.31,3.47C279.5,417.25,286.12,417.7,288.67,416.66Z" transform="translate(-56.19 -89.21)" style="fill:#263238"></path><path d="M284.75,417.71c-2.82,0-5.86-.6-6.4-1.85a1.29,1.29,0,0,1,0-1c.38-.92,1.75-1.49,3.66-2.28.61-.26,1.27-.53,1.92-.83a.53.53,0,0,1,.41,0,.49.49,0,0,1,.27.31c.13.43,1,.87,3.13.8,2.82-.08,8-1.93,11.48-4.14a.5.5,0,0,1,.76.35c.5,3,.25,3.76-.06,4.09s-2.21,1.05-6.21,2.34c-1.87.6-3.8,1.23-4.82,1.65h0A12.16,12.16,0,0,1,284.75,417.71Zm-.86-4.88-1.53.65c-1.42.59-2.89,1.2-3.11,1.74a.29.29,0,0,0,0,.24c.49,1.11,6.63,1.8,9.22.74h0c1.06-.43,2.92-1,4.9-1.67a45.5,45.5,0,0,0,5.79-2.08h0a6,6,0,0,0-.09-2.51c-3.61,2.11-8.54,3.82-11.34,3.9C285.75,413.9,284.46,413.56,283.89,412.83Zm4.78,3.83h0Z" transform="translate(-56.19 -89.21)" style="fill:#263238"></path><path d="M291.28,262.24s-.34-6.12-3.95-8.11-8.42,4.27-7.9,11.19,0,28.87-.39,30.82-3,8.15-7.56,17.48-4.21,10.28-4.62,12.87c-.19,1.16-1,9.55-1,10.84s2.32,2,3.93,2.14a2.6,2.6,0,0,0,2.69-2c0-.65-1.47-.44-1.47-.44a15.33,15.33,0,0,0,.22-3.72c-.08-2.58-1.31-6.25-1.35-7.54s15.78-23.2,16.65-26.45.81-11,1.11-11.81,1.92-17.15,2.37-18.13S290.86,264.67,291.28,262.24Z" transform="translate(-56.19 -89.21)" style="fill:#fff"></path><path d="M270,340h-.21c-1.74-.12-4.35-.93-4.4-2.63,0-1.39.81-9.86,1-10.93.05-.32.09-.61.13-.9.27-2.08.51-3.88,4.54-12.11,4.64-9.47,7.12-15.55,7.52-17.37s.89-24,.38-30.67c-.39-5.19,2.09-9.73,4.63-11.36a3.8,3.8,0,0,1,4-.31c3.81,2.1,4.19,8.26,4.21,8.52a.41.41,0,0,1,0,.11c-.13.77-.26,1.68-.39,2.58a24.3,24.3,0,0,1-.89,4.68c-.24.58-.91,6.38-1.4,10.61-.58,5-.83,7.11-1,7.48a26.94,26.94,0,0,0-.22,3.1,51.74,51.74,0,0,1-.88,8.67c-.5,1.85-5.26,8.94-9.86,15.78-3.1,4.62-6.62,9.86-6.77,10.58a17.55,17.55,0,0,0,.48,2.42,27.88,27.88,0,0,1,.87,5.07,20.86,20.86,0,0,1-.12,3.19,1.84,1.84,0,0,1,1.06.32.88.88,0,0,1,.31.64,2.48,2.48,0,0,1-.85,1.64A3.13,3.13,0,0,1,270,340Zm15.91-85.73a3.36,3.36,0,0,0-1.8.6c-2.29,1.47-4.53,5.63-4.17,10.43.53,6.94,0,29-.4,31-.51,2.29-3.49,9.19-7.6,17.59-4,8.08-4.19,9.81-4.45,11.8,0,.3-.08.6-.13.93-.18,1.14-1,9.48-1,10.74,0,.84,1.85,1.55,3.47,1.66a2.1,2.1,0,0,0,1.61-.62,1.83,1.83,0,0,0,.53-.81,2.47,2.47,0,0,0-.89,0,.5.5,0,0,1-.55-.62,15.4,15.4,0,0,0,.2-3.58,27.51,27.51,0,0,0-.84-4.86,16.42,16.42,0,0,1-.51-2.68c0-.65,1.46-2.95,6.94-11.1,4.13-6.15,9.27-13.8,9.73-15.49a50.81,50.81,0,0,0,.84-8.46,17.88,17.88,0,0,1,.28-3.39c.12-.38.54-4,.91-7.25.84-7.26,1.23-10.38,1.48-10.92a26.46,26.46,0,0,0,.81-4.4c.13-.89.26-1.78.38-2.55,0-.59-.53-5.91-3.68-7.65A2.46,2.46,0,0,0,285.9,254.25Z" transform="translate(-56.19 -89.21)" style="fill:#263238"></path><line x1="214.84" y1="247.81" x2="218.48" y2="262.05" style="fill:#fff"></line><path d="M274.67,351.76a.5.5,0,0,1-.48-.37l-3.64-14.25a.5.5,0,0,1,.36-.61.51.51,0,0,1,.61.36l3.64,14.25a.5.5,0,0,1-.36.61Z" transform="translate(-56.19 -89.21)" style="fill:#263238"></path><line x1="210.21" y1="249.39" x2="208.56" y2="259.12" style="fill:#fff"></line><path d="M264.75,348.83h-.08a.49.49,0,0,1-.41-.58l1.65-9.72a.51.51,0,0,1,.58-.41.51.51,0,0,1,.41.58l-1.66,9.72A.49.49,0,0,1,264.75,348.83Z" transform="translate(-56.19 -89.21)" style="fill:#263238"></path><polygon points="222.07 263.24 226.54 289.4 219.53 292.35 222.07 263.24" style="fill:#fff"></polygon><path d="M275.72,382.06a.54.54,0,0,1-.3-.1.49.49,0,0,1-.2-.45l2.54-29.1a.51.51,0,0,1,.48-.46.51.51,0,0,1,.51.42l4.47,26.16a.5.5,0,0,1-.3.54l-7,2.95A.65.65,0,0,1,275.72,382.06Zm2.7-25.7-2.13,24.41,5.88-2.47Z" transform="translate(-56.19 -89.21)" style="fill:#263238"></path><polygon points="205.31 258.24 222.07 263.24 219.53 292.35 199.91 283.24 205.31 258.24" style="fill:#fff"></polygon><path d="M275.72,382.06a.54.54,0,0,1-.22-.05l-19.61-9.11a.49.49,0,0,1-.28-.56l5.4-25a.53.53,0,0,1,.23-.33.56.56,0,0,1,.4,0l16.76,5a.49.49,0,0,1,.35.52l-2.54,29.11a.49.49,0,0,1-.24.39A.59.59,0,0,1,275.72,382.06Zm-19.05-9.9,18.61,8.64,2.44-28-15.85-4.72Z" transform="translate(-56.19 -89.21)" style="fill:#263238"></path></g></svg>