<?xml version="1.0" encoding="UTF-8" standalone="no"?>
<svg
   xmlns:dc="http://purl.org/dc/elements/1.1/"
   xmlns:cc="http://creativecommons.org/ns#"
   xmlns:rdf="http://www.w3.org/1999/02/22-rdf-syntax-ns#"
   xmlns:svg="http://www.w3.org/2000/svg"
   xmlns="http://www.w3.org/2000/svg"
   xmlns:sodipodi="http://sodipodi.sourceforge.net/DTD/sodipodi-0.dtd"
   xmlns:inkscape="http://www.inkscape.org/namespaces/inkscape"
   width="2000"
   height="1000"
   viewBox="0 0 154.2048 77.1024"
   version="1.1"
   id="svg12"
   sodipodi:docname="wifi-standard-for-wireless-fidelity.svg"
   inkscape:version="0.92.4 (5da689c313, 2019-01-14)">
  <metadata
     id="metadata18">
    <rdf:RDF>
      <cc:Work
         rdf:about="">
        <dc:format>image/svg+xml</dc:format>
        <dc:type
           rdf:resource="http://purl.org/dc/dcmitype/StillImage" />
        <dc:title></dc:title>
      </cc:Work>
    </rdf:RDF>
  </metadata>
  <defs
     id="defs16">
    <clipPath
       clipPathUnits="userSpaceOnUse"
       id="clipPath842">
      <rect
         style="opacity:1;fill:#ff00ff;fill-opacity:1;stroke:none;stroke-width:0.02914106;stroke-linecap:square;stroke-linejoin:miter;stroke-miterlimit:4;stroke-dasharray:none;stroke-opacity:1;paint-order:markers fill stroke"
         id="rect844"
         width="136.29907"
         height="65.550613"
         x="26.855539"
         y="40.863388" />
    </clipPath>
    <clipPath
       clipPathUnits="userSpaceOnUse"
       id="clipPath846">
      <rect
         style="opacity:1;fill:#ff00ff;fill-opacity:1;stroke:none;stroke-width:0.02914106;stroke-linecap:square;stroke-linejoin:miter;stroke-miterlimit:4;stroke-dasharray:none;stroke-opacity:1;paint-order:markers fill stroke"
         id="rect848"
         width="136.29907"
         height="65.550613"
         x="26.855539"
         y="40.863388" />
    </clipPath>
    <clipPath
       clipPathUnits="userSpaceOnUse"
       id="clipPath850">
      <rect
         style="opacity:1;fill:#ff00ff;fill-opacity:1;stroke:none;stroke-width:0.02914106;stroke-linecap:square;stroke-linejoin:miter;stroke-miterlimit:4;stroke-dasharray:none;stroke-opacity:1;paint-order:markers fill stroke"
         id="rect852"
         width="136.29907"
         height="65.550613"
         x="26.855539"
         y="40.863388" />
    </clipPath>
    <clipPath
       clipPathUnits="userSpaceOnUse"
       id="clipPath854">
      <rect
         style="opacity:1;fill:#ff00ff;fill-opacity:1;stroke:none;stroke-width:0.02914106;stroke-linecap:square;stroke-linejoin:miter;stroke-miterlimit:4;stroke-dasharray:none;stroke-opacity:1;paint-order:markers fill stroke"
         id="rect856"
         width="136.29907"
         height="65.550613"
         x="26.855539"
         y="40.863388" />
    </clipPath>
  </defs>
  <sodipodi:namedview
     pagecolor="#ffffff"
     bordercolor="#666666"
     borderopacity="1"
     objecttolerance="10"
     gridtolerance="10"
     guidetolerance="10"
     inkscape:pageopacity="0"
     inkscape:pageshadow="2"
     inkscape:window-width="1366"
     inkscape:window-height="705"
     id="namedview14"
     showgrid="false"
     inkscape:snap-global="false"
     inkscape:zoom="0.0944"
     inkscape:cx="1612.8253"
     inkscape:cy="1002.2965"
     inkscape:window-x="-8"
     inkscape:window-y="-8"
     inkscape:window-maximized="1"
     inkscape:current-layer="svg12" />
  <g
     id="g864"
     transform="translate(-18.785543,-34.794091)">
    <path
       transform="matrix(1.030145,0,0,1.0560735,-2.9039227,-4.3885958)"
       style="clip-rule:evenodd;fill:#000000;fill-rule:evenodd"
       inkscape:connector-curvature="0"
       id="path858"
       d="m 38.554,119.958 v 11.389 H 36.1 v -11.389 h -2.849 v -2.355 h 8.15 v 2.355 z m 9.071,11.389 v -6.675 c 0,-1.276 -0.157,-1.689 -0.981,-1.689 -0.511,0 -1.101,0.451 -1.375,0.864 v 7.5 h -2.317 v -13.155 l 2.317,-1.159 v 4.713 c 0.511,-0.55 1.179,-0.923 1.925,-0.923 2.199,0 2.749,1.355 2.749,3.771 v 6.754 h -2.318 z m 9.446,-6.186 h -2.926 c 0.119,-1.511 0.589,-2.257 1.453,-2.257 1.001,0 1.355,1.001 1.473,2.257 z m 2.317,1.041 c 0,-2.826 -1.178,-5.38 -3.77,-5.38 -2.238,0 -3.81,1.925 -3.81,5.38 0,3.181 1.395,5.361 3.947,5.361 1.355,0 2.534,-0.609 3.299,-1.865 l -1.648,-1.237 c -0.453,0.608 -0.786,0.903 -1.611,0.903 -0.902,0 -1.551,-0.707 -1.649,-2.298 h 5.204 a 13.8,13.8 0 0 0 0.038,-0.864 z m 10.17,5.361 c -1.865,0 -3.16,-0.981 -4.103,-2.16 l 1.668,-1.786 c 0.826,1.06 1.709,1.57 2.534,1.57 1.021,0 1.532,-0.569 1.532,-1.493 0,-0.784 -0.492,-1.414 -2.102,-2.238 -2.041,-1.061 -3.279,-2.101 -3.279,-4.378 0,-2.062 1.532,-3.692 3.849,-3.692 1.708,0 2.769,0.688 3.75,1.964 l -1.628,1.63 c -0.806,-0.903 -1.237,-1.218 -2.181,-1.218 -0.784,0 -1.295,0.511 -1.295,1.197 0,0.825 0.471,1.336 1.963,2.142 2.376,1.276 3.417,2.219 3.417,4.535 0,2.277 -1.57,3.927 -4.125,3.927 z m 10.684,-0.451 a 3.64,3.64 0 0 1 -1.768,0.451 c -1.669,0 -2.493,-0.903 -2.493,-3.161 v -5.165 h -1.277 v -2.199 h 1.277 v -2.847 l 2.317,-1.159 v 4.006 h 2.081 v 2.199 h -2.081 v 5.105 c 0,0.766 0.294,1.021 0.844,1.021 0.451,0 0.923,-0.157 1.374,-0.49 z m 6.615,-2.474 c -0.294,0.49 -0.805,0.864 -1.355,0.864 -0.766,0 -1.179,-0.569 -1.179,-1.571 0,-0.864 0.472,-1.434 1.12,-1.434 0.707,0 1.04,0.177 1.414,0.491 z m 2.317,2.709 v -7.088 c 0,-2.258 -1.002,-3.437 -3.397,-3.437 -1.256,0 -2.238,0.354 -3.181,1.002 l 0.943,1.688 c 0.647,-0.432 1.217,-0.628 2.082,-0.628 0.922,0 1.237,0.549 1.237,1.275 v 0.785 c -0.452,-0.273 -0.826,-0.412 -1.728,-0.412 -1.827,0 -3.162,1.335 -3.162,3.437 0,2.22 1.236,3.594 3.044,3.594 0.668,0 1.375,-0.334 1.846,-0.922 v 0.705 h 2.316 z m 6.931,0 v -6.675 c 0,-1.276 -0.157,-1.689 -0.982,-1.689 -0.51,0 -1.099,0.451 -1.374,0.864 v 7.5 h -2.318 v -10.309 h 2.318 v 0.707 c 0.51,-0.55 1.178,-0.923 1.924,-0.923 2.2,0 2.749,1.355 2.749,3.771 v 6.754 z m 9.209,-2.807 c -0.273,0.412 -0.863,0.863 -1.434,0.863 -0.961,0 -1.197,-1.021 -1.197,-3.279 0,-2.395 0.334,-3.142 1.158,-3.142 0.648,0 1.158,0.433 1.473,0.884 z m 2.319,2.807 v -14.314 l -2.318,1.159 v 3.417 c -0.451,-0.472 -1.1,-0.786 -1.787,-0.786 -2.258,0 -3.199,2.239 -3.199,5.38 0,3.634 1.078,5.361 3.004,5.361 0.746,0 1.473,-0.373 1.982,-0.922 v 0.705 z m 6.695,-2.709 c -0.295,0.49 -0.805,0.864 -1.355,0.864 -0.766,0 -1.178,-0.569 -1.178,-1.571 0,-0.864 0.471,-1.434 1.119,-1.434 0.707,0 1.041,0.177 1.414,0.491 z m 2.317,2.709 v -7.088 c 0,-2.258 -1,-3.437 -3.396,-3.437 -1.256,0 -2.238,0.354 -3.182,1.002 l 0.943,1.688 c 0.648,-0.432 1.217,-0.628 2.08,-0.628 0.924,0 1.238,0.549 1.238,1.275 v 0.785 c -0.451,-0.273 -0.826,-0.412 -1.729,-0.412 -1.826,0 -3.162,1.335 -3.162,3.437 0,2.22 1.238,3.594 3.045,3.594 0.668,0 1.373,-0.334 1.846,-0.922 v 0.705 h 2.317 z m 7.421,-7.736 c -0.393,-0.314 -0.805,-0.511 -1.354,-0.511 -0.609,0 -1.102,0.314 -1.492,0.883 v 7.363 h -2.318 v -10.309 h 2.318 v 0.707 c 0.391,-0.451 1.117,-0.923 1.883,-0.923 0.689,0 1.141,0.177 1.631,0.53 z m 6.422,4.929 c -0.275,0.412 -0.865,0.863 -1.434,0.863 -0.963,0 -1.197,-1.021 -1.197,-3.279 0,-2.395 0.332,-3.142 1.158,-3.142 0.646,0 1.158,0.433 1.473,0.884 z m 2.319,2.807 v -14.314 l -2.318,1.159 v 3.417 c -0.453,-0.472 -1.1,-0.786 -1.787,-0.786 -2.258,0 -3.201,2.239 -3.201,5.38 0,3.634 1.08,5.361 3.006,5.361 0.744,0 1.471,-0.373 1.982,-0.922 v 0.705 z m 10.836,-12.155 c -0.646,0 -0.902,0.256 -0.902,1.002 v 0.844 h 1.65 v 2.199 h -1.65 v 8.109 h -2.316 v -8.109 h -1.041 v -2.199 h 1.041 v -1.237 c 0,-1.903 1.119,-2.709 2.514,-2.709 0.805,0 1.295,0.098 1.746,0.294 v 2.003 c -0.294,-0.137 -0.589,-0.197 -1.042,-0.197 z m 7.386,7.031 c 0,1.728 -0.434,3.142 -1.533,3.142 -1.119,0 -1.57,-1.256 -1.57,-3.181 0,-1.925 0.414,-3.162 1.533,-3.162 1.098,-0.001 1.57,1.295 1.57,3.201 z m 2.356,-0.039 c 0,-3.476 -1.59,-5.361 -3.889,-5.361 -2.316,0 -3.926,1.925 -3.926,5.4 0,3.475 1.59,5.341 3.906,5.341 2.299,-0.001 3.909,-1.905 3.909,-5.38 z m 7.129,-2.573 c -0.395,-0.314 -0.807,-0.511 -1.355,-0.511 -0.609,0 -1.1,0.314 -1.492,0.883 v 7.363 h -2.316 v -10.309 h 2.316 v 0.707 c 0.393,-0.451 1.119,-0.923 1.885,-0.923 0.688,0 1.139,0.177 1.629,0.53 z m -117.02,28.227 h -2.121 l -1.157,-5.773 a 60.328,60.328 0 0 1 -0.609,-3.456 58.96,58.96 0 0 1 -0.608,3.456 l -1.158,5.773 H 35.779 L 33.56,138.092 h 2.316 l 0.668,5.125 c 0.138,1.001 0.334,2.945 0.432,3.889 0.118,-0.943 0.451,-2.888 0.647,-3.889 l 1.001,-5.125 h 2.023 l 1.002,5.125 c 0.197,1.001 0.549,2.945 0.667,3.889 0.098,-0.943 0.294,-2.888 0.433,-3.889 l 0.667,-5.125 h 2.298 z m 4.828,-11.311 a 1.484,1.484 0 0 1 -1.472,-1.473 c 0,-0.806 0.668,-1.474 1.472,-1.474 0.806,0 1.473,0.668 1.473,1.474 0,0.805 -0.667,1.473 -1.473,1.473 z m -1.157,1.001 h 2.316 v 10.31 h -2.316 z m 9.737,2.574 c -0.392,-0.315 -0.804,-0.512 -1.354,-0.512 -0.609,0 -1.099,0.313 -1.493,0.884 v 7.364 h -2.317 v -10.31 h 2.317 v 0.707 c 0.394,-0.451 1.12,-0.923 1.885,-0.923 0.687,0 1.14,0.177 1.63,0.53 z m 6.366,1.55 h -2.926 c 0.118,-1.513 0.59,-2.259 1.453,-2.259 1.001,0.001 1.355,1.003 1.473,2.259 z m 2.316,1.04 c 0,-2.827 -1.178,-5.38 -3.769,-5.38 -2.239,0 -3.81,1.924 -3.81,5.38 0,3.181 1.395,5.362 3.947,5.362 1.354,0 2.533,-0.609 3.298,-1.867 l -1.648,-1.236 c -0.452,0.608 -0.787,0.903 -1.611,0.903 -0.903,0 -1.551,-0.707 -1.649,-2.298 h 5.204 a 13.8,13.8 0 0 0 0.038,-0.864 z m 1.866,5.146 v -13.156 l 2.318,-1.16 v 14.316 z m 9.445,-6.186 h -2.926 c 0.118,-1.513 0.589,-2.259 1.453,-2.259 1.002,0.001 1.355,1.003 1.473,2.259 z m 2.316,1.04 c 0,-2.827 -1.177,-5.38 -3.77,-5.38 -2.24,0 -3.81,1.924 -3.81,5.38 0,3.181 1.394,5.362 3.947,5.362 1.354,0 2.532,-0.609 3.299,-1.867 l -1.65,-1.236 c -0.451,0.608 -0.785,0.903 -1.609,0.903 -0.904,0 -1.552,-0.707 -1.65,-2.298 h 5.203 c 0.022,-0.275 0.04,-0.587 0.04,-0.864 z m 4.514,5.363 c -1.275,0 -2.297,-0.354 -3.259,-1.12 l 0.825,-1.983 c 0.865,0.608 1.651,0.903 2.475,0.903 0.727,0 1.08,-0.334 1.08,-0.845 0,-0.569 -0.413,-0.844 -1.865,-1.551 -1.492,-0.728 -2.238,-1.59 -2.238,-3.182 0,-1.846 1.335,-2.965 3.181,-2.965 1.08,0 1.983,0.314 2.906,0.942 l -0.805,1.885 c -0.884,-0.471 -1.414,-0.629 -2.161,-0.629 -0.529,0 -0.863,0.296 -0.863,0.707 0,0.452 0.314,0.747 1.728,1.414 1.513,0.727 2.376,1.571 2.376,3.182 -0.002,2.122 -1.415,3.242 -3.38,3.242 z m 8.01,0 c -1.275,0 -2.297,-0.354 -3.259,-1.12 l 0.825,-1.983 c 0.864,0.608 1.65,0.903 2.474,0.903 0.728,0 1.081,-0.334 1.081,-0.845 0,-0.569 -0.413,-0.844 -1.866,-1.551 -1.493,-0.728 -2.239,-1.59 -2.239,-3.182 0,-1.846 1.335,-2.965 3.182,-2.965 1.08,0 1.982,0.314 2.905,0.942 l -0.804,1.885 c -0.885,-0.471 -1.415,-0.629 -2.161,-0.629 -0.53,0 -0.864,0.296 -0.864,0.707 0,0.452 0.314,0.747 1.728,1.414 1.512,0.727 2.376,1.571 2.376,3.182 0,2.122 -1.414,3.242 -3.378,3.242 z m 12.429,-11.587 v 3.043 h 3.221 v 2.377 h -3.221 v 5.95 h -2.453 v -13.746 h 7.244 v 2.376 z m 7.717,0.059 a 1.484,1.484 0 0 1 -1.473,-1.473 c 0,-0.806 0.668,-1.474 1.473,-1.474 0.807,0 1.475,0.668 1.475,1.474 a 1.485,1.485 0 0 1 -1.475,1.473 z m -1.158,1.001 h 2.316 v 10.31 h -2.316 z m 9.209,7.502 c -0.273,0.412 -0.863,0.863 -1.434,0.863 -0.961,0 -1.197,-1.021 -1.197,-3.279 0,-2.396 0.334,-3.143 1.158,-3.143 0.648,0 1.158,0.432 1.473,0.885 z m 2.318,2.808 v -14.315 l -2.318,1.159 v 3.417 c -0.451,-0.472 -1.1,-0.786 -1.787,-0.786 -2.258,0 -3.201,2.237 -3.201,5.38 0,3.633 1.08,5.362 3.006,5.362 0.746,0 1.473,-0.374 1.982,-0.924 v 0.707 z m 7.029,-6.186 h -2.926 c 0.117,-1.513 0.588,-2.259 1.451,-2.259 1.003,0.001 1.356,1.003 1.475,2.259 z m 2.317,1.04 c 0,-2.827 -1.178,-5.38 -3.77,-5.38 -2.238,0 -3.811,1.924 -3.811,5.38 0,3.181 1.395,5.362 3.947,5.362 1.355,0 2.533,-0.609 3.299,-1.867 l -1.648,-1.236 c -0.453,0.608 -0.787,0.903 -1.609,0.903 -0.904,0 -1.553,-0.707 -1.65,-2.298 h 5.203 c 0.021,-0.275 0.039,-0.587 0.039,-0.864 z m 1.865,5.146 v -13.156 l 2.318,-1.16 v 14.316 z m 5.832,-11.311 a 1.482,1.482 0 0 1 -1.471,-1.473 c 0,-0.806 0.666,-1.474 1.471,-1.474 0.805,0 1.473,0.668 1.473,1.474 0,0.805 -0.668,1.473 -1.473,1.473 z m -1.158,1.001 h 2.316 v 10.31 h -2.316 z m 9.523,10.074 c -0.51,0.275 -1.08,0.453 -1.768,0.453 -1.668,0 -2.494,-0.905 -2.494,-3.163 v -5.164 h -1.277 v -2.199 h 1.277 v -2.847 l 2.316,-1.159 v 4.006 h 2.082 v 2.199 h -2.082 v 5.105 c 0,0.767 0.295,1.021 0.846,1.021 0.451,0 0.922,-0.158 1.375,-0.491 z m 5.422,3.868 h -2.141 l 1.041,-3.809 -3.064,-10.133 h 2.436 l 0.961,3.849 c 0.256,1.022 0.648,2.729 0.748,3.319 0.098,-0.59 0.451,-2.338 0.666,-3.3 l 0.865,-3.868 h 2.414 z m 5.516,-3.415 c -0.883,0 -1.629,-0.747 -1.629,-1.631 0,-0.884 0.746,-1.63 1.629,-1.63 0.885,0 1.629,0.746 1.629,1.63 0,0.884 -0.745,1.631 -1.629,1.631 z m 7.146,-103.076 h -1.793 v -1.214 h 4.947 v 1.214 h -1.792 v 5.606 h -1.362 z m 9.944,1.051 h -0.018 l -1.822,4.555 h -0.762 l -1.822,-4.464 h -0.018 v 4.464 h -1.306 v -6.82 h 1.55 l 1.975,4.639 1.978,-4.639 h 1.549 v 6.82 h -1.304 z m -35.245,53.311 c 12.439,0 22.562,-10.123 22.562,-22.562 V 67.184 c 0,-12.44 -10.123,-22.568 -22.562,-22.568 H 52.072 c -12.441,0 -22.563,10.128 -22.563,22.568 v 13.595 c 0,12.439 10.122,22.562 22.563,22.562 z"
       clip-path="url(#clipPath850)" />
    <path
       clip-path="url(#clipPath850)"
       d="m 38.554,119.958 v 11.389 H 36.1 v -11.389 h -2.849 v -2.355 h 8.15 v 2.355 z m 9.071,11.389 v -6.675 c 0,-1.276 -0.157,-1.689 -0.981,-1.689 -0.511,0 -1.101,0.451 -1.375,0.864 v 7.5 h -2.317 v -13.155 l 2.317,-1.159 v 4.713 c 0.511,-0.55 1.179,-0.923 1.925,-0.923 2.199,0 2.749,1.355 2.749,3.771 v 6.754 h -2.318 z m 9.446,-6.186 h -2.926 c 0.119,-1.511 0.589,-2.257 1.453,-2.257 1.001,0 1.355,1.001 1.473,2.257 z m 2.317,1.041 c 0,-2.826 -1.178,-5.38 -3.77,-5.38 -2.238,0 -3.81,1.925 -3.81,5.38 0,3.181 1.395,5.361 3.947,5.361 1.355,0 2.534,-0.609 3.299,-1.865 l -1.648,-1.237 c -0.453,0.608 -0.786,0.903 -1.611,0.903 -0.902,0 -1.551,-0.707 -1.649,-2.298 h 5.204 a 13.8,13.8 0 0 0 0.038,-0.864 z m 10.17,5.361 c -1.865,0 -3.16,-0.981 -4.103,-2.16 l 1.668,-1.786 c 0.826,1.06 1.709,1.57 2.534,1.57 1.021,0 1.532,-0.569 1.532,-1.493 0,-0.784 -0.492,-1.414 -2.102,-2.238 -2.041,-1.061 -3.279,-2.101 -3.279,-4.378 0,-2.062 1.532,-3.692 3.849,-3.692 1.708,0 2.769,0.688 3.75,1.964 l -1.628,1.63 c -0.806,-0.903 -1.237,-1.218 -2.181,-1.218 -0.784,0 -1.295,0.511 -1.295,1.197 0,0.825 0.471,1.336 1.963,2.142 2.376,1.276 3.417,2.219 3.417,4.535 0,2.277 -1.57,3.927 -4.125,3.927 z m 10.684,-0.451 a 3.64,3.64 0 0 1 -1.768,0.451 c -1.669,0 -2.493,-0.903 -2.493,-3.161 v -5.165 h -1.277 v -2.199 h 1.277 v -2.847 l 2.317,-1.159 v 4.006 h 2.081 v 2.199 h -2.081 v 5.105 c 0,0.766 0.294,1.021 0.844,1.021 0.451,0 0.923,-0.157 1.374,-0.49 z m 6.615,-2.474 c -0.294,0.49 -0.805,0.864 -1.355,0.864 -0.766,0 -1.179,-0.569 -1.179,-1.571 0,-0.864 0.472,-1.434 1.12,-1.434 0.707,0 1.04,0.177 1.414,0.491 z m 2.317,2.709 v -7.088 c 0,-2.258 -1.002,-3.437 -3.397,-3.437 -1.256,0 -2.238,0.354 -3.181,1.002 l 0.943,1.688 c 0.647,-0.432 1.217,-0.628 2.082,-0.628 0.922,0 1.237,0.549 1.237,1.275 v 0.785 c -0.452,-0.273 -0.826,-0.412 -1.728,-0.412 -1.827,0 -3.162,1.335 -3.162,3.437 0,2.22 1.236,3.594 3.044,3.594 0.668,0 1.375,-0.334 1.846,-0.922 v 0.705 h 2.316 z m 6.931,0 v -6.675 c 0,-1.276 -0.157,-1.689 -0.982,-1.689 -0.51,0 -1.099,0.451 -1.374,0.864 v 7.5 h -2.318 v -10.309 h 2.318 v 0.707 c 0.51,-0.55 1.178,-0.923 1.924,-0.923 2.2,0 2.749,1.355 2.749,3.771 v 6.754 z m 9.209,-2.807 c -0.273,0.412 -0.863,0.863 -1.434,0.863 -0.961,0 -1.197,-1.021 -1.197,-3.279 0,-2.395 0.334,-3.142 1.158,-3.142 0.648,0 1.158,0.433 1.473,0.884 z m 2.319,2.807 v -14.314 l -2.318,1.159 v 3.417 c -0.451,-0.472 -1.1,-0.786 -1.787,-0.786 -2.258,0 -3.199,2.239 -3.199,5.38 0,3.634 1.078,5.361 3.004,5.361 0.746,0 1.473,-0.373 1.982,-0.922 v 0.705 z m 6.695,-2.709 c -0.295,0.49 -0.805,0.864 -1.355,0.864 -0.766,0 -1.178,-0.569 -1.178,-1.571 0,-0.864 0.471,-1.434 1.119,-1.434 0.707,0 1.041,0.177 1.414,0.491 z m 2.317,2.709 v -7.088 c 0,-2.258 -1,-3.437 -3.396,-3.437 -1.256,0 -2.238,0.354 -3.182,1.002 l 0.943,1.688 c 0.648,-0.432 1.217,-0.628 2.08,-0.628 0.924,0 1.238,0.549 1.238,1.275 v 0.785 c -0.451,-0.273 -0.826,-0.412 -1.729,-0.412 -1.826,0 -3.162,1.335 -3.162,3.437 0,2.22 1.238,3.594 3.045,3.594 0.668,0 1.373,-0.334 1.846,-0.922 v 0.705 h 2.317 z m 7.421,-7.736 c -0.393,-0.314 -0.805,-0.511 -1.354,-0.511 -0.609,0 -1.102,0.314 -1.492,0.883 v 7.363 h -2.318 v -10.309 h 2.318 v 0.707 c 0.391,-0.451 1.117,-0.923 1.883,-0.923 0.689,0 1.141,0.177 1.631,0.53 z m 6.422,4.929 c -0.275,0.412 -0.865,0.863 -1.434,0.863 -0.963,0 -1.197,-1.021 -1.197,-3.279 0,-2.395 0.332,-3.142 1.158,-3.142 0.646,0 1.158,0.433 1.473,0.884 z m 2.319,2.807 v -14.314 l -2.318,1.159 v 3.417 c -0.453,-0.472 -1.1,-0.786 -1.787,-0.786 -2.258,0 -3.201,2.239 -3.201,5.38 0,3.634 1.08,5.361 3.006,5.361 0.744,0 1.471,-0.373 1.982,-0.922 v 0.705 z m 10.836,-12.155 c -0.646,0 -0.902,0.256 -0.902,1.002 v 0.844 h 1.65 v 2.199 h -1.65 v 8.109 h -2.316 v -8.109 h -1.041 v -2.199 h 1.041 v -1.237 c 0,-1.903 1.119,-2.709 2.514,-2.709 0.805,0 1.295,0.098 1.746,0.294 v 2.003 c -0.294,-0.137 -0.589,-0.197 -1.042,-0.197 z m 7.386,7.031 c 0,1.728 -0.434,3.142 -1.533,3.142 -1.119,0 -1.57,-1.256 -1.57,-3.181 0,-1.925 0.414,-3.162 1.533,-3.162 1.098,-0.001 1.57,1.295 1.57,3.201 z m 2.356,-0.039 c 0,-3.476 -1.59,-5.361 -3.889,-5.361 -2.316,0 -3.926,1.925 -3.926,5.4 0,3.475 1.59,5.341 3.906,5.341 2.299,-0.001 3.909,-1.905 3.909,-5.38 z m 7.129,-2.573 c -0.395,-0.314 -0.807,-0.511 -1.355,-0.511 -0.609,0 -1.1,0.314 -1.492,0.883 v 7.363 h -2.316 v -10.309 h 2.316 v 0.707 c 0.393,-0.451 1.119,-0.923 1.885,-0.923 0.688,0 1.139,0.177 1.629,0.53 z m -117.02,28.227 h -2.121 l -1.157,-5.773 a 60.328,60.328 0 0 1 -0.609,-3.456 58.96,58.96 0 0 1 -0.608,3.456 l -1.158,5.773 H 35.779 L 33.56,138.092 h 2.316 l 0.668,5.125 c 0.138,1.001 0.334,2.945 0.432,3.889 0.118,-0.943 0.451,-2.888 0.647,-3.889 l 1.001,-5.125 h 2.023 l 1.002,5.125 c 0.197,1.001 0.549,2.945 0.667,3.889 0.098,-0.943 0.294,-2.888 0.433,-3.889 l 0.667,-5.125 h 2.298 z m 4.828,-11.311 a 1.484,1.484 0 0 1 -1.472,-1.473 c 0,-0.806 0.668,-1.474 1.472,-1.474 0.806,0 1.473,0.668 1.473,1.474 0,0.805 -0.667,1.473 -1.473,1.473 z m -1.157,1.001 h 2.316 v 10.31 h -2.316 z m 9.737,2.574 c -0.392,-0.315 -0.804,-0.512 -1.354,-0.512 -0.609,0 -1.099,0.313 -1.493,0.884 v 7.364 h -2.317 v -10.31 h 2.317 v 0.707 c 0.394,-0.451 1.12,-0.923 1.885,-0.923 0.687,0 1.14,0.177 1.63,0.53 z m 6.366,1.55 h -2.926 c 0.118,-1.513 0.59,-2.259 1.453,-2.259 1.001,0.001 1.355,1.003 1.473,2.259 z m 2.316,1.04 c 0,-2.827 -1.178,-5.38 -3.769,-5.38 -2.239,0 -3.81,1.924 -3.81,5.38 0,3.181 1.395,5.362 3.947,5.362 1.354,0 2.533,-0.609 3.298,-1.867 l -1.648,-1.236 c -0.452,0.608 -0.787,0.903 -1.611,0.903 -0.903,0 -1.551,-0.707 -1.649,-2.298 h 5.204 a 13.8,13.8 0 0 0 0.038,-0.864 z m 1.866,5.146 v -13.156 l 2.318,-1.16 v 14.316 z m 9.445,-6.186 h -2.926 c 0.118,-1.513 0.589,-2.259 1.453,-2.259 1.002,0.001 1.355,1.003 1.473,2.259 z m 2.316,1.04 c 0,-2.827 -1.177,-5.38 -3.77,-5.38 -2.24,0 -3.81,1.924 -3.81,5.38 0,3.181 1.394,5.362 3.947,5.362 1.354,0 2.532,-0.609 3.299,-1.867 l -1.65,-1.236 c -0.451,0.608 -0.785,0.903 -1.609,0.903 -0.904,0 -1.552,-0.707 -1.65,-2.298 h 5.203 c 0.022,-0.275 0.04,-0.587 0.04,-0.864 z m 4.514,5.363 c -1.275,0 -2.297,-0.354 -3.259,-1.12 l 0.825,-1.983 c 0.865,0.608 1.651,0.903 2.475,0.903 0.727,0 1.08,-0.334 1.08,-0.845 0,-0.569 -0.413,-0.844 -1.865,-1.551 -1.492,-0.728 -2.238,-1.59 -2.238,-3.182 0,-1.846 1.335,-2.965 3.181,-2.965 1.08,0 1.983,0.314 2.906,0.942 l -0.805,1.885 c -0.884,-0.471 -1.414,-0.629 -2.161,-0.629 -0.529,0 -0.863,0.296 -0.863,0.707 0,0.452 0.314,0.747 1.728,1.414 1.513,0.727 2.376,1.571 2.376,3.182 -0.002,2.122 -1.415,3.242 -3.38,3.242 z m 8.01,0 c -1.275,0 -2.297,-0.354 -3.259,-1.12 l 0.825,-1.983 c 0.864,0.608 1.65,0.903 2.474,0.903 0.728,0 1.081,-0.334 1.081,-0.845 0,-0.569 -0.413,-0.844 -1.866,-1.551 -1.493,-0.728 -2.239,-1.59 -2.239,-3.182 0,-1.846 1.335,-2.965 3.182,-2.965 1.08,0 1.982,0.314 2.905,0.942 l -0.804,1.885 c -0.885,-0.471 -1.415,-0.629 -2.161,-0.629 -0.53,0 -0.864,0.296 -0.864,0.707 0,0.452 0.314,0.747 1.728,1.414 1.512,0.727 2.376,1.571 2.376,3.182 0,2.122 -1.414,3.242 -3.378,3.242 z m 12.429,-11.587 v 3.043 h 3.221 v 2.377 h -3.221 v 5.95 h -2.453 v -13.746 h 7.244 v 2.376 z m 7.717,0.059 a 1.484,1.484 0 0 1 -1.473,-1.473 c 0,-0.806 0.668,-1.474 1.473,-1.474 0.807,0 1.475,0.668 1.475,1.474 a 1.485,1.485 0 0 1 -1.475,1.473 z m -1.158,1.001 h 2.316 v 10.31 h -2.316 z m 9.209,7.502 c -0.273,0.412 -0.863,0.863 -1.434,0.863 -0.961,0 -1.197,-1.021 -1.197,-3.279 0,-2.396 0.334,-3.143 1.158,-3.143 0.648,0 1.158,0.432 1.473,0.885 z m 2.318,2.808 v -14.315 l -2.318,1.159 v 3.417 c -0.451,-0.472 -1.1,-0.786 -1.787,-0.786 -2.258,0 -3.201,2.237 -3.201,5.38 0,3.633 1.08,5.362 3.006,5.362 0.746,0 1.473,-0.374 1.982,-0.924 v 0.707 z m 7.029,-6.186 h -2.926 c 0.117,-1.513 0.588,-2.259 1.451,-2.259 1.003,0.001 1.356,1.003 1.475,2.259 z m 2.317,1.04 c 0,-2.827 -1.178,-5.38 -3.77,-5.38 -2.238,0 -3.811,1.924 -3.811,5.38 0,3.181 1.395,5.362 3.947,5.362 1.355,0 2.533,-0.609 3.299,-1.867 l -1.648,-1.236 c -0.453,0.608 -0.787,0.903 -1.609,0.903 -0.904,0 -1.553,-0.707 -1.65,-2.298 h 5.203 c 0.021,-0.275 0.039,-0.587 0.039,-0.864 z m 1.865,5.146 v -13.156 l 2.318,-1.16 v 14.316 z m 5.832,-11.311 a 1.482,1.482 0 0 1 -1.471,-1.473 c 0,-0.806 0.666,-1.474 1.471,-1.474 0.805,0 1.473,0.668 1.473,1.474 0,0.805 -0.668,1.473 -1.473,1.473 z m -1.158,1.001 h 2.316 v 10.31 h -2.316 z m 9.523,10.074 c -0.51,0.275 -1.08,0.453 -1.768,0.453 -1.668,0 -2.494,-0.905 -2.494,-3.163 v -5.164 h -1.277 v -2.199 h 1.277 v -2.847 l 2.316,-1.159 v 4.006 h 2.082 v 2.199 h -2.082 v 5.105 c 0,0.767 0.295,1.021 0.846,1.021 0.451,0 0.922,-0.158 1.375,-0.491 z m 5.422,3.868 h -2.141 l 1.041,-3.809 -3.064,-10.133 h 2.436 l 0.961,3.849 c 0.256,1.022 0.648,2.729 0.748,3.319 0.098,-0.59 0.451,-2.338 0.666,-3.3 l 0.865,-3.868 h 2.414 z m 5.516,-3.415 c -0.883,0 -1.629,-0.747 -1.629,-1.631 0,-0.884 0.746,-1.63 1.629,-1.63 0.885,0 1.629,0.746 1.629,1.63 0,0.884 -0.745,1.631 -1.629,1.631 z m 7.146,-103.076 h -1.793 v -1.214 h 4.947 v 1.214 h -1.792 v 5.606 h -1.362 z m 9.944,1.051 h -0.018 l -1.822,4.555 h -0.762 l -1.822,-4.464 h -0.018 v 4.464 h -1.306 v -6.82 h 1.55 l 1.975,4.639 1.978,-4.639 h 1.549 v 6.82 h -1.304 z m -35.245,53.311 c 12.439,0 22.562,-10.123 22.562,-22.562 V 67.184 c 0,-12.44 -10.123,-22.568 -22.562,-22.568 H 52.072 c -12.441,0 -22.563,10.128 -22.563,22.568 v 13.595 c 0,12.439 10.122,22.562 22.563,22.562 z"
       id="path4"
       inkscape:connector-curvature="0"
       style="clip-rule:evenodd;fill:#ffffff;fill-rule:evenodd" />
    <path
       clip-path="url(#clipPath846)"
       d="M 99.34,80.778 V 67.184 c 0,-10.048 8.172,-18.226 18.221,-18.226 h 22.881 c 10.045,0 18.217,8.178 18.217,18.226 v 13.595 c 0,10.043 -8.172,18.22 -18.217,18.22 H 90.063 C 95.683,94.89 99.34,88.255 99.34,80.778 Z M 69.6,87.836 H 62.094 L 60.75,81.46 C 59.788,76.931 58.909,71.429 58.739,69.3 58.566,71.428 57.687,76.931 56.725,81.46 L 55.38,87.836 H 47.956 L 40.949,58.472 h 8.389 l 0.798,4.901 c 0.675,4.16 1.472,9.272 1.762,12.755 0.339,-3.435 1.258,-8.519 2.183,-12.715 l 1.007,-4.941 h 7.467 l 1.009,4.941 c 0.918,4.196 1.841,9.28 2.182,12.715 0.291,-3.483 1.089,-8.595 1.762,-12.755 l 0.794,-4.901 h 8.308 z m 14.369,-23.62 c -2.475,0 -4.325,-1.432 -4.325,-3.729 0,-2.136 1.851,-3.654 4.325,-3.654 2.598,0 4.404,1.518 4.404,3.654 10e-4,2.297 -1.806,3.729 -4.404,3.729 z m -3.776,2.286 h 7.55 v 21.334 h -7.55 z"
       id="path6"
       inkscape:connector-curvature="0"
       style="clip-rule:evenodd;fill-rule:evenodd" />
    <path
       clip-path="url(#clipPath842)"
       d="m 117.689,65.389 v 6.561 h 15.625 v 6.892 h -15.625 v 8.994 h -8.101 V 58.472 h 25.392 v 6.917 z m 25.764,-1.173 c -2.469,0 -4.32,-1.432 -4.32,-3.729 0,-2.136 1.852,-3.654 4.32,-3.654 2.602,0 4.404,1.518 4.404,3.654 0,2.297 -1.802,3.729 -4.404,3.729 z m -3.773,2.286 h 7.549 v 21.334 h -7.549 z"
       id="path8"
       inkscape:connector-curvature="0"
       style="clip-rule:evenodd;fill:#ffffff;fill-rule:evenodd" />
  </g>
</svg>
