<?xml version="1.0" encoding="UTF-8" standalone="no"?>
<svg
   xmlns:dc="http://purl.org/dc/elements/1.1/"
   xmlns:cc="http://creativecommons.org/ns#"
   xmlns:rdf="http://www.w3.org/1999/02/22-rdf-syntax-ns#"
   xmlns:svg="http://www.w3.org/2000/svg"
   xmlns="http://www.w3.org/2000/svg"
   xmlns:sodipodi="http://sodipodi.sourceforge.net/DTD/sodipodi-0.dtd"
   xmlns:inkscape="http://www.inkscape.org/namespaces/inkscape"
   width="1000"
   height="1000"
   viewBox="0 0 264.58333 264.58334"
   version="1.1"
   id="svg8"
   sodipodi:docname="whatsapp.svg"
   inkscape:version="0.92.4 (5da689c313, 2019-01-14)">
  <sodipodi:namedview
     pagecolor="#ffffff"
     bordercolor="#666666"
     borderopacity="1"
     objecttolerance="10"
     gridtolerance="10"
     guidetolerance="10"
     inkscape:pageopacity="0"
     inkscape:pageshadow="2"
     inkscape:window-width="1366"
     inkscape:window-height="705"
     id="namedview10"
     showgrid="false"
     inkscape:zoom="0.236"
     inkscape:cx="500"
     inkscape:cy="634.23389"
     inkscape:window-x="-8"
     inkscape:window-y="-8"
     inkscape:window-maximized="1"
     inkscape:current-layer="layer2" />
  <defs
     id="defs2" />
  <metadata
     id="metadata5">
    <rdf:RDF>
      <cc:Work
         rdf:about="">
        <dc:format>image/svg+xml</dc:format>
        <dc:type
           rdf:resource="http://purl.org/dc/dcmitype/StillImage" />
        <dc:title></dc:title>
      </cc:Work>
    </rdf:RDF>
  </metadata>
  <g
     inkscape:groupmode="layer"
     id="layer1"
     inkscape:label="Fundo"
     style="display:inline"
     sodipodi:insensitive="true">
    <a
       id="a881">
      <g
         transform="matrix(2.2753914,0,0,-2.2753914,247.01897,137.13874)"
         id="g292">
        <path
           inkscape:connector-curvature="0"
           id="path294"
           style="fill:#3c3c3b;fill-opacity:1;fill-rule:nonzero;stroke:none"
           d="m 0,0 c 0,-34.839 -15.895,-49.094 -50.73,-49.094 -34.838,0 -50.733,14.255 -50.733,49.094 0,34.837 15.895,52.369 50.733,52.369 C -15.895,52.369 0,34.837 0,0" />
      </g>
    </a>
  </g>
  <g
     inkscape:groupmode="layer"
     id="layer2"
     inkscape:label="Ãcone"
     style="display:inline">
    <g
       id="g60"
       transform="matrix(1.9408167,0,0,-1.9408167,132.7444,192.04697)"
       style="fill:#ffffff">
      <path
         d="m 0,0 c -6.157,0 -11.888,1.829 -16.674,4.974 l -11.645,-3.702 3.787,11.166 c -3.627,4.957 -5.77,11.05 -5.77,17.628 0,0.986 0.052,1.956 0.144,2.916 1.484,15.217 14.441,27.155 30.159,27.155 15.911,0 28.991,-12.237 30.202,-27.72 0.06,-0.774 0.101,-1.558 0.101,-2.348 C 30.304,13.487 16.708,0 0,0 m 36.022,30.975 c -0.489,19.33 -16.42,34.856 -36.021,34.856 -19.376,0 -35.173,-15.17 -36.005,-34.19 -0.023,-0.525 -0.04,-1.048 -0.04,-1.578 0,-6.754 1.889,-13.072 5.171,-18.464 l -6.504,-19.192 19.956,6.342 c 5.166,-2.836 11.104,-4.45 17.422,-4.45 19.909,0 36.043,16.012 36.043,35.764 0,0.306 -0.014,0.606 -0.022,0.912"
         style="fill:#ffffff;fill-opacity:1;fill-rule:nonzero;stroke:none"
         id="path62"
         inkscape:connector-curvature="0" />
    </g>
    <g
       id="g64"
       transform="matrix(1.9408167,0,0,-1.9408167,164.78496,147.69639)"
       style="fill:#ffffff">
      <path
         d="M 0,0 C -0.884,0.439 -5.23,2.562 -6.041,2.85 -6.85,3.142 -7.44,3.289 -8.029,2.413 c -0.588,-0.879 -2.282,-2.852 -2.799,-3.434 -0.514,-0.586 -1.029,-0.662 -1.912,-0.223 -0.883,0.436 -3.731,1.364 -7.105,4.351 -2.627,2.324 -4.402,5.192 -4.914,6.071 -0.517,0.876 -0.054,1.349 0.386,1.787 0.4,0.392 0.884,1.024 1.326,1.534 0.131,0.149 0.229,0.286 0.32,0.421 0.218,0.325 0.356,0.629 0.565,1.042 0.295,0.585 0.146,1.097 -0.074,1.537 -0.22,0.438 -1.99,4.754 -2.723,6.509 -0.738,1.757 -1.472,1.461 -1.989,1.461 -0.516,0 -1.103,0.072 -1.693,0.072 -0.591,0 -1.547,-0.22 -2.357,-1.098 -0.809,-0.877 -3.093,-2.996 -3.093,-7.309 0,-1.018 0.182,-2.028 0.457,-2.986 0.89,-3.096 2.814,-5.635 3.153,-6.082 0.438,-0.581 6.111,-9.723 15.089,-13.235 8.986,-3.509 8.986,-2.339 10.607,-2.191 1.618,0.145 5.225,2.119 5.964,4.169 0.733,2.045 0.733,3.803 0.513,4.17 C 1.469,-0.658 0.882,-0.439 0,0"
         style="fill:#ffffff;fill-opacity:1;fill-rule:nonzero;stroke:none"
         id="path66"
         inkscape:connector-curvature="0" />
    </g>
  </g>
</svg>
