<?xml version="1.0" encoding="UTF-8" standalone="no"?>
<!DOCTYPE svg PUBLIC "-//W3C//DTD SVG 1.1//EN" "http://www.w3.org/Graphics/SVG/1.1/DTD/svg11.dtd">
<svg version="1.1" xmlns="http://www.w3.org/2000/svg" xmlns:xlink="http://www.w3.org/1999/xlink" preserveAspectRatio="xMidYMid meet" viewBox="0 0 640 640" width="640" height="640"><defs><path d="M579 165C590.05 165 599 156.05 599 145C599 140 599 100 599 95C599 83.95 590.05 75 579 75C527 75 111 75 59 75C47.95 75 39 83.95 39 95C39 100 39 140 39 145C39 156.05 47.95 165 59 165C163 165 527 165 579 165ZM579 365C590.05 365 599 356.05 599 345C599 340 599 300 599 295C599 283.95 590.05 275 579 275C527 275 111 275 59 275C47.95 275 39 283.95 39 295C39 300 39 340 39 345C39 356.05 47.95 365 59 365C163 365 527 365 579 365ZM579 565C590.05 565 599 556.05 599 545C599 540 599 500 599 495C599 483.95 590.05 475 579 475C527 475 111 475 59 475C47.95 475 39 483.95 39 495C39 500 39 540 39 545C39 556.05 47.95 565 59 565C163 565 527 565 579 565Z" id="a3jTJu7e1"></path></defs><g><g><g><use xlink:href="#a3jTJu7e1" opacity="1" fill="#f15000" fill-opacity="1"></use><g><use xlink:href="#a3jTJu7e1" opacity="1" fill-opacity="0" stroke="#000000" stroke-width="1" stroke-opacity="0"></use></g></g></g></g></svg>