<?xml version="1.0" encoding="UTF-8" standalone="no"?>
<!DOCTYPE svg PUBLIC "-//W3C//DTD SVG 1.1//EN" "http://www.w3.org/Graphics/SVG/1.1/DTD/svg11.dtd">
<svg version="1.1" xmlns="http://www.w3.org/2000/svg" xmlns:xlink="http://www.w3.org/1999/xlink" preserveAspectRatio="xMidYMid meet" viewBox="0 0 640 640" width="640" height="640"><defs><path d="M468.92 360L486.7 244.18L375.56 244.18C375.56 199.08 375.56 174.02 375.56 169.01C375.56 137.33 391.09 106.44 440.86 106.44C444.23 106.44 461.07 106.44 491.39 106.44C491.39 47.27 491.39 14.4 491.39 7.82C491.39 7.82 445.54 0 401.7 0C310.18 0 250.35 55.48 250.35 155.9C250.35 161.79 250.35 191.21 250.35 244.18L148.61 244.18L148.61 360L250.35 360L250.35 640L375.56 640L375.56 360L468.92 360Z" id="bhtY9RY9v"></path></defs><g><g><g><use xlink:href="#bhtY9RY9v" opacity="1" fill="#ff6f00" fill-opacity="1"></use><g><use xlink:href="#bhtY9RY9v" opacity="1" fill-opacity="0" stroke="#000000" stroke-width="1" stroke-opacity="0"></use></g></g></g></g></svg>