<?xml version="1.0" encoding="UTF-8" standalone="no"?>
<!DOCTYPE svg PUBLIC "-//W3C//DTD SVG 1.1//EN" "http://www.w3.org/Graphics/SVG/1.1/DTD/svg11.dtd">
<svg version="1.1" xmlns="http://www.w3.org/2000/svg" xmlns:xlink="http://www.w3.org/1999/xlink" preserveAspectRatio="xMidYMid meet" viewBox="0 0 640 640" width="640" height="640"><defs><path d="M528.49 194.91C543.84 179.56 543.84 154.68 528.49 139.31C525.71 136.53 503.47 114.29 500.69 111.51C485.34 96.16 460.45 96.16 445.09 111.51C436.75 119.85 395.05 161.55 320 236.6C244.95 161.55 203.25 119.85 194.91 111.51C179.56 96.16 154.68 96.16 139.31 111.51C136.53 114.29 114.29 136.53 111.51 139.31C96.16 154.66 96.16 179.55 111.51 194.91C119.85 203.25 161.55 244.95 236.6 320C161.55 395.05 119.85 436.75 111.51 445.09C96.16 460.44 96.16 485.33 111.51 500.69C114.29 503.47 136.53 525.71 139.31 528.49C154.66 543.84 179.56 543.84 194.91 528.49C203.25 520.15 244.95 478.45 320 403.4C395.05 478.45 436.75 520.15 445.09 528.49C460.44 543.84 485.34 543.84 500.69 528.49C503.47 525.71 525.71 503.47 528.49 500.69C543.84 485.34 543.84 460.45 528.49 445.09C520.15 436.75 478.45 395.05 403.4 320C478.45 244.95 520.15 203.25 528.49 194.91Z" id="e3LypkjYn"></path></defs><g><g><g><use xlink:href="#e3LypkjYn" opacity="1" fill="#f15000" fill-opacity="1"></use><g><use xlink:href="#e3LypkjYn" opacity="1" fill-opacity="0" stroke="#000000" stroke-width="1" stroke-opacity="0"></use></g></g></g></g></svg>