<?xml version="1.0" encoding="UTF-8" standalone="no"?>
<!DOCTYPE svg PUBLIC "-//W3C//DTD SVG 1.1//EN" "http://www.w3.org/Graphics/SVG/1.1/DTD/svg11.dtd">
<svg version="1.1" xmlns="http://www.w3.org/2000/svg" xmlns:xlink="http://www.w3.org/1999/xlink" preserveAspectRatio="xMidYMid meet" viewBox="0 0 640 640" width="640" height="640"><defs><path d="M389.2 324.45C389.2 434.21 315.6 512 204.8 512C98.72 512 12.8 426.09 12.8 320C12.8 213.92 98.72 128 204.8 128C256.66 128 299.88 146.86 333.41 178.29C328.2 183.3 286.5 223.32 281.29 228.32C267.14 214.7 242.26 198.72 204.8 198.72C139.32 198.72 85.88 252.94 85.88 320C85.88 387.06 139.32 441.28 204.8 441.28C280.76 441.28 309.31 386.53 313.77 358.5C306.5 358.5 270.18 358.5 204.8 358.5L204.8 292.5L386.06 292.5C388.16 305.42 389.2 316.07 389.2 324.45ZM571.47 243.2L515.47 243.2L515.47 298.93L459.73 298.93L459.73 354.93L515.47 354.93L515.47 410.67L571.47 410.67L571.47 354.93L627.2 354.93L627.2 298.93L571.47 298.93L571.47 243.2Z" id="h7EvDunEa"></path></defs><g><g><g><use xlink:href="#h7EvDunEa" opacity="1" fill="#f15000" fill-opacity="1"></use><g><use xlink:href="#h7EvDunEa" opacity="1" fill-opacity="0" stroke="#000000" stroke-width="1" stroke-opacity="0"></use></g></g></g></g></svg>