<?xml version="1.0" encoding="UTF-8" standalone="no"?>
<!DOCTYPE svg PUBLIC "-//W3C//DTD SVG 1.1//EN" "http://www.w3.org/Graphics/SVG/1.1/DTD/svg11.dtd">
<svg version="1.1" xmlns="http://www.w3.org/2000/svg" xmlns:xlink="http://www.w3.org/1999/xlink" preserveAspectRatio="xMidYMid meet" viewBox="0 0 640 640" width="640" height="640"><defs><path d="M176.5 319.88C176.5 399.38 240.63 463.5 320.13 463.5C399.63 463.5 463.75 399.38 463.75 319.88C463.75 240.38 399.63 176.25 320.13 176.25C240.63 176.25 176.5 240.38 176.5 319.88ZM226.75 319.88C226.75 268.38 268.63 226.5 320.12 226.5C371.62 226.5 413.5 268.38 413.5 319.88C413.5 371.38 371.5 413.25 320.12 413.25C268.75 413.25 226.75 371.38 226.75 319.88ZM469.63 203.88C451 203.88 436.13 188.88 436.13 170.38C436.13 151.88 451.13 136.88 469.63 136.88C488.13 136.88 503.13 151.88 503.13 170.38C503.13 189 488.13 203.88 469.63 203.88ZM553 87C520.25 54.25 480.5 44 435.63 41.75C389.38 39.12 250.75 39.12 204.5 41.75C159.75 43.87 120 54.12 87.12 86.88C54.25 119.63 44.12 159.38 41.87 204.25C39.25 250.5 39.25 389.13 41.87 435.38C44 480.25 54.25 520 87.12 552.75C120 585.5 159.63 595.75 204.5 598C250.75 600.63 389.38 600.63 435.63 598C480.5 595.88 520.25 585.63 553 552.75C585.75 520 596 480.25 598.25 435.38C600.88 389.13 600.88 250.63 598.25 204.38C596.13 159.5 585.88 119.75 553 87ZM485.25 538.25C448.38 552.88 360.88 549.5 320.13 549.5C279.38 549.5 191.75 552.75 155 538.25C130.5 528.5 111.63 509.63 101.75 485C87.13 448.13 90.5 360.63 90.5 319.88C90.5 279.13 87.25 191.5 101.75 154.75C111.5 130.25 130.38 111.38 155 101.5C191.88 86.88 279.38 90.25 320.13 90.25C360.88 90.25 448.5 87 485.25 101.5C509.75 111.25 528.63 130.13 538.5 154.75C553.13 191.63 549.75 279.13 549.75 319.88C549.75 360.63 553.13 448.25 538.5 485C528.75 509.5 509.88 528.38 485.25 538.25Z" id="d3bVXgTgR4"></path></defs><g><g><g><use xlink:href="#d3bVXgTgR4" opacity="1" fill="#f15000" fill-opacity="1"></use><g><use xlink:href="#d3bVXgTgR4" opacity="1" fill-opacity="0" stroke="#000000" stroke-width="1" stroke-opacity="0"></use></g></g></g></g></svg>