<?xml version="1.0" encoding="UTF-8" standalone="no"?>
<!DOCTYPE svg PUBLIC "-//W3C//DTD SVG 1.1//EN" "http://www.w3.org/Graphics/SVG/1.1/DTD/svg11.dtd">
<svg version="1.1" xmlns="http://www.w3.org/2000/svg" xmlns:xlink="http://www.w3.org/1999/xlink" preserveAspectRatio="xMidYMid meet" viewBox="0 0 640 640" width="640" height="640"><defs><path d="M165.35 560L49.25 560L49.25 186.13L165.35 186.13L165.35 560ZM40 67.25C40 30.12 70.1 0.01 107.24 0.01C144.37 0.01 174.47 30.12 174.48 67.25C174.48 104.38 144.35 135.13 107.24 135.13C70.11 135.13 40 104.38 40 67.25ZM599.88 560L484.03 560C484.02 450.8 484.02 390.13 484.03 378C484.03 334.63 483.15 279 423.66 279C363.3 279 354.05 326.13 354.05 374.88C354.05 387.22 354.05 448.92 354.05 560L238.07 560L238.07 186.13L349.42 186.13L349.42 237.13C350.4 237.12 350.94 237.12 351.05 237.13C366.55 207.75 404.41 176.75 460.9 176.75C578.4 176.75 600 254.12 600 354.63C600 368.32 600 436.78 600 560L599.88 560Z" id="f6ruqNluFT"></path></defs><g><g><g><use xlink:href="#f6ruqNluFT" opacity="1" fill="#f15000" fill-opacity="1"></use><g><use xlink:href="#f6ruqNluFT" opacity="1" fill-opacity="0" stroke="#000000" stroke-width="1" stroke-opacity="0"></use></g></g></g></g></svg>