<?xml version="1.0" encoding="UTF-8" standalone="no"?>
<!DOCTYPE svg PUBLIC "-//W3C//DTD SVG 1.1//EN" "http://www.w3.org/Graphics/SVG/1.1/DTD/svg11.dtd">
<svg version="1.1" xmlns="http://www.w3.org/2000/svg" xmlns:xlink="http://www.w3.org/1999/xlink" preserveAspectRatio="xMidYMid meet" viewBox="0 0 640 640" width="640" height="640"><defs><path d="M408.72 499.98C408.58 500.13 408.42 500.29 408.27 500.44C399.87 508.84 332.67 576.04 324.27 584.44C250.18 658.53 129.64 658.52 55.57 584.44C-18.52 510.36 -18.52 389.81 55.57 315.74C60.2 311.1 97.31 273.99 101.95 269.36C114.25 257.06 135.43 265.23 136.07 282.61C136.88 304.77 140.85 327.02 148.18 348.51C150.66 355.79 148.89 363.84 143.45 369.28C141.81 370.92 128.73 384 127.09 385.64C92.06 420.67 90.96 477.71 125.65 513.09C160.68 548.81 218.25 549.03 253.55 513.73C261.95 505.33 329.15 438.14 337.55 429.74C372.79 394.5 372.64 337.54 337.55 302.45C332.93 297.83 328.27 294.25 324.63 291.74C319.4 288.15 316.19 282.31 315.94 275.98C315.45 262.77 320.13 249.16 330.57 238.72C333.2 236.09 354.25 215.04 356.88 212.41C363.78 205.5 374.61 204.66 382.61 210.24C391.78 216.64 400.36 223.84 408.26 231.74C482.95 306.5 481.92 426.36 408.72 499.98ZM315.73 55.56C307.33 63.96 240.13 131.16 231.73 139.56C231.58 139.71 231.42 139.87 231.28 140.02C158.08 213.64 157.05 333.5 231.73 408.26C239.64 416.16 248.22 423.36 257.38 429.76C265.39 435.34 276.22 434.49 283.12 427.59C285.75 424.96 306.8 403.91 309.43 401.27C319.87 390.84 324.55 377.23 324.06 364.02C323.81 357.69 320.59 351.84 315.37 348.26C311.73 345.75 307.07 342.17 302.45 337.55C267.35 302.46 267.21 245.5 302.45 210.26C310.85 201.86 378.05 134.67 386.45 126.27C421.74 90.97 479.32 91.19 514.35 126.91C549.04 162.29 547.94 219.33 512.91 254.36C511.27 256 498.18 269.08 496.55 270.72C491.11 276.16 489.34 284.21 491.82 291.48C499.15 312.98 503.12 335.23 503.93 357.39C504.57 374.77 525.75 382.94 538.05 370.64C542.69 366 579.79 328.9 584.43 324.26C658.52 250.19 658.52 129.64 584.43 55.56C510.36 -18.52 389.82 -18.53 315.73 55.56Z" id="bqqmxaz1B"></path></defs><g><g><g><use xlink:href="#bqqmxaz1B" opacity="1" fill="#f15000" fill-opacity="1"></use><g><use xlink:href="#bqqmxaz1B" opacity="1" fill-opacity="0" stroke="#000000" stroke-width="1" stroke-opacity="0"></use></g></g></g></g></svg>