<?xml version="1.0" encoding="UTF-8" standalone="no"?>
<svg
   xmlns:dc="http://purl.org/dc/elements/1.1/"
   xmlns:cc="http://creativecommons.org/ns#"
   xmlns:rdf="http://www.w3.org/1999/02/22-rdf-syntax-ns#"
   xmlns:svg="http://www.w3.org/2000/svg"
   xmlns="http://www.w3.org/2000/svg"
   xmlns:sodipodi="http://sodipodi.sourceforge.net/DTD/sodipodi-0.dtd"
   xmlns:inkscape="http://www.inkscape.org/namespaces/inkscape"
   width="32"
   height="32"
   viewBox="0 0 32 32"
   version="1.1"
   id="svg5"
   sodipodi:docname="Loja.svg"
   inkscape:version="0.92.4 (5da689c313, 2019-01-14)">
  <metadata
     id="metadata11">
    <rdf:RDF>
      <cc:Work
         rdf:about="">
        <dc:format>image/svg+xml</dc:format>
        <dc:type
           rdf:resource="http://purl.org/dc/dcmitype/StillImage" />
        <dc:title></dc:title>
      </cc:Work>
    </rdf:RDF>
  </metadata>
  <defs
     id="defs9" />
  <sodipodi:namedview
     pagecolor="#ffffff"
     bordercolor="#666666"
     borderopacity="1"
     objecttolerance="10"
     gridtolerance="10"
     guidetolerance="10"
     inkscape:pageopacity="0"
     inkscape:pageshadow="2"
     inkscape:window-width="1366"
     inkscape:window-height="705"
     id="namedview7"
     showgrid="false"
     inkscape:zoom="10.429825"
     inkscape:cx="29.992565"
     inkscape:cy="9.3012792"
     inkscape:window-x="-8"
     inkscape:window-y="-8"
     inkscape:window-maximized="1"
     inkscape:current-layer="svg5" />
  <rect
     style="fill:none"
     y="0"
     x="0"
     height="32"
     width="32"
     data-name="Retângulo 57"
     id="Retângulo_57" />
  <g
     id="g886"
     transform="matrix(0.76672046,0,0,0.76672046,-21.305524,2.5443827)">
    <g
       style="fill:#dddddd;fill-opacity:1"
       id="g6"
       transform="matrix(0.06020566,0,0,0.06020566,33.614849,3.9199391)">
      <g
         style="fill:#dddddd;fill-opacity:1"
         id="g4">
        <path
           style="fill:#dddddd;fill-opacity:1"
           id="path2"
           d="m 341.333,204.425 c -30.466,22.376 -71.934,22.376 -102.4,0 -30.466,22.376 -71.934,22.376 -102.4,0 -30.172,23.257 -72.228,23.257 -102.4,0 0,0.137 0,0.239 0,0.375 v 221.867 c 0,28.277 22.923,51.2 51.2,51.2 h 85.333 V 290.133 c 0,-9.426 7.641,-17.067 17.067,-17.067 h 102.4 c 9.426,0 17.067,7.641 17.067,17.067 v 187.733 h 85.333 c 28.277,0 51.2,-22.923 51.2,-51.2 V 204.8 c 0,-0.137 0,-0.239 0,-0.375 -30.171,23.257 -72.228,23.257 -102.4,0 z"
           inkscape:connector-curvature="0" />
      </g>
    </g>
    <g
       style="fill:#dddddd;fill-opacity:1"
       id="g12"
       transform="matrix(0.06020566,0,0,0.06020566,33.614849,3.9199391)">
      <g
         style="fill:#dddddd;fill-opacity:1"
         id="g10">
        <path
           style="fill:#dddddd;fill-opacity:1"
           id="path8"
           d="m 34.133,136.533 c 0,28.277 22.923,51.2 51.2,51.2 14.759,-0.009 28.774,-6.483 38.349,-17.715 6.679,-7.097 17.848,-7.437 24.945,-0.757 0.26,0.245 0.513,0.497 0.757,0.757 18.976,21.18 51.529,22.965 72.709,3.989 1.402,-1.256 2.733,-2.587 3.989,-3.989 6.679,-7.097 17.848,-7.437 24.945,-0.757 0.26,0.245 0.513,0.497 0.757,0.757 18.977,21.18 51.529,22.965 72.709,3.989 1.401,-1.256 2.733,-2.587 3.989,-3.989 6.679,-7.097 17.848,-7.437 24.945,-0.757 0.26,0.245 0.513,0.497 0.757,0.757 9.575,11.232 23.589,17.706 38.349,17.715 28.277,0 51.2,-22.923 51.2,-51.2 z"
           inkscape:connector-curvature="0" />
      </g>
    </g>
    <g
       style="fill:#dddddd;fill-opacity:1"
       id="g18"
       transform="matrix(0.06020566,0,0,0.06020566,33.614849,3.9199391)">
      <g
         style="fill:#dddddd;fill-opacity:1"
         id="g16">
        <path
           style="fill:#dddddd;fill-opacity:1"
           id="path14"
           d="M 51.2,0 C 43.851,-0.002 37.326,4.701 35.004,11.674 L 4.762,102.4 H 119.467 V 0 Z"
           inkscape:connector-curvature="0" />
      </g>
    </g>
    <g
       style="fill:#dddddd;fill-opacity:1"
       id="g24"
       transform="matrix(0.06020566,0,0,0.06020566,33.614849,3.9199391)">
      <g
         style="fill:#dddddd;fill-opacity:1"
         id="g22">
        <rect
           style="fill:#dddddd;fill-opacity:1"
           id="rect20"
           height="102.4"
           width="68.266998"
           y="0"
           x="153.60001" />
      </g>
    </g>
    <g
       style="fill:#dddddd;fill-opacity:1"
       id="g30"
       transform="matrix(0.06020566,0,0,0.06020566,33.614849,3.9199391)">
      <g
         style="fill:#dddddd;fill-opacity:1"
         id="g28">
        <path
           style="fill:#dddddd;fill-opacity:1"
           id="path26"
           d="M 442.863,11.674 C 440.541,4.701 434.016,-0.002 426.667,0 H 358.4 v 102.4 h 114.705 z"
           inkscape:connector-curvature="0" />
      </g>
    </g>
    <g
       style="fill:#dddddd;fill-opacity:1"
       id="g36"
       transform="matrix(0.06020566,0,0,0.06020566,33.614849,3.9199391)">
      <g
         style="fill:#dddddd;fill-opacity:1"
         id="g34">
        <rect
           style="fill:#dddddd;fill-opacity:1"
           id="rect32"
           height="102.4"
           width="68.266998"
           y="0"
           x="256" />
      </g>
    </g>
  </g>
</svg>
