<?xml version="1.0" encoding="UTF-8" standalone="no"?>
<!DOCTYPE svg PUBLIC "-//W3C//DTD SVG 1.1//EN" "http://www.w3.org/Graphics/SVG/1.1/DTD/svg11.dtd">
<svg version="1.1" xmlns="http://www.w3.org/2000/svg" xmlns:xlink="http://www.w3.org/1999/xlink" preserveAspectRatio="xMidYMid meet" viewBox="0 0 640 640" width="640" height="640"><defs><path d="M320 630C288 630 257.25 625.13 228.25 616.13C240.88 595.5 259.75 561.75 266.75 534.88C270.5 520.38 286 461.13 286 461.13C296.13 480.37 325.63 496.75 357 496.75C450.5 496.75 517.88 410.75 517.88 303.87C517.88 201.5 434.25 124.87 326.75 124.87C193 124.87 121.88 214.63 121.88 312.5C121.88 358 146.13 414.63 184.75 432.62C190.63 435.37 193.75 434.12 195.13 428.5C196.13 424.25 201.38 403.12 203.75 393.37C204.5 390.25 204.13 387.5 201.63 384.5C189 368.87 178.75 340.37 178.75 313.75C178.75 245.37 230.5 179.25 318.75 179.25C394.88 179.25 448.25 231.12 448.25 305.37C448.25 389.25 405.88 447.37 350.75 447.37C320.38 447.37 297.5 422.25 304.88 391.37C313.63 354.5 330.5 314.75 330.5 288.12C330.5 264.37 317.75 244.5 291.25 244.5C260.13 244.5 235.13 276.62 235.13 319.75C235.13 347.25 244.38 365.75 244.38 365.75C244.38 365.75 213.75 495.5 208.13 519.75C201.88 546.5 204.38 584.25 207 608.75C91.75 563.63 10 451.38 10 320C10 148.75 148.75 10 320 10C491.25 10 630 148.75 630 320C630 491.25 491.25 630 320 630Z" id="a2d8SFMjJD"></path></defs><g><g><g><use xlink:href="#a2d8SFMjJD" opacity="1" fill="#f15000" fill-opacity="1"></use><g><use xlink:href="#a2d8SFMjJD" opacity="1" fill-opacity="0" stroke="#000000" stroke-width="1" stroke-opacity="0"></use></g></g></g></g></svg>