<?xml version="1.0" encoding="UTF-8" standalone="no"?>
<!DOCTYPE svg PUBLIC "-//W3C//DTD SVG 1.1//EN" "http://www.w3.org/Graphics/SVG/1.1/DTD/svg11.dtd">
<svg version="1.1" xmlns="http://www.w3.org/2000/svg" xmlns:xlink="http://www.w3.org/1999/xlink" preserveAspectRatio="xMidYMid meet" viewBox="0 0 640 640" width="640" height="640"><defs><path d="M233.92 584.14C222.2 595.86 203.2 595.86 191.49 584.14C188.66 581.31 165.99 558.64 163.16 555.81C151.46 544.11 151.44 525.16 163.11 513.43C175.94 500.54 240.12 436.06 355.63 320C240.12 203.94 175.94 139.46 163.11 126.57C151.44 114.84 151.46 95.89 163.16 84.19C165.99 81.36 188.66 58.69 191.49 55.86C203.21 44.14 222.2 44.14 233.92 55.86C258.21 80.15 452.55 274.49 476.84 298.79C488.56 310.5 488.56 329.5 476.85 341.21C428.26 389.8 258.21 559.85 233.92 584.14Z" id="aCXsGEsZ8"></path></defs><g><g><g><use xlink:href="#aCXsGEsZ8" opacity="1" fill="#f15000" fill-opacity="1"></use><g><use xlink:href="#aCXsGEsZ8" opacity="1" fill-opacity="0" stroke="#000000" stroke-width="1" stroke-opacity="0"></use></g></g></g></g></svg>