<?xml version="1.0" encoding="UTF-8" standalone="no"?>
<!DOCTYPE svg PUBLIC "-//W3C//DTD SVG 1.1//EN" "http://www.w3.org/Graphics/SVG/1.1/DTD/svg11.dtd">
<svg version="1.1" xmlns="http://www.w3.org/2000/svg" xmlns:xlink="http://www.w3.org/1999/xlink" preserveAspectRatio="xMidYMid meet" viewBox="0 0 640 640" width="640" height="640"><defs><path d="M574.62 206.7C574.62 380.1 442.64 579.9 201.42 579.9C127.11 579.9 58.07 558.37 0 521.02C10.56 522.23 20.71 522.64 31.68 522.64C92.99 522.64 149.44 501.93 194.52 466.6C136.85 465.38 88.53 427.61 71.88 375.63C80 376.85 88.12 377.66 96.65 377.66C108.43 377.66 120.2 376.04 131.17 373.2C71.07 361.01 25.99 308.22 25.99 244.47C25.99 244.3 25.99 243.01 25.99 242.84C43.45 252.59 63.76 258.68 85.28 259.49C49.95 235.94 26.8 195.74 26.8 150.25C26.8 125.89 33.3 103.55 44.67 84.06C109.24 163.65 206.29 215.63 315.13 221.32C313.1 211.57 311.88 201.42 311.88 191.27C311.88 118.98 370.35 60.1 443.04 60.1C480.81 60.1 514.92 75.94 538.88 101.52C568.53 95.84 596.95 84.87 622.13 69.85C612.38 100.31 591.67 125.89 564.47 142.13C590.86 139.29 616.45 131.98 640 121.83C622.13 147.82 599.8 170.96 574.21 189.64C574.62 195.33 574.62 201.02 574.62 206.7Z" id="aaMtaU2NP"></path></defs><g><g><g><use xlink:href="#aaMtaU2NP" opacity="1" fill="#f15000" fill-opacity="1"></use><g><use xlink:href="#aaMtaU2NP" opacity="1" fill-opacity="0" stroke="#000000" stroke-width="1" stroke-opacity="0"></use></g></g></g></g></svg>