<?xml version="1.0" encoding="UTF-8" standalone="no"?>
<!DOCTYPE svg PUBLIC "-//W3C//DTD SVG 1.1//EN" "http://www.w3.org/Graphics/SVG/1.1/DTD/svg11.dtd">
<svg version="1.1" xmlns="http://www.w3.org/2000/svg" xmlns:xlink="http://www.w3.org/1999/xlink" preserveAspectRatio="xMidYMid meet" viewBox="0 0 640 640" width="640" height="640"><defs><path d="M352 192C352 121.31 294.69 64 224 64C153.31 64 96 121.31 96 192C96 262.69 153.31 320 224 320C294.69 320 352 262.69 352 192ZM320 384C320.07 373.31 322.86 362.82 328.1 353.5C323.3 353 318.6 352 313.6 352C311.93 352 298.57 352 296.9 352C250.64 373.33 197.36 373.33 151.1 352C149.43 352 136.07 352 134.4 352C60.18 352.02 0.02 412.18 0 486.4C0 490.56 0 523.84 0 528C0 554.51 21.49 576 48 576C76.09 576 300.81 576 328.9 576C323.15 566.31 320.08 555.27 320 544C320 512 320 416 320 384ZM576 352C576 304 576 277.33 576 272C576 227.82 540.18 192 496 192C451.82 192 416 227.82 416 272C416 277.33 416 304 416 352C396.8 352 386.13 352 384 352C366.33 352 352 366.33 352 384C352 400 352 528 352 544C352 561.67 366.33 576 384 576C406.4 576 585.6 576 608 576C625.67 576 640 561.67 640 544C640 528 640 400 640 384C640 366.33 625.67 352 608 352C603.73 352 593.07 352 576 352ZM464 464C464 446.33 478.33 432 496 432C513.67 432 528 446.33 528 464C528 481.67 513.67 496 496 496C478.33 496 464 481.67 464 464ZM528 352L464 352C464 304 464 277.33 464 272C464 254.33 478.33 240 496 240C513.67 240 528 254.33 528 272C528 282.67 528 309.33 528 352Z" id="e20qUFdBAY"></path></defs><g><g><g><use xlink:href="#e20qUFdBAY" opacity="1" fill="#f15000" fill-opacity="1"></use><g><use xlink:href="#e20qUFdBAY" opacity="1" fill-opacity="0" stroke="#000000" stroke-width="1" stroke-opacity="0"></use></g></g></g></g></svg>