<?xml version="1.0" encoding="UTF-8" standalone="no"?>
<!DOCTYPE svg PUBLIC "-//W3C//DTD SVG 1.1//EN" "http://www.w3.org/Graphics/SVG/1.1/DTD/svg11.dtd">
<svg version="1.1" xmlns="http://www.w3.org/2000/svg" xmlns:xlink="http://www.w3.org/1999/xlink" preserveAspectRatio="xMidYMid meet" viewBox="0 0 640 640" width="640" height="640"><defs><path d="M557.08 119.43C509.76 106.67 320 106.67 320 106.67C320 106.67 130.24 106.67 82.92 119.43C56.81 126.45 36.25 147.15 29.27 173.43C16.59 221.06 16.59 320.43 16.59 320.43C16.59 320.43 16.59 419.81 29.27 467.44C36.25 493.71 56.81 513.55 82.92 520.57C130.24 533.33 320 533.33 320 533.33C320 533.33 509.76 533.33 557.08 520.57C583.19 513.55 603.75 493.71 610.73 467.44C623.41 419.81 623.41 320.43 623.41 320.43C623.41 320.43 623.41 221.06 610.73 173.43C603.75 147.15 583.19 126.45 557.08 119.43ZM257.94 230.21L416.54 320.43L257.94 410.66L257.94 230.21Z" id="k2cHu1Rx0G"></path></defs><g><g><g><use xlink:href="#k2cHu1Rx0G" opacity="1" fill="#f15000" fill-opacity="1"></use><g><use xlink:href="#k2cHu1Rx0G" opacity="1" fill-opacity="0" stroke="#000000" stroke-width="1" stroke-opacity="0"></use></g></g></g></g></svg>